<?xml version="1.0" encoding="utf-8"?>
<!-- Generator: Adobe Illustrator 19.1.0, SVG Export Plug-In . SVG Version: 6.00 Build 0)  -->
<svg version="1.1" id="Layer_1" xmlns="http://www.w3.org/2000/svg" xmlns:xlink="http://www.w3.org/1999/xlink" x="0px" y="0px"
	 viewBox="0 0 1000 1000" style="enable-background:new 0 0 1000 1000;" xml:space="preserve">
<path d="M817.8,717.4c0,0-91.7-39.2-122.2-100.7c23.2-6.5,46.2-14.7,68.9-24.8c0,0-86.2-46.4-114.5-100.5
	c31.6-6.3,59.5-14.1,72.3-23.5c-4.5,3.3-37.1-20.9-40.6-23.3c-14.9-10.5-28.6-22.7-40.8-36.3c-6.5-7.2-12.5-14.8-18.1-22.6
	c-1.9-2.7-12.1-20.3-12.2-20.3c-0.8-1.6-1.7-3.3-2.5-4.9c4.6-1.3,9.2-2.7,13.8-4.1c10.6-3.4,21.5-7.2,32.7-11.6
	c0,0-139.4-148.2-148.2-215.8c0,0-31.3,90.6-108.7,163.1c0.2,0.2,0.4,0.4,0.5,0.6c-6.2,5.1-12.3,10.3-18.5,15.4c0,0-0.1-0.1-0.1-0.1
	c-9.5,7.8-19.6,15.2-30.3,22.2c0,0,18.7,16.2,55,29.3c-33.2,37-86.4,87.6-128.4,86.7c0,0,19.8,30.8,99.8,49.9
	c-24,25.2-74.2,71.1-136.6,90.6c0,0,32.6,13,85.1,26c-24.3,23.9-102.7,98-143.9,101.7c0,0,132.6,67.8,279,72.8l-6.5,83.9h94.5
	L539,783C590.4,777.3,764,755.7,817.8,717.4z"/>
</svg>
