G04 #@! TF.GenerationSoftware,KiCad,Pcbnew,5.0.1*
G04 #@! TF.CreationDate,2018-12-05T15:45:31-06:00*
G04 #@! TF.ProjectId,chrimbus,636872696D6275732E6B696361645F70,rev?*
G04 #@! TF.SameCoordinates,Original*
G04 #@! TF.FileFunction,Soldermask,Bot*
G04 #@! TF.FilePolarity,Negative*
%FSLAX46Y46*%
G04 Gerber Fmt 4.6, Leading zero omitted, Abs format (unit mm)*
G04 Created by KiCad (PCBNEW 5.0.1) date Wed 05 Dec 2018 03:45:31 PM CST*
%MOMM*%
%LPD*%
G01*
G04 APERTURE LIST*
%ADD10C,0.100000*%
G04 APERTURE END LIST*
D10*
G36*
X165943734Y-121067232D02*
X166153202Y-121153996D01*
X166341723Y-121279962D01*
X166502038Y-121440277D01*
X166628004Y-121628798D01*
X166714768Y-121838266D01*
X166759000Y-122060635D01*
X166759000Y-122287365D01*
X166714768Y-122509734D01*
X166628004Y-122719202D01*
X166502038Y-122907723D01*
X166341723Y-123068038D01*
X166153202Y-123194004D01*
X165943734Y-123280768D01*
X165721365Y-123325000D01*
X165494635Y-123325000D01*
X165272266Y-123280768D01*
X165062798Y-123194004D01*
X164874277Y-123068038D01*
X164713962Y-122907723D01*
X164587996Y-122719202D01*
X164501232Y-122509734D01*
X164457000Y-122287365D01*
X164457000Y-122060635D01*
X164501232Y-121838266D01*
X164587996Y-121628798D01*
X164713962Y-121440277D01*
X164874277Y-121279962D01*
X165062798Y-121153996D01*
X165272266Y-121067232D01*
X165494635Y-121023000D01*
X165721365Y-121023000D01*
X165943734Y-121067232D01*
X165943734Y-121067232D01*
G37*
G36*
X179595331Y-114092211D02*
X179923092Y-114227974D01*
X180218073Y-114425074D01*
X180468926Y-114675927D01*
X180666026Y-114970908D01*
X180801789Y-115298669D01*
X180871000Y-115646616D01*
X180871000Y-116001384D01*
X180801789Y-116349331D01*
X180666026Y-116677092D01*
X180468926Y-116972073D01*
X180218073Y-117222926D01*
X179923092Y-117420026D01*
X179595331Y-117555789D01*
X179247384Y-117625000D01*
X178892616Y-117625000D01*
X178544669Y-117555789D01*
X178216908Y-117420026D01*
X177921927Y-117222926D01*
X177671074Y-116972073D01*
X177473974Y-116677092D01*
X177338211Y-116349331D01*
X177269000Y-116001384D01*
X177269000Y-115646616D01*
X177338211Y-115298669D01*
X177473974Y-114970908D01*
X177671074Y-114675927D01*
X177921927Y-114425074D01*
X178216908Y-114227974D01*
X178544669Y-114092211D01*
X178892616Y-114023000D01*
X179247384Y-114023000D01*
X179595331Y-114092211D01*
X179595331Y-114092211D01*
G37*
G36*
X179595331Y-109492211D02*
X179923092Y-109627974D01*
X180218073Y-109825074D01*
X180468926Y-110075927D01*
X180666026Y-110370908D01*
X180801789Y-110698669D01*
X180871000Y-111046616D01*
X180871000Y-111401384D01*
X180801789Y-111749331D01*
X180666026Y-112077092D01*
X180468926Y-112372073D01*
X180218073Y-112622926D01*
X179923092Y-112820026D01*
X179595331Y-112955789D01*
X179247384Y-113025000D01*
X178892616Y-113025000D01*
X178544669Y-112955789D01*
X178216908Y-112820026D01*
X177921927Y-112622926D01*
X177671074Y-112372073D01*
X177473974Y-112077092D01*
X177338211Y-111749331D01*
X177269000Y-111401384D01*
X177269000Y-111046616D01*
X177338211Y-110698669D01*
X177473974Y-110370908D01*
X177671074Y-110075927D01*
X177921927Y-109825074D01*
X178216908Y-109627974D01*
X178544669Y-109492211D01*
X178892616Y-109423000D01*
X179247384Y-109423000D01*
X179595331Y-109492211D01*
X179595331Y-109492211D01*
G37*
G36*
X183294721Y-89894174D02*
X183394995Y-89935709D01*
X183485245Y-89996012D01*
X183561988Y-90072755D01*
X183622291Y-90163005D01*
X183663826Y-90263279D01*
X183685000Y-90369730D01*
X183685000Y-90478270D01*
X183663826Y-90584721D01*
X183622291Y-90684995D01*
X183561988Y-90775245D01*
X183485245Y-90851988D01*
X183394995Y-90912291D01*
X183294721Y-90953826D01*
X183188270Y-90975000D01*
X183079730Y-90975000D01*
X182973279Y-90953826D01*
X182873005Y-90912291D01*
X182782755Y-90851988D01*
X182706012Y-90775245D01*
X182645709Y-90684995D01*
X182604174Y-90584721D01*
X182583000Y-90478270D01*
X182583000Y-90369730D01*
X182604174Y-90263279D01*
X182645709Y-90163005D01*
X182706012Y-90072755D01*
X182782755Y-89996012D01*
X182873005Y-89935709D01*
X182973279Y-89894174D01*
X183079730Y-89873000D01*
X183188270Y-89873000D01*
X183294721Y-89894174D01*
X183294721Y-89894174D01*
G37*
G36*
X178214721Y-88878174D02*
X178314995Y-88919709D01*
X178405245Y-88980012D01*
X178481988Y-89056755D01*
X178542291Y-89147005D01*
X178583826Y-89247279D01*
X178605000Y-89353730D01*
X178605000Y-89462270D01*
X178583826Y-89568721D01*
X178542291Y-89668995D01*
X178481988Y-89759245D01*
X178405245Y-89835988D01*
X178314995Y-89896291D01*
X178214721Y-89937826D01*
X178108270Y-89959000D01*
X177999730Y-89959000D01*
X177893279Y-89937826D01*
X177793005Y-89896291D01*
X177702755Y-89835988D01*
X177626012Y-89759245D01*
X177565709Y-89668995D01*
X177524174Y-89568721D01*
X177503000Y-89462270D01*
X177503000Y-89353730D01*
X177524174Y-89247279D01*
X177565709Y-89147005D01*
X177626012Y-89056755D01*
X177702755Y-88980012D01*
X177793005Y-88919709D01*
X177893279Y-88878174D01*
X177999730Y-88857000D01*
X178108270Y-88857000D01*
X178214721Y-88878174D01*
X178214721Y-88878174D01*
G37*
G36*
X183294721Y-87862174D02*
X183394995Y-87903709D01*
X183485245Y-87964012D01*
X183561988Y-88040755D01*
X183622291Y-88131005D01*
X183663826Y-88231279D01*
X183685000Y-88337730D01*
X183685000Y-88446270D01*
X183663826Y-88552721D01*
X183622291Y-88652995D01*
X183561988Y-88743245D01*
X183485245Y-88819988D01*
X183394995Y-88880291D01*
X183294721Y-88921826D01*
X183188270Y-88943000D01*
X183079730Y-88943000D01*
X182973279Y-88921826D01*
X182873005Y-88880291D01*
X182782755Y-88819988D01*
X182706012Y-88743245D01*
X182645709Y-88652995D01*
X182604174Y-88552721D01*
X182583000Y-88446270D01*
X182583000Y-88337730D01*
X182604174Y-88231279D01*
X182645709Y-88131005D01*
X182706012Y-88040755D01*
X182782755Y-87964012D01*
X182873005Y-87903709D01*
X182973279Y-87862174D01*
X183079730Y-87841000D01*
X183188270Y-87841000D01*
X183294721Y-87862174D01*
X183294721Y-87862174D01*
G37*
G36*
X165943734Y-74257232D02*
X166153202Y-74343996D01*
X166341723Y-74469962D01*
X166502038Y-74630277D01*
X166628004Y-74818798D01*
X166714768Y-75028266D01*
X166759000Y-75250635D01*
X166759000Y-75477365D01*
X166714768Y-75699734D01*
X166628004Y-75909202D01*
X166502038Y-76097723D01*
X166341723Y-76258038D01*
X166153202Y-76384004D01*
X165943734Y-76470768D01*
X165721365Y-76515000D01*
X165494635Y-76515000D01*
X165272266Y-76470768D01*
X165062798Y-76384004D01*
X164874277Y-76258038D01*
X164713962Y-76097723D01*
X164587996Y-75909202D01*
X164501232Y-75699734D01*
X164457000Y-75477365D01*
X164457000Y-75250635D01*
X164501232Y-75028266D01*
X164587996Y-74818798D01*
X164713962Y-74630277D01*
X164874277Y-74469962D01*
X165062798Y-74343996D01*
X165272266Y-74257232D01*
X165494635Y-74213000D01*
X165721365Y-74213000D01*
X165943734Y-74257232D01*
X165943734Y-74257232D01*
G37*
G36*
X167467734Y-56297232D02*
X167677202Y-56383996D01*
X167865723Y-56509962D01*
X168026038Y-56670277D01*
X168152004Y-56858798D01*
X168238768Y-57068266D01*
X168283000Y-57290635D01*
X168283000Y-57517365D01*
X168238768Y-57739734D01*
X168152004Y-57949202D01*
X168026038Y-58137723D01*
X167865723Y-58298038D01*
X167677202Y-58424004D01*
X167467734Y-58510768D01*
X167245365Y-58555000D01*
X167018635Y-58555000D01*
X166796266Y-58510768D01*
X166586798Y-58424004D01*
X166398277Y-58298038D01*
X166237962Y-58137723D01*
X166111996Y-57949202D01*
X166025232Y-57739734D01*
X165981000Y-57517365D01*
X165981000Y-57290635D01*
X166025232Y-57068266D01*
X166111996Y-56858798D01*
X166237962Y-56670277D01*
X166398277Y-56509962D01*
X166586798Y-56383996D01*
X166796266Y-56297232D01*
X167018635Y-56253000D01*
X167245365Y-56253000D01*
X167467734Y-56297232D01*
X167467734Y-56297232D01*
G37*
M02*
