G04 #@! TF.GenerationSoftware,KiCad,Pcbnew,5.0.1*
G04 #@! TF.CreationDate,2018-11-24T16:53:29-06:00*
G04 #@! TF.ProjectId,chrimbus,636872696D6275732E6B696361645F70,rev?*
G04 #@! TF.SameCoordinates,Original*
G04 #@! TF.FileFunction,Copper,L2,Bot,Signal*
G04 #@! TF.FilePolarity,Positive*
%FSLAX46Y46*%
G04 Gerber Fmt 4.6, Leading zero omitted, Abs format (unit mm)*
G04 Created by KiCad (PCBNEW 5.0.1) date Sat 24 Nov 2018 04:53:29 PM CST*
%MOMM*%
%LPD*%
G01*
G04 APERTURE LIST*
G04 #@! TA.AperFunction,ComponentPad*
%ADD10C,2.200000*%
G04 #@! TD*
G04 #@! TA.AperFunction,ComponentPad*
%ADD11C,3.000000*%
G04 #@! TD*
G04 #@! TA.AperFunction,ViaPad*
%ADD12C,0.800000*%
G04 #@! TD*
G04 #@! TA.AperFunction,Conductor*
%ADD13C,0.250000*%
G04 #@! TD*
G04 #@! TA.AperFunction,Conductor*
%ADD14C,0.254000*%
G04 #@! TD*
G04 APERTURE END LIST*
D10*
G04 #@! TO.P,BT1,2*
G04 #@! TO.N,GND*
X165608000Y-122174000D03*
G04 #@! TO.P,BT1,1*
G04 #@! TO.N,+1V5*
X165608000Y-75364000D03*
G04 #@! TD*
D11*
G04 #@! TO.P,SW1,1*
G04 #@! TO.N,+1V5*
X179070000Y-111224000D03*
G04 #@! TO.P,SW1,2*
G04 #@! TO.N,Net-(C1-Pad2)*
X179070000Y-115824000D03*
G04 #@! TD*
D12*
G04 #@! TO.N,Net-(C1-Pad2)*
X169037000Y-96012000D03*
G04 #@! TO.N,GND*
X163576000Y-85471000D03*
X162052000Y-90678000D03*
X169164000Y-88392000D03*
X180467000Y-91821000D03*
X183515000Y-95250000D03*
X161798000Y-103505000D03*
G04 #@! TO.N,+3V3*
X151511000Y-118110000D03*
X165735000Y-109728000D03*
X165735000Y-106680000D03*
G04 #@! TO.N,Net-(R12-Pad2)*
X137668000Y-115824000D03*
X143002000Y-111760000D03*
G04 #@! TO.N,/SCL*
X180340000Y-98933000D03*
X175895000Y-103886000D03*
G04 #@! TO.N,Net-(R5-Pad2)*
X146939000Y-86741000D03*
X160782000Y-104013000D03*
G04 #@! TO.N,Net-(R6-Pad2)*
X148082000Y-91186000D03*
X159893000Y-104775000D03*
G04 #@! TO.N,Net-(R7-Pad2)*
X157099000Y-106934000D03*
X160782000Y-106934000D03*
G04 #@! TO.N,Net-(R8-Pad2)*
X159295000Y-107696000D03*
X160782000Y-107950000D03*
G04 #@! TO.N,Net-(R9-Pad2)*
X152146000Y-97536000D03*
X149606000Y-97155000D03*
X159258000Y-109093000D03*
X161421653Y-109088347D03*
G04 #@! TO.N,Net-(R19-Pad2)*
X174752000Y-86360000D03*
X172339000Y-106680000D03*
G04 #@! TO.N,Net-(R18-Pad2)*
X171704000Y-83439000D03*
X171196000Y-107405000D03*
G04 #@! TO.N,Net-(R17-Pad2)*
X169545000Y-79248000D03*
X167259000Y-107188000D03*
G04 #@! TO.N,Net-(R16-Pad2)*
X175768000Y-114300000D03*
X175768000Y-112776000D03*
G04 #@! TO.N,Net-(R15-Pad2)*
X184658000Y-118618000D03*
X170688000Y-110490000D03*
G04 #@! TD*
D13*
G04 #@! TO.N,+1V5*
X181191320Y-111224000D02*
X185420000Y-106995320D01*
X179070000Y-111224000D02*
X181191320Y-111224000D01*
X171327002Y-75364000D02*
X165608000Y-75364000D01*
X185420000Y-89456998D02*
X171327002Y-75364000D01*
X185420000Y-106995320D02*
X185420000Y-89456998D01*
G04 #@! TO.N,Net-(C1-Pad2)*
X177570001Y-114324001D02*
X177570001Y-113308001D01*
X179070000Y-115824000D02*
X177570001Y-114324001D01*
X172392001Y-108130001D02*
X170233001Y-108130001D01*
X177570001Y-113308001D02*
X172392001Y-108130001D01*
X170233001Y-108130001D02*
X169037000Y-106934000D01*
X169037000Y-106934000D02*
X169037000Y-96012000D01*
G04 #@! TO.N,+3V3*
X165735000Y-109728000D02*
X165735000Y-106680000D01*
G04 #@! TO.N,Net-(R12-Pad2)*
X137668000Y-115824000D02*
X141732000Y-111760000D01*
X141732000Y-111760000D02*
X143002000Y-111760000D01*
G04 #@! TO.N,/SCL*
X180340000Y-98933000D02*
X175895000Y-103378000D01*
X175895000Y-103378000D02*
X175895000Y-103886000D01*
G04 #@! TO.N,Net-(R5-Pad2)*
X146939000Y-86741000D02*
X160782000Y-100584000D01*
X160782000Y-100584000D02*
X160782000Y-104013000D01*
G04 #@! TO.N,Net-(R6-Pad2)*
X148082000Y-91186000D02*
X159893000Y-102997000D01*
X159893000Y-102997000D02*
X159893000Y-104775000D01*
G04 #@! TO.N,Net-(R7-Pad2)*
X157099000Y-106934000D02*
X160782000Y-106934000D01*
G04 #@! TO.N,Net-(R8-Pad2)*
X159295000Y-107696000D02*
X160528000Y-107696000D01*
X160528000Y-107696000D02*
X160782000Y-107950000D01*
G04 #@! TO.N,Net-(R9-Pad2)*
X152146000Y-97536000D02*
X151003000Y-96393000D01*
X151003000Y-96393000D02*
X150368000Y-96393000D01*
X150368000Y-96393000D02*
X149606000Y-97155000D01*
X159258000Y-109093000D02*
X161417000Y-109093000D01*
X161417000Y-109093000D02*
X161421653Y-109088347D01*
G04 #@! TO.N,Net-(R19-Pad2)*
X174752000Y-86360000D02*
X172974000Y-88138000D01*
X172974000Y-88138000D02*
X172974000Y-106045000D01*
X172974000Y-106045000D02*
X172339000Y-106680000D01*
G04 #@! TO.N,Net-(R18-Pad2)*
X171704000Y-83439000D02*
X171196000Y-83947000D01*
X171196000Y-83947000D02*
X171196000Y-107405000D01*
G04 #@! TO.N,Net-(R17-Pad2)*
X169545000Y-79248000D02*
X167259000Y-81534000D01*
X167259000Y-81534000D02*
X167259000Y-107188000D01*
G04 #@! TO.N,Net-(R16-Pad2)*
X175768000Y-114300000D02*
X175768000Y-112776000D01*
G04 #@! TO.N,Net-(R15-Pad2)*
X184658000Y-118618000D02*
X178308000Y-118618000D01*
X178308000Y-118618000D02*
X170688000Y-110998000D01*
X170688000Y-110998000D02*
X170688000Y-110490000D01*
G04 #@! TD*
D14*
G04 #@! TO.N,GND*
G36*
X170534083Y-57614034D02*
X170843554Y-58435404D01*
X170843756Y-58436603D01*
X170869147Y-58503332D01*
X170894172Y-58569751D01*
X170894811Y-58570777D01*
X171174301Y-59305292D01*
X171174796Y-59308092D01*
X171200029Y-59372907D01*
X171224777Y-59437945D01*
X171226288Y-59440355D01*
X171499894Y-60143146D01*
X171500783Y-60147825D01*
X171526125Y-60210523D01*
X171550687Y-60273614D01*
X171553251Y-60277635D01*
X171819596Y-60936598D01*
X171820916Y-60942939D01*
X171846688Y-61003625D01*
X171871419Y-61064813D01*
X171874974Y-61070234D01*
X172134485Y-61681323D01*
X172136249Y-61688978D01*
X172162748Y-61747876D01*
X172188004Y-61807347D01*
X172192428Y-61813842D01*
X172447388Y-62380520D01*
X172449709Y-62389548D01*
X172477059Y-62446465D01*
X172502966Y-62504047D01*
X172508375Y-62511638D01*
X172761294Y-63037985D01*
X172764300Y-63048404D01*
X172792601Y-63103138D01*
X172819299Y-63158698D01*
X172825815Y-63167371D01*
X173079191Y-63657392D01*
X173083016Y-63669160D01*
X173112396Y-63721610D01*
X173140005Y-63775004D01*
X173147722Y-63784674D01*
X173404055Y-64242279D01*
X173408814Y-64255254D01*
X173439388Y-64305356D01*
X173468057Y-64356536D01*
X173477029Y-64367038D01*
X173738786Y-64795984D01*
X173744552Y-64809921D01*
X173776443Y-64857692D01*
X173806347Y-64906697D01*
X173816560Y-64917786D01*
X174086172Y-65321658D01*
X174092948Y-65336216D01*
X174126296Y-65381763D01*
X174157637Y-65428711D01*
X174168986Y-65440070D01*
X174448829Y-65822282D01*
X174456531Y-65837054D01*
X174491524Y-65880595D01*
X174524515Y-65925655D01*
X174536787Y-65936916D01*
X174829196Y-66300758D01*
X174837638Y-66315298D01*
X174874464Y-66357084D01*
X174909355Y-66400499D01*
X174922242Y-66411298D01*
X175229528Y-66759975D01*
X175238438Y-66773858D01*
X175277297Y-66814178D01*
X175314337Y-66856208D01*
X175327454Y-66866223D01*
X175651942Y-67202916D01*
X175660998Y-67215788D01*
X175702075Y-67254935D01*
X175741478Y-67295820D01*
X175754409Y-67304810D01*
X176098501Y-67632733D01*
X176107374Y-67644344D01*
X176150831Y-67682605D01*
X176192729Y-67722534D01*
X176205066Y-67730355D01*
X176571317Y-68052812D01*
X176579697Y-68063003D01*
X176625550Y-68100560D01*
X176670068Y-68139755D01*
X176681489Y-68146379D01*
X177072579Y-68466711D01*
X177080229Y-68475442D01*
X177128471Y-68512491D01*
X177175587Y-68551083D01*
X177185842Y-68556552D01*
X177604631Y-68878177D01*
X177611393Y-68885488D01*
X177661972Y-68922214D01*
X177711553Y-68960292D01*
X177720484Y-68964701D01*
X178169994Y-69291098D01*
X178175777Y-69297076D01*
X178228507Y-69333586D01*
X178280411Y-69371274D01*
X178287967Y-69374755D01*
X178771318Y-69709421D01*
X178776103Y-69714190D01*
X178830786Y-69750596D01*
X178884792Y-69787989D01*
X178890989Y-69790677D01*
X179411386Y-70137138D01*
X179415201Y-70140833D01*
X179471592Y-70177221D01*
X179527475Y-70214426D01*
X179532387Y-70216451D01*
X180093062Y-70578245D01*
X180095972Y-70581003D01*
X180153799Y-70617437D01*
X180211334Y-70654564D01*
X180215069Y-70656041D01*
X180819262Y-71036721D01*
X180821359Y-71038678D01*
X180880498Y-71075304D01*
X180939326Y-71112369D01*
X180942003Y-71113395D01*
X181592703Y-71516383D01*
X181593863Y-71517456D01*
X181654190Y-71554462D01*
X181714441Y-71591777D01*
X181715923Y-71592332D01*
X182472876Y-72056673D01*
X183310920Y-72574445D01*
X184136561Y-73098311D01*
X184916904Y-73617796D01*
X185617712Y-74120871D01*
X186202165Y-74591816D01*
X186628774Y-75004984D01*
X186851897Y-75304771D01*
X186853843Y-75310588D01*
X186831925Y-75327826D01*
X186378877Y-75494673D01*
X185776109Y-75656961D01*
X185772113Y-75657271D01*
X185706181Y-75675788D01*
X185640177Y-75693559D01*
X185636591Y-75695333D01*
X185087264Y-75849613D01*
X185077702Y-75850605D01*
X185017629Y-75869170D01*
X184957132Y-75886161D01*
X184948566Y-75890514D01*
X184378595Y-76066660D01*
X183760318Y-76255409D01*
X183128938Y-76435416D01*
X182486849Y-76611602D01*
X182422752Y-76628241D01*
X182374320Y-76640812D01*
X182325520Y-76653477D01*
X182287022Y-76663466D01*
X182241308Y-76675324D01*
X182201248Y-76685712D01*
X182162337Y-76695799D01*
X182119017Y-76707024D01*
X182078305Y-76717569D01*
X182035387Y-76728678D01*
X181994219Y-76739328D01*
X181955818Y-76749257D01*
X181914067Y-76760045D01*
X181870111Y-76771394D01*
X181830969Y-76781492D01*
X181789924Y-76792073D01*
X181747487Y-76803001D01*
X181707068Y-76813398D01*
X181665496Y-76824079D01*
X181626190Y-76834162D01*
X181582844Y-76845266D01*
X181542442Y-76855598D01*
X181500316Y-76866353D01*
X181460834Y-76876413D01*
X181418110Y-76887276D01*
X181378103Y-76897426D01*
X181337283Y-76907758D01*
X181295473Y-76918315D01*
X181254079Y-76928740D01*
X181214332Y-76938722D01*
X181172336Y-76949239D01*
X181132374Y-76959218D01*
X181089603Y-76969871D01*
X181049799Y-76979760D01*
X181008331Y-76990038D01*
X180967919Y-77000035D01*
X180924446Y-77010767D01*
X180886397Y-77020145D01*
X180842574Y-77030930D01*
X180800947Y-77041160D01*
X180761457Y-77050854D01*
X180718735Y-77061330D01*
X180678411Y-77071212D01*
X180659204Y-77075916D01*
X180621955Y-77073900D01*
X180519032Y-77110148D01*
X180056787Y-77219406D01*
X180011713Y-77239993D01*
X179977949Y-77276262D01*
X179960634Y-77322692D01*
X179962406Y-77372213D01*
X179974330Y-77403488D01*
X180046704Y-77537101D01*
X180002191Y-77630013D01*
X180000190Y-77666983D01*
X179987530Y-77701772D01*
X179992345Y-77811901D01*
X179986386Y-77921985D01*
X179998685Y-77956907D01*
X180000302Y-77993893D01*
X180046895Y-78093795D01*
X180059000Y-78128167D01*
X180066481Y-78140790D01*
X180066491Y-78140819D01*
X180073973Y-78153442D01*
X180073989Y-78153487D01*
X180077481Y-78159377D01*
X180123893Y-78258891D01*
X180151288Y-78283991D01*
X180157484Y-78294359D01*
X180157560Y-78294572D01*
X180165206Y-78307350D01*
X180165296Y-78307600D01*
X180172951Y-78320371D01*
X180173035Y-78320606D01*
X180180690Y-78333359D01*
X180180771Y-78333583D01*
X180188439Y-78346338D01*
X180188523Y-78346571D01*
X180196154Y-78359245D01*
X180196209Y-78359398D01*
X180200485Y-78366493D01*
X180200798Y-78367019D01*
X180200810Y-78367033D01*
X180203224Y-78371038D01*
X180203864Y-78372112D01*
X180203909Y-78372237D01*
X180206176Y-78375995D01*
X180208460Y-78379830D01*
X180208550Y-78379930D01*
X180209510Y-78381522D01*
X180211571Y-78384977D01*
X180211577Y-78384995D01*
X180211910Y-78385547D01*
X180216170Y-78392692D01*
X180216281Y-78392815D01*
X180223870Y-78405531D01*
X180224015Y-78405692D01*
X180231634Y-78418441D01*
X180231786Y-78418609D01*
X180239417Y-78431361D01*
X180239592Y-78431554D01*
X180247250Y-78444331D01*
X180247419Y-78444518D01*
X180255081Y-78457281D01*
X180255245Y-78457461D01*
X180262906Y-78470205D01*
X180263071Y-78470386D01*
X180270749Y-78483139D01*
X180270858Y-78483258D01*
X180278494Y-78495929D01*
X180278608Y-78496054D01*
X180286256Y-78508731D01*
X180286341Y-78508824D01*
X180293970Y-78521460D01*
X180294009Y-78521502D01*
X180301604Y-78534078D01*
X180301631Y-78534107D01*
X180308387Y-78545307D01*
X180316724Y-78559137D01*
X180324220Y-78571589D01*
X180330914Y-78582723D01*
X180338463Y-78595299D01*
X180345954Y-78607797D01*
X180353036Y-78619632D01*
X180360272Y-78631739D01*
X180368076Y-78644814D01*
X180374350Y-78655337D01*
X180382848Y-78669608D01*
X180389107Y-78680128D01*
X180397008Y-78693420D01*
X180404131Y-78705410D01*
X180409969Y-78715244D01*
X180420336Y-78732718D01*
X180425223Y-78740958D01*
X180426575Y-78743239D01*
X180438146Y-78769421D01*
X180463388Y-78805346D01*
X180485776Y-78843120D01*
X180504908Y-78864439D01*
X180516269Y-78880608D01*
X180549783Y-78928314D01*
X180590189Y-78985856D01*
X180624994Y-79035452D01*
X180662155Y-79088448D01*
X180698545Y-79140398D01*
X180734562Y-79191878D01*
X180770801Y-79243751D01*
X180806884Y-79295483D01*
X180842593Y-79346775D01*
X180878861Y-79398978D01*
X180914444Y-79450300D01*
X180950525Y-79502438D01*
X180986511Y-79554520D01*
X181022676Y-79606924D01*
X181057622Y-79657613D01*
X181092974Y-79708923D01*
X181125473Y-79756110D01*
X181125489Y-79756146D01*
X181161649Y-79808639D01*
X181161685Y-79808723D01*
X181190787Y-79850948D01*
X181197895Y-79861269D01*
X181197943Y-79861380D01*
X181225109Y-79900763D01*
X181234215Y-79913982D01*
X181234270Y-79914110D01*
X181260025Y-79951407D01*
X181270615Y-79966772D01*
X181270680Y-79966922D01*
X181295821Y-80003277D01*
X181307102Y-80019632D01*
X181307174Y-80019797D01*
X181331620Y-80055086D01*
X181343679Y-80072549D01*
X181343751Y-80072714D01*
X181351962Y-80084544D01*
X181352704Y-80085618D01*
X181352716Y-80085629D01*
X181367750Y-80107290D01*
X181380355Y-80125516D01*
X181380438Y-80125707D01*
X181388536Y-80137347D01*
X181389230Y-80138350D01*
X181389243Y-80138362D01*
X181404764Y-80160671D01*
X181417137Y-80178532D01*
X181417228Y-80178740D01*
X181424924Y-80189773D01*
X181425862Y-80191127D01*
X181425882Y-80191146D01*
X181441002Y-80212822D01*
X181454037Y-80231602D01*
X181454129Y-80231811D01*
X181460979Y-80241604D01*
X181462597Y-80243934D01*
X181462636Y-80243972D01*
X181477875Y-80265756D01*
X181491057Y-80284702D01*
X181491160Y-80284936D01*
X181498044Y-80294745D01*
X181499471Y-80296796D01*
X181499509Y-80296833D01*
X181514965Y-80318855D01*
X181528211Y-80337845D01*
X181528317Y-80338084D01*
X181534705Y-80347154D01*
X181536470Y-80349685D01*
X181536522Y-80349735D01*
X181551660Y-80371230D01*
X181565502Y-80391017D01*
X181565612Y-80391264D01*
X181571638Y-80399789D01*
X181573600Y-80402593D01*
X181573664Y-80402654D01*
X181589135Y-80424540D01*
X181602924Y-80444187D01*
X181603032Y-80444429D01*
X181608567Y-80452228D01*
X181610890Y-80455538D01*
X181610971Y-80455616D01*
X181626160Y-80477017D01*
X181640438Y-80497292D01*
X181640514Y-80497460D01*
X181644279Y-80502745D01*
X181648324Y-80508489D01*
X181648469Y-80508627D01*
X181662700Y-80528604D01*
X181677996Y-80550241D01*
X181678042Y-80550344D01*
X181680408Y-80553654D01*
X181685922Y-80561454D01*
X181686114Y-80561636D01*
X181700237Y-80581393D01*
X181715577Y-80603008D01*
X181715620Y-80603103D01*
X181717960Y-80606366D01*
X181723659Y-80614396D01*
X181723844Y-80614571D01*
X181738040Y-80634365D01*
X181753185Y-80655626D01*
X181753217Y-80655697D01*
X181755144Y-80658376D01*
X181761441Y-80667216D01*
X181761629Y-80667393D01*
X181775123Y-80686155D01*
X181790822Y-80708118D01*
X181790852Y-80708183D01*
X181792759Y-80710827D01*
X181799245Y-80719901D01*
X181799423Y-80720068D01*
X181813454Y-80739525D01*
X181828474Y-80760469D01*
X181828501Y-80760528D01*
X181830434Y-80763202D01*
X181837084Y-80772475D01*
X181837248Y-80772628D01*
X181850522Y-80790992D01*
X181866146Y-80812716D01*
X181866165Y-80812757D01*
X181867669Y-80814833D01*
X181874912Y-80824904D01*
X181875073Y-80825055D01*
X181888420Y-80843479D01*
X181903820Y-80864834D01*
X181903838Y-80864873D01*
X181905442Y-80867083D01*
X181912763Y-80877235D01*
X181912908Y-80877370D01*
X181926310Y-80895837D01*
X181941494Y-80916842D01*
X181941502Y-80916859D01*
X181942317Y-80917981D01*
X181950603Y-80929443D01*
X181950745Y-80929575D01*
X181963242Y-80946767D01*
X181979160Y-80968741D01*
X181979163Y-80968748D01*
X181979573Y-80969311D01*
X181988438Y-80981549D01*
X181988568Y-80981670D01*
X182001224Y-80999057D01*
X182026262Y-81033556D01*
X182026378Y-81033663D01*
X182037938Y-81049528D01*
X182064051Y-81085452D01*
X182064164Y-81085556D01*
X182074986Y-81100397D01*
X182101820Y-81137264D01*
X182101916Y-81137353D01*
X182112831Y-81152313D01*
X182139555Y-81188989D01*
X182139636Y-81189063D01*
X182147314Y-81199584D01*
X182177241Y-81240625D01*
X182177312Y-81240690D01*
X182184298Y-81250265D01*
X182198569Y-81275611D01*
X182226857Y-81308578D01*
X182252470Y-81343674D01*
X182273846Y-81363350D01*
X182296831Y-81390126D01*
X182302274Y-81396469D01*
X182302333Y-81396574D01*
X182331392Y-81430404D01*
X182344611Y-81445809D01*
X182344654Y-81445843D01*
X182349611Y-81451613D01*
X182354258Y-81457028D01*
X182354345Y-81457181D01*
X182380594Y-81487708D01*
X182396483Y-81506218D01*
X182396567Y-81506284D01*
X182401408Y-81511913D01*
X182406352Y-81517669D01*
X182406471Y-81517880D01*
X182431512Y-81546960D01*
X182448465Y-81566696D01*
X182448593Y-81566796D01*
X182453383Y-81572360D01*
X182458557Y-81578376D01*
X182458696Y-81578622D01*
X182481844Y-81605458D01*
X182500563Y-81627228D01*
X182500744Y-81627369D01*
X182505944Y-81633398D01*
X182510883Y-81639134D01*
X182511059Y-81639444D01*
X182534986Y-81667125D01*
X182552809Y-81687823D01*
X182553018Y-81687987D01*
X182558357Y-81694163D01*
X182563356Y-81699959D01*
X182563558Y-81700313D01*
X182586407Y-81726683D01*
X182605176Y-81748442D01*
X182605441Y-81748649D01*
X182610576Y-81754575D01*
X182615970Y-81760815D01*
X182616195Y-81761209D01*
X182638454Y-81786827D01*
X182657716Y-81809111D01*
X182658026Y-81809353D01*
X182663221Y-81815332D01*
X182668739Y-81821699D01*
X182668998Y-81822151D01*
X182691481Y-81847945D01*
X182710419Y-81869801D01*
X182710766Y-81870071D01*
X182716225Y-81876333D01*
X182721678Y-81882609D01*
X182721961Y-81883101D01*
X182743860Y-81908139D01*
X182763287Y-81930497D01*
X182763687Y-81930806D01*
X182769147Y-81937050D01*
X182774796Y-81943530D01*
X182775109Y-81944072D01*
X182797021Y-81969028D01*
X182816354Y-81991209D01*
X182816793Y-81991548D01*
X182822303Y-81997824D01*
X182828099Y-82004451D01*
X182828441Y-82005039D01*
X182850174Y-82029689D01*
X182869606Y-82051906D01*
X182870090Y-82052279D01*
X182875899Y-82058867D01*
X182881605Y-82065366D01*
X182881977Y-82066003D01*
X182903695Y-82090525D01*
X182923074Y-82112597D01*
X182923599Y-82113000D01*
X182929458Y-82119615D01*
X182935325Y-82126269D01*
X182935727Y-82126954D01*
X182957342Y-82151241D01*
X182976754Y-82173259D01*
X182977324Y-82173694D01*
X182983294Y-82180402D01*
X182989267Y-82187147D01*
X182989695Y-82187871D01*
X183011073Y-82211768D01*
X183030667Y-82233892D01*
X183031284Y-82234361D01*
X183037293Y-82241077D01*
X183043421Y-82247963D01*
X183043867Y-82248714D01*
X183064972Y-82272179D01*
X183084822Y-82294483D01*
X183085482Y-82294981D01*
X183091670Y-82301862D01*
X183097767Y-82308678D01*
X183098216Y-82309428D01*
X183118846Y-82332240D01*
X183139222Y-82355017D01*
X183139916Y-82355539D01*
X183145942Y-82362202D01*
X183152290Y-82369260D01*
X183152748Y-82370021D01*
X183173514Y-82392857D01*
X183193844Y-82415460D01*
X183194545Y-82415984D01*
X183200837Y-82422903D01*
X183206995Y-82429712D01*
X183207460Y-82430481D01*
X183228255Y-82453222D01*
X183248644Y-82475767D01*
X183249355Y-82476296D01*
X183255538Y-82483057D01*
X183261881Y-82490032D01*
X183262355Y-82490810D01*
X183283257Y-82513538D01*
X183303635Y-82535948D01*
X183304353Y-82536479D01*
X183310836Y-82543528D01*
X183316947Y-82550211D01*
X183317428Y-82550995D01*
X183338373Y-82573641D01*
X183358808Y-82595988D01*
X183359535Y-82596522D01*
X183365837Y-82603336D01*
X183372203Y-82610259D01*
X183372691Y-82611049D01*
X183393689Y-82633622D01*
X183414168Y-82655891D01*
X183414904Y-82656429D01*
X183421379Y-82663390D01*
X183427644Y-82670164D01*
X183428139Y-82670960D01*
X183449152Y-82693418D01*
X183469709Y-82715645D01*
X183470456Y-82716187D01*
X183476797Y-82722964D01*
X183483272Y-82729925D01*
X183483775Y-82730730D01*
X183504870Y-82753144D01*
X183525444Y-82775261D01*
X183526199Y-82775806D01*
X183532790Y-82782809D01*
X183539086Y-82789538D01*
X183539594Y-82790345D01*
X183560678Y-82812615D01*
X183581368Y-82834728D01*
X183582133Y-82835277D01*
X183588621Y-82842130D01*
X183595093Y-82849006D01*
X183595609Y-82849821D01*
X183616783Y-82872052D01*
X183637483Y-82894046D01*
X183638256Y-82894597D01*
X183644650Y-82901310D01*
X183651290Y-82908324D01*
X183651813Y-82909144D01*
X183672948Y-82931200D01*
X183693783Y-82953207D01*
X183694571Y-82953765D01*
X183701162Y-82960644D01*
X183707678Y-82967485D01*
X183708211Y-82968315D01*
X183729496Y-82990393D01*
X183750285Y-83012219D01*
X183751078Y-83012777D01*
X183757745Y-83019693D01*
X183764258Y-83026489D01*
X183764797Y-83027323D01*
X183786089Y-83049272D01*
X183806978Y-83071071D01*
X183807781Y-83071633D01*
X183814384Y-83078439D01*
X183821040Y-83085343D01*
X183821588Y-83086185D01*
X183842940Y-83108058D01*
X183863870Y-83129767D01*
X183864684Y-83130333D01*
X183871216Y-83137024D01*
X183878008Y-83144025D01*
X183878554Y-83144859D01*
X183899690Y-83166377D01*
X183920951Y-83188293D01*
X183921782Y-83188866D01*
X183928495Y-83195701D01*
X183935123Y-83202491D01*
X183935655Y-83203297D01*
X183956590Y-83224482D01*
X183978245Y-83246665D01*
X183979074Y-83247233D01*
X183985808Y-83254048D01*
X183992331Y-83260688D01*
X183992823Y-83261430D01*
X184013310Y-83282046D01*
X184035708Y-83304848D01*
X184036517Y-83305399D01*
X184043228Y-83312153D01*
X184049605Y-83318605D01*
X184050066Y-83319296D01*
X184070773Y-83340026D01*
X184093290Y-83362811D01*
X184094042Y-83363320D01*
X184100557Y-83369842D01*
X184106935Y-83376260D01*
X184107362Y-83376897D01*
X184128090Y-83397548D01*
X184150902Y-83420504D01*
X184151606Y-83420978D01*
X184158018Y-83427366D01*
X184164310Y-83433665D01*
X184164704Y-83434249D01*
X184185441Y-83454819D01*
X184208556Y-83477959D01*
X184209211Y-83478397D01*
X184215481Y-83484616D01*
X184221722Y-83490834D01*
X184222081Y-83491365D01*
X184242839Y-83511874D01*
X184266232Y-83535180D01*
X184266836Y-83535582D01*
X184273041Y-83541713D01*
X184279146Y-83547768D01*
X184279470Y-83548245D01*
X184300213Y-83568666D01*
X184323923Y-83592184D01*
X184324475Y-83592550D01*
X184330604Y-83598583D01*
X184336583Y-83604491D01*
X184336874Y-83604917D01*
X184357712Y-83625365D01*
X184381615Y-83648981D01*
X184382111Y-83649308D01*
X184388143Y-83655227D01*
X184394020Y-83661012D01*
X184394274Y-83661384D01*
X184414959Y-83681625D01*
X184439288Y-83705576D01*
X184439732Y-83705868D01*
X184445498Y-83711510D01*
X184451440Y-83717341D01*
X184451659Y-83717660D01*
X184472152Y-83737665D01*
X184496945Y-83761995D01*
X184497337Y-83762252D01*
X184503224Y-83767999D01*
X184508833Y-83773487D01*
X184509012Y-83773748D01*
X184529024Y-83793245D01*
X184554564Y-83818238D01*
X184554903Y-83818459D01*
X184560491Y-83823904D01*
X184566187Y-83829464D01*
X184566335Y-83829679D01*
X184586437Y-83849232D01*
X184612139Y-83874323D01*
X184612419Y-83874505D01*
X184617976Y-83879910D01*
X184623497Y-83885290D01*
X184623607Y-83885449D01*
X184642548Y-83903850D01*
X184669646Y-83930252D01*
X184669878Y-83930403D01*
X184675608Y-83935969D01*
X184680741Y-83940963D01*
X184680812Y-83941065D01*
X184698228Y-83957972D01*
X184727098Y-83986054D01*
X184727271Y-83986166D01*
X184732910Y-83991640D01*
X184737911Y-83996498D01*
X184737945Y-83996548D01*
X184752478Y-84010651D01*
X184784465Y-84041727D01*
X184784577Y-84041800D01*
X184790008Y-84047070D01*
X184803672Y-84060334D01*
X184810833Y-84070020D01*
X184855538Y-84110659D01*
X184898895Y-84152733D01*
X184909029Y-84159286D01*
X184925036Y-84173838D01*
X184925117Y-84173947D01*
X184977860Y-84221857D01*
X185032059Y-84271128D01*
X185032179Y-84271200D01*
X185039453Y-84277808D01*
X185039617Y-84278029D01*
X185093393Y-84326806D01*
X185146416Y-84374971D01*
X185146649Y-84375111D01*
X185154133Y-84381900D01*
X185154375Y-84382225D01*
X185207389Y-84430205D01*
X185261062Y-84478888D01*
X185261414Y-84479099D01*
X185269102Y-84486057D01*
X185269429Y-84486496D01*
X185322770Y-84534628D01*
X185376037Y-84582837D01*
X185376507Y-84583118D01*
X185384405Y-84590245D01*
X185384814Y-84590792D01*
X185438069Y-84638669D01*
X185491384Y-84686778D01*
X185491972Y-84687129D01*
X185500080Y-84694418D01*
X185500574Y-84695075D01*
X185553927Y-84742827D01*
X185607132Y-84790659D01*
X185607838Y-84791078D01*
X185616163Y-84798529D01*
X185616739Y-84799292D01*
X185670036Y-84846747D01*
X185723329Y-84894445D01*
X185724152Y-84894931D01*
X185732694Y-84902537D01*
X185733356Y-84903408D01*
X185786700Y-84950624D01*
X185840001Y-84998082D01*
X185840946Y-84998637D01*
X185849708Y-85006392D01*
X185850456Y-85007370D01*
X185904006Y-85054452D01*
X185957199Y-85101534D01*
X185958259Y-85102152D01*
X185967248Y-85110056D01*
X185968084Y-85111140D01*
X186021612Y-85157853D01*
X186074948Y-85204748D01*
X186076132Y-85205434D01*
X186085355Y-85213483D01*
X186086281Y-85214673D01*
X186139905Y-85261088D01*
X186193300Y-85307686D01*
X186194607Y-85308436D01*
X186204062Y-85316621D01*
X186205075Y-85317911D01*
X186258839Y-85364034D01*
X186312290Y-85410299D01*
X186313713Y-85411108D01*
X186323413Y-85419430D01*
X186324518Y-85420824D01*
X186378382Y-85466586D01*
X186431946Y-85512537D01*
X186433494Y-85513409D01*
X186443445Y-85521863D01*
X186444643Y-85523358D01*
X186498636Y-85568752D01*
X186552320Y-85614361D01*
X186553992Y-85615291D01*
X186564201Y-85623875D01*
X186565490Y-85625466D01*
X186619567Y-85670423D01*
X186673447Y-85715722D01*
X186675243Y-85716710D01*
X186685659Y-85725369D01*
X186686995Y-85726999D01*
X186741218Y-85771558D01*
X186795361Y-85816570D01*
X186797219Y-85817579D01*
X186807738Y-85826222D01*
X186809085Y-85827847D01*
X186863668Y-85872184D01*
X186917960Y-85916800D01*
X186919819Y-85917795D01*
X186930394Y-85926385D01*
X186931745Y-85927996D01*
X186986517Y-85971973D01*
X187041135Y-86016339D01*
X187042998Y-86017323D01*
X187053613Y-86025845D01*
X187054968Y-86027443D01*
X187109980Y-86071104D01*
X187164869Y-86115175D01*
X187166727Y-86116143D01*
X187177389Y-86124604D01*
X187178750Y-86126191D01*
X187234077Y-86169597D01*
X187289151Y-86213307D01*
X187291010Y-86214262D01*
X187301715Y-86222660D01*
X187303082Y-86224235D01*
X187358734Y-86267393D01*
X187413984Y-86310738D01*
X187415839Y-86311677D01*
X187426589Y-86320015D01*
X187427960Y-86321576D01*
X187483739Y-86364334D01*
X187539351Y-86407461D01*
X187541212Y-86408391D01*
X187552001Y-86416661D01*
X187553377Y-86418211D01*
X187609419Y-86460675D01*
X187665256Y-86503478D01*
X187667116Y-86504394D01*
X187677942Y-86512597D01*
X187679320Y-86514132D01*
X187735544Y-86556244D01*
X187791686Y-86598784D01*
X187793546Y-86599687D01*
X187804405Y-86607820D01*
X187805788Y-86609344D01*
X187862272Y-86651163D01*
X187918630Y-86693375D01*
X187920490Y-86694265D01*
X187931382Y-86702330D01*
X187932776Y-86703848D01*
X187989629Y-86745454D01*
X188046089Y-86787255D01*
X188047947Y-86788132D01*
X188058878Y-86796131D01*
X188060269Y-86797630D01*
X188117259Y-86838855D01*
X188174057Y-86880421D01*
X188175913Y-86881284D01*
X188186871Y-86889211D01*
X188188272Y-86890704D01*
X188245488Y-86931613D01*
X188302514Y-86972865D01*
X188304376Y-86973719D01*
X188315366Y-86981576D01*
X188316769Y-86983055D01*
X188374222Y-87023659D01*
X188431474Y-87064594D01*
X188433332Y-87065434D01*
X188444346Y-87073217D01*
X188445754Y-87074685D01*
X188503452Y-87114989D01*
X188560915Y-87155600D01*
X188562773Y-87156427D01*
X188573805Y-87164133D01*
X188575208Y-87165580D01*
X188633019Y-87205497D01*
X188690833Y-87245882D01*
X188692686Y-87246695D01*
X188703649Y-87254264D01*
X188704992Y-87255635D01*
X188763160Y-87295355D01*
X188821203Y-87335432D01*
X188822967Y-87336194D01*
X188833778Y-87343577D01*
X188835043Y-87344855D01*
X188893539Y-87384384D01*
X188951854Y-87424205D01*
X188953509Y-87424910D01*
X188964137Y-87432092D01*
X188965317Y-87433274D01*
X189024274Y-87472731D01*
X189082715Y-87512223D01*
X189084246Y-87512867D01*
X189094698Y-87519862D01*
X189095788Y-87520944D01*
X189154765Y-87560061D01*
X189213736Y-87599527D01*
X189215158Y-87600117D01*
X189225420Y-87606924D01*
X189226423Y-87607912D01*
X189285682Y-87646893D01*
X189344893Y-87686165D01*
X189346198Y-87686700D01*
X189356274Y-87693329D01*
X189357191Y-87694226D01*
X189416713Y-87733085D01*
X189476157Y-87772188D01*
X189477347Y-87772671D01*
X189487235Y-87779126D01*
X189488062Y-87779931D01*
X189547823Y-87818682D01*
X189607496Y-87857640D01*
X189608567Y-87858070D01*
X189618267Y-87864360D01*
X189619003Y-87865072D01*
X189678858Y-87903649D01*
X189738878Y-87942568D01*
X189739833Y-87942948D01*
X189749336Y-87949073D01*
X189749982Y-87949695D01*
X189810243Y-87988328D01*
X189870273Y-88027018D01*
X189871106Y-88027347D01*
X189880416Y-88033315D01*
X189880969Y-88033846D01*
X189941215Y-88072294D01*
X190001648Y-88111037D01*
X190002365Y-88111318D01*
X190011473Y-88117131D01*
X190011939Y-88117576D01*
X190072594Y-88156137D01*
X190132974Y-88194670D01*
X190133572Y-88194903D01*
X190142482Y-88200567D01*
X190142852Y-88200920D01*
X190203608Y-88239427D01*
X190264226Y-88277965D01*
X190264702Y-88278150D01*
X190273408Y-88283667D01*
X190273687Y-88283933D01*
X190334508Y-88322393D01*
X190395365Y-88360965D01*
X190395725Y-88361104D01*
X190404221Y-88366477D01*
X190404407Y-88366653D01*
X190465598Y-88405288D01*
X190526369Y-88443717D01*
X190526607Y-88443808D01*
X190534892Y-88449040D01*
X190534984Y-88449127D01*
X190595634Y-88487392D01*
X190657202Y-88526265D01*
X190657322Y-88526311D01*
X190673205Y-88536332D01*
X190680063Y-88542522D01*
X190734362Y-88574916D01*
X190787835Y-88608653D01*
X190796460Y-88611963D01*
X190859423Y-88649527D01*
X190976327Y-88719300D01*
X191092544Y-88788719D01*
X191209406Y-88858610D01*
X191325652Y-88928245D01*
X191441947Y-88998052D01*
X191558343Y-89068089D01*
X191674565Y-89138222D01*
X191790416Y-89208356D01*
X191906160Y-89278681D01*
X192021433Y-89349003D01*
X192137210Y-89419943D01*
X192252277Y-89490787D01*
X192367636Y-89562172D01*
X192482450Y-89633492D01*
X192538466Y-89668340D01*
X192538567Y-89668435D01*
X192600794Y-89707115D01*
X192655743Y-89741301D01*
X192656037Y-89741575D01*
X192717086Y-89779404D01*
X192773941Y-89814745D01*
X192774255Y-89815037D01*
X192835060Y-89852506D01*
X192892950Y-89888377D01*
X192893258Y-89888661D01*
X192953921Y-89925749D01*
X193012810Y-89962037D01*
X193013126Y-89962326D01*
X193073606Y-89998922D01*
X193133623Y-90035616D01*
X193133908Y-90035873D01*
X193194219Y-90071905D01*
X193254434Y-90108341D01*
X193254961Y-90108532D01*
X193255670Y-90109164D01*
X193315929Y-90144619D01*
X193375967Y-90180488D01*
X193377199Y-90180927D01*
X193378468Y-90182041D01*
X193438658Y-90216830D01*
X193498609Y-90252104D01*
X193500540Y-90252777D01*
X193502392Y-90254374D01*
X193562519Y-90288420D01*
X193622407Y-90323035D01*
X193625051Y-90323934D01*
X193627479Y-90325986D01*
X193687614Y-90359255D01*
X193747457Y-90393140D01*
X193750795Y-90394242D01*
X193753819Y-90396741D01*
X193814021Y-90429186D01*
X193873784Y-90462249D01*
X193877669Y-90463489D01*
X193877985Y-90463659D01*
X193881472Y-90466471D01*
X193941636Y-90497964D01*
X194001482Y-90530217D01*
X194005769Y-90531534D01*
X194006663Y-90532002D01*
X194010512Y-90535022D01*
X194070787Y-90565567D01*
X194130599Y-90596875D01*
X194135289Y-90598253D01*
X194136800Y-90599019D01*
X194141015Y-90602231D01*
X194201331Y-90631721D01*
X194261212Y-90662066D01*
X194266315Y-90663493D01*
X194268448Y-90664536D01*
X194273041Y-90667925D01*
X194333443Y-90696313D01*
X194393386Y-90725621D01*
X194398903Y-90727079D01*
X194401683Y-90728386D01*
X194406660Y-90731933D01*
X194467149Y-90759155D01*
X194527177Y-90787367D01*
X194533109Y-90788837D01*
X194536569Y-90790395D01*
X194541944Y-90794085D01*
X194602535Y-90820081D01*
X194662646Y-90847132D01*
X194668998Y-90848596D01*
X194673182Y-90850391D01*
X194678963Y-90854203D01*
X194739638Y-90878903D01*
X194765638Y-90890058D01*
X194714297Y-90911388D01*
X194512999Y-90992303D01*
X194311570Y-91070279D01*
X194109923Y-91145075D01*
X193907225Y-91216844D01*
X193702941Y-91285898D01*
X193497162Y-91352369D01*
X193289907Y-91416418D01*
X193081203Y-91478196D01*
X192871227Y-91537819D01*
X192659839Y-91595491D01*
X192447392Y-91651281D01*
X192233535Y-91705448D01*
X192018882Y-91758004D01*
X191803048Y-91809214D01*
X191586349Y-91859171D01*
X191368658Y-91908074D01*
X191150319Y-91956019D01*
X190931358Y-92003173D01*
X190711441Y-92049783D01*
X190491578Y-92095781D01*
X190271376Y-92141301D01*
X190050892Y-92186363D01*
X189830155Y-92230988D01*
X189609778Y-92275083D01*
X189388934Y-92318844D01*
X189168430Y-92362143D01*
X188947281Y-92405202D01*
X188726267Y-92447899D01*
X188504825Y-92490372D01*
X188283654Y-92532520D01*
X188062499Y-92574420D01*
X187839839Y-92616390D01*
X187619378Y-92657763D01*
X187397286Y-92699290D01*
X187174556Y-92740812D01*
X186955410Y-92781576D01*
X186734863Y-92822539D01*
X186513461Y-92863632D01*
X186373569Y-92887954D01*
X186307663Y-92929720D01*
X186235196Y-92958652D01*
X186185361Y-93007224D01*
X186180000Y-93010621D01*
X186180000Y-89531845D01*
X186194888Y-89456998D01*
X186180000Y-89382151D01*
X186180000Y-89382146D01*
X186135904Y-89160461D01*
X185967929Y-88909069D01*
X185904473Y-88866669D01*
X171917333Y-74879530D01*
X171874931Y-74816071D01*
X171623539Y-74648096D01*
X171401854Y-74604000D01*
X171401849Y-74604000D01*
X171327002Y-74589112D01*
X171252155Y-74604000D01*
X167171148Y-74604000D01*
X167078862Y-74381201D01*
X166590799Y-73893138D01*
X165953113Y-73629000D01*
X165262887Y-73629000D01*
X164625201Y-73893138D01*
X164137138Y-74381201D01*
X163873000Y-75018887D01*
X163873000Y-75709113D01*
X164137138Y-76346799D01*
X164625201Y-76834862D01*
X165262887Y-77099000D01*
X165953113Y-77099000D01*
X166590799Y-76834862D01*
X167078862Y-76346799D01*
X167171148Y-76124000D01*
X171012201Y-76124000D01*
X182404534Y-87516333D01*
X182171793Y-87749074D01*
X181999000Y-88166234D01*
X181999000Y-88617766D01*
X182171793Y-89034926D01*
X182491074Y-89354207D01*
X182620942Y-89408000D01*
X182491074Y-89461793D01*
X182171793Y-89781074D01*
X181999000Y-90198234D01*
X181999000Y-90649766D01*
X182171793Y-91066926D01*
X182491074Y-91386207D01*
X182908234Y-91559000D01*
X183359766Y-91559000D01*
X183776926Y-91386207D01*
X184096207Y-91066926D01*
X184269000Y-90649766D01*
X184269000Y-90198234D01*
X184096207Y-89781074D01*
X183776926Y-89461793D01*
X183647058Y-89408000D01*
X183776926Y-89354207D01*
X184009667Y-89121466D01*
X184660001Y-89771801D01*
X184660000Y-106680518D01*
X181010577Y-110329942D01*
X180879966Y-110014620D01*
X180279380Y-109414034D01*
X179494678Y-109089000D01*
X178645322Y-109089000D01*
X177860620Y-109414034D01*
X177260034Y-110014620D01*
X176935000Y-110799322D01*
X176935000Y-111598198D01*
X172982332Y-107645531D01*
X172939930Y-107582072D01*
X172911558Y-107563115D01*
X172925280Y-107557431D01*
X173216431Y-107266280D01*
X173374000Y-106885874D01*
X173374000Y-106719802D01*
X173458473Y-106635329D01*
X173521929Y-106592929D01*
X173689904Y-106341537D01*
X173734000Y-106119852D01*
X173734000Y-106119848D01*
X173748888Y-106045000D01*
X173734000Y-105970152D01*
X173734000Y-103680126D01*
X174860000Y-103680126D01*
X174860000Y-104091874D01*
X175017569Y-104472280D01*
X175308720Y-104763431D01*
X175689126Y-104921000D01*
X176100874Y-104921000D01*
X176481280Y-104763431D01*
X176772431Y-104472280D01*
X176930000Y-104091874D01*
X176930000Y-103680126D01*
X176853167Y-103494634D01*
X180379802Y-99968000D01*
X180545874Y-99968000D01*
X180926280Y-99810431D01*
X181217431Y-99519280D01*
X181375000Y-99138874D01*
X181375000Y-98727126D01*
X181217431Y-98346720D01*
X180926280Y-98055569D01*
X180545874Y-97898000D01*
X180134126Y-97898000D01*
X179753720Y-98055569D01*
X179462569Y-98346720D01*
X179305000Y-98727126D01*
X179305000Y-98893198D01*
X175410530Y-102787669D01*
X175347071Y-102830071D01*
X175179096Y-103081464D01*
X175165010Y-103152279D01*
X175017569Y-103299720D01*
X174860000Y-103680126D01*
X173734000Y-103680126D01*
X173734000Y-89182234D01*
X176919000Y-89182234D01*
X176919000Y-89633766D01*
X177091793Y-90050926D01*
X177411074Y-90370207D01*
X177828234Y-90543000D01*
X178279766Y-90543000D01*
X178696926Y-90370207D01*
X179016207Y-90050926D01*
X179189000Y-89633766D01*
X179189000Y-89182234D01*
X179016207Y-88765074D01*
X178696926Y-88445793D01*
X178279766Y-88273000D01*
X177828234Y-88273000D01*
X177411074Y-88445793D01*
X177091793Y-88765074D01*
X176919000Y-89182234D01*
X173734000Y-89182234D01*
X173734000Y-88452801D01*
X174791802Y-87395000D01*
X174957874Y-87395000D01*
X175338280Y-87237431D01*
X175629431Y-86946280D01*
X175787000Y-86565874D01*
X175787000Y-86154126D01*
X175629431Y-85773720D01*
X175338280Y-85482569D01*
X174957874Y-85325000D01*
X174546126Y-85325000D01*
X174165720Y-85482569D01*
X173874569Y-85773720D01*
X173717000Y-86154126D01*
X173717000Y-86320198D01*
X172489530Y-87547669D01*
X172426071Y-87590071D01*
X172258096Y-87841464D01*
X172214000Y-88063149D01*
X172214000Y-88063153D01*
X172199112Y-88138000D01*
X172214000Y-88212847D01*
X172214001Y-105645000D01*
X172133126Y-105645000D01*
X171956000Y-105718368D01*
X171956000Y-84454894D01*
X172290280Y-84316431D01*
X172581431Y-84025280D01*
X172739000Y-83644874D01*
X172739000Y-83233126D01*
X172581431Y-82852720D01*
X172290280Y-82561569D01*
X171909874Y-82404000D01*
X171498126Y-82404000D01*
X171117720Y-82561569D01*
X170826569Y-82852720D01*
X170669000Y-83233126D01*
X170669000Y-83385087D01*
X170648071Y-83399071D01*
X170480096Y-83650464D01*
X170436000Y-83872149D01*
X170436000Y-83872153D01*
X170421112Y-83947000D01*
X170436000Y-84021847D01*
X170436001Y-106701288D01*
X170318569Y-106818720D01*
X170224244Y-107046442D01*
X169797000Y-106619199D01*
X169797000Y-96715711D01*
X169914431Y-96598280D01*
X170072000Y-96217874D01*
X170072000Y-95806126D01*
X169914431Y-95425720D01*
X169623280Y-95134569D01*
X169242874Y-94977000D01*
X168831126Y-94977000D01*
X168450720Y-95134569D01*
X168159569Y-95425720D01*
X168019000Y-95765084D01*
X168019000Y-81848801D01*
X169584802Y-80283000D01*
X169750874Y-80283000D01*
X170131280Y-80125431D01*
X170422431Y-79834280D01*
X170580000Y-79453874D01*
X170580000Y-79042126D01*
X170422431Y-78661720D01*
X170131280Y-78370569D01*
X169750874Y-78213000D01*
X169339126Y-78213000D01*
X168958720Y-78370569D01*
X168667569Y-78661720D01*
X168510000Y-79042126D01*
X168510000Y-79208198D01*
X166774530Y-80943669D01*
X166711071Y-80986071D01*
X166543096Y-81237464D01*
X166499000Y-81459149D01*
X166499000Y-81459153D01*
X166484112Y-81534000D01*
X166499000Y-81608847D01*
X166499001Y-105980290D01*
X166321280Y-105802569D01*
X165940874Y-105645000D01*
X165529126Y-105645000D01*
X165148720Y-105802569D01*
X164857569Y-106093720D01*
X164700000Y-106474126D01*
X164700000Y-106885874D01*
X164857569Y-107266280D01*
X164975001Y-107383712D01*
X164975000Y-109024289D01*
X164857569Y-109141720D01*
X164700000Y-109522126D01*
X164700000Y-109933874D01*
X164857569Y-110314280D01*
X165148720Y-110605431D01*
X165529126Y-110763000D01*
X165940874Y-110763000D01*
X166321280Y-110605431D01*
X166612431Y-110314280D01*
X166770000Y-109933874D01*
X166770000Y-109522126D01*
X166612431Y-109141720D01*
X166495000Y-109024289D01*
X166495000Y-107887711D01*
X166672720Y-108065431D01*
X167053126Y-108223000D01*
X167464874Y-108223000D01*
X167845280Y-108065431D01*
X168136431Y-107774280D01*
X168294000Y-107393874D01*
X168294000Y-107094316D01*
X168321096Y-107230536D01*
X168489071Y-107481929D01*
X168552530Y-107524331D01*
X169642671Y-108614473D01*
X169685072Y-108677930D01*
X169748528Y-108720330D01*
X169936463Y-108845905D01*
X169959911Y-108850569D01*
X170158149Y-108890001D01*
X170158153Y-108890001D01*
X170233001Y-108904889D01*
X170307849Y-108890001D01*
X172077200Y-108890001D01*
X175133744Y-111946545D01*
X174890569Y-112189720D01*
X174733000Y-112570126D01*
X174733000Y-112981874D01*
X174890569Y-113362280D01*
X175008001Y-113479712D01*
X175008000Y-113596289D01*
X174890569Y-113713720D01*
X174769883Y-114005081D01*
X171646167Y-110881366D01*
X171723000Y-110695874D01*
X171723000Y-110284126D01*
X171565431Y-109903720D01*
X171274280Y-109612569D01*
X170893874Y-109455000D01*
X170482126Y-109455000D01*
X170101720Y-109612569D01*
X169810569Y-109903720D01*
X169653000Y-110284126D01*
X169653000Y-110695874D01*
X169810569Y-111076280D01*
X169958010Y-111223721D01*
X169972096Y-111294536D01*
X170140071Y-111545929D01*
X170203530Y-111588331D01*
X177717673Y-119102476D01*
X177760071Y-119165929D01*
X177823524Y-119208327D01*
X177823526Y-119208329D01*
X177931363Y-119280383D01*
X178011463Y-119333904D01*
X178233148Y-119378000D01*
X178233152Y-119378000D01*
X178307999Y-119392888D01*
X178382846Y-119378000D01*
X183954289Y-119378000D01*
X184071720Y-119495431D01*
X184452126Y-119653000D01*
X184863874Y-119653000D01*
X185244280Y-119495431D01*
X185535431Y-119204280D01*
X185693000Y-118823874D01*
X185693000Y-118412126D01*
X185535431Y-118031720D01*
X185244280Y-117740569D01*
X184863874Y-117583000D01*
X184452126Y-117583000D01*
X184071720Y-117740569D01*
X183954289Y-117858000D01*
X179738514Y-117858000D01*
X180279380Y-117633966D01*
X180879966Y-117033380D01*
X181205000Y-116248678D01*
X181205000Y-115399322D01*
X180879966Y-114614620D01*
X180279380Y-114014034D01*
X179494678Y-113689000D01*
X178645322Y-113689000D01*
X178330001Y-113819610D01*
X178330001Y-113382849D01*
X178344889Y-113308001D01*
X178330001Y-113233153D01*
X178330001Y-113233149D01*
X178328969Y-113227963D01*
X178645322Y-113359000D01*
X179494678Y-113359000D01*
X180279380Y-113033966D01*
X180879966Y-112433380D01*
X181066105Y-111984000D01*
X181116473Y-111984000D01*
X181191320Y-111998888D01*
X181266167Y-111984000D01*
X181266172Y-111984000D01*
X181487857Y-111939904D01*
X181739249Y-111771929D01*
X181781651Y-111708470D01*
X185904473Y-107585649D01*
X185967929Y-107543249D01*
X186135904Y-107291857D01*
X186180000Y-107070172D01*
X186180000Y-107070168D01*
X186194888Y-106995320D01*
X186180000Y-106920472D01*
X186180000Y-94166088D01*
X186370991Y-94366557D01*
X186371046Y-94366644D01*
X186421434Y-94419504D01*
X186470786Y-94471305D01*
X186470868Y-94471363D01*
X186680575Y-94691357D01*
X186680685Y-94691530D01*
X186731108Y-94744368D01*
X186780329Y-94796004D01*
X186780493Y-94796119D01*
X186990069Y-95015735D01*
X186990233Y-95015993D01*
X187040081Y-95068143D01*
X187089808Y-95120252D01*
X187090058Y-95120428D01*
X187299362Y-95339397D01*
X187299581Y-95339740D01*
X187349324Y-95391666D01*
X187399116Y-95443757D01*
X187399450Y-95443991D01*
X187608350Y-95662058D01*
X187608627Y-95662491D01*
X187658283Y-95714182D01*
X187708144Y-95766231D01*
X187708567Y-95766527D01*
X187916928Y-95983427D01*
X187917263Y-95983949D01*
X187966935Y-96035484D01*
X188016793Y-96087385D01*
X188017304Y-96087742D01*
X188224988Y-96303214D01*
X188225385Y-96303829D01*
X188275281Y-96355393D01*
X188324953Y-96406927D01*
X188325552Y-96407344D01*
X188532434Y-96621138D01*
X188532891Y-96621844D01*
X188582588Y-96672968D01*
X188632520Y-96724569D01*
X188633216Y-96725051D01*
X188839150Y-96936899D01*
X188839674Y-96937704D01*
X188889631Y-96988831D01*
X188939394Y-97040023D01*
X188940184Y-97040567D01*
X189145041Y-97250221D01*
X189145634Y-97251125D01*
X189195695Y-97302060D01*
X189245469Y-97353000D01*
X189246359Y-97353610D01*
X189450004Y-97560813D01*
X189450670Y-97561821D01*
X189500891Y-97612589D01*
X189550644Y-97663211D01*
X189551636Y-97663887D01*
X189753942Y-97868395D01*
X189754681Y-97869505D01*
X189804858Y-97919865D01*
X189854821Y-97970372D01*
X189855925Y-97971118D01*
X190056749Y-98172675D01*
X190057568Y-98173895D01*
X190107873Y-98223986D01*
X190157898Y-98274193D01*
X190159116Y-98275010D01*
X190358331Y-98473376D01*
X190359234Y-98474708D01*
X190409545Y-98524371D01*
X190459779Y-98574391D01*
X190461122Y-98575284D01*
X190658584Y-98770204D01*
X190659581Y-98771660D01*
X190710228Y-98821183D01*
X190760368Y-98870677D01*
X190761834Y-98871643D01*
X190957425Y-99062891D01*
X190958516Y-99064468D01*
X191009202Y-99113519D01*
X191059569Y-99162768D01*
X191061173Y-99163814D01*
X191254750Y-99351147D01*
X191255944Y-99352852D01*
X191306734Y-99401454D01*
X191357289Y-99450379D01*
X191359040Y-99451508D01*
X191550467Y-99634690D01*
X191551775Y-99636534D01*
X191602780Y-99684750D01*
X191653435Y-99733224D01*
X191655340Y-99734437D01*
X191844493Y-99913249D01*
X191845924Y-99915238D01*
X191897086Y-99962967D01*
X191947920Y-100011022D01*
X191949994Y-100012325D01*
X192136912Y-100186701D01*
X192138609Y-100189021D01*
X192189761Y-100236004D01*
X192240667Y-100283494D01*
X192243117Y-100285011D01*
X192428637Y-100455409D01*
X192430866Y-100458394D01*
X192481894Y-100504326D01*
X192532515Y-100550821D01*
X192535701Y-100552760D01*
X192721444Y-100719953D01*
X192724242Y-100723603D01*
X192775202Y-100768342D01*
X192825628Y-100813732D01*
X192829583Y-100816084D01*
X193016948Y-100980576D01*
X193020322Y-100984847D01*
X193071304Y-101028297D01*
X193121654Y-101072500D01*
X193126368Y-101075225D01*
X193316719Y-101237452D01*
X193320659Y-101242271D01*
X193371760Y-101284361D01*
X193422166Y-101327320D01*
X193427603Y-101330357D01*
X193622292Y-101490717D01*
X193626784Y-101496005D01*
X193678128Y-101536707D01*
X193728687Y-101578351D01*
X193734798Y-101581632D01*
X193935188Y-101740487D01*
X193940195Y-101746144D01*
X193991869Y-101785420D01*
X194042722Y-101825733D01*
X194049442Y-101829180D01*
X194256890Y-101986856D01*
X194262367Y-101992779D01*
X194314469Y-102030620D01*
X194365728Y-102069581D01*
X194372979Y-102073115D01*
X194588861Y-102229909D01*
X194594746Y-102235989D01*
X194647359Y-102272396D01*
X194699151Y-102310012D01*
X194706840Y-102313555D01*
X194932532Y-102469728D01*
X194938760Y-102475866D01*
X194992008Y-102510884D01*
X195044394Y-102547134D01*
X195052414Y-102550610D01*
X195289332Y-102706418D01*
X195295822Y-102712513D01*
X195349746Y-102746149D01*
X195402853Y-102781074D01*
X195411104Y-102784421D01*
X195660670Y-102940090D01*
X195667338Y-102946056D01*
X195722005Y-102978348D01*
X195775909Y-103011971D01*
X195784284Y-103015136D01*
X196047950Y-103170884D01*
X196054718Y-103176654D01*
X196110192Y-103207651D01*
X196164940Y-103239991D01*
X196173338Y-103242935D01*
X196452590Y-103398973D01*
X196459377Y-103404487D01*
X196515695Y-103434234D01*
X196571335Y-103465324D01*
X196579659Y-103468020D01*
X196876016Y-103624555D01*
X196882748Y-103629772D01*
X196939917Y-103658307D01*
X196996490Y-103688189D01*
X197004662Y-103690624D01*
X197319662Y-103847853D01*
X197326277Y-103852748D01*
X197384343Y-103880137D01*
X197441829Y-103908831D01*
X197449773Y-103911000D01*
X197784998Y-104069125D01*
X197791437Y-104073681D01*
X197850357Y-104099955D01*
X197908792Y-104127518D01*
X197916456Y-104129429D01*
X198273496Y-104288640D01*
X198279719Y-104292856D01*
X198339523Y-104318082D01*
X198398850Y-104344537D01*
X198406186Y-104346201D01*
X198786650Y-104506686D01*
X198792606Y-104510557D01*
X198853285Y-104534793D01*
X198913496Y-104560191D01*
X198920455Y-104561622D01*
X199324479Y-104722996D01*
X199328846Y-104725749D01*
X199391589Y-104749801D01*
X199454122Y-104774778D01*
X199459208Y-104775723D01*
X199877033Y-104935894D01*
X199877842Y-104936401D01*
X199944539Y-104961772D01*
X200011322Y-104987373D01*
X200012265Y-104987535D01*
X200489409Y-105169037D01*
X201003201Y-105369997D01*
X201461053Y-105561788D01*
X201505121Y-105582651D01*
X201128318Y-105691979D01*
X200618956Y-105824227D01*
X200153384Y-105939101D01*
X200152939Y-105939122D01*
X200083434Y-105956361D01*
X200013260Y-105973675D01*
X200012853Y-105973866D01*
X199617613Y-106071892D01*
X199612341Y-106072214D01*
X199547360Y-106089316D01*
X199482215Y-106105473D01*
X199477440Y-106107718D01*
X199108365Y-106204852D01*
X199101486Y-106205401D01*
X199038425Y-106223259D01*
X198975033Y-106239943D01*
X198968829Y-106242968D01*
X198635203Y-106337448D01*
X198629130Y-106338033D01*
X198565561Y-106357170D01*
X198501769Y-106375235D01*
X198496343Y-106378007D01*
X198194315Y-106468929D01*
X198189522Y-106469454D01*
X198125041Y-106489783D01*
X198060303Y-106509272D01*
X198056046Y-106511536D01*
X197779814Y-106598625D01*
X197776724Y-106598990D01*
X197710762Y-106620396D01*
X197644702Y-106641223D01*
X197641978Y-106642718D01*
X197385682Y-106725890D01*
X197384656Y-106726014D01*
X197316813Y-106748239D01*
X197248959Y-106770259D01*
X197248058Y-106770763D01*
X196936826Y-106872722D01*
X196564431Y-106993332D01*
X196192189Y-107109983D01*
X195811905Y-107223181D01*
X195420339Y-107333908D01*
X195018464Y-107442656D01*
X194607737Y-107549794D01*
X194189846Y-107655642D01*
X193766242Y-107760593D01*
X193338739Y-107864959D01*
X192947246Y-107959832D01*
X192842249Y-107973357D01*
X192743088Y-108030240D01*
X192640702Y-108077706D01*
X192628575Y-108080698D01*
X192583705Y-108101727D01*
X192550299Y-108138326D01*
X192533441Y-108184924D01*
X192534098Y-108189491D01*
X192518772Y-108209350D01*
X192441356Y-108293458D01*
X192430048Y-108324313D01*
X192409967Y-108350332D01*
X192380071Y-108460674D01*
X192340736Y-108568001D01*
X192342096Y-108600837D01*
X192333502Y-108632557D01*
X192348107Y-108745934D01*
X192352838Y-108860151D01*
X192366660Y-108889966D01*
X192370859Y-108922561D01*
X192427741Y-109021721D01*
X192475821Y-109125431D01*
X192553709Y-109197122D01*
X192781070Y-109457840D01*
X192781247Y-109458148D01*
X192828574Y-109512313D01*
X192875989Y-109566685D01*
X192876271Y-109566902D01*
X193083207Y-109803740D01*
X193083563Y-109804357D01*
X193130780Y-109858187D01*
X193177995Y-109912225D01*
X193178561Y-109912661D01*
X193386325Y-110149526D01*
X193386862Y-110150450D01*
X193434029Y-110203912D01*
X193481086Y-110257560D01*
X193481935Y-110258211D01*
X193690711Y-110494850D01*
X193691433Y-110496081D01*
X193738548Y-110549072D01*
X193785547Y-110602343D01*
X193786683Y-110603209D01*
X193996656Y-110839367D01*
X193997567Y-110840904D01*
X194044743Y-110893451D01*
X194091667Y-110946227D01*
X194093092Y-110947305D01*
X194304453Y-111182730D01*
X194305558Y-111184570D01*
X194352795Y-111236577D01*
X194399735Y-111288861D01*
X194401453Y-111290148D01*
X194614390Y-111524586D01*
X194615699Y-111526731D01*
X194663096Y-111578210D01*
X194710045Y-111629899D01*
X194712061Y-111631391D01*
X194926774Y-111864593D01*
X194928289Y-111867034D01*
X194975767Y-111917805D01*
X195022889Y-111968985D01*
X195025212Y-111970680D01*
X195241891Y-112202389D01*
X195243625Y-112205128D01*
X195291343Y-112255270D01*
X195338565Y-112305768D01*
X195341196Y-112307656D01*
X195560052Y-112537632D01*
X195562009Y-112540659D01*
X195609883Y-112589995D01*
X195657366Y-112639891D01*
X195660318Y-112641971D01*
X195881543Y-112869953D01*
X195883738Y-112873270D01*
X195931927Y-112921877D01*
X195979594Y-112971000D01*
X195982868Y-112973259D01*
X196206677Y-113199009D01*
X196209120Y-113202608D01*
X196257609Y-113250383D01*
X196305542Y-113298732D01*
X196309149Y-113301165D01*
X196535754Y-113524434D01*
X196538456Y-113528307D01*
X196587288Y-113575210D01*
X196635518Y-113622730D01*
X196639464Y-113625324D01*
X196869080Y-113845869D01*
X196872052Y-113850007D01*
X196921240Y-113895969D01*
X196969817Y-113942627D01*
X196974111Y-113945373D01*
X197206958Y-114162949D01*
X197210212Y-114167340D01*
X197259788Y-114212314D01*
X197308742Y-114258057D01*
X197313391Y-114260940D01*
X197549691Y-114475304D01*
X197553241Y-114479940D01*
X197603230Y-114523872D01*
X197652589Y-114568649D01*
X197657603Y-114571657D01*
X197897583Y-114782561D01*
X197901444Y-114787432D01*
X197951929Y-114830322D01*
X198001665Y-114874032D01*
X198007042Y-114877144D01*
X198250944Y-115084354D01*
X198255127Y-115089443D01*
X198306090Y-115131204D01*
X198356262Y-115173828D01*
X198362013Y-115177029D01*
X198610075Y-115380299D01*
X198614588Y-115385585D01*
X198666048Y-115426165D01*
X198716685Y-115467659D01*
X198722811Y-115470928D01*
X198975182Y-115669942D01*
X198979956Y-115675319D01*
X199031990Y-115714740D01*
X199083220Y-115755139D01*
X199089622Y-115758402D01*
X199346039Y-115952664D01*
X199350786Y-115957811D01*
X199403697Y-115996345D01*
X199455858Y-116035863D01*
X199462155Y-116038920D01*
X199722084Y-116228225D01*
X199726729Y-116233082D01*
X199780590Y-116270835D01*
X199833686Y-116309504D01*
X199839778Y-116312321D01*
X200102969Y-116496798D01*
X200107493Y-116501367D01*
X200162174Y-116538296D01*
X200216252Y-116576201D01*
X200222141Y-116578795D01*
X200488394Y-116758613D01*
X200492791Y-116762908D01*
X200548300Y-116799070D01*
X200603270Y-116836195D01*
X200608944Y-116838578D01*
X200878075Y-117013909D01*
X200882335Y-117017941D01*
X200938638Y-117053364D01*
X200994458Y-117089729D01*
X200999910Y-117091913D01*
X201271724Y-117262925D01*
X201275843Y-117266707D01*
X201332940Y-117301438D01*
X201389530Y-117337042D01*
X201394755Y-117339040D01*
X201669071Y-117505904D01*
X201673034Y-117509439D01*
X201730813Y-117543460D01*
X201788213Y-117578376D01*
X201793211Y-117580201D01*
X202069820Y-117743073D01*
X202073626Y-117746377D01*
X202132118Y-117779755D01*
X202190226Y-117813970D01*
X202194991Y-117815633D01*
X202473699Y-117974676D01*
X202477343Y-117977758D01*
X202536518Y-118010524D01*
X202595295Y-118044064D01*
X202599824Y-118045576D01*
X202880436Y-118200952D01*
X202883908Y-118203816D01*
X202943656Y-118235956D01*
X203003146Y-118268896D01*
X203007443Y-118270269D01*
X203289742Y-118422127D01*
X203293045Y-118424789D01*
X203353450Y-118456397D01*
X203413504Y-118488702D01*
X203417561Y-118489944D01*
X203701358Y-118638447D01*
X203704483Y-118640911D01*
X203765417Y-118671967D01*
X203826101Y-118703721D01*
X203829925Y-118704844D01*
X204114995Y-118850135D01*
X204117944Y-118852412D01*
X204179478Y-118882999D01*
X204240667Y-118914185D01*
X204244251Y-118915196D01*
X204530396Y-119057432D01*
X204533161Y-119059527D01*
X204595181Y-119089635D01*
X204656929Y-119120329D01*
X204660278Y-119121238D01*
X204947280Y-119260567D01*
X204949858Y-119262485D01*
X205012286Y-119292125D01*
X205074620Y-119322386D01*
X205077737Y-119323201D01*
X205365369Y-119459764D01*
X205367764Y-119461517D01*
X205430734Y-119490799D01*
X205493471Y-119520586D01*
X205496349Y-119521311D01*
X205784403Y-119655262D01*
X205786609Y-119656851D01*
X205849965Y-119685749D01*
X205913211Y-119715160D01*
X205915856Y-119715804D01*
X206204105Y-119847282D01*
X206206123Y-119848716D01*
X206269962Y-119877322D01*
X206333572Y-119906336D01*
X206335980Y-119906904D01*
X206624201Y-120036053D01*
X206626013Y-120037324D01*
X206690103Y-120065584D01*
X206754290Y-120094345D01*
X206756456Y-120094841D01*
X207044468Y-120221834D01*
X207046065Y-120222942D01*
X207110573Y-120250982D01*
X207175154Y-120279458D01*
X207177058Y-120279882D01*
X207464807Y-120404960D01*
X207466185Y-120405906D01*
X207531174Y-120433808D01*
X207596048Y-120462007D01*
X207597682Y-120462361D01*
X207885139Y-120585776D01*
X207886290Y-120586560D01*
X207951571Y-120614297D01*
X208016889Y-120642340D01*
X208018254Y-120642630D01*
X208305373Y-120764623D01*
X208306300Y-120765250D01*
X208318507Y-120770393D01*
X207661279Y-121009181D01*
X206855175Y-121299577D01*
X206048938Y-121586715D01*
X205242530Y-121869792D01*
X204435503Y-122148147D01*
X203627722Y-122421014D01*
X202819116Y-122687608D01*
X202009213Y-122947274D01*
X201198192Y-123199155D01*
X200385609Y-123442593D01*
X199571345Y-123676823D01*
X198755165Y-123901125D01*
X197936748Y-124114803D01*
X197115377Y-124317736D01*
X196291013Y-124510429D01*
X195463669Y-124693447D01*
X194633527Y-124867315D01*
X193800741Y-125032567D01*
X192965556Y-125189720D01*
X192127921Y-125339344D01*
X191288329Y-125481916D01*
X190446580Y-125618033D01*
X189603093Y-125748185D01*
X188758152Y-125872896D01*
X187911512Y-125992762D01*
X187063632Y-126108279D01*
X186214844Y-126219965D01*
X185364895Y-126328415D01*
X184514041Y-126434159D01*
X183662493Y-126537731D01*
X182810995Y-126639607D01*
X181959105Y-126740363D01*
X181107046Y-126840192D01*
X180256026Y-126939024D01*
X179404604Y-127037101D01*
X178552567Y-127134518D01*
X177702495Y-127231054D01*
X176850442Y-127327232D01*
X175998915Y-127422837D01*
X175147589Y-127517982D01*
X174296219Y-127612767D01*
X173443162Y-127707446D01*
X172593743Y-127801502D01*
X171753371Y-127894413D01*
X170964182Y-127981598D01*
X170890679Y-127975231D01*
X170820275Y-127997496D01*
X170820249Y-127997499D01*
X170756319Y-128017722D01*
X170611886Y-128063399D01*
X170611863Y-128063419D01*
X170611833Y-128063428D01*
X170499814Y-128157604D01*
X170388057Y-128251544D01*
X170388043Y-128251571D01*
X170388019Y-128251591D01*
X170322775Y-128377214D01*
X170253266Y-128511023D01*
X170253263Y-128511053D01*
X170253249Y-128511081D01*
X170240849Y-128654371D01*
X170234402Y-128728802D01*
X170234405Y-128728830D01*
X170228039Y-128802392D01*
X170250291Y-128872735D01*
X171324069Y-138599720D01*
X159608237Y-138599720D01*
X160446555Y-129365010D01*
X160467409Y-129294557D01*
X160459644Y-129220823D01*
X160459674Y-129220494D01*
X160452151Y-129149667D01*
X160436786Y-129003764D01*
X160436621Y-129003460D01*
X160436585Y-129003122D01*
X160367204Y-128875671D01*
X160297213Y-128746826D01*
X160296946Y-128746610D01*
X160296782Y-128746309D01*
X160183502Y-128654783D01*
X160069938Y-128562858D01*
X160069609Y-128562761D01*
X160069342Y-128562545D01*
X159928849Y-128521096D01*
X159860332Y-128500816D01*
X159860004Y-128500786D01*
X159788891Y-128479806D01*
X159715826Y-128487567D01*
X158836689Y-128406963D01*
X157886933Y-128319428D01*
X156938593Y-128231108D01*
X155992501Y-128141621D01*
X155049698Y-128050610D01*
X154110389Y-127957635D01*
X153175504Y-127862329D01*
X152245447Y-127764268D01*
X151321386Y-127663117D01*
X150403634Y-127558443D01*
X149493031Y-127449877D01*
X148590170Y-127337020D01*
X147695632Y-127219469D01*
X146810437Y-127096887D01*
X145935024Y-126968857D01*
X145070054Y-126834991D01*
X144216372Y-126694935D01*
X143374668Y-126548314D01*
X142545479Y-126394729D01*
X141729615Y-126233827D01*
X140927796Y-126065251D01*
X140140249Y-125888555D01*
X139364815Y-125703416D01*
X138596615Y-125509659D01*
X137831442Y-125307310D01*
X137064641Y-125096277D01*
X136292043Y-124876598D01*
X135508975Y-124648175D01*
X134711696Y-124411183D01*
X133895561Y-124165543D01*
X133053905Y-123910561D01*
X132258171Y-123669240D01*
X132257810Y-123669047D01*
X132188623Y-123648148D01*
X132120015Y-123627341D01*
X132119611Y-123627301D01*
X131363386Y-123398868D01*
X164562737Y-123398868D01*
X164673641Y-123676099D01*
X165319593Y-123919323D01*
X166009453Y-123896836D01*
X166542359Y-123676099D01*
X166653263Y-123398868D01*
X165608000Y-122353605D01*
X164562737Y-123398868D01*
X131363386Y-123398868D01*
X131359833Y-123397795D01*
X131359070Y-123397391D01*
X131290708Y-123376915D01*
X131222072Y-123356182D01*
X131221208Y-123356098D01*
X130425776Y-123117846D01*
X130424654Y-123117256D01*
X130356349Y-123097051D01*
X130288299Y-123076668D01*
X130287040Y-123076548D01*
X129451787Y-122829472D01*
X129450364Y-122828732D01*
X129382447Y-122808961D01*
X129314499Y-122788861D01*
X129312899Y-122788715D01*
X128433670Y-122532763D01*
X128431993Y-122531901D01*
X128364212Y-122512542D01*
X128296476Y-122492824D01*
X128294596Y-122492660D01*
X127367212Y-122227797D01*
X127365330Y-122226844D01*
X127297689Y-122207941D01*
X127230034Y-122188619D01*
X127227927Y-122188446D01*
X126248930Y-121914861D01*
X126247562Y-121914175D01*
X126179201Y-121895375D01*
X126144198Y-121885593D01*
X163862677Y-121885593D01*
X163885164Y-122575453D01*
X164105901Y-123108359D01*
X164383132Y-123219263D01*
X165428395Y-122174000D01*
X165787605Y-122174000D01*
X166832868Y-123219263D01*
X167110099Y-123108359D01*
X167353323Y-122462407D01*
X167330836Y-121772547D01*
X167110099Y-121239641D01*
X166832868Y-121128737D01*
X165787605Y-122174000D01*
X165428395Y-122174000D01*
X164383132Y-121128737D01*
X164105901Y-121239641D01*
X163862677Y-121885593D01*
X126144198Y-121885593D01*
X126110969Y-121876307D01*
X126109444Y-121876191D01*
X125019290Y-121576383D01*
X123875654Y-121254378D01*
X122869544Y-120949132D01*
X164562737Y-120949132D01*
X165608000Y-121994395D01*
X166653263Y-120949132D01*
X166542359Y-120671901D01*
X165896407Y-120428677D01*
X165206547Y-120451164D01*
X164673641Y-120671901D01*
X164562737Y-120949132D01*
X122869544Y-120949132D01*
X122817911Y-120933467D01*
X121921134Y-120620752D01*
X121426949Y-120401729D01*
X122120765Y-120131460D01*
X123055175Y-119831508D01*
X124137232Y-119513738D01*
X125233276Y-119196080D01*
X125238317Y-119195577D01*
X125302716Y-119175954D01*
X125367457Y-119157191D01*
X125371960Y-119154856D01*
X126422731Y-118834683D01*
X126434496Y-118833127D01*
X126491879Y-118813613D01*
X126549866Y-118795944D01*
X126560327Y-118790336D01*
X127578794Y-118443987D01*
X127597793Y-118440458D01*
X127647199Y-118420725D01*
X127697564Y-118403597D01*
X127714292Y-118393927D01*
X128649500Y-118020392D01*
X128670593Y-118015177D01*
X128716568Y-117993604D01*
X128763755Y-117974757D01*
X128781983Y-117962910D01*
X128907260Y-117904126D01*
X150476000Y-117904126D01*
X150476000Y-118315874D01*
X150633569Y-118696280D01*
X150924720Y-118987431D01*
X151305126Y-119145000D01*
X151716874Y-119145000D01*
X152097280Y-118987431D01*
X152388431Y-118696280D01*
X152546000Y-118315874D01*
X152546000Y-117904126D01*
X152388431Y-117523720D01*
X152097280Y-117232569D01*
X151716874Y-117075000D01*
X151305126Y-117075000D01*
X150924720Y-117232569D01*
X150633569Y-117523720D01*
X150476000Y-117904126D01*
X128907260Y-117904126D01*
X129627206Y-117566305D01*
X129648002Y-117559844D01*
X129692596Y-117535622D01*
X129738550Y-117514059D01*
X129756085Y-117501137D01*
X130521400Y-117085444D01*
X130541033Y-117078102D01*
X130584897Y-117050954D01*
X130630206Y-117026344D01*
X130646312Y-117012944D01*
X131343140Y-116581674D01*
X131360734Y-116574034D01*
X131404578Y-116543650D01*
X131449935Y-116515578D01*
X131463962Y-116502496D01*
X132103585Y-116059231D01*
X132118381Y-116052008D01*
X132162996Y-116018058D01*
X132209052Y-115986141D01*
X132220489Y-115974309D01*
X132688566Y-115618126D01*
X136633000Y-115618126D01*
X136633000Y-116029874D01*
X136790569Y-116410280D01*
X137081720Y-116701431D01*
X137462126Y-116859000D01*
X137873874Y-116859000D01*
X138254280Y-116701431D01*
X138545431Y-116410280D01*
X138703000Y-116029874D01*
X138703000Y-115863801D01*
X142046802Y-112520000D01*
X142298289Y-112520000D01*
X142415720Y-112637431D01*
X142796126Y-112795000D01*
X143207874Y-112795000D01*
X143588280Y-112637431D01*
X143879431Y-112346280D01*
X144037000Y-111965874D01*
X144037000Y-111554126D01*
X143879431Y-111173720D01*
X143588280Y-110882569D01*
X143207874Y-110725000D01*
X142796126Y-110725000D01*
X142415720Y-110882569D01*
X142298289Y-111000000D01*
X141806847Y-111000000D01*
X141732000Y-110985112D01*
X141657153Y-111000000D01*
X141657148Y-111000000D01*
X141435463Y-111044096D01*
X141184071Y-111212071D01*
X141141671Y-111275527D01*
X137628199Y-114789000D01*
X137462126Y-114789000D01*
X137081720Y-114946569D01*
X136790569Y-115237720D01*
X136633000Y-115618126D01*
X132688566Y-115618126D01*
X132814228Y-115522504D01*
X132825629Y-115516438D01*
X132871752Y-115478731D01*
X132919162Y-115442655D01*
X132927716Y-115432980D01*
X133486941Y-114975803D01*
X133494559Y-114971516D01*
X133542890Y-114930064D01*
X133592250Y-114889711D01*
X133597815Y-114882956D01*
X134133970Y-114423109D01*
X134137607Y-114421008D01*
X134188822Y-114376065D01*
X134240666Y-114331599D01*
X134243266Y-114328287D01*
X134823016Y-113819528D01*
X135456325Y-113265113D01*
X136105321Y-112711042D01*
X136775356Y-112155566D01*
X137464704Y-111597907D01*
X138170330Y-111038323D01*
X138889196Y-110477061D01*
X139618006Y-109914551D01*
X140354008Y-109350786D01*
X141011833Y-108848799D01*
X141051640Y-108833262D01*
X141127127Y-108760818D01*
X141151630Y-108742120D01*
X141179238Y-108710808D01*
X141262607Y-108630800D01*
X141275298Y-108601860D01*
X141296198Y-108578156D01*
X141333633Y-108468835D01*
X141380037Y-108363015D01*
X141380687Y-108331421D01*
X141390924Y-108301525D01*
X141383674Y-108186206D01*
X141386051Y-108070676D01*
X141374561Y-108041237D01*
X141372578Y-108009701D01*
X141321750Y-107905936D01*
X141279734Y-107798289D01*
X141257853Y-107775488D01*
X141243952Y-107747110D01*
X141157283Y-107670694D01*
X141077273Y-107587322D01*
X141048332Y-107574631D01*
X141024628Y-107553731D01*
X140915304Y-107516295D01*
X140877080Y-107499533D01*
X140846984Y-107492900D01*
X140747997Y-107459004D01*
X140705347Y-107461685D01*
X140320077Y-107376777D01*
X139833030Y-107269201D01*
X139348263Y-107161654D01*
X138864551Y-107053630D01*
X138382144Y-106944944D01*
X137902313Y-106835647D01*
X137436429Y-106728126D01*
X156064000Y-106728126D01*
X156064000Y-107139874D01*
X156221569Y-107520280D01*
X156512720Y-107811431D01*
X156893126Y-107969000D01*
X157304874Y-107969000D01*
X157685280Y-107811431D01*
X157802711Y-107694000D01*
X158260000Y-107694000D01*
X158260000Y-107901874D01*
X158417569Y-108282280D01*
X158511289Y-108376000D01*
X158380569Y-108506720D01*
X158223000Y-108887126D01*
X158223000Y-109298874D01*
X158380569Y-109679280D01*
X158671720Y-109970431D01*
X159052126Y-110128000D01*
X159463874Y-110128000D01*
X159844280Y-109970431D01*
X159961711Y-109853000D01*
X160722595Y-109853000D01*
X160835373Y-109965778D01*
X161215779Y-110123347D01*
X161627527Y-110123347D01*
X162007933Y-109965778D01*
X162299084Y-109674627D01*
X162456653Y-109294221D01*
X162456653Y-108882473D01*
X162299084Y-108502067D01*
X162007933Y-108210916D01*
X161817000Y-108131829D01*
X161817000Y-107744126D01*
X161691856Y-107442000D01*
X161817000Y-107139874D01*
X161817000Y-106728126D01*
X161659431Y-106347720D01*
X161368280Y-106056569D01*
X160987874Y-105899000D01*
X160576126Y-105899000D01*
X160195720Y-106056569D01*
X160078289Y-106174000D01*
X157802711Y-106174000D01*
X157685280Y-106056569D01*
X157304874Y-105899000D01*
X156893126Y-105899000D01*
X156512720Y-106056569D01*
X156221569Y-106347720D01*
X156064000Y-106728126D01*
X137436429Y-106728126D01*
X137424769Y-106725435D01*
X136950363Y-106614270D01*
X136479018Y-106501893D01*
X136011470Y-106388243D01*
X135547531Y-106273031D01*
X135088108Y-106156243D01*
X134633276Y-106037658D01*
X134183109Y-105917070D01*
X133735386Y-105794139D01*
X133287054Y-105668711D01*
X132834584Y-105540517D01*
X132375783Y-105409669D01*
X131977254Y-105295923D01*
X131976842Y-105295712D01*
X131907873Y-105276121D01*
X131838487Y-105256317D01*
X131838022Y-105256279D01*
X131496664Y-105159313D01*
X131495809Y-105158878D01*
X131427003Y-105139525D01*
X131358320Y-105120015D01*
X131357365Y-105119938D01*
X131000961Y-105019693D01*
X130999713Y-105019064D01*
X130931327Y-105000107D01*
X130862940Y-104980872D01*
X130861545Y-104980763D01*
X130488081Y-104877237D01*
X130487175Y-104876784D01*
X130418398Y-104857921D01*
X130349543Y-104838834D01*
X130348531Y-104838759D01*
X129896594Y-104714808D01*
X129723294Y-104664340D01*
X130058224Y-104548002D01*
X130594779Y-104381117D01*
X131195122Y-104208157D01*
X131846053Y-104029849D01*
X132535423Y-103846409D01*
X133181377Y-103676313D01*
X133181952Y-103676277D01*
X133251206Y-103657925D01*
X133320821Y-103639594D01*
X133321341Y-103639340D01*
X133912823Y-103482604D01*
X133914879Y-103482463D01*
X133982790Y-103464063D01*
X134050777Y-103446047D01*
X134052627Y-103445141D01*
X134648621Y-103283659D01*
X134652223Y-103283378D01*
X134718401Y-103264753D01*
X134784865Y-103246745D01*
X134788106Y-103245136D01*
X135377918Y-103079140D01*
X135383270Y-103078644D01*
X135447511Y-103059554D01*
X135512099Y-103041377D01*
X135516895Y-103038937D01*
X136090162Y-102868587D01*
X136097635Y-102867741D01*
X136159474Y-102847991D01*
X136221728Y-102829492D01*
X136228383Y-102825983D01*
X136775022Y-102651400D01*
X136785047Y-102649986D01*
X136843899Y-102629402D01*
X136903290Y-102610434D01*
X136912148Y-102605531D01*
X137421643Y-102427332D01*
X137433146Y-102425338D01*
X137489885Y-102403464D01*
X137547281Y-102383389D01*
X137557336Y-102377460D01*
X138026511Y-102196581D01*
X138038550Y-102194080D01*
X138093955Y-102170579D01*
X138150121Y-102148926D01*
X138160512Y-102142349D01*
X138591985Y-101959335D01*
X138604401Y-101956306D01*
X138658537Y-101931106D01*
X138713501Y-101907793D01*
X138724065Y-101900604D01*
X139121236Y-101715727D01*
X139133833Y-101712178D01*
X139186773Y-101685221D01*
X139240624Y-101660154D01*
X139251182Y-101652424D01*
X139617366Y-101465962D01*
X139629904Y-101461943D01*
X139681774Y-101433165D01*
X139734643Y-101406244D01*
X139744986Y-101398094D01*
X140083398Y-101210340D01*
X140095612Y-101205948D01*
X140146619Y-101175265D01*
X140198649Y-101146398D01*
X140208548Y-101138011D01*
X140522331Y-100949255D01*
X140533925Y-100944639D01*
X140584269Y-100911996D01*
X140635693Y-100881062D01*
X140644928Y-100872665D01*
X140937132Y-100683201D01*
X140947818Y-100678552D01*
X140997764Y-100643888D01*
X141048820Y-100610783D01*
X141057180Y-100602650D01*
X141330801Y-100412747D01*
X141340320Y-100408280D01*
X141390190Y-100371529D01*
X141441097Y-100336197D01*
X141448402Y-100328630D01*
X141706413Y-100138489D01*
X141714533Y-100134433D01*
X141764627Y-100095588D01*
X141815654Y-100057984D01*
X141821769Y-100051278D01*
X142067127Y-99861018D01*
X142073667Y-99857587D01*
X142124274Y-99816704D01*
X142175698Y-99776828D01*
X142180540Y-99771249D01*
X142416192Y-99580879D01*
X142421028Y-99578249D01*
X142472499Y-99535391D01*
X142524533Y-99493355D01*
X142528054Y-99489132D01*
X142756985Y-99298508D01*
X142760044Y-99296807D01*
X142812587Y-99252210D01*
X142865550Y-99208109D01*
X142867751Y-99205388D01*
X143092962Y-99014233D01*
X143094230Y-99013522D01*
X143148038Y-98967487D01*
X143202227Y-98921492D01*
X143203134Y-98920349D01*
X143482845Y-98681041D01*
X143820060Y-98393417D01*
X144164700Y-98102961D01*
X144518002Y-97808982D01*
X144879613Y-97511447D01*
X145248653Y-97210759D01*
X145624331Y-96907244D01*
X146005921Y-96601178D01*
X146392608Y-96292905D01*
X146783183Y-95983080D01*
X147177390Y-95671604D01*
X147574385Y-95358839D01*
X147974084Y-95044552D01*
X148279378Y-94804727D01*
X148305121Y-94795468D01*
X148393668Y-94714946D01*
X148429754Y-94686599D01*
X148447110Y-94666348D01*
X148521450Y-94598746D01*
X148541455Y-94556268D01*
X148572005Y-94520622D01*
X148603217Y-94425120D01*
X148646030Y-94334211D01*
X148648256Y-94287312D01*
X148662840Y-94242689D01*
X148655129Y-94142509D01*
X148659893Y-94042139D01*
X148644003Y-93997960D01*
X148640400Y-93951151D01*
X148594940Y-93861550D01*
X148560931Y-93766995D01*
X148529342Y-93732258D01*
X148508101Y-93690392D01*
X148431811Y-93625007D01*
X148364208Y-93550667D01*
X148321732Y-93530663D01*
X148286083Y-93500110D01*
X148190580Y-93468898D01*
X148166446Y-93457532D01*
X148121906Y-93446454D01*
X148008150Y-93409276D01*
X147980875Y-93411375D01*
X147581446Y-93312027D01*
X147067710Y-93183769D01*
X146555248Y-93054873D01*
X146044468Y-92924964D01*
X145535929Y-92793711D01*
X145030036Y-92660746D01*
X144526806Y-92525598D01*
X144026722Y-92387922D01*
X143530370Y-92247403D01*
X143037979Y-92103634D01*
X142549958Y-91956257D01*
X142066712Y-91804921D01*
X141588610Y-91649264D01*
X141115913Y-91488893D01*
X140649213Y-91323527D01*
X140188744Y-91152771D01*
X139734830Y-90976262D01*
X139288377Y-90793849D01*
X138848990Y-90604388D01*
X138415305Y-90405907D01*
X137985409Y-90196187D01*
X137557283Y-89972927D01*
X137128991Y-89733844D01*
X136698516Y-89476560D01*
X136263914Y-89198687D01*
X135823287Y-88897818D01*
X135376695Y-88572918D01*
X134947076Y-88236337D01*
X134659850Y-87976775D01*
X135059900Y-87876840D01*
X135594140Y-87784952D01*
X136220806Y-87703603D01*
X136913653Y-87628366D01*
X137578150Y-87560548D01*
X137580219Y-87560733D01*
X137650124Y-87553203D01*
X137720111Y-87546060D01*
X137722097Y-87545450D01*
X138337621Y-87479145D01*
X138344042Y-87479606D01*
X138409523Y-87471400D01*
X138475162Y-87464329D01*
X138481307Y-87462403D01*
X139100897Y-87384754D01*
X139112241Y-87385220D01*
X139172635Y-87375764D01*
X139233284Y-87368163D01*
X139244056Y-87364581D01*
X139850010Y-87269703D01*
X139867461Y-87269597D01*
X139921420Y-87258522D01*
X139975810Y-87250006D01*
X139992184Y-87243998D01*
X140565172Y-87126395D01*
X140586885Y-87124984D01*
X140635929Y-87111872D01*
X140685671Y-87101663D01*
X140705727Y-87093212D01*
X141233955Y-86951993D01*
X141256699Y-86949093D01*
X141303759Y-86933331D01*
X141351676Y-86920521D01*
X141372234Y-86910397D01*
X141856384Y-86748243D01*
X141879498Y-86743787D01*
X141924880Y-86725302D01*
X141971341Y-86709741D01*
X141991773Y-86698055D01*
X142391775Y-86535126D01*
X145904000Y-86535126D01*
X145904000Y-86946874D01*
X146061569Y-87327280D01*
X146352720Y-87618431D01*
X146733126Y-87776000D01*
X146899199Y-87776000D01*
X160022000Y-100898803D01*
X160022000Y-102051198D01*
X149117000Y-91146199D01*
X149117000Y-90980126D01*
X148959431Y-90599720D01*
X148668280Y-90308569D01*
X148287874Y-90151000D01*
X147876126Y-90151000D01*
X147495720Y-90308569D01*
X147204569Y-90599720D01*
X147047000Y-90980126D01*
X147047000Y-91391874D01*
X147204569Y-91772280D01*
X147495720Y-92063431D01*
X147876126Y-92221000D01*
X148042199Y-92221000D01*
X152322198Y-96501000D01*
X152185802Y-96501000D01*
X151593331Y-95908530D01*
X151550929Y-95845071D01*
X151299537Y-95677096D01*
X151077852Y-95633000D01*
X151077847Y-95633000D01*
X151003000Y-95618112D01*
X150928153Y-95633000D01*
X150442848Y-95633000D01*
X150368000Y-95618112D01*
X150293152Y-95633000D01*
X150293148Y-95633000D01*
X150119605Y-95667520D01*
X150071462Y-95677096D01*
X149967344Y-95746666D01*
X149820071Y-95845071D01*
X149777671Y-95908527D01*
X149566198Y-96120000D01*
X149400126Y-96120000D01*
X149019720Y-96277569D01*
X148728569Y-96568720D01*
X148571000Y-96949126D01*
X148571000Y-97360874D01*
X148728569Y-97741280D01*
X149019720Y-98032431D01*
X149400126Y-98190000D01*
X149811874Y-98190000D01*
X150192280Y-98032431D01*
X150483431Y-97741280D01*
X150641000Y-97360874D01*
X150641000Y-97194802D01*
X150682802Y-97153000D01*
X150688199Y-97153000D01*
X151111000Y-97575802D01*
X151111000Y-97741874D01*
X151268569Y-98122280D01*
X151559720Y-98413431D01*
X151940126Y-98571000D01*
X152351874Y-98571000D01*
X152732280Y-98413431D01*
X153023431Y-98122280D01*
X153181000Y-97741874D01*
X153181000Y-97359802D01*
X159133000Y-103311803D01*
X159133001Y-104071288D01*
X159015569Y-104188720D01*
X158858000Y-104569126D01*
X158858000Y-104980874D01*
X159015569Y-105361280D01*
X159306720Y-105652431D01*
X159687126Y-105810000D01*
X160098874Y-105810000D01*
X160479280Y-105652431D01*
X160770431Y-105361280D01*
X160900196Y-105048000D01*
X160987874Y-105048000D01*
X161368280Y-104890431D01*
X161659431Y-104599280D01*
X161817000Y-104218874D01*
X161817000Y-103807126D01*
X161659431Y-103426720D01*
X161542000Y-103309289D01*
X161542000Y-100658846D01*
X161556888Y-100583999D01*
X161542000Y-100509152D01*
X161542000Y-100509148D01*
X161497904Y-100287463D01*
X161432127Y-100189021D01*
X161372329Y-100099526D01*
X161372327Y-100099524D01*
X161329929Y-100036071D01*
X161266476Y-99993673D01*
X147974000Y-86701199D01*
X147974000Y-86535126D01*
X147816431Y-86154720D01*
X147525280Y-85863569D01*
X147144874Y-85706000D01*
X146733126Y-85706000D01*
X146352720Y-85863569D01*
X146061569Y-86154720D01*
X145904000Y-86535126D01*
X142391775Y-86535126D01*
X142435525Y-86517306D01*
X142458401Y-86511359D01*
X142502432Y-86490053D01*
X142547718Y-86471607D01*
X142567442Y-86458596D01*
X142974476Y-86261637D01*
X142996446Y-86254434D01*
X143039496Y-86230175D01*
X143083981Y-86208649D01*
X143102430Y-86194710D01*
X143476304Y-85984027D01*
X143496736Y-85975957D01*
X143539246Y-85948559D01*
X143583295Y-85923736D01*
X143599959Y-85909427D01*
X143944236Y-85687532D01*
X143962584Y-85679101D01*
X144004963Y-85648392D01*
X144048953Y-85620039D01*
X144063465Y-85605999D01*
X144381716Y-85375383D01*
X144397567Y-85367152D01*
X144440239Y-85332975D01*
X144484489Y-85300910D01*
X144496624Y-85287815D01*
X144792495Y-85050846D01*
X144805577Y-85043362D01*
X144848905Y-85005666D01*
X144893730Y-84969765D01*
X144903429Y-84958230D01*
X145180584Y-84717103D01*
X145190749Y-84710844D01*
X145235105Y-84669669D01*
X145280795Y-84629918D01*
X145288104Y-84620470D01*
X145550207Y-84377162D01*
X145557410Y-84372494D01*
X145603208Y-84327962D01*
X145650023Y-84284504D01*
X145655053Y-84277550D01*
X145905751Y-84033782D01*
X145909990Y-84030951D01*
X145957614Y-83983352D01*
X146005893Y-83936408D01*
X146008784Y-83932210D01*
X146251644Y-83689480D01*
X146252948Y-83688601D01*
X146302905Y-83638247D01*
X146352935Y-83588243D01*
X146353807Y-83586939D01*
X146643312Y-83295129D01*
X146983902Y-82955373D01*
X147330395Y-82618566D01*
X147685488Y-82282713D01*
X148049127Y-81947193D01*
X148420566Y-81612037D01*
X148799186Y-81277159D01*
X149184346Y-80942484D01*
X149575329Y-80607998D01*
X149971522Y-80273594D01*
X150372100Y-79939338D01*
X150776629Y-79604968D01*
X151184214Y-79270601D01*
X151594372Y-78936009D01*
X152005950Y-78601510D01*
X152413742Y-78270706D01*
X152523189Y-78185543D01*
X152563375Y-78114839D01*
X152615325Y-78052266D01*
X152634925Y-77988953D01*
X152667674Y-77931333D01*
X152677743Y-77850636D01*
X152701794Y-77772945D01*
X152695673Y-77706948D01*
X152703879Y-77641181D01*
X152682300Y-77562772D01*
X152674789Y-77481794D01*
X152643878Y-77423164D01*
X152626292Y-77359264D01*
X152576351Y-77295083D01*
X152538421Y-77223139D01*
X152487426Y-77180801D01*
X152446726Y-77128496D01*
X152376020Y-77088309D01*
X152313449Y-77036360D01*
X152180961Y-76995346D01*
X151998365Y-76934737D01*
X151809493Y-76871960D01*
X151621015Y-76809145D01*
X151432929Y-76746210D01*
X151245972Y-76683315D01*
X151059222Y-76620069D01*
X150874006Y-76556838D01*
X150689544Y-76493273D01*
X150506162Y-76429402D01*
X150324307Y-76365301D01*
X150143742Y-76300802D01*
X149964529Y-76235845D01*
X149787192Y-76170537D01*
X149611471Y-76104704D01*
X149437627Y-76038357D01*
X149265792Y-75971467D01*
X149096042Y-75903981D01*
X148928409Y-75835831D01*
X148763199Y-75767059D01*
X148600395Y-75697577D01*
X148440217Y-75627399D01*
X148282703Y-75556460D01*
X148127996Y-75484746D01*
X147976087Y-75412173D01*
X147826278Y-75338393D01*
X147677159Y-75262955D01*
X147527919Y-75185749D01*
X147377526Y-75106554D01*
X147225383Y-75025384D01*
X147070318Y-74941955D01*
X146975531Y-74890755D01*
X146975481Y-74890714D01*
X146911578Y-74856211D01*
X146848207Y-74821981D01*
X146848146Y-74821962D01*
X146812875Y-74802919D01*
X146812336Y-74802474D01*
X146749134Y-74768503D01*
X146686096Y-74734467D01*
X146685429Y-74734262D01*
X146645339Y-74712713D01*
X146644347Y-74711901D01*
X146581544Y-74678423D01*
X146518944Y-74644776D01*
X146517720Y-74644402D01*
X146472203Y-74620139D01*
X146470800Y-74619001D01*
X146408286Y-74586067D01*
X146346039Y-74552886D01*
X146344312Y-74552364D01*
X146292755Y-74525203D01*
X146290983Y-74523784D01*
X146228822Y-74491521D01*
X146166681Y-74458784D01*
X146164498Y-74458136D01*
X146106305Y-74427933D01*
X146104211Y-74426281D01*
X146042009Y-74394562D01*
X145980169Y-74362466D01*
X145977612Y-74361724D01*
X145912140Y-74328338D01*
X145909771Y-74326500D01*
X145847660Y-74295457D01*
X145785835Y-74263931D01*
X145782951Y-74263117D01*
X145709561Y-74226437D01*
X145706966Y-74224460D01*
X145644879Y-74194110D01*
X145582982Y-74163174D01*
X145579831Y-74162312D01*
X145556362Y-74150839D01*
X145582726Y-74140064D01*
X145647291Y-74114267D01*
X145649747Y-74112670D01*
X145760934Y-74067225D01*
X145770736Y-74065046D01*
X145827872Y-74039865D01*
X145885655Y-74016248D01*
X145894028Y-74010710D01*
X146003388Y-73962514D01*
X146017963Y-73958645D01*
X146069528Y-73933365D01*
X146122071Y-73910209D01*
X146134417Y-73901553D01*
X146231220Y-73854096D01*
X146245864Y-73849552D01*
X146296121Y-73822278D01*
X146347448Y-73797115D01*
X146359631Y-73787812D01*
X146441245Y-73743521D01*
X146454985Y-73738657D01*
X146504758Y-73709053D01*
X146555673Y-73681422D01*
X146566884Y-73672101D01*
X146634774Y-73631722D01*
X146646921Y-73626934D01*
X146696890Y-73594776D01*
X146747979Y-73564390D01*
X146757686Y-73555652D01*
X146813448Y-73519767D01*
X146823324Y-73515539D01*
X146874248Y-73480639D01*
X146926159Y-73447232D01*
X146933884Y-73439768D01*
X146979055Y-73408811D01*
X146986102Y-73405619D01*
X147038718Y-73367922D01*
X147092098Y-73331339D01*
X147097502Y-73325806D01*
X147133663Y-73299899D01*
X147137476Y-73298119D01*
X147192485Y-73257756D01*
X147247931Y-73218031D01*
X147250807Y-73214961D01*
X147279684Y-73193772D01*
X147280075Y-73193589D01*
X147337942Y-73151024D01*
X147396058Y-73108381D01*
X147396351Y-73108061D01*
X147466254Y-73056643D01*
X149276580Y-72252054D01*
X149311417Y-72229065D01*
X151089417Y-70578065D01*
X151090344Y-70577196D01*
X151201282Y-70472097D01*
X151242602Y-70442870D01*
X151296380Y-70404842D01*
X151356090Y-70362629D01*
X151405675Y-70327582D01*
X151459804Y-70289328D01*
X151460837Y-70288598D01*
X151528782Y-70258214D01*
X151628991Y-70152269D01*
X151729043Y-70046845D01*
X151729272Y-70046248D01*
X151729711Y-70045784D01*
X151774192Y-69929340D01*
X155916344Y-66005196D01*
X155928024Y-65992519D01*
X156635986Y-65110906D01*
X156823035Y-64921548D01*
X156824607Y-64920472D01*
X156873813Y-64870144D01*
X156923434Y-64819910D01*
X156924486Y-64818314D01*
X157292580Y-64441823D01*
X157294304Y-64440628D01*
X157343159Y-64390090D01*
X157392323Y-64339804D01*
X157393469Y-64338046D01*
X157757815Y-63961146D01*
X157759688Y-63959831D01*
X157808043Y-63909187D01*
X157856843Y-63858706D01*
X157858085Y-63856777D01*
X158218356Y-63479455D01*
X158220384Y-63478011D01*
X158268313Y-63427134D01*
X158316614Y-63376547D01*
X158317950Y-63374444D01*
X158673831Y-62996674D01*
X158676012Y-62995096D01*
X158723397Y-62944058D01*
X158771253Y-62893259D01*
X158772684Y-62890972D01*
X159123849Y-62512739D01*
X159126189Y-62511019D01*
X159173077Y-62459717D01*
X159220378Y-62408770D01*
X159221901Y-62406297D01*
X159568036Y-62027577D01*
X159570535Y-62025707D01*
X159616896Y-61974117D01*
X159663604Y-61923012D01*
X159665217Y-61920346D01*
X160006017Y-61541108D01*
X160008672Y-61539084D01*
X160054337Y-61487339D01*
X160100550Y-61435913D01*
X160102257Y-61433037D01*
X160437532Y-61053116D01*
X160440510Y-61050798D01*
X160485426Y-60998846D01*
X160530832Y-60947393D01*
X160532728Y-60944133D01*
X160862717Y-60562447D01*
X160866374Y-60559524D01*
X160909992Y-60507765D01*
X160954335Y-60456475D01*
X160956651Y-60452397D01*
X161281677Y-60066707D01*
X161286032Y-60063117D01*
X161328263Y-60011427D01*
X161371330Y-59960321D01*
X161374059Y-59955372D01*
X161694133Y-59563600D01*
X161699121Y-59559338D01*
X161739862Y-59507628D01*
X161781573Y-59456574D01*
X161784657Y-59450773D01*
X162099702Y-59050909D01*
X162105249Y-59045973D01*
X162144459Y-58994102D01*
X162184704Y-58943022D01*
X162188073Y-58936405D01*
X162497989Y-58526417D01*
X162503997Y-58520828D01*
X162541580Y-58468750D01*
X162580338Y-58417478D01*
X162583917Y-58410087D01*
X162888561Y-57987955D01*
X162894931Y-57981737D01*
X162930864Y-57929338D01*
X162968071Y-57877782D01*
X162971774Y-57869681D01*
X163270982Y-57433364D01*
X163277603Y-57426561D01*
X163297204Y-57396346D01*
X165397000Y-57363016D01*
X165397000Y-57749113D01*
X165661138Y-58386799D01*
X166149201Y-58874862D01*
X166786887Y-59139000D01*
X167477113Y-59139000D01*
X168114799Y-58874862D01*
X168602862Y-58386799D01*
X168867000Y-57749113D01*
X168867000Y-57307937D01*
X170409271Y-57283456D01*
X170534083Y-57614034D01*
X170534083Y-57614034D01*
G37*
X170534083Y-57614034D02*
X170843554Y-58435404D01*
X170843756Y-58436603D01*
X170869147Y-58503332D01*
X170894172Y-58569751D01*
X170894811Y-58570777D01*
X171174301Y-59305292D01*
X171174796Y-59308092D01*
X171200029Y-59372907D01*
X171224777Y-59437945D01*
X171226288Y-59440355D01*
X171499894Y-60143146D01*
X171500783Y-60147825D01*
X171526125Y-60210523D01*
X171550687Y-60273614D01*
X171553251Y-60277635D01*
X171819596Y-60936598D01*
X171820916Y-60942939D01*
X171846688Y-61003625D01*
X171871419Y-61064813D01*
X171874974Y-61070234D01*
X172134485Y-61681323D01*
X172136249Y-61688978D01*
X172162748Y-61747876D01*
X172188004Y-61807347D01*
X172192428Y-61813842D01*
X172447388Y-62380520D01*
X172449709Y-62389548D01*
X172477059Y-62446465D01*
X172502966Y-62504047D01*
X172508375Y-62511638D01*
X172761294Y-63037985D01*
X172764300Y-63048404D01*
X172792601Y-63103138D01*
X172819299Y-63158698D01*
X172825815Y-63167371D01*
X173079191Y-63657392D01*
X173083016Y-63669160D01*
X173112396Y-63721610D01*
X173140005Y-63775004D01*
X173147722Y-63784674D01*
X173404055Y-64242279D01*
X173408814Y-64255254D01*
X173439388Y-64305356D01*
X173468057Y-64356536D01*
X173477029Y-64367038D01*
X173738786Y-64795984D01*
X173744552Y-64809921D01*
X173776443Y-64857692D01*
X173806347Y-64906697D01*
X173816560Y-64917786D01*
X174086172Y-65321658D01*
X174092948Y-65336216D01*
X174126296Y-65381763D01*
X174157637Y-65428711D01*
X174168986Y-65440070D01*
X174448829Y-65822282D01*
X174456531Y-65837054D01*
X174491524Y-65880595D01*
X174524515Y-65925655D01*
X174536787Y-65936916D01*
X174829196Y-66300758D01*
X174837638Y-66315298D01*
X174874464Y-66357084D01*
X174909355Y-66400499D01*
X174922242Y-66411298D01*
X175229528Y-66759975D01*
X175238438Y-66773858D01*
X175277297Y-66814178D01*
X175314337Y-66856208D01*
X175327454Y-66866223D01*
X175651942Y-67202916D01*
X175660998Y-67215788D01*
X175702075Y-67254935D01*
X175741478Y-67295820D01*
X175754409Y-67304810D01*
X176098501Y-67632733D01*
X176107374Y-67644344D01*
X176150831Y-67682605D01*
X176192729Y-67722534D01*
X176205066Y-67730355D01*
X176571317Y-68052812D01*
X176579697Y-68063003D01*
X176625550Y-68100560D01*
X176670068Y-68139755D01*
X176681489Y-68146379D01*
X177072579Y-68466711D01*
X177080229Y-68475442D01*
X177128471Y-68512491D01*
X177175587Y-68551083D01*
X177185842Y-68556552D01*
X177604631Y-68878177D01*
X177611393Y-68885488D01*
X177661972Y-68922214D01*
X177711553Y-68960292D01*
X177720484Y-68964701D01*
X178169994Y-69291098D01*
X178175777Y-69297076D01*
X178228507Y-69333586D01*
X178280411Y-69371274D01*
X178287967Y-69374755D01*
X178771318Y-69709421D01*
X178776103Y-69714190D01*
X178830786Y-69750596D01*
X178884792Y-69787989D01*
X178890989Y-69790677D01*
X179411386Y-70137138D01*
X179415201Y-70140833D01*
X179471592Y-70177221D01*
X179527475Y-70214426D01*
X179532387Y-70216451D01*
X180093062Y-70578245D01*
X180095972Y-70581003D01*
X180153799Y-70617437D01*
X180211334Y-70654564D01*
X180215069Y-70656041D01*
X180819262Y-71036721D01*
X180821359Y-71038678D01*
X180880498Y-71075304D01*
X180939326Y-71112369D01*
X180942003Y-71113395D01*
X181592703Y-71516383D01*
X181593863Y-71517456D01*
X181654190Y-71554462D01*
X181714441Y-71591777D01*
X181715923Y-71592332D01*
X182472876Y-72056673D01*
X183310920Y-72574445D01*
X184136561Y-73098311D01*
X184916904Y-73617796D01*
X185617712Y-74120871D01*
X186202165Y-74591816D01*
X186628774Y-75004984D01*
X186851897Y-75304771D01*
X186853843Y-75310588D01*
X186831925Y-75327826D01*
X186378877Y-75494673D01*
X185776109Y-75656961D01*
X185772113Y-75657271D01*
X185706181Y-75675788D01*
X185640177Y-75693559D01*
X185636591Y-75695333D01*
X185087264Y-75849613D01*
X185077702Y-75850605D01*
X185017629Y-75869170D01*
X184957132Y-75886161D01*
X184948566Y-75890514D01*
X184378595Y-76066660D01*
X183760318Y-76255409D01*
X183128938Y-76435416D01*
X182486849Y-76611602D01*
X182422752Y-76628241D01*
X182374320Y-76640812D01*
X182325520Y-76653477D01*
X182287022Y-76663466D01*
X182241308Y-76675324D01*
X182201248Y-76685712D01*
X182162337Y-76695799D01*
X182119017Y-76707024D01*
X182078305Y-76717569D01*
X182035387Y-76728678D01*
X181994219Y-76739328D01*
X181955818Y-76749257D01*
X181914067Y-76760045D01*
X181870111Y-76771394D01*
X181830969Y-76781492D01*
X181789924Y-76792073D01*
X181747487Y-76803001D01*
X181707068Y-76813398D01*
X181665496Y-76824079D01*
X181626190Y-76834162D01*
X181582844Y-76845266D01*
X181542442Y-76855598D01*
X181500316Y-76866353D01*
X181460834Y-76876413D01*
X181418110Y-76887276D01*
X181378103Y-76897426D01*
X181337283Y-76907758D01*
X181295473Y-76918315D01*
X181254079Y-76928740D01*
X181214332Y-76938722D01*
X181172336Y-76949239D01*
X181132374Y-76959218D01*
X181089603Y-76969871D01*
X181049799Y-76979760D01*
X181008331Y-76990038D01*
X180967919Y-77000035D01*
X180924446Y-77010767D01*
X180886397Y-77020145D01*
X180842574Y-77030930D01*
X180800947Y-77041160D01*
X180761457Y-77050854D01*
X180718735Y-77061330D01*
X180678411Y-77071212D01*
X180659204Y-77075916D01*
X180621955Y-77073900D01*
X180519032Y-77110148D01*
X180056787Y-77219406D01*
X180011713Y-77239993D01*
X179977949Y-77276262D01*
X179960634Y-77322692D01*
X179962406Y-77372213D01*
X179974330Y-77403488D01*
X180046704Y-77537101D01*
X180002191Y-77630013D01*
X180000190Y-77666983D01*
X179987530Y-77701772D01*
X179992345Y-77811901D01*
X179986386Y-77921985D01*
X179998685Y-77956907D01*
X180000302Y-77993893D01*
X180046895Y-78093795D01*
X180059000Y-78128167D01*
X180066481Y-78140790D01*
X180066491Y-78140819D01*
X180073973Y-78153442D01*
X180073989Y-78153487D01*
X180077481Y-78159377D01*
X180123893Y-78258891D01*
X180151288Y-78283991D01*
X180157484Y-78294359D01*
X180157560Y-78294572D01*
X180165206Y-78307350D01*
X180165296Y-78307600D01*
X180172951Y-78320371D01*
X180173035Y-78320606D01*
X180180690Y-78333359D01*
X180180771Y-78333583D01*
X180188439Y-78346338D01*
X180188523Y-78346571D01*
X180196154Y-78359245D01*
X180196209Y-78359398D01*
X180200485Y-78366493D01*
X180200798Y-78367019D01*
X180200810Y-78367033D01*
X180203224Y-78371038D01*
X180203864Y-78372112D01*
X180203909Y-78372237D01*
X180206176Y-78375995D01*
X180208460Y-78379830D01*
X180208550Y-78379930D01*
X180209510Y-78381522D01*
X180211571Y-78384977D01*
X180211577Y-78384995D01*
X180211910Y-78385547D01*
X180216170Y-78392692D01*
X180216281Y-78392815D01*
X180223870Y-78405531D01*
X180224015Y-78405692D01*
X180231634Y-78418441D01*
X180231786Y-78418609D01*
X180239417Y-78431361D01*
X180239592Y-78431554D01*
X180247250Y-78444331D01*
X180247419Y-78444518D01*
X180255081Y-78457281D01*
X180255245Y-78457461D01*
X180262906Y-78470205D01*
X180263071Y-78470386D01*
X180270749Y-78483139D01*
X180270858Y-78483258D01*
X180278494Y-78495929D01*
X180278608Y-78496054D01*
X180286256Y-78508731D01*
X180286341Y-78508824D01*
X180293970Y-78521460D01*
X180294009Y-78521502D01*
X180301604Y-78534078D01*
X180301631Y-78534107D01*
X180308387Y-78545307D01*
X180316724Y-78559137D01*
X180324220Y-78571589D01*
X180330914Y-78582723D01*
X180338463Y-78595299D01*
X180345954Y-78607797D01*
X180353036Y-78619632D01*
X180360272Y-78631739D01*
X180368076Y-78644814D01*
X180374350Y-78655337D01*
X180382848Y-78669608D01*
X180389107Y-78680128D01*
X180397008Y-78693420D01*
X180404131Y-78705410D01*
X180409969Y-78715244D01*
X180420336Y-78732718D01*
X180425223Y-78740958D01*
X180426575Y-78743239D01*
X180438146Y-78769421D01*
X180463388Y-78805346D01*
X180485776Y-78843120D01*
X180504908Y-78864439D01*
X180516269Y-78880608D01*
X180549783Y-78928314D01*
X180590189Y-78985856D01*
X180624994Y-79035452D01*
X180662155Y-79088448D01*
X180698545Y-79140398D01*
X180734562Y-79191878D01*
X180770801Y-79243751D01*
X180806884Y-79295483D01*
X180842593Y-79346775D01*
X180878861Y-79398978D01*
X180914444Y-79450300D01*
X180950525Y-79502438D01*
X180986511Y-79554520D01*
X181022676Y-79606924D01*
X181057622Y-79657613D01*
X181092974Y-79708923D01*
X181125473Y-79756110D01*
X181125489Y-79756146D01*
X181161649Y-79808639D01*
X181161685Y-79808723D01*
X181190787Y-79850948D01*
X181197895Y-79861269D01*
X181197943Y-79861380D01*
X181225109Y-79900763D01*
X181234215Y-79913982D01*
X181234270Y-79914110D01*
X181260025Y-79951407D01*
X181270615Y-79966772D01*
X181270680Y-79966922D01*
X181295821Y-80003277D01*
X181307102Y-80019632D01*
X181307174Y-80019797D01*
X181331620Y-80055086D01*
X181343679Y-80072549D01*
X181343751Y-80072714D01*
X181351962Y-80084544D01*
X181352704Y-80085618D01*
X181352716Y-80085629D01*
X181367750Y-80107290D01*
X181380355Y-80125516D01*
X181380438Y-80125707D01*
X181388536Y-80137347D01*
X181389230Y-80138350D01*
X181389243Y-80138362D01*
X181404764Y-80160671D01*
X181417137Y-80178532D01*
X181417228Y-80178740D01*
X181424924Y-80189773D01*
X181425862Y-80191127D01*
X181425882Y-80191146D01*
X181441002Y-80212822D01*
X181454037Y-80231602D01*
X181454129Y-80231811D01*
X181460979Y-80241604D01*
X181462597Y-80243934D01*
X181462636Y-80243972D01*
X181477875Y-80265756D01*
X181491057Y-80284702D01*
X181491160Y-80284936D01*
X181498044Y-80294745D01*
X181499471Y-80296796D01*
X181499509Y-80296833D01*
X181514965Y-80318855D01*
X181528211Y-80337845D01*
X181528317Y-80338084D01*
X181534705Y-80347154D01*
X181536470Y-80349685D01*
X181536522Y-80349735D01*
X181551660Y-80371230D01*
X181565502Y-80391017D01*
X181565612Y-80391264D01*
X181571638Y-80399789D01*
X181573600Y-80402593D01*
X181573664Y-80402654D01*
X181589135Y-80424540D01*
X181602924Y-80444187D01*
X181603032Y-80444429D01*
X181608567Y-80452228D01*
X181610890Y-80455538D01*
X181610971Y-80455616D01*
X181626160Y-80477017D01*
X181640438Y-80497292D01*
X181640514Y-80497460D01*
X181644279Y-80502745D01*
X181648324Y-80508489D01*
X181648469Y-80508627D01*
X181662700Y-80528604D01*
X181677996Y-80550241D01*
X181678042Y-80550344D01*
X181680408Y-80553654D01*
X181685922Y-80561454D01*
X181686114Y-80561636D01*
X181700237Y-80581393D01*
X181715577Y-80603008D01*
X181715620Y-80603103D01*
X181717960Y-80606366D01*
X181723659Y-80614396D01*
X181723844Y-80614571D01*
X181738040Y-80634365D01*
X181753185Y-80655626D01*
X181753217Y-80655697D01*
X181755144Y-80658376D01*
X181761441Y-80667216D01*
X181761629Y-80667393D01*
X181775123Y-80686155D01*
X181790822Y-80708118D01*
X181790852Y-80708183D01*
X181792759Y-80710827D01*
X181799245Y-80719901D01*
X181799423Y-80720068D01*
X181813454Y-80739525D01*
X181828474Y-80760469D01*
X181828501Y-80760528D01*
X181830434Y-80763202D01*
X181837084Y-80772475D01*
X181837248Y-80772628D01*
X181850522Y-80790992D01*
X181866146Y-80812716D01*
X181866165Y-80812757D01*
X181867669Y-80814833D01*
X181874912Y-80824904D01*
X181875073Y-80825055D01*
X181888420Y-80843479D01*
X181903820Y-80864834D01*
X181903838Y-80864873D01*
X181905442Y-80867083D01*
X181912763Y-80877235D01*
X181912908Y-80877370D01*
X181926310Y-80895837D01*
X181941494Y-80916842D01*
X181941502Y-80916859D01*
X181942317Y-80917981D01*
X181950603Y-80929443D01*
X181950745Y-80929575D01*
X181963242Y-80946767D01*
X181979160Y-80968741D01*
X181979163Y-80968748D01*
X181979573Y-80969311D01*
X181988438Y-80981549D01*
X181988568Y-80981670D01*
X182001224Y-80999057D01*
X182026262Y-81033556D01*
X182026378Y-81033663D01*
X182037938Y-81049528D01*
X182064051Y-81085452D01*
X182064164Y-81085556D01*
X182074986Y-81100397D01*
X182101820Y-81137264D01*
X182101916Y-81137353D01*
X182112831Y-81152313D01*
X182139555Y-81188989D01*
X182139636Y-81189063D01*
X182147314Y-81199584D01*
X182177241Y-81240625D01*
X182177312Y-81240690D01*
X182184298Y-81250265D01*
X182198569Y-81275611D01*
X182226857Y-81308578D01*
X182252470Y-81343674D01*
X182273846Y-81363350D01*
X182296831Y-81390126D01*
X182302274Y-81396469D01*
X182302333Y-81396574D01*
X182331392Y-81430404D01*
X182344611Y-81445809D01*
X182344654Y-81445843D01*
X182349611Y-81451613D01*
X182354258Y-81457028D01*
X182354345Y-81457181D01*
X182380594Y-81487708D01*
X182396483Y-81506218D01*
X182396567Y-81506284D01*
X182401408Y-81511913D01*
X182406352Y-81517669D01*
X182406471Y-81517880D01*
X182431512Y-81546960D01*
X182448465Y-81566696D01*
X182448593Y-81566796D01*
X182453383Y-81572360D01*
X182458557Y-81578376D01*
X182458696Y-81578622D01*
X182481844Y-81605458D01*
X182500563Y-81627228D01*
X182500744Y-81627369D01*
X182505944Y-81633398D01*
X182510883Y-81639134D01*
X182511059Y-81639444D01*
X182534986Y-81667125D01*
X182552809Y-81687823D01*
X182553018Y-81687987D01*
X182558357Y-81694163D01*
X182563356Y-81699959D01*
X182563558Y-81700313D01*
X182586407Y-81726683D01*
X182605176Y-81748442D01*
X182605441Y-81748649D01*
X182610576Y-81754575D01*
X182615970Y-81760815D01*
X182616195Y-81761209D01*
X182638454Y-81786827D01*
X182657716Y-81809111D01*
X182658026Y-81809353D01*
X182663221Y-81815332D01*
X182668739Y-81821699D01*
X182668998Y-81822151D01*
X182691481Y-81847945D01*
X182710419Y-81869801D01*
X182710766Y-81870071D01*
X182716225Y-81876333D01*
X182721678Y-81882609D01*
X182721961Y-81883101D01*
X182743860Y-81908139D01*
X182763287Y-81930497D01*
X182763687Y-81930806D01*
X182769147Y-81937050D01*
X182774796Y-81943530D01*
X182775109Y-81944072D01*
X182797021Y-81969028D01*
X182816354Y-81991209D01*
X182816793Y-81991548D01*
X182822303Y-81997824D01*
X182828099Y-82004451D01*
X182828441Y-82005039D01*
X182850174Y-82029689D01*
X182869606Y-82051906D01*
X182870090Y-82052279D01*
X182875899Y-82058867D01*
X182881605Y-82065366D01*
X182881977Y-82066003D01*
X182903695Y-82090525D01*
X182923074Y-82112597D01*
X182923599Y-82113000D01*
X182929458Y-82119615D01*
X182935325Y-82126269D01*
X182935727Y-82126954D01*
X182957342Y-82151241D01*
X182976754Y-82173259D01*
X182977324Y-82173694D01*
X182983294Y-82180402D01*
X182989267Y-82187147D01*
X182989695Y-82187871D01*
X183011073Y-82211768D01*
X183030667Y-82233892D01*
X183031284Y-82234361D01*
X183037293Y-82241077D01*
X183043421Y-82247963D01*
X183043867Y-82248714D01*
X183064972Y-82272179D01*
X183084822Y-82294483D01*
X183085482Y-82294981D01*
X183091670Y-82301862D01*
X183097767Y-82308678D01*
X183098216Y-82309428D01*
X183118846Y-82332240D01*
X183139222Y-82355017D01*
X183139916Y-82355539D01*
X183145942Y-82362202D01*
X183152290Y-82369260D01*
X183152748Y-82370021D01*
X183173514Y-82392857D01*
X183193844Y-82415460D01*
X183194545Y-82415984D01*
X183200837Y-82422903D01*
X183206995Y-82429712D01*
X183207460Y-82430481D01*
X183228255Y-82453222D01*
X183248644Y-82475767D01*
X183249355Y-82476296D01*
X183255538Y-82483057D01*
X183261881Y-82490032D01*
X183262355Y-82490810D01*
X183283257Y-82513538D01*
X183303635Y-82535948D01*
X183304353Y-82536479D01*
X183310836Y-82543528D01*
X183316947Y-82550211D01*
X183317428Y-82550995D01*
X183338373Y-82573641D01*
X183358808Y-82595988D01*
X183359535Y-82596522D01*
X183365837Y-82603336D01*
X183372203Y-82610259D01*
X183372691Y-82611049D01*
X183393689Y-82633622D01*
X183414168Y-82655891D01*
X183414904Y-82656429D01*
X183421379Y-82663390D01*
X183427644Y-82670164D01*
X183428139Y-82670960D01*
X183449152Y-82693418D01*
X183469709Y-82715645D01*
X183470456Y-82716187D01*
X183476797Y-82722964D01*
X183483272Y-82729925D01*
X183483775Y-82730730D01*
X183504870Y-82753144D01*
X183525444Y-82775261D01*
X183526199Y-82775806D01*
X183532790Y-82782809D01*
X183539086Y-82789538D01*
X183539594Y-82790345D01*
X183560678Y-82812615D01*
X183581368Y-82834728D01*
X183582133Y-82835277D01*
X183588621Y-82842130D01*
X183595093Y-82849006D01*
X183595609Y-82849821D01*
X183616783Y-82872052D01*
X183637483Y-82894046D01*
X183638256Y-82894597D01*
X183644650Y-82901310D01*
X183651290Y-82908324D01*
X183651813Y-82909144D01*
X183672948Y-82931200D01*
X183693783Y-82953207D01*
X183694571Y-82953765D01*
X183701162Y-82960644D01*
X183707678Y-82967485D01*
X183708211Y-82968315D01*
X183729496Y-82990393D01*
X183750285Y-83012219D01*
X183751078Y-83012777D01*
X183757745Y-83019693D01*
X183764258Y-83026489D01*
X183764797Y-83027323D01*
X183786089Y-83049272D01*
X183806978Y-83071071D01*
X183807781Y-83071633D01*
X183814384Y-83078439D01*
X183821040Y-83085343D01*
X183821588Y-83086185D01*
X183842940Y-83108058D01*
X183863870Y-83129767D01*
X183864684Y-83130333D01*
X183871216Y-83137024D01*
X183878008Y-83144025D01*
X183878554Y-83144859D01*
X183899690Y-83166377D01*
X183920951Y-83188293D01*
X183921782Y-83188866D01*
X183928495Y-83195701D01*
X183935123Y-83202491D01*
X183935655Y-83203297D01*
X183956590Y-83224482D01*
X183978245Y-83246665D01*
X183979074Y-83247233D01*
X183985808Y-83254048D01*
X183992331Y-83260688D01*
X183992823Y-83261430D01*
X184013310Y-83282046D01*
X184035708Y-83304848D01*
X184036517Y-83305399D01*
X184043228Y-83312153D01*
X184049605Y-83318605D01*
X184050066Y-83319296D01*
X184070773Y-83340026D01*
X184093290Y-83362811D01*
X184094042Y-83363320D01*
X184100557Y-83369842D01*
X184106935Y-83376260D01*
X184107362Y-83376897D01*
X184128090Y-83397548D01*
X184150902Y-83420504D01*
X184151606Y-83420978D01*
X184158018Y-83427366D01*
X184164310Y-83433665D01*
X184164704Y-83434249D01*
X184185441Y-83454819D01*
X184208556Y-83477959D01*
X184209211Y-83478397D01*
X184215481Y-83484616D01*
X184221722Y-83490834D01*
X184222081Y-83491365D01*
X184242839Y-83511874D01*
X184266232Y-83535180D01*
X184266836Y-83535582D01*
X184273041Y-83541713D01*
X184279146Y-83547768D01*
X184279470Y-83548245D01*
X184300213Y-83568666D01*
X184323923Y-83592184D01*
X184324475Y-83592550D01*
X184330604Y-83598583D01*
X184336583Y-83604491D01*
X184336874Y-83604917D01*
X184357712Y-83625365D01*
X184381615Y-83648981D01*
X184382111Y-83649308D01*
X184388143Y-83655227D01*
X184394020Y-83661012D01*
X184394274Y-83661384D01*
X184414959Y-83681625D01*
X184439288Y-83705576D01*
X184439732Y-83705868D01*
X184445498Y-83711510D01*
X184451440Y-83717341D01*
X184451659Y-83717660D01*
X184472152Y-83737665D01*
X184496945Y-83761995D01*
X184497337Y-83762252D01*
X184503224Y-83767999D01*
X184508833Y-83773487D01*
X184509012Y-83773748D01*
X184529024Y-83793245D01*
X184554564Y-83818238D01*
X184554903Y-83818459D01*
X184560491Y-83823904D01*
X184566187Y-83829464D01*
X184566335Y-83829679D01*
X184586437Y-83849232D01*
X184612139Y-83874323D01*
X184612419Y-83874505D01*
X184617976Y-83879910D01*
X184623497Y-83885290D01*
X184623607Y-83885449D01*
X184642548Y-83903850D01*
X184669646Y-83930252D01*
X184669878Y-83930403D01*
X184675608Y-83935969D01*
X184680741Y-83940963D01*
X184680812Y-83941065D01*
X184698228Y-83957972D01*
X184727098Y-83986054D01*
X184727271Y-83986166D01*
X184732910Y-83991640D01*
X184737911Y-83996498D01*
X184737945Y-83996548D01*
X184752478Y-84010651D01*
X184784465Y-84041727D01*
X184784577Y-84041800D01*
X184790008Y-84047070D01*
X184803672Y-84060334D01*
X184810833Y-84070020D01*
X184855538Y-84110659D01*
X184898895Y-84152733D01*
X184909029Y-84159286D01*
X184925036Y-84173838D01*
X184925117Y-84173947D01*
X184977860Y-84221857D01*
X185032059Y-84271128D01*
X185032179Y-84271200D01*
X185039453Y-84277808D01*
X185039617Y-84278029D01*
X185093393Y-84326806D01*
X185146416Y-84374971D01*
X185146649Y-84375111D01*
X185154133Y-84381900D01*
X185154375Y-84382225D01*
X185207389Y-84430205D01*
X185261062Y-84478888D01*
X185261414Y-84479099D01*
X185269102Y-84486057D01*
X185269429Y-84486496D01*
X185322770Y-84534628D01*
X185376037Y-84582837D01*
X185376507Y-84583118D01*
X185384405Y-84590245D01*
X185384814Y-84590792D01*
X185438069Y-84638669D01*
X185491384Y-84686778D01*
X185491972Y-84687129D01*
X185500080Y-84694418D01*
X185500574Y-84695075D01*
X185553927Y-84742827D01*
X185607132Y-84790659D01*
X185607838Y-84791078D01*
X185616163Y-84798529D01*
X185616739Y-84799292D01*
X185670036Y-84846747D01*
X185723329Y-84894445D01*
X185724152Y-84894931D01*
X185732694Y-84902537D01*
X185733356Y-84903408D01*
X185786700Y-84950624D01*
X185840001Y-84998082D01*
X185840946Y-84998637D01*
X185849708Y-85006392D01*
X185850456Y-85007370D01*
X185904006Y-85054452D01*
X185957199Y-85101534D01*
X185958259Y-85102152D01*
X185967248Y-85110056D01*
X185968084Y-85111140D01*
X186021612Y-85157853D01*
X186074948Y-85204748D01*
X186076132Y-85205434D01*
X186085355Y-85213483D01*
X186086281Y-85214673D01*
X186139905Y-85261088D01*
X186193300Y-85307686D01*
X186194607Y-85308436D01*
X186204062Y-85316621D01*
X186205075Y-85317911D01*
X186258839Y-85364034D01*
X186312290Y-85410299D01*
X186313713Y-85411108D01*
X186323413Y-85419430D01*
X186324518Y-85420824D01*
X186378382Y-85466586D01*
X186431946Y-85512537D01*
X186433494Y-85513409D01*
X186443445Y-85521863D01*
X186444643Y-85523358D01*
X186498636Y-85568752D01*
X186552320Y-85614361D01*
X186553992Y-85615291D01*
X186564201Y-85623875D01*
X186565490Y-85625466D01*
X186619567Y-85670423D01*
X186673447Y-85715722D01*
X186675243Y-85716710D01*
X186685659Y-85725369D01*
X186686995Y-85726999D01*
X186741218Y-85771558D01*
X186795361Y-85816570D01*
X186797219Y-85817579D01*
X186807738Y-85826222D01*
X186809085Y-85827847D01*
X186863668Y-85872184D01*
X186917960Y-85916800D01*
X186919819Y-85917795D01*
X186930394Y-85926385D01*
X186931745Y-85927996D01*
X186986517Y-85971973D01*
X187041135Y-86016339D01*
X187042998Y-86017323D01*
X187053613Y-86025845D01*
X187054968Y-86027443D01*
X187109980Y-86071104D01*
X187164869Y-86115175D01*
X187166727Y-86116143D01*
X187177389Y-86124604D01*
X187178750Y-86126191D01*
X187234077Y-86169597D01*
X187289151Y-86213307D01*
X187291010Y-86214262D01*
X187301715Y-86222660D01*
X187303082Y-86224235D01*
X187358734Y-86267393D01*
X187413984Y-86310738D01*
X187415839Y-86311677D01*
X187426589Y-86320015D01*
X187427960Y-86321576D01*
X187483739Y-86364334D01*
X187539351Y-86407461D01*
X187541212Y-86408391D01*
X187552001Y-86416661D01*
X187553377Y-86418211D01*
X187609419Y-86460675D01*
X187665256Y-86503478D01*
X187667116Y-86504394D01*
X187677942Y-86512597D01*
X187679320Y-86514132D01*
X187735544Y-86556244D01*
X187791686Y-86598784D01*
X187793546Y-86599687D01*
X187804405Y-86607820D01*
X187805788Y-86609344D01*
X187862272Y-86651163D01*
X187918630Y-86693375D01*
X187920490Y-86694265D01*
X187931382Y-86702330D01*
X187932776Y-86703848D01*
X187989629Y-86745454D01*
X188046089Y-86787255D01*
X188047947Y-86788132D01*
X188058878Y-86796131D01*
X188060269Y-86797630D01*
X188117259Y-86838855D01*
X188174057Y-86880421D01*
X188175913Y-86881284D01*
X188186871Y-86889211D01*
X188188272Y-86890704D01*
X188245488Y-86931613D01*
X188302514Y-86972865D01*
X188304376Y-86973719D01*
X188315366Y-86981576D01*
X188316769Y-86983055D01*
X188374222Y-87023659D01*
X188431474Y-87064594D01*
X188433332Y-87065434D01*
X188444346Y-87073217D01*
X188445754Y-87074685D01*
X188503452Y-87114989D01*
X188560915Y-87155600D01*
X188562773Y-87156427D01*
X188573805Y-87164133D01*
X188575208Y-87165580D01*
X188633019Y-87205497D01*
X188690833Y-87245882D01*
X188692686Y-87246695D01*
X188703649Y-87254264D01*
X188704992Y-87255635D01*
X188763160Y-87295355D01*
X188821203Y-87335432D01*
X188822967Y-87336194D01*
X188833778Y-87343577D01*
X188835043Y-87344855D01*
X188893539Y-87384384D01*
X188951854Y-87424205D01*
X188953509Y-87424910D01*
X188964137Y-87432092D01*
X188965317Y-87433274D01*
X189024274Y-87472731D01*
X189082715Y-87512223D01*
X189084246Y-87512867D01*
X189094698Y-87519862D01*
X189095788Y-87520944D01*
X189154765Y-87560061D01*
X189213736Y-87599527D01*
X189215158Y-87600117D01*
X189225420Y-87606924D01*
X189226423Y-87607912D01*
X189285682Y-87646893D01*
X189344893Y-87686165D01*
X189346198Y-87686700D01*
X189356274Y-87693329D01*
X189357191Y-87694226D01*
X189416713Y-87733085D01*
X189476157Y-87772188D01*
X189477347Y-87772671D01*
X189487235Y-87779126D01*
X189488062Y-87779931D01*
X189547823Y-87818682D01*
X189607496Y-87857640D01*
X189608567Y-87858070D01*
X189618267Y-87864360D01*
X189619003Y-87865072D01*
X189678858Y-87903649D01*
X189738878Y-87942568D01*
X189739833Y-87942948D01*
X189749336Y-87949073D01*
X189749982Y-87949695D01*
X189810243Y-87988328D01*
X189870273Y-88027018D01*
X189871106Y-88027347D01*
X189880416Y-88033315D01*
X189880969Y-88033846D01*
X189941215Y-88072294D01*
X190001648Y-88111037D01*
X190002365Y-88111318D01*
X190011473Y-88117131D01*
X190011939Y-88117576D01*
X190072594Y-88156137D01*
X190132974Y-88194670D01*
X190133572Y-88194903D01*
X190142482Y-88200567D01*
X190142852Y-88200920D01*
X190203608Y-88239427D01*
X190264226Y-88277965D01*
X190264702Y-88278150D01*
X190273408Y-88283667D01*
X190273687Y-88283933D01*
X190334508Y-88322393D01*
X190395365Y-88360965D01*
X190395725Y-88361104D01*
X190404221Y-88366477D01*
X190404407Y-88366653D01*
X190465598Y-88405288D01*
X190526369Y-88443717D01*
X190526607Y-88443808D01*
X190534892Y-88449040D01*
X190534984Y-88449127D01*
X190595634Y-88487392D01*
X190657202Y-88526265D01*
X190657322Y-88526311D01*
X190673205Y-88536332D01*
X190680063Y-88542522D01*
X190734362Y-88574916D01*
X190787835Y-88608653D01*
X190796460Y-88611963D01*
X190859423Y-88649527D01*
X190976327Y-88719300D01*
X191092544Y-88788719D01*
X191209406Y-88858610D01*
X191325652Y-88928245D01*
X191441947Y-88998052D01*
X191558343Y-89068089D01*
X191674565Y-89138222D01*
X191790416Y-89208356D01*
X191906160Y-89278681D01*
X192021433Y-89349003D01*
X192137210Y-89419943D01*
X192252277Y-89490787D01*
X192367636Y-89562172D01*
X192482450Y-89633492D01*
X192538466Y-89668340D01*
X192538567Y-89668435D01*
X192600794Y-89707115D01*
X192655743Y-89741301D01*
X192656037Y-89741575D01*
X192717086Y-89779404D01*
X192773941Y-89814745D01*
X192774255Y-89815037D01*
X192835060Y-89852506D01*
X192892950Y-89888377D01*
X192893258Y-89888661D01*
X192953921Y-89925749D01*
X193012810Y-89962037D01*
X193013126Y-89962326D01*
X193073606Y-89998922D01*
X193133623Y-90035616D01*
X193133908Y-90035873D01*
X193194219Y-90071905D01*
X193254434Y-90108341D01*
X193254961Y-90108532D01*
X193255670Y-90109164D01*
X193315929Y-90144619D01*
X193375967Y-90180488D01*
X193377199Y-90180927D01*
X193378468Y-90182041D01*
X193438658Y-90216830D01*
X193498609Y-90252104D01*
X193500540Y-90252777D01*
X193502392Y-90254374D01*
X193562519Y-90288420D01*
X193622407Y-90323035D01*
X193625051Y-90323934D01*
X193627479Y-90325986D01*
X193687614Y-90359255D01*
X193747457Y-90393140D01*
X193750795Y-90394242D01*
X193753819Y-90396741D01*
X193814021Y-90429186D01*
X193873784Y-90462249D01*
X193877669Y-90463489D01*
X193877985Y-90463659D01*
X193881472Y-90466471D01*
X193941636Y-90497964D01*
X194001482Y-90530217D01*
X194005769Y-90531534D01*
X194006663Y-90532002D01*
X194010512Y-90535022D01*
X194070787Y-90565567D01*
X194130599Y-90596875D01*
X194135289Y-90598253D01*
X194136800Y-90599019D01*
X194141015Y-90602231D01*
X194201331Y-90631721D01*
X194261212Y-90662066D01*
X194266315Y-90663493D01*
X194268448Y-90664536D01*
X194273041Y-90667925D01*
X194333443Y-90696313D01*
X194393386Y-90725621D01*
X194398903Y-90727079D01*
X194401683Y-90728386D01*
X194406660Y-90731933D01*
X194467149Y-90759155D01*
X194527177Y-90787367D01*
X194533109Y-90788837D01*
X194536569Y-90790395D01*
X194541944Y-90794085D01*
X194602535Y-90820081D01*
X194662646Y-90847132D01*
X194668998Y-90848596D01*
X194673182Y-90850391D01*
X194678963Y-90854203D01*
X194739638Y-90878903D01*
X194765638Y-90890058D01*
X194714297Y-90911388D01*
X194512999Y-90992303D01*
X194311570Y-91070279D01*
X194109923Y-91145075D01*
X193907225Y-91216844D01*
X193702941Y-91285898D01*
X193497162Y-91352369D01*
X193289907Y-91416418D01*
X193081203Y-91478196D01*
X192871227Y-91537819D01*
X192659839Y-91595491D01*
X192447392Y-91651281D01*
X192233535Y-91705448D01*
X192018882Y-91758004D01*
X191803048Y-91809214D01*
X191586349Y-91859171D01*
X191368658Y-91908074D01*
X191150319Y-91956019D01*
X190931358Y-92003173D01*
X190711441Y-92049783D01*
X190491578Y-92095781D01*
X190271376Y-92141301D01*
X190050892Y-92186363D01*
X189830155Y-92230988D01*
X189609778Y-92275083D01*
X189388934Y-92318844D01*
X189168430Y-92362143D01*
X188947281Y-92405202D01*
X188726267Y-92447899D01*
X188504825Y-92490372D01*
X188283654Y-92532520D01*
X188062499Y-92574420D01*
X187839839Y-92616390D01*
X187619378Y-92657763D01*
X187397286Y-92699290D01*
X187174556Y-92740812D01*
X186955410Y-92781576D01*
X186734863Y-92822539D01*
X186513461Y-92863632D01*
X186373569Y-92887954D01*
X186307663Y-92929720D01*
X186235196Y-92958652D01*
X186185361Y-93007224D01*
X186180000Y-93010621D01*
X186180000Y-89531845D01*
X186194888Y-89456998D01*
X186180000Y-89382151D01*
X186180000Y-89382146D01*
X186135904Y-89160461D01*
X185967929Y-88909069D01*
X185904473Y-88866669D01*
X171917333Y-74879530D01*
X171874931Y-74816071D01*
X171623539Y-74648096D01*
X171401854Y-74604000D01*
X171401849Y-74604000D01*
X171327002Y-74589112D01*
X171252155Y-74604000D01*
X167171148Y-74604000D01*
X167078862Y-74381201D01*
X166590799Y-73893138D01*
X165953113Y-73629000D01*
X165262887Y-73629000D01*
X164625201Y-73893138D01*
X164137138Y-74381201D01*
X163873000Y-75018887D01*
X163873000Y-75709113D01*
X164137138Y-76346799D01*
X164625201Y-76834862D01*
X165262887Y-77099000D01*
X165953113Y-77099000D01*
X166590799Y-76834862D01*
X167078862Y-76346799D01*
X167171148Y-76124000D01*
X171012201Y-76124000D01*
X182404534Y-87516333D01*
X182171793Y-87749074D01*
X181999000Y-88166234D01*
X181999000Y-88617766D01*
X182171793Y-89034926D01*
X182491074Y-89354207D01*
X182620942Y-89408000D01*
X182491074Y-89461793D01*
X182171793Y-89781074D01*
X181999000Y-90198234D01*
X181999000Y-90649766D01*
X182171793Y-91066926D01*
X182491074Y-91386207D01*
X182908234Y-91559000D01*
X183359766Y-91559000D01*
X183776926Y-91386207D01*
X184096207Y-91066926D01*
X184269000Y-90649766D01*
X184269000Y-90198234D01*
X184096207Y-89781074D01*
X183776926Y-89461793D01*
X183647058Y-89408000D01*
X183776926Y-89354207D01*
X184009667Y-89121466D01*
X184660001Y-89771801D01*
X184660000Y-106680518D01*
X181010577Y-110329942D01*
X180879966Y-110014620D01*
X180279380Y-109414034D01*
X179494678Y-109089000D01*
X178645322Y-109089000D01*
X177860620Y-109414034D01*
X177260034Y-110014620D01*
X176935000Y-110799322D01*
X176935000Y-111598198D01*
X172982332Y-107645531D01*
X172939930Y-107582072D01*
X172911558Y-107563115D01*
X172925280Y-107557431D01*
X173216431Y-107266280D01*
X173374000Y-106885874D01*
X173374000Y-106719802D01*
X173458473Y-106635329D01*
X173521929Y-106592929D01*
X173689904Y-106341537D01*
X173734000Y-106119852D01*
X173734000Y-106119848D01*
X173748888Y-106045000D01*
X173734000Y-105970152D01*
X173734000Y-103680126D01*
X174860000Y-103680126D01*
X174860000Y-104091874D01*
X175017569Y-104472280D01*
X175308720Y-104763431D01*
X175689126Y-104921000D01*
X176100874Y-104921000D01*
X176481280Y-104763431D01*
X176772431Y-104472280D01*
X176930000Y-104091874D01*
X176930000Y-103680126D01*
X176853167Y-103494634D01*
X180379802Y-99968000D01*
X180545874Y-99968000D01*
X180926280Y-99810431D01*
X181217431Y-99519280D01*
X181375000Y-99138874D01*
X181375000Y-98727126D01*
X181217431Y-98346720D01*
X180926280Y-98055569D01*
X180545874Y-97898000D01*
X180134126Y-97898000D01*
X179753720Y-98055569D01*
X179462569Y-98346720D01*
X179305000Y-98727126D01*
X179305000Y-98893198D01*
X175410530Y-102787669D01*
X175347071Y-102830071D01*
X175179096Y-103081464D01*
X175165010Y-103152279D01*
X175017569Y-103299720D01*
X174860000Y-103680126D01*
X173734000Y-103680126D01*
X173734000Y-89182234D01*
X176919000Y-89182234D01*
X176919000Y-89633766D01*
X177091793Y-90050926D01*
X177411074Y-90370207D01*
X177828234Y-90543000D01*
X178279766Y-90543000D01*
X178696926Y-90370207D01*
X179016207Y-90050926D01*
X179189000Y-89633766D01*
X179189000Y-89182234D01*
X179016207Y-88765074D01*
X178696926Y-88445793D01*
X178279766Y-88273000D01*
X177828234Y-88273000D01*
X177411074Y-88445793D01*
X177091793Y-88765074D01*
X176919000Y-89182234D01*
X173734000Y-89182234D01*
X173734000Y-88452801D01*
X174791802Y-87395000D01*
X174957874Y-87395000D01*
X175338280Y-87237431D01*
X175629431Y-86946280D01*
X175787000Y-86565874D01*
X175787000Y-86154126D01*
X175629431Y-85773720D01*
X175338280Y-85482569D01*
X174957874Y-85325000D01*
X174546126Y-85325000D01*
X174165720Y-85482569D01*
X173874569Y-85773720D01*
X173717000Y-86154126D01*
X173717000Y-86320198D01*
X172489530Y-87547669D01*
X172426071Y-87590071D01*
X172258096Y-87841464D01*
X172214000Y-88063149D01*
X172214000Y-88063153D01*
X172199112Y-88138000D01*
X172214000Y-88212847D01*
X172214001Y-105645000D01*
X172133126Y-105645000D01*
X171956000Y-105718368D01*
X171956000Y-84454894D01*
X172290280Y-84316431D01*
X172581431Y-84025280D01*
X172739000Y-83644874D01*
X172739000Y-83233126D01*
X172581431Y-82852720D01*
X172290280Y-82561569D01*
X171909874Y-82404000D01*
X171498126Y-82404000D01*
X171117720Y-82561569D01*
X170826569Y-82852720D01*
X170669000Y-83233126D01*
X170669000Y-83385087D01*
X170648071Y-83399071D01*
X170480096Y-83650464D01*
X170436000Y-83872149D01*
X170436000Y-83872153D01*
X170421112Y-83947000D01*
X170436000Y-84021847D01*
X170436001Y-106701288D01*
X170318569Y-106818720D01*
X170224244Y-107046442D01*
X169797000Y-106619199D01*
X169797000Y-96715711D01*
X169914431Y-96598280D01*
X170072000Y-96217874D01*
X170072000Y-95806126D01*
X169914431Y-95425720D01*
X169623280Y-95134569D01*
X169242874Y-94977000D01*
X168831126Y-94977000D01*
X168450720Y-95134569D01*
X168159569Y-95425720D01*
X168019000Y-95765084D01*
X168019000Y-81848801D01*
X169584802Y-80283000D01*
X169750874Y-80283000D01*
X170131280Y-80125431D01*
X170422431Y-79834280D01*
X170580000Y-79453874D01*
X170580000Y-79042126D01*
X170422431Y-78661720D01*
X170131280Y-78370569D01*
X169750874Y-78213000D01*
X169339126Y-78213000D01*
X168958720Y-78370569D01*
X168667569Y-78661720D01*
X168510000Y-79042126D01*
X168510000Y-79208198D01*
X166774530Y-80943669D01*
X166711071Y-80986071D01*
X166543096Y-81237464D01*
X166499000Y-81459149D01*
X166499000Y-81459153D01*
X166484112Y-81534000D01*
X166499000Y-81608847D01*
X166499001Y-105980290D01*
X166321280Y-105802569D01*
X165940874Y-105645000D01*
X165529126Y-105645000D01*
X165148720Y-105802569D01*
X164857569Y-106093720D01*
X164700000Y-106474126D01*
X164700000Y-106885874D01*
X164857569Y-107266280D01*
X164975001Y-107383712D01*
X164975000Y-109024289D01*
X164857569Y-109141720D01*
X164700000Y-109522126D01*
X164700000Y-109933874D01*
X164857569Y-110314280D01*
X165148720Y-110605431D01*
X165529126Y-110763000D01*
X165940874Y-110763000D01*
X166321280Y-110605431D01*
X166612431Y-110314280D01*
X166770000Y-109933874D01*
X166770000Y-109522126D01*
X166612431Y-109141720D01*
X166495000Y-109024289D01*
X166495000Y-107887711D01*
X166672720Y-108065431D01*
X167053126Y-108223000D01*
X167464874Y-108223000D01*
X167845280Y-108065431D01*
X168136431Y-107774280D01*
X168294000Y-107393874D01*
X168294000Y-107094316D01*
X168321096Y-107230536D01*
X168489071Y-107481929D01*
X168552530Y-107524331D01*
X169642671Y-108614473D01*
X169685072Y-108677930D01*
X169748528Y-108720330D01*
X169936463Y-108845905D01*
X169959911Y-108850569D01*
X170158149Y-108890001D01*
X170158153Y-108890001D01*
X170233001Y-108904889D01*
X170307849Y-108890001D01*
X172077200Y-108890001D01*
X175133744Y-111946545D01*
X174890569Y-112189720D01*
X174733000Y-112570126D01*
X174733000Y-112981874D01*
X174890569Y-113362280D01*
X175008001Y-113479712D01*
X175008000Y-113596289D01*
X174890569Y-113713720D01*
X174769883Y-114005081D01*
X171646167Y-110881366D01*
X171723000Y-110695874D01*
X171723000Y-110284126D01*
X171565431Y-109903720D01*
X171274280Y-109612569D01*
X170893874Y-109455000D01*
X170482126Y-109455000D01*
X170101720Y-109612569D01*
X169810569Y-109903720D01*
X169653000Y-110284126D01*
X169653000Y-110695874D01*
X169810569Y-111076280D01*
X169958010Y-111223721D01*
X169972096Y-111294536D01*
X170140071Y-111545929D01*
X170203530Y-111588331D01*
X177717673Y-119102476D01*
X177760071Y-119165929D01*
X177823524Y-119208327D01*
X177823526Y-119208329D01*
X177931363Y-119280383D01*
X178011463Y-119333904D01*
X178233148Y-119378000D01*
X178233152Y-119378000D01*
X178307999Y-119392888D01*
X178382846Y-119378000D01*
X183954289Y-119378000D01*
X184071720Y-119495431D01*
X184452126Y-119653000D01*
X184863874Y-119653000D01*
X185244280Y-119495431D01*
X185535431Y-119204280D01*
X185693000Y-118823874D01*
X185693000Y-118412126D01*
X185535431Y-118031720D01*
X185244280Y-117740569D01*
X184863874Y-117583000D01*
X184452126Y-117583000D01*
X184071720Y-117740569D01*
X183954289Y-117858000D01*
X179738514Y-117858000D01*
X180279380Y-117633966D01*
X180879966Y-117033380D01*
X181205000Y-116248678D01*
X181205000Y-115399322D01*
X180879966Y-114614620D01*
X180279380Y-114014034D01*
X179494678Y-113689000D01*
X178645322Y-113689000D01*
X178330001Y-113819610D01*
X178330001Y-113382849D01*
X178344889Y-113308001D01*
X178330001Y-113233153D01*
X178330001Y-113233149D01*
X178328969Y-113227963D01*
X178645322Y-113359000D01*
X179494678Y-113359000D01*
X180279380Y-113033966D01*
X180879966Y-112433380D01*
X181066105Y-111984000D01*
X181116473Y-111984000D01*
X181191320Y-111998888D01*
X181266167Y-111984000D01*
X181266172Y-111984000D01*
X181487857Y-111939904D01*
X181739249Y-111771929D01*
X181781651Y-111708470D01*
X185904473Y-107585649D01*
X185967929Y-107543249D01*
X186135904Y-107291857D01*
X186180000Y-107070172D01*
X186180000Y-107070168D01*
X186194888Y-106995320D01*
X186180000Y-106920472D01*
X186180000Y-94166088D01*
X186370991Y-94366557D01*
X186371046Y-94366644D01*
X186421434Y-94419504D01*
X186470786Y-94471305D01*
X186470868Y-94471363D01*
X186680575Y-94691357D01*
X186680685Y-94691530D01*
X186731108Y-94744368D01*
X186780329Y-94796004D01*
X186780493Y-94796119D01*
X186990069Y-95015735D01*
X186990233Y-95015993D01*
X187040081Y-95068143D01*
X187089808Y-95120252D01*
X187090058Y-95120428D01*
X187299362Y-95339397D01*
X187299581Y-95339740D01*
X187349324Y-95391666D01*
X187399116Y-95443757D01*
X187399450Y-95443991D01*
X187608350Y-95662058D01*
X187608627Y-95662491D01*
X187658283Y-95714182D01*
X187708144Y-95766231D01*
X187708567Y-95766527D01*
X187916928Y-95983427D01*
X187917263Y-95983949D01*
X187966935Y-96035484D01*
X188016793Y-96087385D01*
X188017304Y-96087742D01*
X188224988Y-96303214D01*
X188225385Y-96303829D01*
X188275281Y-96355393D01*
X188324953Y-96406927D01*
X188325552Y-96407344D01*
X188532434Y-96621138D01*
X188532891Y-96621844D01*
X188582588Y-96672968D01*
X188632520Y-96724569D01*
X188633216Y-96725051D01*
X188839150Y-96936899D01*
X188839674Y-96937704D01*
X188889631Y-96988831D01*
X188939394Y-97040023D01*
X188940184Y-97040567D01*
X189145041Y-97250221D01*
X189145634Y-97251125D01*
X189195695Y-97302060D01*
X189245469Y-97353000D01*
X189246359Y-97353610D01*
X189450004Y-97560813D01*
X189450670Y-97561821D01*
X189500891Y-97612589D01*
X189550644Y-97663211D01*
X189551636Y-97663887D01*
X189753942Y-97868395D01*
X189754681Y-97869505D01*
X189804858Y-97919865D01*
X189854821Y-97970372D01*
X189855925Y-97971118D01*
X190056749Y-98172675D01*
X190057568Y-98173895D01*
X190107873Y-98223986D01*
X190157898Y-98274193D01*
X190159116Y-98275010D01*
X190358331Y-98473376D01*
X190359234Y-98474708D01*
X190409545Y-98524371D01*
X190459779Y-98574391D01*
X190461122Y-98575284D01*
X190658584Y-98770204D01*
X190659581Y-98771660D01*
X190710228Y-98821183D01*
X190760368Y-98870677D01*
X190761834Y-98871643D01*
X190957425Y-99062891D01*
X190958516Y-99064468D01*
X191009202Y-99113519D01*
X191059569Y-99162768D01*
X191061173Y-99163814D01*
X191254750Y-99351147D01*
X191255944Y-99352852D01*
X191306734Y-99401454D01*
X191357289Y-99450379D01*
X191359040Y-99451508D01*
X191550467Y-99634690D01*
X191551775Y-99636534D01*
X191602780Y-99684750D01*
X191653435Y-99733224D01*
X191655340Y-99734437D01*
X191844493Y-99913249D01*
X191845924Y-99915238D01*
X191897086Y-99962967D01*
X191947920Y-100011022D01*
X191949994Y-100012325D01*
X192136912Y-100186701D01*
X192138609Y-100189021D01*
X192189761Y-100236004D01*
X192240667Y-100283494D01*
X192243117Y-100285011D01*
X192428637Y-100455409D01*
X192430866Y-100458394D01*
X192481894Y-100504326D01*
X192532515Y-100550821D01*
X192535701Y-100552760D01*
X192721444Y-100719953D01*
X192724242Y-100723603D01*
X192775202Y-100768342D01*
X192825628Y-100813732D01*
X192829583Y-100816084D01*
X193016948Y-100980576D01*
X193020322Y-100984847D01*
X193071304Y-101028297D01*
X193121654Y-101072500D01*
X193126368Y-101075225D01*
X193316719Y-101237452D01*
X193320659Y-101242271D01*
X193371760Y-101284361D01*
X193422166Y-101327320D01*
X193427603Y-101330357D01*
X193622292Y-101490717D01*
X193626784Y-101496005D01*
X193678128Y-101536707D01*
X193728687Y-101578351D01*
X193734798Y-101581632D01*
X193935188Y-101740487D01*
X193940195Y-101746144D01*
X193991869Y-101785420D01*
X194042722Y-101825733D01*
X194049442Y-101829180D01*
X194256890Y-101986856D01*
X194262367Y-101992779D01*
X194314469Y-102030620D01*
X194365728Y-102069581D01*
X194372979Y-102073115D01*
X194588861Y-102229909D01*
X194594746Y-102235989D01*
X194647359Y-102272396D01*
X194699151Y-102310012D01*
X194706840Y-102313555D01*
X194932532Y-102469728D01*
X194938760Y-102475866D01*
X194992008Y-102510884D01*
X195044394Y-102547134D01*
X195052414Y-102550610D01*
X195289332Y-102706418D01*
X195295822Y-102712513D01*
X195349746Y-102746149D01*
X195402853Y-102781074D01*
X195411104Y-102784421D01*
X195660670Y-102940090D01*
X195667338Y-102946056D01*
X195722005Y-102978348D01*
X195775909Y-103011971D01*
X195784284Y-103015136D01*
X196047950Y-103170884D01*
X196054718Y-103176654D01*
X196110192Y-103207651D01*
X196164940Y-103239991D01*
X196173338Y-103242935D01*
X196452590Y-103398973D01*
X196459377Y-103404487D01*
X196515695Y-103434234D01*
X196571335Y-103465324D01*
X196579659Y-103468020D01*
X196876016Y-103624555D01*
X196882748Y-103629772D01*
X196939917Y-103658307D01*
X196996490Y-103688189D01*
X197004662Y-103690624D01*
X197319662Y-103847853D01*
X197326277Y-103852748D01*
X197384343Y-103880137D01*
X197441829Y-103908831D01*
X197449773Y-103911000D01*
X197784998Y-104069125D01*
X197791437Y-104073681D01*
X197850357Y-104099955D01*
X197908792Y-104127518D01*
X197916456Y-104129429D01*
X198273496Y-104288640D01*
X198279719Y-104292856D01*
X198339523Y-104318082D01*
X198398850Y-104344537D01*
X198406186Y-104346201D01*
X198786650Y-104506686D01*
X198792606Y-104510557D01*
X198853285Y-104534793D01*
X198913496Y-104560191D01*
X198920455Y-104561622D01*
X199324479Y-104722996D01*
X199328846Y-104725749D01*
X199391589Y-104749801D01*
X199454122Y-104774778D01*
X199459208Y-104775723D01*
X199877033Y-104935894D01*
X199877842Y-104936401D01*
X199944539Y-104961772D01*
X200011322Y-104987373D01*
X200012265Y-104987535D01*
X200489409Y-105169037D01*
X201003201Y-105369997D01*
X201461053Y-105561788D01*
X201505121Y-105582651D01*
X201128318Y-105691979D01*
X200618956Y-105824227D01*
X200153384Y-105939101D01*
X200152939Y-105939122D01*
X200083434Y-105956361D01*
X200013260Y-105973675D01*
X200012853Y-105973866D01*
X199617613Y-106071892D01*
X199612341Y-106072214D01*
X199547360Y-106089316D01*
X199482215Y-106105473D01*
X199477440Y-106107718D01*
X199108365Y-106204852D01*
X199101486Y-106205401D01*
X199038425Y-106223259D01*
X198975033Y-106239943D01*
X198968829Y-106242968D01*
X198635203Y-106337448D01*
X198629130Y-106338033D01*
X198565561Y-106357170D01*
X198501769Y-106375235D01*
X198496343Y-106378007D01*
X198194315Y-106468929D01*
X198189522Y-106469454D01*
X198125041Y-106489783D01*
X198060303Y-106509272D01*
X198056046Y-106511536D01*
X197779814Y-106598625D01*
X197776724Y-106598990D01*
X197710762Y-106620396D01*
X197644702Y-106641223D01*
X197641978Y-106642718D01*
X197385682Y-106725890D01*
X197384656Y-106726014D01*
X197316813Y-106748239D01*
X197248959Y-106770259D01*
X197248058Y-106770763D01*
X196936826Y-106872722D01*
X196564431Y-106993332D01*
X196192189Y-107109983D01*
X195811905Y-107223181D01*
X195420339Y-107333908D01*
X195018464Y-107442656D01*
X194607737Y-107549794D01*
X194189846Y-107655642D01*
X193766242Y-107760593D01*
X193338739Y-107864959D01*
X192947246Y-107959832D01*
X192842249Y-107973357D01*
X192743088Y-108030240D01*
X192640702Y-108077706D01*
X192628575Y-108080698D01*
X192583705Y-108101727D01*
X192550299Y-108138326D01*
X192533441Y-108184924D01*
X192534098Y-108189491D01*
X192518772Y-108209350D01*
X192441356Y-108293458D01*
X192430048Y-108324313D01*
X192409967Y-108350332D01*
X192380071Y-108460674D01*
X192340736Y-108568001D01*
X192342096Y-108600837D01*
X192333502Y-108632557D01*
X192348107Y-108745934D01*
X192352838Y-108860151D01*
X192366660Y-108889966D01*
X192370859Y-108922561D01*
X192427741Y-109021721D01*
X192475821Y-109125431D01*
X192553709Y-109197122D01*
X192781070Y-109457840D01*
X192781247Y-109458148D01*
X192828574Y-109512313D01*
X192875989Y-109566685D01*
X192876271Y-109566902D01*
X193083207Y-109803740D01*
X193083563Y-109804357D01*
X193130780Y-109858187D01*
X193177995Y-109912225D01*
X193178561Y-109912661D01*
X193386325Y-110149526D01*
X193386862Y-110150450D01*
X193434029Y-110203912D01*
X193481086Y-110257560D01*
X193481935Y-110258211D01*
X193690711Y-110494850D01*
X193691433Y-110496081D01*
X193738548Y-110549072D01*
X193785547Y-110602343D01*
X193786683Y-110603209D01*
X193996656Y-110839367D01*
X193997567Y-110840904D01*
X194044743Y-110893451D01*
X194091667Y-110946227D01*
X194093092Y-110947305D01*
X194304453Y-111182730D01*
X194305558Y-111184570D01*
X194352795Y-111236577D01*
X194399735Y-111288861D01*
X194401453Y-111290148D01*
X194614390Y-111524586D01*
X194615699Y-111526731D01*
X194663096Y-111578210D01*
X194710045Y-111629899D01*
X194712061Y-111631391D01*
X194926774Y-111864593D01*
X194928289Y-111867034D01*
X194975767Y-111917805D01*
X195022889Y-111968985D01*
X195025212Y-111970680D01*
X195241891Y-112202389D01*
X195243625Y-112205128D01*
X195291343Y-112255270D01*
X195338565Y-112305768D01*
X195341196Y-112307656D01*
X195560052Y-112537632D01*
X195562009Y-112540659D01*
X195609883Y-112589995D01*
X195657366Y-112639891D01*
X195660318Y-112641971D01*
X195881543Y-112869953D01*
X195883738Y-112873270D01*
X195931927Y-112921877D01*
X195979594Y-112971000D01*
X195982868Y-112973259D01*
X196206677Y-113199009D01*
X196209120Y-113202608D01*
X196257609Y-113250383D01*
X196305542Y-113298732D01*
X196309149Y-113301165D01*
X196535754Y-113524434D01*
X196538456Y-113528307D01*
X196587288Y-113575210D01*
X196635518Y-113622730D01*
X196639464Y-113625324D01*
X196869080Y-113845869D01*
X196872052Y-113850007D01*
X196921240Y-113895969D01*
X196969817Y-113942627D01*
X196974111Y-113945373D01*
X197206958Y-114162949D01*
X197210212Y-114167340D01*
X197259788Y-114212314D01*
X197308742Y-114258057D01*
X197313391Y-114260940D01*
X197549691Y-114475304D01*
X197553241Y-114479940D01*
X197603230Y-114523872D01*
X197652589Y-114568649D01*
X197657603Y-114571657D01*
X197897583Y-114782561D01*
X197901444Y-114787432D01*
X197951929Y-114830322D01*
X198001665Y-114874032D01*
X198007042Y-114877144D01*
X198250944Y-115084354D01*
X198255127Y-115089443D01*
X198306090Y-115131204D01*
X198356262Y-115173828D01*
X198362013Y-115177029D01*
X198610075Y-115380299D01*
X198614588Y-115385585D01*
X198666048Y-115426165D01*
X198716685Y-115467659D01*
X198722811Y-115470928D01*
X198975182Y-115669942D01*
X198979956Y-115675319D01*
X199031990Y-115714740D01*
X199083220Y-115755139D01*
X199089622Y-115758402D01*
X199346039Y-115952664D01*
X199350786Y-115957811D01*
X199403697Y-115996345D01*
X199455858Y-116035863D01*
X199462155Y-116038920D01*
X199722084Y-116228225D01*
X199726729Y-116233082D01*
X199780590Y-116270835D01*
X199833686Y-116309504D01*
X199839778Y-116312321D01*
X200102969Y-116496798D01*
X200107493Y-116501367D01*
X200162174Y-116538296D01*
X200216252Y-116576201D01*
X200222141Y-116578795D01*
X200488394Y-116758613D01*
X200492791Y-116762908D01*
X200548300Y-116799070D01*
X200603270Y-116836195D01*
X200608944Y-116838578D01*
X200878075Y-117013909D01*
X200882335Y-117017941D01*
X200938638Y-117053364D01*
X200994458Y-117089729D01*
X200999910Y-117091913D01*
X201271724Y-117262925D01*
X201275843Y-117266707D01*
X201332940Y-117301438D01*
X201389530Y-117337042D01*
X201394755Y-117339040D01*
X201669071Y-117505904D01*
X201673034Y-117509439D01*
X201730813Y-117543460D01*
X201788213Y-117578376D01*
X201793211Y-117580201D01*
X202069820Y-117743073D01*
X202073626Y-117746377D01*
X202132118Y-117779755D01*
X202190226Y-117813970D01*
X202194991Y-117815633D01*
X202473699Y-117974676D01*
X202477343Y-117977758D01*
X202536518Y-118010524D01*
X202595295Y-118044064D01*
X202599824Y-118045576D01*
X202880436Y-118200952D01*
X202883908Y-118203816D01*
X202943656Y-118235956D01*
X203003146Y-118268896D01*
X203007443Y-118270269D01*
X203289742Y-118422127D01*
X203293045Y-118424789D01*
X203353450Y-118456397D01*
X203413504Y-118488702D01*
X203417561Y-118489944D01*
X203701358Y-118638447D01*
X203704483Y-118640911D01*
X203765417Y-118671967D01*
X203826101Y-118703721D01*
X203829925Y-118704844D01*
X204114995Y-118850135D01*
X204117944Y-118852412D01*
X204179478Y-118882999D01*
X204240667Y-118914185D01*
X204244251Y-118915196D01*
X204530396Y-119057432D01*
X204533161Y-119059527D01*
X204595181Y-119089635D01*
X204656929Y-119120329D01*
X204660278Y-119121238D01*
X204947280Y-119260567D01*
X204949858Y-119262485D01*
X205012286Y-119292125D01*
X205074620Y-119322386D01*
X205077737Y-119323201D01*
X205365369Y-119459764D01*
X205367764Y-119461517D01*
X205430734Y-119490799D01*
X205493471Y-119520586D01*
X205496349Y-119521311D01*
X205784403Y-119655262D01*
X205786609Y-119656851D01*
X205849965Y-119685749D01*
X205913211Y-119715160D01*
X205915856Y-119715804D01*
X206204105Y-119847282D01*
X206206123Y-119848716D01*
X206269962Y-119877322D01*
X206333572Y-119906336D01*
X206335980Y-119906904D01*
X206624201Y-120036053D01*
X206626013Y-120037324D01*
X206690103Y-120065584D01*
X206754290Y-120094345D01*
X206756456Y-120094841D01*
X207044468Y-120221834D01*
X207046065Y-120222942D01*
X207110573Y-120250982D01*
X207175154Y-120279458D01*
X207177058Y-120279882D01*
X207464807Y-120404960D01*
X207466185Y-120405906D01*
X207531174Y-120433808D01*
X207596048Y-120462007D01*
X207597682Y-120462361D01*
X207885139Y-120585776D01*
X207886290Y-120586560D01*
X207951571Y-120614297D01*
X208016889Y-120642340D01*
X208018254Y-120642630D01*
X208305373Y-120764623D01*
X208306300Y-120765250D01*
X208318507Y-120770393D01*
X207661279Y-121009181D01*
X206855175Y-121299577D01*
X206048938Y-121586715D01*
X205242530Y-121869792D01*
X204435503Y-122148147D01*
X203627722Y-122421014D01*
X202819116Y-122687608D01*
X202009213Y-122947274D01*
X201198192Y-123199155D01*
X200385609Y-123442593D01*
X199571345Y-123676823D01*
X198755165Y-123901125D01*
X197936748Y-124114803D01*
X197115377Y-124317736D01*
X196291013Y-124510429D01*
X195463669Y-124693447D01*
X194633527Y-124867315D01*
X193800741Y-125032567D01*
X192965556Y-125189720D01*
X192127921Y-125339344D01*
X191288329Y-125481916D01*
X190446580Y-125618033D01*
X189603093Y-125748185D01*
X188758152Y-125872896D01*
X187911512Y-125992762D01*
X187063632Y-126108279D01*
X186214844Y-126219965D01*
X185364895Y-126328415D01*
X184514041Y-126434159D01*
X183662493Y-126537731D01*
X182810995Y-126639607D01*
X181959105Y-126740363D01*
X181107046Y-126840192D01*
X180256026Y-126939024D01*
X179404604Y-127037101D01*
X178552567Y-127134518D01*
X177702495Y-127231054D01*
X176850442Y-127327232D01*
X175998915Y-127422837D01*
X175147589Y-127517982D01*
X174296219Y-127612767D01*
X173443162Y-127707446D01*
X172593743Y-127801502D01*
X171753371Y-127894413D01*
X170964182Y-127981598D01*
X170890679Y-127975231D01*
X170820275Y-127997496D01*
X170820249Y-127997499D01*
X170756319Y-128017722D01*
X170611886Y-128063399D01*
X170611863Y-128063419D01*
X170611833Y-128063428D01*
X170499814Y-128157604D01*
X170388057Y-128251544D01*
X170388043Y-128251571D01*
X170388019Y-128251591D01*
X170322775Y-128377214D01*
X170253266Y-128511023D01*
X170253263Y-128511053D01*
X170253249Y-128511081D01*
X170240849Y-128654371D01*
X170234402Y-128728802D01*
X170234405Y-128728830D01*
X170228039Y-128802392D01*
X170250291Y-128872735D01*
X171324069Y-138599720D01*
X159608237Y-138599720D01*
X160446555Y-129365010D01*
X160467409Y-129294557D01*
X160459644Y-129220823D01*
X160459674Y-129220494D01*
X160452151Y-129149667D01*
X160436786Y-129003764D01*
X160436621Y-129003460D01*
X160436585Y-129003122D01*
X160367204Y-128875671D01*
X160297213Y-128746826D01*
X160296946Y-128746610D01*
X160296782Y-128746309D01*
X160183502Y-128654783D01*
X160069938Y-128562858D01*
X160069609Y-128562761D01*
X160069342Y-128562545D01*
X159928849Y-128521096D01*
X159860332Y-128500816D01*
X159860004Y-128500786D01*
X159788891Y-128479806D01*
X159715826Y-128487567D01*
X158836689Y-128406963D01*
X157886933Y-128319428D01*
X156938593Y-128231108D01*
X155992501Y-128141621D01*
X155049698Y-128050610D01*
X154110389Y-127957635D01*
X153175504Y-127862329D01*
X152245447Y-127764268D01*
X151321386Y-127663117D01*
X150403634Y-127558443D01*
X149493031Y-127449877D01*
X148590170Y-127337020D01*
X147695632Y-127219469D01*
X146810437Y-127096887D01*
X145935024Y-126968857D01*
X145070054Y-126834991D01*
X144216372Y-126694935D01*
X143374668Y-126548314D01*
X142545479Y-126394729D01*
X141729615Y-126233827D01*
X140927796Y-126065251D01*
X140140249Y-125888555D01*
X139364815Y-125703416D01*
X138596615Y-125509659D01*
X137831442Y-125307310D01*
X137064641Y-125096277D01*
X136292043Y-124876598D01*
X135508975Y-124648175D01*
X134711696Y-124411183D01*
X133895561Y-124165543D01*
X133053905Y-123910561D01*
X132258171Y-123669240D01*
X132257810Y-123669047D01*
X132188623Y-123648148D01*
X132120015Y-123627341D01*
X132119611Y-123627301D01*
X131363386Y-123398868D01*
X164562737Y-123398868D01*
X164673641Y-123676099D01*
X165319593Y-123919323D01*
X166009453Y-123896836D01*
X166542359Y-123676099D01*
X166653263Y-123398868D01*
X165608000Y-122353605D01*
X164562737Y-123398868D01*
X131363386Y-123398868D01*
X131359833Y-123397795D01*
X131359070Y-123397391D01*
X131290708Y-123376915D01*
X131222072Y-123356182D01*
X131221208Y-123356098D01*
X130425776Y-123117846D01*
X130424654Y-123117256D01*
X130356349Y-123097051D01*
X130288299Y-123076668D01*
X130287040Y-123076548D01*
X129451787Y-122829472D01*
X129450364Y-122828732D01*
X129382447Y-122808961D01*
X129314499Y-122788861D01*
X129312899Y-122788715D01*
X128433670Y-122532763D01*
X128431993Y-122531901D01*
X128364212Y-122512542D01*
X128296476Y-122492824D01*
X128294596Y-122492660D01*
X127367212Y-122227797D01*
X127365330Y-122226844D01*
X127297689Y-122207941D01*
X127230034Y-122188619D01*
X127227927Y-122188446D01*
X126248930Y-121914861D01*
X126247562Y-121914175D01*
X126179201Y-121895375D01*
X126144198Y-121885593D01*
X163862677Y-121885593D01*
X163885164Y-122575453D01*
X164105901Y-123108359D01*
X164383132Y-123219263D01*
X165428395Y-122174000D01*
X165787605Y-122174000D01*
X166832868Y-123219263D01*
X167110099Y-123108359D01*
X167353323Y-122462407D01*
X167330836Y-121772547D01*
X167110099Y-121239641D01*
X166832868Y-121128737D01*
X165787605Y-122174000D01*
X165428395Y-122174000D01*
X164383132Y-121128737D01*
X164105901Y-121239641D01*
X163862677Y-121885593D01*
X126144198Y-121885593D01*
X126110969Y-121876307D01*
X126109444Y-121876191D01*
X125019290Y-121576383D01*
X123875654Y-121254378D01*
X122869544Y-120949132D01*
X164562737Y-120949132D01*
X165608000Y-121994395D01*
X166653263Y-120949132D01*
X166542359Y-120671901D01*
X165896407Y-120428677D01*
X165206547Y-120451164D01*
X164673641Y-120671901D01*
X164562737Y-120949132D01*
X122869544Y-120949132D01*
X122817911Y-120933467D01*
X121921134Y-120620752D01*
X121426949Y-120401729D01*
X122120765Y-120131460D01*
X123055175Y-119831508D01*
X124137232Y-119513738D01*
X125233276Y-119196080D01*
X125238317Y-119195577D01*
X125302716Y-119175954D01*
X125367457Y-119157191D01*
X125371960Y-119154856D01*
X126422731Y-118834683D01*
X126434496Y-118833127D01*
X126491879Y-118813613D01*
X126549866Y-118795944D01*
X126560327Y-118790336D01*
X127578794Y-118443987D01*
X127597793Y-118440458D01*
X127647199Y-118420725D01*
X127697564Y-118403597D01*
X127714292Y-118393927D01*
X128649500Y-118020392D01*
X128670593Y-118015177D01*
X128716568Y-117993604D01*
X128763755Y-117974757D01*
X128781983Y-117962910D01*
X128907260Y-117904126D01*
X150476000Y-117904126D01*
X150476000Y-118315874D01*
X150633569Y-118696280D01*
X150924720Y-118987431D01*
X151305126Y-119145000D01*
X151716874Y-119145000D01*
X152097280Y-118987431D01*
X152388431Y-118696280D01*
X152546000Y-118315874D01*
X152546000Y-117904126D01*
X152388431Y-117523720D01*
X152097280Y-117232569D01*
X151716874Y-117075000D01*
X151305126Y-117075000D01*
X150924720Y-117232569D01*
X150633569Y-117523720D01*
X150476000Y-117904126D01*
X128907260Y-117904126D01*
X129627206Y-117566305D01*
X129648002Y-117559844D01*
X129692596Y-117535622D01*
X129738550Y-117514059D01*
X129756085Y-117501137D01*
X130521400Y-117085444D01*
X130541033Y-117078102D01*
X130584897Y-117050954D01*
X130630206Y-117026344D01*
X130646312Y-117012944D01*
X131343140Y-116581674D01*
X131360734Y-116574034D01*
X131404578Y-116543650D01*
X131449935Y-116515578D01*
X131463962Y-116502496D01*
X132103585Y-116059231D01*
X132118381Y-116052008D01*
X132162996Y-116018058D01*
X132209052Y-115986141D01*
X132220489Y-115974309D01*
X132688566Y-115618126D01*
X136633000Y-115618126D01*
X136633000Y-116029874D01*
X136790569Y-116410280D01*
X137081720Y-116701431D01*
X137462126Y-116859000D01*
X137873874Y-116859000D01*
X138254280Y-116701431D01*
X138545431Y-116410280D01*
X138703000Y-116029874D01*
X138703000Y-115863801D01*
X142046802Y-112520000D01*
X142298289Y-112520000D01*
X142415720Y-112637431D01*
X142796126Y-112795000D01*
X143207874Y-112795000D01*
X143588280Y-112637431D01*
X143879431Y-112346280D01*
X144037000Y-111965874D01*
X144037000Y-111554126D01*
X143879431Y-111173720D01*
X143588280Y-110882569D01*
X143207874Y-110725000D01*
X142796126Y-110725000D01*
X142415720Y-110882569D01*
X142298289Y-111000000D01*
X141806847Y-111000000D01*
X141732000Y-110985112D01*
X141657153Y-111000000D01*
X141657148Y-111000000D01*
X141435463Y-111044096D01*
X141184071Y-111212071D01*
X141141671Y-111275527D01*
X137628199Y-114789000D01*
X137462126Y-114789000D01*
X137081720Y-114946569D01*
X136790569Y-115237720D01*
X136633000Y-115618126D01*
X132688566Y-115618126D01*
X132814228Y-115522504D01*
X132825629Y-115516438D01*
X132871752Y-115478731D01*
X132919162Y-115442655D01*
X132927716Y-115432980D01*
X133486941Y-114975803D01*
X133494559Y-114971516D01*
X133542890Y-114930064D01*
X133592250Y-114889711D01*
X133597815Y-114882956D01*
X134133970Y-114423109D01*
X134137607Y-114421008D01*
X134188822Y-114376065D01*
X134240666Y-114331599D01*
X134243266Y-114328287D01*
X134823016Y-113819528D01*
X135456325Y-113265113D01*
X136105321Y-112711042D01*
X136775356Y-112155566D01*
X137464704Y-111597907D01*
X138170330Y-111038323D01*
X138889196Y-110477061D01*
X139618006Y-109914551D01*
X140354008Y-109350786D01*
X141011833Y-108848799D01*
X141051640Y-108833262D01*
X141127127Y-108760818D01*
X141151630Y-108742120D01*
X141179238Y-108710808D01*
X141262607Y-108630800D01*
X141275298Y-108601860D01*
X141296198Y-108578156D01*
X141333633Y-108468835D01*
X141380037Y-108363015D01*
X141380687Y-108331421D01*
X141390924Y-108301525D01*
X141383674Y-108186206D01*
X141386051Y-108070676D01*
X141374561Y-108041237D01*
X141372578Y-108009701D01*
X141321750Y-107905936D01*
X141279734Y-107798289D01*
X141257853Y-107775488D01*
X141243952Y-107747110D01*
X141157283Y-107670694D01*
X141077273Y-107587322D01*
X141048332Y-107574631D01*
X141024628Y-107553731D01*
X140915304Y-107516295D01*
X140877080Y-107499533D01*
X140846984Y-107492900D01*
X140747997Y-107459004D01*
X140705347Y-107461685D01*
X140320077Y-107376777D01*
X139833030Y-107269201D01*
X139348263Y-107161654D01*
X138864551Y-107053630D01*
X138382144Y-106944944D01*
X137902313Y-106835647D01*
X137436429Y-106728126D01*
X156064000Y-106728126D01*
X156064000Y-107139874D01*
X156221569Y-107520280D01*
X156512720Y-107811431D01*
X156893126Y-107969000D01*
X157304874Y-107969000D01*
X157685280Y-107811431D01*
X157802711Y-107694000D01*
X158260000Y-107694000D01*
X158260000Y-107901874D01*
X158417569Y-108282280D01*
X158511289Y-108376000D01*
X158380569Y-108506720D01*
X158223000Y-108887126D01*
X158223000Y-109298874D01*
X158380569Y-109679280D01*
X158671720Y-109970431D01*
X159052126Y-110128000D01*
X159463874Y-110128000D01*
X159844280Y-109970431D01*
X159961711Y-109853000D01*
X160722595Y-109853000D01*
X160835373Y-109965778D01*
X161215779Y-110123347D01*
X161627527Y-110123347D01*
X162007933Y-109965778D01*
X162299084Y-109674627D01*
X162456653Y-109294221D01*
X162456653Y-108882473D01*
X162299084Y-108502067D01*
X162007933Y-108210916D01*
X161817000Y-108131829D01*
X161817000Y-107744126D01*
X161691856Y-107442000D01*
X161817000Y-107139874D01*
X161817000Y-106728126D01*
X161659431Y-106347720D01*
X161368280Y-106056569D01*
X160987874Y-105899000D01*
X160576126Y-105899000D01*
X160195720Y-106056569D01*
X160078289Y-106174000D01*
X157802711Y-106174000D01*
X157685280Y-106056569D01*
X157304874Y-105899000D01*
X156893126Y-105899000D01*
X156512720Y-106056569D01*
X156221569Y-106347720D01*
X156064000Y-106728126D01*
X137436429Y-106728126D01*
X137424769Y-106725435D01*
X136950363Y-106614270D01*
X136479018Y-106501893D01*
X136011470Y-106388243D01*
X135547531Y-106273031D01*
X135088108Y-106156243D01*
X134633276Y-106037658D01*
X134183109Y-105917070D01*
X133735386Y-105794139D01*
X133287054Y-105668711D01*
X132834584Y-105540517D01*
X132375783Y-105409669D01*
X131977254Y-105295923D01*
X131976842Y-105295712D01*
X131907873Y-105276121D01*
X131838487Y-105256317D01*
X131838022Y-105256279D01*
X131496664Y-105159313D01*
X131495809Y-105158878D01*
X131427003Y-105139525D01*
X131358320Y-105120015D01*
X131357365Y-105119938D01*
X131000961Y-105019693D01*
X130999713Y-105019064D01*
X130931327Y-105000107D01*
X130862940Y-104980872D01*
X130861545Y-104980763D01*
X130488081Y-104877237D01*
X130487175Y-104876784D01*
X130418398Y-104857921D01*
X130349543Y-104838834D01*
X130348531Y-104838759D01*
X129896594Y-104714808D01*
X129723294Y-104664340D01*
X130058224Y-104548002D01*
X130594779Y-104381117D01*
X131195122Y-104208157D01*
X131846053Y-104029849D01*
X132535423Y-103846409D01*
X133181377Y-103676313D01*
X133181952Y-103676277D01*
X133251206Y-103657925D01*
X133320821Y-103639594D01*
X133321341Y-103639340D01*
X133912823Y-103482604D01*
X133914879Y-103482463D01*
X133982790Y-103464063D01*
X134050777Y-103446047D01*
X134052627Y-103445141D01*
X134648621Y-103283659D01*
X134652223Y-103283378D01*
X134718401Y-103264753D01*
X134784865Y-103246745D01*
X134788106Y-103245136D01*
X135377918Y-103079140D01*
X135383270Y-103078644D01*
X135447511Y-103059554D01*
X135512099Y-103041377D01*
X135516895Y-103038937D01*
X136090162Y-102868587D01*
X136097635Y-102867741D01*
X136159474Y-102847991D01*
X136221728Y-102829492D01*
X136228383Y-102825983D01*
X136775022Y-102651400D01*
X136785047Y-102649986D01*
X136843899Y-102629402D01*
X136903290Y-102610434D01*
X136912148Y-102605531D01*
X137421643Y-102427332D01*
X137433146Y-102425338D01*
X137489885Y-102403464D01*
X137547281Y-102383389D01*
X137557336Y-102377460D01*
X138026511Y-102196581D01*
X138038550Y-102194080D01*
X138093955Y-102170579D01*
X138150121Y-102148926D01*
X138160512Y-102142349D01*
X138591985Y-101959335D01*
X138604401Y-101956306D01*
X138658537Y-101931106D01*
X138713501Y-101907793D01*
X138724065Y-101900604D01*
X139121236Y-101715727D01*
X139133833Y-101712178D01*
X139186773Y-101685221D01*
X139240624Y-101660154D01*
X139251182Y-101652424D01*
X139617366Y-101465962D01*
X139629904Y-101461943D01*
X139681774Y-101433165D01*
X139734643Y-101406244D01*
X139744986Y-101398094D01*
X140083398Y-101210340D01*
X140095612Y-101205948D01*
X140146619Y-101175265D01*
X140198649Y-101146398D01*
X140208548Y-101138011D01*
X140522331Y-100949255D01*
X140533925Y-100944639D01*
X140584269Y-100911996D01*
X140635693Y-100881062D01*
X140644928Y-100872665D01*
X140937132Y-100683201D01*
X140947818Y-100678552D01*
X140997764Y-100643888D01*
X141048820Y-100610783D01*
X141057180Y-100602650D01*
X141330801Y-100412747D01*
X141340320Y-100408280D01*
X141390190Y-100371529D01*
X141441097Y-100336197D01*
X141448402Y-100328630D01*
X141706413Y-100138489D01*
X141714533Y-100134433D01*
X141764627Y-100095588D01*
X141815654Y-100057984D01*
X141821769Y-100051278D01*
X142067127Y-99861018D01*
X142073667Y-99857587D01*
X142124274Y-99816704D01*
X142175698Y-99776828D01*
X142180540Y-99771249D01*
X142416192Y-99580879D01*
X142421028Y-99578249D01*
X142472499Y-99535391D01*
X142524533Y-99493355D01*
X142528054Y-99489132D01*
X142756985Y-99298508D01*
X142760044Y-99296807D01*
X142812587Y-99252210D01*
X142865550Y-99208109D01*
X142867751Y-99205388D01*
X143092962Y-99014233D01*
X143094230Y-99013522D01*
X143148038Y-98967487D01*
X143202227Y-98921492D01*
X143203134Y-98920349D01*
X143482845Y-98681041D01*
X143820060Y-98393417D01*
X144164700Y-98102961D01*
X144518002Y-97808982D01*
X144879613Y-97511447D01*
X145248653Y-97210759D01*
X145624331Y-96907244D01*
X146005921Y-96601178D01*
X146392608Y-96292905D01*
X146783183Y-95983080D01*
X147177390Y-95671604D01*
X147574385Y-95358839D01*
X147974084Y-95044552D01*
X148279378Y-94804727D01*
X148305121Y-94795468D01*
X148393668Y-94714946D01*
X148429754Y-94686599D01*
X148447110Y-94666348D01*
X148521450Y-94598746D01*
X148541455Y-94556268D01*
X148572005Y-94520622D01*
X148603217Y-94425120D01*
X148646030Y-94334211D01*
X148648256Y-94287312D01*
X148662840Y-94242689D01*
X148655129Y-94142509D01*
X148659893Y-94042139D01*
X148644003Y-93997960D01*
X148640400Y-93951151D01*
X148594940Y-93861550D01*
X148560931Y-93766995D01*
X148529342Y-93732258D01*
X148508101Y-93690392D01*
X148431811Y-93625007D01*
X148364208Y-93550667D01*
X148321732Y-93530663D01*
X148286083Y-93500110D01*
X148190580Y-93468898D01*
X148166446Y-93457532D01*
X148121906Y-93446454D01*
X148008150Y-93409276D01*
X147980875Y-93411375D01*
X147581446Y-93312027D01*
X147067710Y-93183769D01*
X146555248Y-93054873D01*
X146044468Y-92924964D01*
X145535929Y-92793711D01*
X145030036Y-92660746D01*
X144526806Y-92525598D01*
X144026722Y-92387922D01*
X143530370Y-92247403D01*
X143037979Y-92103634D01*
X142549958Y-91956257D01*
X142066712Y-91804921D01*
X141588610Y-91649264D01*
X141115913Y-91488893D01*
X140649213Y-91323527D01*
X140188744Y-91152771D01*
X139734830Y-90976262D01*
X139288377Y-90793849D01*
X138848990Y-90604388D01*
X138415305Y-90405907D01*
X137985409Y-90196187D01*
X137557283Y-89972927D01*
X137128991Y-89733844D01*
X136698516Y-89476560D01*
X136263914Y-89198687D01*
X135823287Y-88897818D01*
X135376695Y-88572918D01*
X134947076Y-88236337D01*
X134659850Y-87976775D01*
X135059900Y-87876840D01*
X135594140Y-87784952D01*
X136220806Y-87703603D01*
X136913653Y-87628366D01*
X137578150Y-87560548D01*
X137580219Y-87560733D01*
X137650124Y-87553203D01*
X137720111Y-87546060D01*
X137722097Y-87545450D01*
X138337621Y-87479145D01*
X138344042Y-87479606D01*
X138409523Y-87471400D01*
X138475162Y-87464329D01*
X138481307Y-87462403D01*
X139100897Y-87384754D01*
X139112241Y-87385220D01*
X139172635Y-87375764D01*
X139233284Y-87368163D01*
X139244056Y-87364581D01*
X139850010Y-87269703D01*
X139867461Y-87269597D01*
X139921420Y-87258522D01*
X139975810Y-87250006D01*
X139992184Y-87243998D01*
X140565172Y-87126395D01*
X140586885Y-87124984D01*
X140635929Y-87111872D01*
X140685671Y-87101663D01*
X140705727Y-87093212D01*
X141233955Y-86951993D01*
X141256699Y-86949093D01*
X141303759Y-86933331D01*
X141351676Y-86920521D01*
X141372234Y-86910397D01*
X141856384Y-86748243D01*
X141879498Y-86743787D01*
X141924880Y-86725302D01*
X141971341Y-86709741D01*
X141991773Y-86698055D01*
X142391775Y-86535126D01*
X145904000Y-86535126D01*
X145904000Y-86946874D01*
X146061569Y-87327280D01*
X146352720Y-87618431D01*
X146733126Y-87776000D01*
X146899199Y-87776000D01*
X160022000Y-100898803D01*
X160022000Y-102051198D01*
X149117000Y-91146199D01*
X149117000Y-90980126D01*
X148959431Y-90599720D01*
X148668280Y-90308569D01*
X148287874Y-90151000D01*
X147876126Y-90151000D01*
X147495720Y-90308569D01*
X147204569Y-90599720D01*
X147047000Y-90980126D01*
X147047000Y-91391874D01*
X147204569Y-91772280D01*
X147495720Y-92063431D01*
X147876126Y-92221000D01*
X148042199Y-92221000D01*
X152322198Y-96501000D01*
X152185802Y-96501000D01*
X151593331Y-95908530D01*
X151550929Y-95845071D01*
X151299537Y-95677096D01*
X151077852Y-95633000D01*
X151077847Y-95633000D01*
X151003000Y-95618112D01*
X150928153Y-95633000D01*
X150442848Y-95633000D01*
X150368000Y-95618112D01*
X150293152Y-95633000D01*
X150293148Y-95633000D01*
X150119605Y-95667520D01*
X150071462Y-95677096D01*
X149967344Y-95746666D01*
X149820071Y-95845071D01*
X149777671Y-95908527D01*
X149566198Y-96120000D01*
X149400126Y-96120000D01*
X149019720Y-96277569D01*
X148728569Y-96568720D01*
X148571000Y-96949126D01*
X148571000Y-97360874D01*
X148728569Y-97741280D01*
X149019720Y-98032431D01*
X149400126Y-98190000D01*
X149811874Y-98190000D01*
X150192280Y-98032431D01*
X150483431Y-97741280D01*
X150641000Y-97360874D01*
X150641000Y-97194802D01*
X150682802Y-97153000D01*
X150688199Y-97153000D01*
X151111000Y-97575802D01*
X151111000Y-97741874D01*
X151268569Y-98122280D01*
X151559720Y-98413431D01*
X151940126Y-98571000D01*
X152351874Y-98571000D01*
X152732280Y-98413431D01*
X153023431Y-98122280D01*
X153181000Y-97741874D01*
X153181000Y-97359802D01*
X159133000Y-103311803D01*
X159133001Y-104071288D01*
X159015569Y-104188720D01*
X158858000Y-104569126D01*
X158858000Y-104980874D01*
X159015569Y-105361280D01*
X159306720Y-105652431D01*
X159687126Y-105810000D01*
X160098874Y-105810000D01*
X160479280Y-105652431D01*
X160770431Y-105361280D01*
X160900196Y-105048000D01*
X160987874Y-105048000D01*
X161368280Y-104890431D01*
X161659431Y-104599280D01*
X161817000Y-104218874D01*
X161817000Y-103807126D01*
X161659431Y-103426720D01*
X161542000Y-103309289D01*
X161542000Y-100658846D01*
X161556888Y-100583999D01*
X161542000Y-100509152D01*
X161542000Y-100509148D01*
X161497904Y-100287463D01*
X161432127Y-100189021D01*
X161372329Y-100099526D01*
X161372327Y-100099524D01*
X161329929Y-100036071D01*
X161266476Y-99993673D01*
X147974000Y-86701199D01*
X147974000Y-86535126D01*
X147816431Y-86154720D01*
X147525280Y-85863569D01*
X147144874Y-85706000D01*
X146733126Y-85706000D01*
X146352720Y-85863569D01*
X146061569Y-86154720D01*
X145904000Y-86535126D01*
X142391775Y-86535126D01*
X142435525Y-86517306D01*
X142458401Y-86511359D01*
X142502432Y-86490053D01*
X142547718Y-86471607D01*
X142567442Y-86458596D01*
X142974476Y-86261637D01*
X142996446Y-86254434D01*
X143039496Y-86230175D01*
X143083981Y-86208649D01*
X143102430Y-86194710D01*
X143476304Y-85984027D01*
X143496736Y-85975957D01*
X143539246Y-85948559D01*
X143583295Y-85923736D01*
X143599959Y-85909427D01*
X143944236Y-85687532D01*
X143962584Y-85679101D01*
X144004963Y-85648392D01*
X144048953Y-85620039D01*
X144063465Y-85605999D01*
X144381716Y-85375383D01*
X144397567Y-85367152D01*
X144440239Y-85332975D01*
X144484489Y-85300910D01*
X144496624Y-85287815D01*
X144792495Y-85050846D01*
X144805577Y-85043362D01*
X144848905Y-85005666D01*
X144893730Y-84969765D01*
X144903429Y-84958230D01*
X145180584Y-84717103D01*
X145190749Y-84710844D01*
X145235105Y-84669669D01*
X145280795Y-84629918D01*
X145288104Y-84620470D01*
X145550207Y-84377162D01*
X145557410Y-84372494D01*
X145603208Y-84327962D01*
X145650023Y-84284504D01*
X145655053Y-84277550D01*
X145905751Y-84033782D01*
X145909990Y-84030951D01*
X145957614Y-83983352D01*
X146005893Y-83936408D01*
X146008784Y-83932210D01*
X146251644Y-83689480D01*
X146252948Y-83688601D01*
X146302905Y-83638247D01*
X146352935Y-83588243D01*
X146353807Y-83586939D01*
X146643312Y-83295129D01*
X146983902Y-82955373D01*
X147330395Y-82618566D01*
X147685488Y-82282713D01*
X148049127Y-81947193D01*
X148420566Y-81612037D01*
X148799186Y-81277159D01*
X149184346Y-80942484D01*
X149575329Y-80607998D01*
X149971522Y-80273594D01*
X150372100Y-79939338D01*
X150776629Y-79604968D01*
X151184214Y-79270601D01*
X151594372Y-78936009D01*
X152005950Y-78601510D01*
X152413742Y-78270706D01*
X152523189Y-78185543D01*
X152563375Y-78114839D01*
X152615325Y-78052266D01*
X152634925Y-77988953D01*
X152667674Y-77931333D01*
X152677743Y-77850636D01*
X152701794Y-77772945D01*
X152695673Y-77706948D01*
X152703879Y-77641181D01*
X152682300Y-77562772D01*
X152674789Y-77481794D01*
X152643878Y-77423164D01*
X152626292Y-77359264D01*
X152576351Y-77295083D01*
X152538421Y-77223139D01*
X152487426Y-77180801D01*
X152446726Y-77128496D01*
X152376020Y-77088309D01*
X152313449Y-77036360D01*
X152180961Y-76995346D01*
X151998365Y-76934737D01*
X151809493Y-76871960D01*
X151621015Y-76809145D01*
X151432929Y-76746210D01*
X151245972Y-76683315D01*
X151059222Y-76620069D01*
X150874006Y-76556838D01*
X150689544Y-76493273D01*
X150506162Y-76429402D01*
X150324307Y-76365301D01*
X150143742Y-76300802D01*
X149964529Y-76235845D01*
X149787192Y-76170537D01*
X149611471Y-76104704D01*
X149437627Y-76038357D01*
X149265792Y-75971467D01*
X149096042Y-75903981D01*
X148928409Y-75835831D01*
X148763199Y-75767059D01*
X148600395Y-75697577D01*
X148440217Y-75627399D01*
X148282703Y-75556460D01*
X148127996Y-75484746D01*
X147976087Y-75412173D01*
X147826278Y-75338393D01*
X147677159Y-75262955D01*
X147527919Y-75185749D01*
X147377526Y-75106554D01*
X147225383Y-75025384D01*
X147070318Y-74941955D01*
X146975531Y-74890755D01*
X146975481Y-74890714D01*
X146911578Y-74856211D01*
X146848207Y-74821981D01*
X146848146Y-74821962D01*
X146812875Y-74802919D01*
X146812336Y-74802474D01*
X146749134Y-74768503D01*
X146686096Y-74734467D01*
X146685429Y-74734262D01*
X146645339Y-74712713D01*
X146644347Y-74711901D01*
X146581544Y-74678423D01*
X146518944Y-74644776D01*
X146517720Y-74644402D01*
X146472203Y-74620139D01*
X146470800Y-74619001D01*
X146408286Y-74586067D01*
X146346039Y-74552886D01*
X146344312Y-74552364D01*
X146292755Y-74525203D01*
X146290983Y-74523784D01*
X146228822Y-74491521D01*
X146166681Y-74458784D01*
X146164498Y-74458136D01*
X146106305Y-74427933D01*
X146104211Y-74426281D01*
X146042009Y-74394562D01*
X145980169Y-74362466D01*
X145977612Y-74361724D01*
X145912140Y-74328338D01*
X145909771Y-74326500D01*
X145847660Y-74295457D01*
X145785835Y-74263931D01*
X145782951Y-74263117D01*
X145709561Y-74226437D01*
X145706966Y-74224460D01*
X145644879Y-74194110D01*
X145582982Y-74163174D01*
X145579831Y-74162312D01*
X145556362Y-74150839D01*
X145582726Y-74140064D01*
X145647291Y-74114267D01*
X145649747Y-74112670D01*
X145760934Y-74067225D01*
X145770736Y-74065046D01*
X145827872Y-74039865D01*
X145885655Y-74016248D01*
X145894028Y-74010710D01*
X146003388Y-73962514D01*
X146017963Y-73958645D01*
X146069528Y-73933365D01*
X146122071Y-73910209D01*
X146134417Y-73901553D01*
X146231220Y-73854096D01*
X146245864Y-73849552D01*
X146296121Y-73822278D01*
X146347448Y-73797115D01*
X146359631Y-73787812D01*
X146441245Y-73743521D01*
X146454985Y-73738657D01*
X146504758Y-73709053D01*
X146555673Y-73681422D01*
X146566884Y-73672101D01*
X146634774Y-73631722D01*
X146646921Y-73626934D01*
X146696890Y-73594776D01*
X146747979Y-73564390D01*
X146757686Y-73555652D01*
X146813448Y-73519767D01*
X146823324Y-73515539D01*
X146874248Y-73480639D01*
X146926159Y-73447232D01*
X146933884Y-73439768D01*
X146979055Y-73408811D01*
X146986102Y-73405619D01*
X147038718Y-73367922D01*
X147092098Y-73331339D01*
X147097502Y-73325806D01*
X147133663Y-73299899D01*
X147137476Y-73298119D01*
X147192485Y-73257756D01*
X147247931Y-73218031D01*
X147250807Y-73214961D01*
X147279684Y-73193772D01*
X147280075Y-73193589D01*
X147337942Y-73151024D01*
X147396058Y-73108381D01*
X147396351Y-73108061D01*
X147466254Y-73056643D01*
X149276580Y-72252054D01*
X149311417Y-72229065D01*
X151089417Y-70578065D01*
X151090344Y-70577196D01*
X151201282Y-70472097D01*
X151242602Y-70442870D01*
X151296380Y-70404842D01*
X151356090Y-70362629D01*
X151405675Y-70327582D01*
X151459804Y-70289328D01*
X151460837Y-70288598D01*
X151528782Y-70258214D01*
X151628991Y-70152269D01*
X151729043Y-70046845D01*
X151729272Y-70046248D01*
X151729711Y-70045784D01*
X151774192Y-69929340D01*
X155916344Y-66005196D01*
X155928024Y-65992519D01*
X156635986Y-65110906D01*
X156823035Y-64921548D01*
X156824607Y-64920472D01*
X156873813Y-64870144D01*
X156923434Y-64819910D01*
X156924486Y-64818314D01*
X157292580Y-64441823D01*
X157294304Y-64440628D01*
X157343159Y-64390090D01*
X157392323Y-64339804D01*
X157393469Y-64338046D01*
X157757815Y-63961146D01*
X157759688Y-63959831D01*
X157808043Y-63909187D01*
X157856843Y-63858706D01*
X157858085Y-63856777D01*
X158218356Y-63479455D01*
X158220384Y-63478011D01*
X158268313Y-63427134D01*
X158316614Y-63376547D01*
X158317950Y-63374444D01*
X158673831Y-62996674D01*
X158676012Y-62995096D01*
X158723397Y-62944058D01*
X158771253Y-62893259D01*
X158772684Y-62890972D01*
X159123849Y-62512739D01*
X159126189Y-62511019D01*
X159173077Y-62459717D01*
X159220378Y-62408770D01*
X159221901Y-62406297D01*
X159568036Y-62027577D01*
X159570535Y-62025707D01*
X159616896Y-61974117D01*
X159663604Y-61923012D01*
X159665217Y-61920346D01*
X160006017Y-61541108D01*
X160008672Y-61539084D01*
X160054337Y-61487339D01*
X160100550Y-61435913D01*
X160102257Y-61433037D01*
X160437532Y-61053116D01*
X160440510Y-61050798D01*
X160485426Y-60998846D01*
X160530832Y-60947393D01*
X160532728Y-60944133D01*
X160862717Y-60562447D01*
X160866374Y-60559524D01*
X160909992Y-60507765D01*
X160954335Y-60456475D01*
X160956651Y-60452397D01*
X161281677Y-60066707D01*
X161286032Y-60063117D01*
X161328263Y-60011427D01*
X161371330Y-59960321D01*
X161374059Y-59955372D01*
X161694133Y-59563600D01*
X161699121Y-59559338D01*
X161739862Y-59507628D01*
X161781573Y-59456574D01*
X161784657Y-59450773D01*
X162099702Y-59050909D01*
X162105249Y-59045973D01*
X162144459Y-58994102D01*
X162184704Y-58943022D01*
X162188073Y-58936405D01*
X162497989Y-58526417D01*
X162503997Y-58520828D01*
X162541580Y-58468750D01*
X162580338Y-58417478D01*
X162583917Y-58410087D01*
X162888561Y-57987955D01*
X162894931Y-57981737D01*
X162930864Y-57929338D01*
X162968071Y-57877782D01*
X162971774Y-57869681D01*
X163270982Y-57433364D01*
X163277603Y-57426561D01*
X163297204Y-57396346D01*
X165397000Y-57363016D01*
X165397000Y-57749113D01*
X165661138Y-58386799D01*
X166149201Y-58874862D01*
X166786887Y-59139000D01*
X167477113Y-59139000D01*
X168114799Y-58874862D01*
X168602862Y-58386799D01*
X168867000Y-57749113D01*
X168867000Y-57307937D01*
X170409271Y-57283456D01*
X170534083Y-57614034D01*
G04 #@! TD*
M02*
