M48
;DRILL file {KiCad 5.0.1} date Wed 05 Dec 2018 03:46:45 PM CST
;FORMAT={2:4/ absolute / inch / suppress leading zeros}
FMAT,2
INCH,TZ
T1C0.0157
T2C0.0472
T3C0.0827
T4C0.0394
T5C0.0866
%
G90
G05
M72
T1
X54200Y-45600
X56300Y-44000
X57850Y-34150
X58300Y-35900
X58900Y-38250
X59650Y-46500
X59900Y-38400
X61850Y-42100
X62700Y-42950
X62715Y-42400
X62950Y-41250
X63300Y-40950
X63300Y-42100
X63300Y-42500
X63552Y-42948
X63700Y-40750
X63830Y-33730
X64400Y-33650
X65250Y-42000
X65250Y-43200
X65850Y-42200
X66550Y-37800
X66750Y-31200
X67200Y-43500
X67400Y-42285
X67600Y-32850
X67850Y-42000
X68800Y-34000
X69200Y-44400
X69200Y-45000
X69250Y-40900
X71000Y-38950
X71050Y-36150
X72250Y-37500
X72700Y-46700
T2
X65200Y-29671
X65200Y-48100
T3
X70500Y-43789
X70500Y-45600
T4
X70100Y-35200
X72100Y-34800
X72100Y-35600
T5
X65800Y-22600
T0
M30
