G04 #@! TF.GenerationSoftware,KiCad,Pcbnew,5.0.1*
G04 #@! TF.CreationDate,2018-12-05T15:45:31-06:00*
G04 #@! TF.ProjectId,chrimbus,636872696D6275732E6B696361645F70,rev?*
G04 #@! TF.SameCoordinates,Original*
G04 #@! TF.FileFunction,Legend,Bot*
G04 #@! TF.FilePolarity,Positive*
%FSLAX46Y46*%
G04 Gerber Fmt 4.6, Leading zero omitted, Abs format (unit mm)*
G04 Created by KiCad (PCBNEW 5.0.1) date Wed 05 Dec 2018 03:45:31 PM CST*
%MOMM*%
%LPD*%
G01*
G04 APERTURE LIST*
%ADD10C,0.150000*%
%ADD11C,0.300000*%
%ADD12C,1.000000*%
%ADD13C,3.602000*%
%ADD14C,2.302000*%
%ADD15C,1.102000*%
G04 APERTURE END LIST*
D10*
G04 #@! TO.C,SW1*
X175006000Y-107442000D02*
X183642000Y-107442000D01*
X175006000Y-124206000D02*
X183642000Y-124206000D01*
X175006000Y-107594000D02*
X175006000Y-124054000D01*
X183642000Y-107594000D02*
X183642000Y-124054000D01*
G04 #@! TO.C,BT1*
X172198000Y-124019000D02*
X172198000Y-73519000D01*
X159018000Y-124019000D02*
X159018000Y-73519000D01*
X172198000Y-124019000D02*
X158990000Y-124019000D01*
X172212000Y-73406000D02*
X159004000Y-73406000D01*
G04 #@! TO.C,SW1*
X182268761Y-120078666D02*
X182316380Y-120221523D01*
X182316380Y-120459619D01*
X182268761Y-120554857D01*
X182221142Y-120602476D01*
X182125904Y-120650095D01*
X182030666Y-120650095D01*
X181935428Y-120602476D01*
X181887809Y-120554857D01*
X181840190Y-120459619D01*
X181792571Y-120269142D01*
X181744952Y-120173904D01*
X181697333Y-120126285D01*
X181602095Y-120078666D01*
X181506857Y-120078666D01*
X181411619Y-120126285D01*
X181364000Y-120173904D01*
X181316380Y-120269142D01*
X181316380Y-120507238D01*
X181364000Y-120650095D01*
X181316380Y-120983428D02*
X182316380Y-121221523D01*
X181602095Y-121412000D01*
X182316380Y-121602476D01*
X181316380Y-121840571D01*
X182316380Y-122745333D02*
X182316380Y-122173904D01*
X182316380Y-122459619D02*
X181316380Y-122459619D01*
X181459238Y-122364380D01*
X181554476Y-122269142D01*
X181602095Y-122173904D01*
D11*
X185340761Y-118745238D02*
X185340761Y-119126190D01*
X185436000Y-119316666D01*
X185626476Y-119507142D01*
X186007428Y-119602380D01*
X186674095Y-119602380D01*
X187055047Y-119507142D01*
X187245523Y-119316666D01*
X187340761Y-119126190D01*
X187340761Y-118745238D01*
X187245523Y-118554761D01*
X187055047Y-118364285D01*
X186674095Y-118269047D01*
X186007428Y-118269047D01*
X185626476Y-118364285D01*
X185436000Y-118554761D01*
X185340761Y-118745238D01*
X186293142Y-121126190D02*
X186293142Y-120459523D01*
X187340761Y-120459523D02*
X185340761Y-120459523D01*
X185340761Y-121411904D01*
X186293142Y-122840476D02*
X186293142Y-122173809D01*
X187340761Y-122173809D02*
X185340761Y-122173809D01*
X185340761Y-123126190D01*
X185340761Y-110013904D02*
X185340761Y-110394857D01*
X185436000Y-110585333D01*
X185626476Y-110775809D01*
X186007428Y-110871047D01*
X186674095Y-110871047D01*
X187055047Y-110775809D01*
X187245523Y-110585333D01*
X187340761Y-110394857D01*
X187340761Y-110013904D01*
X187245523Y-109823428D01*
X187055047Y-109632952D01*
X186674095Y-109537714D01*
X186007428Y-109537714D01*
X185626476Y-109632952D01*
X185436000Y-109823428D01*
X185340761Y-110013904D01*
X187340761Y-111728190D02*
X185340761Y-111728190D01*
X187340761Y-112871047D01*
X185340761Y-112871047D01*
G04 #@! TO.C,BT1*
D10*
X165028571Y-97766285D02*
X165076190Y-97909142D01*
X165123809Y-97956761D01*
X165219047Y-98004380D01*
X165361904Y-98004380D01*
X165457142Y-97956761D01*
X165504761Y-97909142D01*
X165552380Y-97813904D01*
X165552380Y-97432952D01*
X164552380Y-97432952D01*
X164552380Y-97766285D01*
X164600000Y-97861523D01*
X164647619Y-97909142D01*
X164742857Y-97956761D01*
X164838095Y-97956761D01*
X164933333Y-97909142D01*
X164980952Y-97861523D01*
X165028571Y-97766285D01*
X165028571Y-97432952D01*
X164552380Y-98290095D02*
X164552380Y-98861523D01*
X165552380Y-98575809D02*
X164552380Y-98575809D01*
X165552380Y-99718666D02*
X165552380Y-99147238D01*
X165552380Y-99432952D02*
X164552380Y-99432952D01*
X164695238Y-99337714D01*
X164790476Y-99242476D01*
X164838095Y-99147238D01*
D12*
X165893714Y-78740190D02*
X165893714Y-81787809D01*
X167417523Y-80264000D02*
X164369904Y-80264000D01*
X166147714Y-116078190D02*
X166147714Y-119125809D01*
G04 #@! TD*
%LPC*%
D13*
G04 #@! TO.C,SW1*
X179070000Y-115824000D03*
X179070000Y-111224000D03*
G04 #@! TD*
D14*
G04 #@! TO.C,MH1*
X167132000Y-57404000D03*
G04 #@! TD*
G04 #@! TO.C,BT1*
X165608000Y-122174000D03*
X165608000Y-75364000D03*
G04 #@! TD*
D15*
G04 #@! TO.C,J1*
X178054000Y-89408000D03*
X183134000Y-88392000D03*
X183134000Y-90424000D03*
G04 #@! TD*
M02*
