G04 #@! TF.GenerationSoftware,KiCad,Pcbnew,5.0.1*
G04 #@! TF.CreationDate,2018-11-24T16:53:29-06:00*
G04 #@! TF.ProjectId,chrimbus,636872696D6275732E6B696361645F70,rev?*
G04 #@! TF.SameCoordinates,Original*
G04 #@! TF.FileFunction,Soldermask,Bot*
G04 #@! TF.FilePolarity,Negative*
%FSLAX46Y46*%
G04 Gerber Fmt 4.6, Leading zero omitted, Abs format (unit mm)*
G04 Created by KiCad (PCBNEW 5.0.1) date Sat 24 Nov 2018 04:53:29 PM CST*
%MOMM*%
%LPD*%
G01*
G04 APERTURE LIST*
%ADD10C,0.100000*%
G04 APERTURE END LIST*
D10*
G36*
X165943734Y-121067232D02*
X166153202Y-121153996D01*
X166341723Y-121279962D01*
X166502038Y-121440277D01*
X166628004Y-121628798D01*
X166714768Y-121838266D01*
X166759000Y-122060635D01*
X166759000Y-122287365D01*
X166714768Y-122509734D01*
X166628004Y-122719202D01*
X166502038Y-122907723D01*
X166341723Y-123068038D01*
X166153202Y-123194004D01*
X165943734Y-123280768D01*
X165721365Y-123325000D01*
X165494635Y-123325000D01*
X165272266Y-123280768D01*
X165062798Y-123194004D01*
X164874277Y-123068038D01*
X164713962Y-122907723D01*
X164587996Y-122719202D01*
X164501232Y-122509734D01*
X164457000Y-122287365D01*
X164457000Y-122060635D01*
X164501232Y-121838266D01*
X164587996Y-121628798D01*
X164713962Y-121440277D01*
X164874277Y-121279962D01*
X165062798Y-121153996D01*
X165272266Y-121067232D01*
X165494635Y-121023000D01*
X165721365Y-121023000D01*
X165943734Y-121067232D01*
X165943734Y-121067232D01*
G37*
G36*
X179422527Y-114312736D02*
X179522410Y-114332604D01*
X179804674Y-114449521D01*
X180058705Y-114619259D01*
X180274741Y-114835295D01*
X180444479Y-115089326D01*
X180561396Y-115371590D01*
X180621000Y-115671240D01*
X180621000Y-115976760D01*
X180561396Y-116276410D01*
X180444479Y-116558674D01*
X180274741Y-116812705D01*
X180058705Y-117028741D01*
X179804674Y-117198479D01*
X179522410Y-117315396D01*
X179422527Y-117335264D01*
X179222762Y-117375000D01*
X178917238Y-117375000D01*
X178717473Y-117335264D01*
X178617590Y-117315396D01*
X178335326Y-117198479D01*
X178081295Y-117028741D01*
X177865259Y-116812705D01*
X177695521Y-116558674D01*
X177578604Y-116276410D01*
X177519000Y-115976760D01*
X177519000Y-115671240D01*
X177578604Y-115371590D01*
X177695521Y-115089326D01*
X177865259Y-114835295D01*
X178081295Y-114619259D01*
X178335326Y-114449521D01*
X178617590Y-114332604D01*
X178717473Y-114312736D01*
X178917238Y-114273000D01*
X179222762Y-114273000D01*
X179422527Y-114312736D01*
X179422527Y-114312736D01*
G37*
G36*
X179422527Y-109712736D02*
X179522410Y-109732604D01*
X179804674Y-109849521D01*
X180058705Y-110019259D01*
X180274741Y-110235295D01*
X180444479Y-110489326D01*
X180561396Y-110771590D01*
X180621000Y-111071240D01*
X180621000Y-111376760D01*
X180561396Y-111676410D01*
X180444479Y-111958674D01*
X180274741Y-112212705D01*
X180058705Y-112428741D01*
X179804674Y-112598479D01*
X179522410Y-112715396D01*
X179422527Y-112735264D01*
X179222762Y-112775000D01*
X178917238Y-112775000D01*
X178717473Y-112735264D01*
X178617590Y-112715396D01*
X178335326Y-112598479D01*
X178081295Y-112428741D01*
X177865259Y-112212705D01*
X177695521Y-111958674D01*
X177578604Y-111676410D01*
X177519000Y-111376760D01*
X177519000Y-111071240D01*
X177578604Y-110771590D01*
X177695521Y-110489326D01*
X177865259Y-110235295D01*
X178081295Y-110019259D01*
X178335326Y-109849521D01*
X178617590Y-109732604D01*
X178717473Y-109712736D01*
X178917238Y-109673000D01*
X179222762Y-109673000D01*
X179422527Y-109712736D01*
X179422527Y-109712736D01*
G37*
G36*
X183294721Y-89894174D02*
X183394995Y-89935709D01*
X183485245Y-89996012D01*
X183561988Y-90072755D01*
X183622291Y-90163005D01*
X183663826Y-90263279D01*
X183685000Y-90369730D01*
X183685000Y-90478270D01*
X183663826Y-90584721D01*
X183622291Y-90684995D01*
X183561988Y-90775245D01*
X183485245Y-90851988D01*
X183394995Y-90912291D01*
X183294721Y-90953826D01*
X183188270Y-90975000D01*
X183079730Y-90975000D01*
X182973279Y-90953826D01*
X182873005Y-90912291D01*
X182782755Y-90851988D01*
X182706012Y-90775245D01*
X182645709Y-90684995D01*
X182604174Y-90584721D01*
X182583000Y-90478270D01*
X182583000Y-90369730D01*
X182604174Y-90263279D01*
X182645709Y-90163005D01*
X182706012Y-90072755D01*
X182782755Y-89996012D01*
X182873005Y-89935709D01*
X182973279Y-89894174D01*
X183079730Y-89873000D01*
X183188270Y-89873000D01*
X183294721Y-89894174D01*
X183294721Y-89894174D01*
G37*
G36*
X178214721Y-88878174D02*
X178314995Y-88919709D01*
X178405245Y-88980012D01*
X178481988Y-89056755D01*
X178542291Y-89147005D01*
X178583826Y-89247279D01*
X178605000Y-89353730D01*
X178605000Y-89462270D01*
X178583826Y-89568721D01*
X178542291Y-89668995D01*
X178481988Y-89759245D01*
X178405245Y-89835988D01*
X178314995Y-89896291D01*
X178214721Y-89937826D01*
X178108270Y-89959000D01*
X177999730Y-89959000D01*
X177893279Y-89937826D01*
X177793005Y-89896291D01*
X177702755Y-89835988D01*
X177626012Y-89759245D01*
X177565709Y-89668995D01*
X177524174Y-89568721D01*
X177503000Y-89462270D01*
X177503000Y-89353730D01*
X177524174Y-89247279D01*
X177565709Y-89147005D01*
X177626012Y-89056755D01*
X177702755Y-88980012D01*
X177793005Y-88919709D01*
X177893279Y-88878174D01*
X177999730Y-88857000D01*
X178108270Y-88857000D01*
X178214721Y-88878174D01*
X178214721Y-88878174D01*
G37*
G36*
X183294721Y-87862174D02*
X183394995Y-87903709D01*
X183485245Y-87964012D01*
X183561988Y-88040755D01*
X183622291Y-88131005D01*
X183663826Y-88231279D01*
X183685000Y-88337730D01*
X183685000Y-88446270D01*
X183663826Y-88552721D01*
X183622291Y-88652995D01*
X183561988Y-88743245D01*
X183485245Y-88819988D01*
X183394995Y-88880291D01*
X183294721Y-88921826D01*
X183188270Y-88943000D01*
X183079730Y-88943000D01*
X182973279Y-88921826D01*
X182873005Y-88880291D01*
X182782755Y-88819988D01*
X182706012Y-88743245D01*
X182645709Y-88652995D01*
X182604174Y-88552721D01*
X182583000Y-88446270D01*
X182583000Y-88337730D01*
X182604174Y-88231279D01*
X182645709Y-88131005D01*
X182706012Y-88040755D01*
X182782755Y-87964012D01*
X182873005Y-87903709D01*
X182973279Y-87862174D01*
X183079730Y-87841000D01*
X183188270Y-87841000D01*
X183294721Y-87862174D01*
X183294721Y-87862174D01*
G37*
G36*
X165943734Y-74257232D02*
X166153202Y-74343996D01*
X166341723Y-74469962D01*
X166502038Y-74630277D01*
X166628004Y-74818798D01*
X166714768Y-75028266D01*
X166759000Y-75250635D01*
X166759000Y-75477365D01*
X166714768Y-75699734D01*
X166628004Y-75909202D01*
X166502038Y-76097723D01*
X166341723Y-76258038D01*
X166153202Y-76384004D01*
X165943734Y-76470768D01*
X165721365Y-76515000D01*
X165494635Y-76515000D01*
X165272266Y-76470768D01*
X165062798Y-76384004D01*
X164874277Y-76258038D01*
X164713962Y-76097723D01*
X164587996Y-75909202D01*
X164501232Y-75699734D01*
X164457000Y-75477365D01*
X164457000Y-75250635D01*
X164501232Y-75028266D01*
X164587996Y-74818798D01*
X164713962Y-74630277D01*
X164874277Y-74469962D01*
X165062798Y-74343996D01*
X165272266Y-74257232D01*
X165494635Y-74213000D01*
X165721365Y-74213000D01*
X165943734Y-74257232D01*
X165943734Y-74257232D01*
G37*
G36*
X167467734Y-56297232D02*
X167677202Y-56383996D01*
X167865723Y-56509962D01*
X168026038Y-56670277D01*
X168152004Y-56858798D01*
X168238768Y-57068266D01*
X168283000Y-57290635D01*
X168283000Y-57517365D01*
X168238768Y-57739734D01*
X168152004Y-57949202D01*
X168026038Y-58137723D01*
X167865723Y-58298038D01*
X167677202Y-58424004D01*
X167467734Y-58510768D01*
X167245365Y-58555000D01*
X167018635Y-58555000D01*
X166796266Y-58510768D01*
X166586798Y-58424004D01*
X166398277Y-58298038D01*
X166237962Y-58137723D01*
X166111996Y-57949202D01*
X166025232Y-57739734D01*
X165981000Y-57517365D01*
X165981000Y-57290635D01*
X166025232Y-57068266D01*
X166111996Y-56858798D01*
X166237962Y-56670277D01*
X166398277Y-56509962D01*
X166586798Y-56383996D01*
X166796266Y-56297232D01*
X167018635Y-56253000D01*
X167245365Y-56253000D01*
X167467734Y-56297232D01*
X167467734Y-56297232D01*
G37*
M02*
