<?xml version="1.0" standalone="no"?>
 <!DOCTYPE svg PUBLIC "-//W3C//DTD SVG 1.1//EN" 
 "http://www.w3.org/Graphics/SVG/1.1/DTD/svg11.dtd"> 
<svg xmlns="http://www.w3.org/2000/svg" version="1.1" 
    width="29.7002cm" height="21.0007cm" viewBox="0 0 116930 82680 ">
<title>SVG Picture created as chrimbus-Edge.Cuts.svg date 2018/11/24 15:11:27 </title>
  <desc>Picture generated by PCBNEW </desc>
<g style="fill:#000000; fill-opacity:1;stroke:#000000; stroke-opacity:1;
stroke-linecap:round; stroke-linejoin:round; "
 transform="translate(0 0) scale(1 1)">
</g>
<g style="fill:#000000; fill-opacity:0.0; 
stroke:#000000; stroke-width:-0.000393701; stroke-opacity:1; 
stroke-linecap:round; stroke-linejoin:round;">
</g>
<g style="fill:#000000; fill-opacity:0.0; 
stroke:#000000; stroke-width:39.3701; stroke-opacity:1; 
stroke-linecap:round; stroke-linejoin:round;">
</g>
<g style="fill:#000000; fill-opacity:0.0; 
stroke:#000000; stroke-width:59.0551; stroke-opacity:1; 
stroke-linecap:round; stroke-linejoin:round;">
<rect x="69685.9" y="65357.2" width="42519.7" height="12598.4" rx="0" />
</g>
<g style="fill:#000000; fill-opacity:0.0; 
stroke:#000000; stroke-width:39.3701; stroke-opacity:1; 
stroke-linecap:round; stroke-linejoin:round;">
</g>
<g style="fill:#000000; fill-opacity:0.0; 
stroke:#000000; stroke-width:59.0551; stroke-opacity:1; 
stroke-linecap:round; stroke-linejoin:round;">
<rect x="3937.01" y="3937.01" width="109056" height="74806" rx="0" />
</g>
<g style="fill:#000000; fill-opacity:0.0; 
stroke:#000000; stroke-width:39.3701; stroke-opacity:1; 
stroke-linecap:round; stroke-linejoin:round;">
</g>
<g style="fill:#000000; fill-opacity:0.0; 
stroke:#000000; stroke-width:59.0551; stroke-opacity:1; 
stroke-linecap:round; stroke-linejoin:round;">
<rect x="4724.41" y="4724.41" width="107481" height="73231.2" rx="0" />
</g>
<g style="fill:#000000; fill-opacity:0.0; 
stroke:#000000; stroke-width:39.3701; stroke-opacity:1; 
stroke-linecap:round; stroke-linejoin:round;">
</g>
<g style="fill:#000000; fill-opacity:0.0; 
stroke:#000000; stroke-width:59.0551; stroke-opacity:1; 
stroke-linecap:round; stroke-linejoin:round;">
<path d="M23622 4724
L23622 3937
" />
</g>
<g style="fill:#000000; fill-opacity:0.0; 
stroke:#000000; stroke-width:39.3701; stroke-opacity:1; 
stroke-linecap:round; stroke-linejoin:round;">
</g>
<g style="fill:#000000; fill-opacity:0.0; 
stroke:#000000; stroke-width:59.0551; stroke-opacity:1; 
stroke-linecap:round; stroke-linejoin:round;">
<path d="M43307 4724
L43307 3937
" />
</g>
<g style="fill:#000000; fill-opacity:0.0; 
stroke:#000000; stroke-width:39.3701; stroke-opacity:1; 
stroke-linecap:round; stroke-linejoin:round;">
</g>
<g style="fill:#000000; fill-opacity:0.0; 
stroke:#000000; stroke-width:59.0551; stroke-opacity:1; 
stroke-linecap:round; stroke-linejoin:round;">
<path d="M62992 4724
L62992 3937
" />
</g>
<g style="fill:#000000; fill-opacity:0.0; 
stroke:#000000; stroke-width:39.3701; stroke-opacity:1; 
stroke-linecap:round; stroke-linejoin:round;">
</g>
<g style="fill:#000000; fill-opacity:0.0; 
stroke:#000000; stroke-width:59.0551; stroke-opacity:1; 
stroke-linecap:round; stroke-linejoin:round;">
<path d="M82677 4724
L82677 3937
" />
</g>
<g style="fill:#000000; fill-opacity:0.0; 
stroke:#000000; stroke-width:39.3701; stroke-opacity:1; 
stroke-linecap:round; stroke-linejoin:round;">
</g>
<g style="fill:#000000; fill-opacity:0.0; 
stroke:#000000; stroke-width:59.0551; stroke-opacity:1; 
stroke-linecap:round; stroke-linejoin:round;">
<path d="M102362 4724
L102362 3937
" />
</g>
<g style="fill:#000000; fill-opacity:0.0; 
stroke:#000000; stroke-width:39.3701; stroke-opacity:1; 
stroke-linecap:round; stroke-linejoin:round;">
</g>
<g style="fill:#000000; fill-opacity:0.0; 
stroke:#000000; stroke-width:59.0551; stroke-opacity:1; 
stroke-linecap:round; stroke-linejoin:round;">
<path d="M14199 4562
L13906 4562
" />
<path d="M14052 4562
L14052 4050
L14004 4123
L13955 4172
L13906 4196
" />
</g>
<g style="fill:#000000; fill-opacity:0.0; 
stroke:#000000; stroke-width:39.3701; stroke-opacity:1; 
stroke-linecap:round; stroke-linejoin:round;">
</g>
<g style="fill:#000000; fill-opacity:0.0; 
stroke:#000000; stroke-width:59.0551; stroke-opacity:1; 
stroke-linecap:round; stroke-linejoin:round;">
<path d="M33591 4099
L33615 4074
L33664 4050
L33786 4050
L33835 4074
L33859 4099
L33884 4147
L33884 4196
L33859 4269
L33567 4562
L33884 4562
" />
</g>
<g style="fill:#000000; fill-opacity:0.0; 
stroke:#000000; stroke-width:39.3701; stroke-opacity:1; 
stroke-linecap:round; stroke-linejoin:round;">
</g>
<g style="fill:#000000; fill-opacity:0.0; 
stroke:#000000; stroke-width:59.0551; stroke-opacity:1; 
stroke-linecap:round; stroke-linejoin:round;">
<path d="M53252 4050
L53569 4050
L53398 4245
L53471 4245
L53520 4269
L53544 4294
L53569 4342
L53569 4464
L53544 4513
L53520 4537
L53471 4562
L53325 4562
L53276 4537
L53252 4513
" />
</g>
<g style="fill:#000000; fill-opacity:0.0; 
stroke:#000000; stroke-width:39.3701; stroke-opacity:1; 
stroke-linecap:round; stroke-linejoin:round;">
</g>
<g style="fill:#000000; fill-opacity:0.0; 
stroke:#000000; stroke-width:59.0551; stroke-opacity:1; 
stroke-linecap:round; stroke-linejoin:round;">
<path d="M73205 4221
L73205 4562
" />
<path d="M73083 4026
L72961 4391
L73278 4391
" />
</g>
<g style="fill:#000000; fill-opacity:0.0; 
stroke:#000000; stroke-width:39.3701; stroke-opacity:1; 
stroke-linecap:round; stroke-linejoin:round;">
</g>
<g style="fill:#000000; fill-opacity:0.0; 
stroke:#000000; stroke-width:59.0551; stroke-opacity:1; 
stroke-linecap:round; stroke-linejoin:round;">
<path d="M92914 4050
L92671 4050
L92646 4294
L92671 4269
L92719 4245
L92841 4245
L92890 4269
L92914 4294
L92939 4342
L92939 4464
L92914 4513
L92890 4537
L92841 4562
L92719 4562
L92671 4537
L92646 4513
" />
</g>
<g style="fill:#000000; fill-opacity:0.0; 
stroke:#000000; stroke-width:39.3701; stroke-opacity:1; 
stroke-linecap:round; stroke-linejoin:round;">
</g>
<g style="fill:#000000; fill-opacity:0.0; 
stroke:#000000; stroke-width:59.0551; stroke-opacity:1; 
stroke-linecap:round; stroke-linejoin:round;">
<path d="M112575 4050
L112477 4050
L112429 4074
L112404 4099
L112356 4172
L112331 4269
L112331 4464
L112356 4513
L112380 4537
L112429 4562
L112526 4562
L112575 4537
L112599 4513
L112624 4464
L112624 4342
L112599 4294
L112575 4269
L112526 4245
L112429 4245
L112380 4269
L112356 4294
L112331 4342
" />
</g>
<g style="fill:#000000; fill-opacity:0.0; 
stroke:#000000; stroke-width:39.3701; stroke-opacity:1; 
stroke-linecap:round; stroke-linejoin:round;">
</g>
<g style="fill:#000000; fill-opacity:0.0; 
stroke:#000000; stroke-width:59.0551; stroke-opacity:1; 
stroke-linecap:round; stroke-linejoin:round;">
<path d="M23622 77955
L23622 78742
" />
</g>
<g style="fill:#000000; fill-opacity:0.0; 
stroke:#000000; stroke-width:39.3701; stroke-opacity:1; 
stroke-linecap:round; stroke-linejoin:round;">
</g>
<g style="fill:#000000; fill-opacity:0.0; 
stroke:#000000; stroke-width:59.0551; stroke-opacity:1; 
stroke-linecap:round; stroke-linejoin:round;">
<path d="M43307 77955
L43307 78742
" />
</g>
<g style="fill:#000000; fill-opacity:0.0; 
stroke:#000000; stroke-width:39.3701; stroke-opacity:1; 
stroke-linecap:round; stroke-linejoin:round;">
</g>
<g style="fill:#000000; fill-opacity:0.0; 
stroke:#000000; stroke-width:59.0551; stroke-opacity:1; 
stroke-linecap:round; stroke-linejoin:round;">
<path d="M62992 77955
L62992 78742
" />
</g>
<g style="fill:#000000; fill-opacity:0.0; 
stroke:#000000; stroke-width:39.3701; stroke-opacity:1; 
stroke-linecap:round; stroke-linejoin:round;">
</g>
<g style="fill:#000000; fill-opacity:0.0; 
stroke:#000000; stroke-width:59.0551; stroke-opacity:1; 
stroke-linecap:round; stroke-linejoin:round;">
<path d="M82677 77955
L82677 78742
" />
</g>
<g style="fill:#000000; fill-opacity:0.0; 
stroke:#000000; stroke-width:39.3701; stroke-opacity:1; 
stroke-linecap:round; stroke-linejoin:round;">
</g>
<g style="fill:#000000; fill-opacity:0.0; 
stroke:#000000; stroke-width:59.0551; stroke-opacity:1; 
stroke-linecap:round; stroke-linejoin:round;">
<path d="M102362 77955
L102362 78742
" />
</g>
<g style="fill:#000000; fill-opacity:0.0; 
stroke:#000000; stroke-width:39.3701; stroke-opacity:1; 
stroke-linecap:round; stroke-linejoin:round;">
</g>
<g style="fill:#000000; fill-opacity:0.0; 
stroke:#000000; stroke-width:59.0551; stroke-opacity:1; 
stroke-linecap:round; stroke-linejoin:round;">
<path d="M14199 78580
L13906 78580
" />
<path d="M14052 78580
L14052 78069
L14004 78142
L13955 78190
L13906 78215
" />
</g>
<g style="fill:#000000; fill-opacity:0.0; 
stroke:#000000; stroke-width:39.3701; stroke-opacity:1; 
stroke-linecap:round; stroke-linejoin:round;">
</g>
<g style="fill:#000000; fill-opacity:0.0; 
stroke:#000000; stroke-width:59.0551; stroke-opacity:1; 
stroke-linecap:round; stroke-linejoin:round;">
<path d="M33591 78117
L33615 78093
L33664 78069
L33786 78069
L33835 78093
L33859 78117
L33884 78166
L33884 78215
L33859 78288
L33567 78580
L33884 78580
" />
</g>
<g style="fill:#000000; fill-opacity:0.0; 
stroke:#000000; stroke-width:39.3701; stroke-opacity:1; 
stroke-linecap:round; stroke-linejoin:round;">
</g>
<g style="fill:#000000; fill-opacity:0.0; 
stroke:#000000; stroke-width:59.0551; stroke-opacity:1; 
stroke-linecap:round; stroke-linejoin:round;">
<path d="M53252 78069
L53569 78069
L53398 78263
L53471 78263
L53520 78288
L53544 78312
L53569 78361
L53569 78483
L53544 78532
L53520 78556
L53471 78580
L53325 78580
L53276 78556
L53252 78532
" />
</g>
<g style="fill:#000000; fill-opacity:0.0; 
stroke:#000000; stroke-width:39.3701; stroke-opacity:1; 
stroke-linecap:round; stroke-linejoin:round;">
</g>
<g style="fill:#000000; fill-opacity:0.0; 
stroke:#000000; stroke-width:59.0551; stroke-opacity:1; 
stroke-linecap:round; stroke-linejoin:round;">
<path d="M73205 78239
L73205 78580
" />
<path d="M73083 78044
L72961 78410
L73278 78410
" />
</g>
<g style="fill:#000000; fill-opacity:0.0; 
stroke:#000000; stroke-width:39.3701; stroke-opacity:1; 
stroke-linecap:round; stroke-linejoin:round;">
</g>
<g style="fill:#000000; fill-opacity:0.0; 
stroke:#000000; stroke-width:59.0551; stroke-opacity:1; 
stroke-linecap:round; stroke-linejoin:round;">
<path d="M92914 78069
L92671 78069
L92646 78312
L92671 78288
L92719 78263
L92841 78263
L92890 78288
L92914 78312
L92939 78361
L92939 78483
L92914 78532
L92890 78556
L92841 78580
L92719 78580
L92671 78556
L92646 78532
" />
</g>
<g style="fill:#000000; fill-opacity:0.0; 
stroke:#000000; stroke-width:39.3701; stroke-opacity:1; 
stroke-linecap:round; stroke-linejoin:round;">
</g>
<g style="fill:#000000; fill-opacity:0.0; 
stroke:#000000; stroke-width:59.0551; stroke-opacity:1; 
stroke-linecap:round; stroke-linejoin:round;">
<path d="M112575 78069
L112477 78069
L112429 78093
L112404 78117
L112356 78190
L112331 78288
L112331 78483
L112356 78532
L112380 78556
L112429 78580
L112526 78580
L112575 78556
L112599 78532
L112624 78483
L112624 78361
L112599 78312
L112575 78288
L112526 78263
L112429 78263
L112380 78288
L112356 78312
L112331 78361
" />
</g>
<g style="fill:#000000; fill-opacity:0.0; 
stroke:#000000; stroke-width:39.3701; stroke-opacity:1; 
stroke-linecap:round; stroke-linejoin:round;">
</g>
<g style="fill:#000000; fill-opacity:0.0; 
stroke:#000000; stroke-width:59.0551; stroke-opacity:1; 
stroke-linecap:round; stroke-linejoin:round;">
<path d="M3937 23622
L4724 23622
" />
</g>
<g style="fill:#000000; fill-opacity:0.0; 
stroke:#000000; stroke-width:39.3701; stroke-opacity:1; 
stroke-linecap:round; stroke-linejoin:round;">
</g>
<g style="fill:#000000; fill-opacity:0.0; 
stroke:#000000; stroke-width:59.0551; stroke-opacity:1; 
stroke-linecap:round; stroke-linejoin:round;">
<path d="M3937 43307
L4724 43307
" />
</g>
<g style="fill:#000000; fill-opacity:0.0; 
stroke:#000000; stroke-width:39.3701; stroke-opacity:1; 
stroke-linecap:round; stroke-linejoin:round;">
</g>
<g style="fill:#000000; fill-opacity:0.0; 
stroke:#000000; stroke-width:59.0551; stroke-opacity:1; 
stroke-linecap:round; stroke-linejoin:round;">
<path d="M3937 62992
L4724 62992
" />
</g>
<g style="fill:#000000; fill-opacity:0.0; 
stroke:#000000; stroke-width:39.3701; stroke-opacity:1; 
stroke-linecap:round; stroke-linejoin:round;">
</g>
<g style="fill:#000000; fill-opacity:0.0; 
stroke:#000000; stroke-width:59.0551; stroke-opacity:1; 
stroke-linecap:round; stroke-linejoin:round;">
<path d="M4208 13864
L4452 13864
" />
<path d="M4160 14011
L4330 13499
L4501 14011
" />
</g>
<g style="fill:#000000; fill-opacity:0.0; 
stroke:#000000; stroke-width:39.3701; stroke-opacity:1; 
stroke-linecap:round; stroke-linejoin:round;">
</g>
<g style="fill:#000000; fill-opacity:0.0; 
stroke:#000000; stroke-width:59.0551; stroke-opacity:1; 
stroke-linecap:round; stroke-linejoin:round;">
<path d="M4367 33428
L4440 33452
L4464 33476
L4489 33525
L4489 33598
L4464 33647
L4440 33671
L4391 33696
L4196 33696
L4196 33184
L4367 33184
L4416 33208
L4440 33233
L4464 33281
L4464 33330
L4440 33379
L4416 33403
L4367 33428
L4196 33428
" />
</g>
<g style="fill:#000000; fill-opacity:0.0; 
stroke:#000000; stroke-width:39.3701; stroke-opacity:1; 
stroke-linecap:round; stroke-linejoin:round;">
</g>
<g style="fill:#000000; fill-opacity:0.0; 
stroke:#000000; stroke-width:59.0551; stroke-opacity:1; 
stroke-linecap:round; stroke-linejoin:round;">
<path d="M4489 53332
L4464 53356
L4391 53381
L4342 53381
L4269 53356
L4221 53308
L4196 53259
L4172 53161
L4172 53088
L4196 52991
L4221 52942
L4269 52893
L4342 52869
L4391 52869
L4464 52893
L4489 52918
" />
</g>
<g style="fill:#000000; fill-opacity:0.0; 
stroke:#000000; stroke-width:39.3701; stroke-opacity:1; 
stroke-linecap:round; stroke-linejoin:round;">
</g>
<g style="fill:#000000; fill-opacity:0.0; 
stroke:#000000; stroke-width:59.0551; stroke-opacity:1; 
stroke-linecap:round; stroke-linejoin:round;">
<path d="M4196 73066
L4196 72554
L4318 72554
L4391 72578
L4440 72627
L4464 72676
L4489 72773
L4489 72846
L4464 72944
L4440 72993
L4391 73041
L4318 73066
L4196 73066
" />
</g>
<g style="fill:#000000; fill-opacity:0.0; 
stroke:#000000; stroke-width:39.3701; stroke-opacity:1; 
stroke-linecap:round; stroke-linejoin:round;">
</g>
<g style="fill:#000000; fill-opacity:0.0; 
stroke:#000000; stroke-width:59.0551; stroke-opacity:1; 
stroke-linecap:round; stroke-linejoin:round;">
<path d="M112992 23622
L112205 23622
" />
</g>
<g style="fill:#000000; fill-opacity:0.0; 
stroke:#000000; stroke-width:39.3701; stroke-opacity:1; 
stroke-linecap:round; stroke-linejoin:round;">
</g>
<g style="fill:#000000; fill-opacity:0.0; 
stroke:#000000; stroke-width:59.0551; stroke-opacity:1; 
stroke-linecap:round; stroke-linejoin:round;">
<path d="M112992 43307
L112205 43307
" />
</g>
<g style="fill:#000000; fill-opacity:0.0; 
stroke:#000000; stroke-width:39.3701; stroke-opacity:1; 
stroke-linecap:round; stroke-linejoin:round;">
</g>
<g style="fill:#000000; fill-opacity:0.0; 
stroke:#000000; stroke-width:59.0551; stroke-opacity:1; 
stroke-linecap:round; stroke-linejoin:round;">
<path d="M112992 62992
L112205 62992
" />
</g>
<g style="fill:#000000; fill-opacity:0.0; 
stroke:#000000; stroke-width:39.3701; stroke-opacity:1; 
stroke-linecap:round; stroke-linejoin:round;">
</g>
<g style="fill:#000000; fill-opacity:0.0; 
stroke:#000000; stroke-width:59.0551; stroke-opacity:1; 
stroke-linecap:round; stroke-linejoin:round;">
<path d="M112477 13864
L112721 13864
" />
<path d="M112428 14011
L112599 13499
L112769 14011
" />
</g>
<g style="fill:#000000; fill-opacity:0.0; 
stroke:#000000; stroke-width:39.3701; stroke-opacity:1; 
stroke-linecap:round; stroke-linejoin:round;">
</g>
<g style="fill:#000000; fill-opacity:0.0; 
stroke:#000000; stroke-width:59.0551; stroke-opacity:1; 
stroke-linecap:round; stroke-linejoin:round;">
<path d="M112635 33428
L112708 33452
L112733 33476
L112757 33525
L112757 33598
L112733 33647
L112708 33671
L112660 33696
L112465 33696
L112465 33184
L112635 33184
L112684 33208
L112708 33233
L112733 33281
L112733 33330
L112708 33379
L112684 33403
L112635 33428
L112465 33428
" />
</g>
<g style="fill:#000000; fill-opacity:0.0; 
stroke:#000000; stroke-width:39.3701; stroke-opacity:1; 
stroke-linecap:round; stroke-linejoin:round;">
</g>
<g style="fill:#000000; fill-opacity:0.0; 
stroke:#000000; stroke-width:59.0551; stroke-opacity:1; 
stroke-linecap:round; stroke-linejoin:round;">
<path d="M112757 53332
L112733 53356
L112660 53381
L112611 53381
L112538 53356
L112489 53308
L112465 53259
L112440 53161
L112440 53088
L112465 52991
L112489 52942
L112538 52893
L112611 52869
L112660 52869
L112733 52893
L112757 52918
" />
</g>
<g style="fill:#000000; fill-opacity:0.0; 
stroke:#000000; stroke-width:39.3701; stroke-opacity:1; 
stroke-linecap:round; stroke-linejoin:round;">
</g>
<g style="fill:#000000; fill-opacity:0.0; 
stroke:#000000; stroke-width:59.0551; stroke-opacity:1; 
stroke-linecap:round; stroke-linejoin:round;">
<path d="M112465 73066
L112465 72554
L112587 72554
L112660 72578
L112708 72627
L112733 72676
L112757 72773
L112757 72846
L112733 72944
L112708 72993
L112660 73041
L112587 73066
L112465 73066
" />
</g>
<g style="fill:#000000; fill-opacity:0.0; 
stroke:#000000; stroke-width:39.3701; stroke-opacity:1; 
stroke-linecap:round; stroke-linejoin:round;">
</g>
<g style="fill:#000000; fill-opacity:0.0; 
stroke:#000000; stroke-width:59.0551; stroke-opacity:1; 
stroke-linecap:round; stroke-linejoin:round;">
<path d="M78911 76293
L78911 75703
L79051 75703
L79136 75731
L79192 75787
L79220 75843
L79248 75956
L79248 76040
L79220 76153
L79192 76209
L79136 76265
L79051 76293
L78911 76293
" />
<path d="M79754 76293
L79754 75984
L79726 75928
L79670 75899
L79557 75899
L79501 75928
" />
<path d="M79754 76265
L79698 76293
L79557 76293
L79501 76265
L79473 76209
L79473 76153
L79501 76096
L79557 76068
L79698 76068
L79754 76040
" />
<path d="M79951 75899
L80176 75899
" />
<path d="M80036 75703
L80036 76209
L80064 76265
L80120 76293
L80176 76293
" />
<path d="M80598 76265
L80542 76293
L80429 76293
L80373 76265
L80345 76209
L80345 75984
L80373 75928
L80429 75899
L80542 75899
L80598 75928
L80626 75984
L80626 76040
L80345 76096
" />
<path d="M80879 76237
L80907 76265
L80879 76293
L80851 76265
L80879 76237
L80879 76293
" />
<path d="M80879 75928
L80907 75956
L80879 75984
L80851 75956
L80879 75928
L80879 75984
" />
</g>
<g style="fill:#000000; fill-opacity:0.0; 
stroke:#000000; stroke-width:39.3701; stroke-opacity:1; 
stroke-linecap:round; stroke-linejoin:round;">
</g>
<g style="fill:#000000; fill-opacity:0.0; 
stroke:#000000; stroke-width:59.0551; stroke-opacity:1; 
stroke-linecap:round; stroke-linejoin:round;">
<path d="M69685 76577
L112205 76577
" />
</g>
<g style="fill:#000000; fill-opacity:0.0; 
stroke:#000000; stroke-width:39.3701; stroke-opacity:1; 
stroke-linecap:round; stroke-linejoin:round;">
</g>
<g style="fill:#000000; fill-opacity:0.0; 
stroke:#000000; stroke-width:59.0551; stroke-opacity:1; 
stroke-linecap:round; stroke-linejoin:round;">
<path d="M70249 77395
L70249 76805
" />
<path d="M70587 77395
L70334 77058
" />
<path d="M70587 76805
L70249 77142
" />
<path d="M70840 77395
L70840 77002
" />
<path d="M70840 76805
L70812 76833
L70840 76861
L70868 76833
L70840 76805
L70840 76861
" />
<path d="M71458 77339
L71430 77367
L71346 77395
L71290 77395
L71205 77367
L71149 77311
L71121 77255
L71093 77142
L71093 77058
L71121 76946
L71149 76889
L71205 76833
L71290 76805
L71346 76805
L71430 76833
L71458 76861
" />
<path d="M71965 77395
L71965 77086
L71937 77030
L71880 77002
L71768 77002
L71712 77030
" />
<path d="M71965 77367
L71908 77395
L71768 77395
L71712 77367
L71683 77311
L71683 77255
L71712 77199
L71768 77171
L71908 77171
L71965 77142
" />
<path d="M72499 77395
L72499 76805
" />
<path d="M72499 77367
L72443 77395
L72330 77395
L72274 77367
L72246 77339
L72218 77283
L72218 77114
L72246 77058
L72274 77030
L72330 77002
L72443 77002
L72499 77030
" />
<path d="M73230 77086
L73427 77086
" />
<path d="M73511 77395
L73230 77395
L73230 76805
L73511 76805
" />
<path d="M73764 77339
L73793 77367
L73764 77395
L73736 77367
L73764 77339
L73764 77395
" />
<path d="M74046 77395
L74046 76805
L74186 76805
L74271 76833
L74327 76889
L74355 76946
L74383 77058
L74383 77142
L74355 77255
L74327 77311
L74271 77367
L74186 77395
L74046 77395
" />
<path d="M74636 77339
L74664 77367
L74636 77395
L74608 77367
L74636 77339
L74636 77395
" />
<path d="M74889 77227
L75171 77227
" />
<path d="M74833 77395
L75030 76805
L75227 77395
" />
<path d="M75424 77339
L75452 77367
L75424 77395
L75395 77367
L75424 77339
L75424 77395
" />
<path d="M76605 77395
L76605 76805
" />
<path d="M76661 77171
L76830 77395
" />
<path d="M76830 77002
L76605 77227
" />
<path d="M77083 77395
L77083 77002
" />
<path d="M77083 76805
L77055 76833
L77083 76861
L77111 76833
L77083 76805
L77083 76861
" />
<path d="M77617 77367
L77561 77395
L77448 77395
L77392 77367
L77364 77339
L77336 77283
L77336 77114
L77364 77058
L77392 77030
L77448 77002
L77561 77002
L77617 77030
" />
<path d="M78123 77395
L78123 77086
L78095 77030
L78039 77002
L77926 77002
L77870 77030
" />
<path d="M78123 77367
L78067 77395
L77926 77395
L77870 77367
L77842 77311
L77842 77255
L77870 77199
L77926 77171
L78067 77171
L78123 77142
" />
<path d="M78658 77395
L78658 76805
" />
<path d="M78658 77367
L78601 77395
L78489 77395
L78433 77367
L78404 77339
L78376 77283
L78376 77114
L78404 77058
L78433 77030
L78489 77002
L78601 77002
L78658 77030
" />
<path d="M79670 76805
L79389 76805
L79361 77086
L79389 77058
L79445 77030
L79586 77030
L79642 77058
L79670 77086
L79698 77142
L79698 77283
L79670 77339
L79642 77367
L79586 77395
L79445 77395
L79389 77367
L79361 77339
" />
<path d="M79951 77339
L79979 77367
L79951 77395
L79923 77367
L79951 77339
L79951 77395
" />
<path d="M80345 76805
L80401 76805
L80457 76833
L80485 76861
L80514 76917
L80542 77030
L80542 77171
L80514 77283
L80485 77339
L80457 77367
L80401 77395
L80345 77395
L80289 77367
L80260 77339
L80232 77283
L80204 77171
L80204 77030
L80232 76917
L80260 76861
L80289 76833
L80345 76805
" />
<path d="M80795 77339
L80823 77367
L80795 77395
L80767 77367
L80795 77339
L80795 77395
" />
<path d="M81385 77395
L81048 77395
" />
<path d="M81217 77395
L81217 76805
L81160 76889
L81104 76946
L81048 76974
" />
</g>
<g style="fill:#000000; fill-opacity:0.0; 
stroke:#000000; stroke-width:39.3701; stroke-opacity:1; 
stroke-linecap:round; stroke-linejoin:round;">
</g>
<g style="fill:#000000; fill-opacity:0.0; 
stroke:#000000; stroke-width:59.0551; stroke-opacity:1; 
stroke-linecap:round; stroke-linejoin:round;">
<path d="M69685 75396
L112205 75396
" />
</g>
<g style="fill:#000000; fill-opacity:0.0; 
stroke:#000000; stroke-width:39.3701; stroke-opacity:1; 
stroke-linecap:round; stroke-linejoin:round;">
</g>
<g style="fill:#000000; fill-opacity:0.0; 
stroke:#000000; stroke-width:118.11; stroke-opacity:1; 
stroke-linecap:round; stroke-linejoin:round;">
<path d="M104099 76293
L103902 76012
" />
<path d="M103761 76293
L103761 75703
L103986 75703
L104042 75731
L104070 75759
L104099 75815
L104099 75899
L104070 75956
L104042 75984
L103986 76012
L103761 76012
" />
<path d="M104577 76265
L104520 76293
L104408 76293
L104352 76265
L104323 76209
L104323 75984
L104352 75928
L104408 75899
L104520 75899
L104577 75928
L104605 75984
L104605 76040
L104323 76096
" />
<path d="M104802 75899
L104942 76293
L105083 75899
" />
<path d="M105308 76237
L105336 76265
L105308 76293
L105280 76265
L105308 76237
L105308 76293
" />
<path d="M105308 75928
L105336 75956
L105308 75984
L105280 75956
L105308 75928
L105308 75984
" />
</g>
<g style="fill:#000000; fill-opacity:0.0; 
stroke:#000000; stroke-width:39.3701; stroke-opacity:1; 
stroke-linecap:round; stroke-linejoin:round;">
</g>
<g style="fill:#000000; fill-opacity:0.0; 
stroke:#000000; stroke-width:59.0551; stroke-opacity:1; 
stroke-linecap:round; stroke-linejoin:round;">
<path d="M70221 76265
L70305 76293
L70446 76293
L70502 76265
L70530 76237
L70559 76181
L70559 76124
L70530 76068
L70502 76040
L70446 76012
L70334 75984
L70277 75956
L70249 75928
L70221 75871
L70221 75815
L70249 75759
L70277 75731
L70334 75703
L70474 75703
L70559 75731
" />
<path d="M70812 76293
L70812 75899
" />
<path d="M70812 75703
L70784 75731
L70812 75759
L70840 75731
L70812 75703
L70812 75759
" />
<path d="M71037 75899
L71346 75899
L71037 76293
L71346 76293
" />
<path d="M71796 76265
L71740 76293
L71627 76293
L71571 76265
L71543 76209
L71543 75984
L71571 75928
L71627 75899
L71740 75899
L71796 75928
L71824 75984
L71824 76040
L71543 76096
" />
<path d="M72077 76237
L72105 76265
L72077 76293
L72049 76265
L72077 76237
L72077 76293
" />
<path d="M72077 75928
L72105 75956
L72077 75984
L72049 75956
L72077 75928
L72077 75984
" />
<path d="M72780 76124
L73061 76124
" />
<path d="M72724 76293
L72921 75703
L73118 76293
" />
<path d="M73568 75899
L73568 76293
" />
<path d="M73427 75674
L73286 76096
L73652 76096
" />
</g>
<g style="fill:#000000; fill-opacity:0.0; 
stroke:#000000; stroke-width:39.3701; stroke-opacity:1; 
stroke-linecap:round; stroke-linejoin:round;">
</g>
<g style="fill:#000000; fill-opacity:0.0; 
stroke:#000000; stroke-width:59.0551; stroke-opacity:1; 
stroke-linecap:round; stroke-linejoin:round;">
<path d="M103714 77395
L103714 76805
" />
<path d="M104248 77395
L104248 76805
" />
<path d="M104248 77367
L104192 77395
L104079 77395
L104023 77367
L103995 77339
L103967 77283
L103967 77114
L103995 77058
L104023 77030
L104079 77002
L104192 77002
L104248 77030
" />
<path d="M104529 77339
L104557 77367
L104529 77395
L104501 77367
L104529 77339
L104529 77395
" />
<path d="M104529 77030
L104557 77058
L104529 77086
L104501 77058
L104529 77030
L104529 77086
" />
<path d="M105570 77395
L105232 77395
" />
<path d="M105401 77395
L105401 76805
L105345 76889
L105289 76946
L105232 76974
" />
<path d="M106245 76777
L105739 77536
" />
<path d="M106751 77395
L106413 77395
" />
<path d="M106582 77395
L106582 76805
L106526 76889
L106470 76946
L106413 76974
" />
</g>
<g style="fill:#000000; fill-opacity:0.0; 
stroke:#000000; stroke-width:39.3701; stroke-opacity:1; 
stroke-linecap:round; stroke-linejoin:round;">
</g>
<g style="fill:#000000; fill-opacity:0.0; 
stroke:#000000; stroke-width:59.0551; stroke-opacity:1; 
stroke-linecap:round; stroke-linejoin:round;">
<path d="M69685 73821
L112205 73821
" />
</g>
<g style="fill:#000000; fill-opacity:0.0; 
stroke:#000000; stroke-width:39.3701; stroke-opacity:1; 
stroke-linecap:round; stroke-linejoin:round;">
</g>
<g style="fill:#000000; fill-opacity:0.0; 
stroke:#000000; stroke-width:157.48; stroke-opacity:1; 
stroke-linecap:round; stroke-linejoin:round;">
<path d="M70360 74099
L70810 74099
" />
<path d="M70486 74886
L70585 74099
" />
<path d="M70974 74886
L71039 74361
" />
<path d="M71072 74099
L71030 74136
L71063 74174
L71105 74136
L71072 74099
L71063 74174
" />
<path d="M71302 74361
L71602 74361
" />
<path d="M71447 74099
L71363 74774
L71391 74849
L71461 74886
L71536 74886
" />
<path d="M71911 74886
L71841 74849
L71813 74774
L71897 74099
" />
<path d="M72516 74849
L72436 74886
L72286 74886
L72216 74849
L72187 74774
L72225 74474
L72272 74399
L72352 74361
L72501 74361
L72572 74399
L72600 74474
L72591 74549
L72206 74624
" />
<path d="M72895 74811
L72928 74849
L72886 74886
L72853 74849
L72895 74811
L72886 74886
" />
<path d="M72947 74399
L72980 74436
L72937 74474
L72905 74436
L72947 74399
L72937 74474
" />
</g>
<g style="fill:#000000; fill-opacity:0.0; 
stroke:#000000; stroke-width:39.3701; stroke-opacity:1; 
stroke-linecap:round; stroke-linejoin:round;">
</g>
<g style="fill:#000000; fill-opacity:0.0; 
stroke:#000000; stroke-width:59.0551; stroke-opacity:1; 
stroke-linecap:round; stroke-linejoin:round;">
<path d="M70446 73070
L70249 73070
" />
<path d="M70249 73380
L70249 72789
L70530 72789
" />
<path d="M70755 73380
L70755 72986
" />
<path d="M70755 72789
L70727 72817
L70755 72845
L70784 72817
L70755 72789
L70755 72845
" />
<path d="M71121 73380
L71065 73352
L71037 73295
L71037 72789
" />
<path d="M71571 73352
L71515 73380
L71402 73380
L71346 73352
L71318 73295
L71318 73070
L71346 73014
L71402 72986
L71515 72986
L71571 73014
L71599 73070
L71599 73127
L71318 73183
" />
<path d="M71852 73323
L71880 73352
L71852 73380
L71824 73352
L71852 73323
L71852 73380
" />
<path d="M71852 73014
L71880 73042
L71852 73070
L71824 73042
L71852 73014
L71852 73070
" />
<path d="M72836 73352
L72780 73380
L72668 73380
L72611 73352
L72583 73323
L72555 73267
L72555 73099
L72583 73042
L72611 73014
L72668 72986
L72780 72986
L72836 73014
" />
<path d="M73090 73380
L73090 72789
" />
<path d="M73343 73380
L73343 73070
L73314 73014
L73258 72986
L73174 72986
L73118 73014
L73090 73042
" />
<path d="M73624 73380
L73624 72986
" />
<path d="M73624 73099
L73652 73042
L73680 73014
L73736 72986
L73793 72986
" />
<path d="M73989 73380
L73989 72986
" />
<path d="M73989 72789
L73961 72817
L73989 72845
L74018 72817
L73989 72789
L73989 72845
" />
<path d="M74271 73380
L74271 72986
" />
<path d="M74271 73042
L74299 73014
L74355 72986
L74439 72986
L74496 73014
L74524 73070
L74524 73380
" />
<path d="M74524 73070
L74552 73014
L74608 72986
L74692 72986
L74749 73014
L74777 73070
L74777 73380
" />
<path d="M75058 73380
L75058 72789
" />
<path d="M75058 73014
L75114 72986
L75227 72986
L75283 73014
L75311 73042
L75339 73099
L75339 73267
L75311 73323
L75283 73352
L75227 73380
L75114 73380
L75058 73352
" />
<path d="M75845 72986
L75845 73380
" />
<path d="M75592 72986
L75592 73295
L75620 73352
L75677 73380
L75761 73380
L75817 73352
L75845 73323
" />
<path d="M76099 73352
L76155 73380
L76267 73380
L76323 73352
L76352 73295
L76352 73267
L76323 73211
L76267 73183
L76183 73183
L76127 73155
L76099 73099
L76099 73070
L76127 73014
L76183 72986
L76267 72986
L76323 73014
" />
<path d="M76605 73323
L76633 73352
L76605 73380
L76577 73352
L76605 73323
L76605 73380
" />
<path d="M76886 73380
L76886 72789
" />
<path d="M76942 73155
L77111 73380
" />
<path d="M77111 72986
L76886 73211
" />
<path d="M77364 73380
L77364 72986
" />
<path d="M77364 72789
L77336 72817
L77364 72845
L77392 72817
L77364 72789
L77364 72845
" />
<path d="M77898 73352
L77842 73380
L77730 73380
L77673 73352
L77645 73323
L77617 73267
L77617 73099
L77645 73042
L77673 73014
L77730 72986
L77842 72986
L77898 73014
" />
<path d="M78404 73380
L78404 73070
L78376 73014
L78320 72986
L78208 72986
L78151 73014
" />
<path d="M78404 73352
L78348 73380
L78208 73380
L78151 73352
L78123 73295
L78123 73239
L78151 73183
L78208 73155
L78348 73155
L78404 73127
" />
<path d="M78939 73380
L78939 72789
" />
<path d="M78939 73352
L78883 73380
L78770 73380
L78714 73352
L78686 73323
L78658 73267
L78658 73099
L78686 73042
L78714 73014
L78770 72986
L78883 72986
L78939 73014
" />
<path d="M79079 73436
L79529 73436
" />
<path d="M79670 72986
L79670 73577
" />
<path d="M79670 73014
L79726 72986
L79839 72986
L79895 73014
L79923 73042
L79951 73099
L79951 73267
L79923 73323
L79895 73352
L79839 73380
L79726 73380
L79670 73352
" />
<path d="M80457 73352
L80401 73380
L80289 73380
L80232 73352
L80204 73323
L80176 73267
L80176 73099
L80204 73042
L80232 73014
L80289 72986
L80401 72986
L80457 73014
" />
<path d="M80710 73380
L80710 72789
" />
<path d="M80710 73014
L80767 72986
L80879 72986
L80935 73014
L80964 73042
L80992 73099
L80992 73267
L80964 73323
L80935 73352
L80879 73380
L80767 73380
L80710 73352
" />
</g>
<g style="fill:#000000; fill-opacity:0.0; 
stroke:#000000; stroke-width:39.3701; stroke-opacity:1; 
stroke-linecap:round; stroke-linejoin:round;">
</g>
<g style="fill:#000000; fill-opacity:0.0; 
stroke:#000000; stroke-width:59.0551; stroke-opacity:1; 
stroke-linecap:round; stroke-linejoin:round;">
<path d="M69685 71459
L112205 71459
" />
</g>
<g style="fill:#000000; fill-opacity:0.0; 
stroke:#000000; stroke-width:39.3701; stroke-opacity:1; 
stroke-linecap:round; stroke-linejoin:round;">
</g>
<g style="fill:#000000; fill-opacity:0.0; 
stroke:#000000; stroke-width:59.0551; stroke-opacity:1; 
stroke-linecap:round; stroke-linejoin:round;">
<path d="M70221 72289
L70305 72317
L70446 72317
L70502 72289
L70530 72260
L70559 72204
L70559 72148
L70530 72092
L70502 72064
L70446 72036
L70334 72007
L70277 71979
L70249 71951
L70221 71895
L70221 71839
L70249 71782
L70277 71754
L70334 71726
L70474 71726
L70559 71754
" />
<path d="M70812 72317
L70812 71726
" />
<path d="M71065 72317
L71065 72007
L71037 71951
L70980 71923
L70896 71923
L70840 71951
L70812 71979
" />
<path d="M71571 72289
L71515 72317
L71402 72317
L71346 72289
L71318 72232
L71318 72007
L71346 71951
L71402 71923
L71515 71923
L71571 71951
L71599 72007
L71599 72064
L71318 72120
" />
<path d="M72077 72289
L72021 72317
L71908 72317
L71852 72289
L71824 72232
L71824 72007
L71852 71951
L71908 71923
L72021 71923
L72077 71951
L72105 72007
L72105 72064
L71824 72120
" />
<path d="M72274 71923
L72499 71923
" />
<path d="M72358 71726
L72358 72232
L72386 72289
L72443 72317
L72499 72317
" />
<path d="M72696 72260
L72724 72289
L72696 72317
L72668 72289
L72696 72260
L72696 72317
" />
<path d="M72696 71951
L72724 71979
L72696 72007
L72668 71979
L72696 71951
L72696 72007
" />
</g>
<g style="fill:#000000; fill-opacity:0.0; 
stroke:#000000; stroke-width:39.3701; stroke-opacity:1; 
stroke-linecap:round; stroke-linejoin:round;">
</g>
<g style="fill:#000000; fill-opacity:0.0; 
stroke:#000000; stroke-width:59.0551; stroke-opacity:1; 
stroke-linecap:round; stroke-linejoin:round;">
<path d="M77559 75396
L77559 76577
" />
</g>
<g style="fill:#000000; fill-opacity:0.0; 
stroke:#000000; stroke-width:39.3701; stroke-opacity:1; 
stroke-linecap:round; stroke-linejoin:round;">
</g>
<g style="fill:#000000; fill-opacity:0.0; 
stroke:#000000; stroke-width:59.0551; stroke-opacity:1; 
stroke-linecap:round; stroke-linejoin:round;">
<path d="M102756 75396
L102756 77955
" />
</g>
<g style="fill:#C2C200; fill-opacity:0.0; 
stroke:#C2C200; stroke-width:59.0551; stroke-opacity:1; 
stroke-linecap:round; stroke-linejoin:round;">
</g>
<g style="fill:#C2C200; fill-opacity:0.0; 
stroke:#C2C200; stroke-width:78.7402; stroke-opacity:1; 
stroke-linecap:round; stroke-linejoin:round;">
<path d="M74134 33882
L74085 33846
" />
<path d="M74183 33918
L74134 33882
" />
<path d="M71447 30563
L71463 30559
" />
<path d="M71430 30567
L71447 30563
" />
<path d="M59478 27409
L59479 27410
" />
<path d="M59478 27409
L59478 27409
" />
<path d="M59477 27408
L59478 27409
" />
<path d="M78201 40804
L78014 40721
" />
<path d="M54194 35768
L54370 35854
" />
<path d="M54018 35677
L54194 35768
" />
<path d="M53843 35578
L54018 35677
" />
<path d="M58387 28188
L58322 28230
" />
<path d="M58452 28145
L58387 28188
" />
<path d="M58479 28135
L58458 28150
" />
<path d="M74181 36714
L74268 36697
" />
<path d="M74093 36730
L74181 36714
" />
<path d="M76354 49509
L76685 49443
" />
<path d="M76022 49571
L76354 49509
" />
<path d="M75690 49631
L76022 49571
" />
<path d="M75357 49687
L75690 49631
" />
<path d="M79596 41372
L79433 41295
" />
<path d="M75168 38583
L75050 38466
" />
<path d="M75285 38699
L75168 38583
" />
<path d="M54989 42514
L55181 42556
" />
<path d="M54798 42472
L54989 42514
" />
<path d="M54607 42429
L54798 42472
" />
<path d="M71247 30794
L71244 30789
" />
<path d="M71250 30799
L71247 30794
" />
<path d="M57046 29389
L57131 29430
" />
<path d="M56963 29348
L57046 29389
" />
<path d="M56887 29307
L56963 29348
" />
<path d="M53245 40296
L52961 40376
" />
<path d="M53520 40214
L53245 40296
" />
<path d="M53783 40130
L53520 40214
" />
<path d="M76932 35990
L77014 35954
" />
<path d="M76850 36025
L76932 35990
" />
<path d="M79433 41295
L79243 41216
" />
<path d="M68409 24950
L68287 24714
" />
<path d="M68533 25170
L68409 24950
" />
<path d="M71563 31259
L71549 31238
" />
<path d="M71577 31280
L71563 31259
" />
<path d="M66059 19716
L65929 19605
" />
<path d="M66191 19874
L66059 19716
" />
<path d="M71277 30843
L71274 30838
" />
<path d="M71280 30848
L71277 30843
" />
<path d="M58070 29919
L58132 29950
" />
<path d="M58008 29888
L58070 29919
" />
<path d="M57947 29857
L58008 29888
" />
<path d="M75979 35071
L75933 35043
" />
<path d="M76025 35100
L75979 35071
" />
<path d="M72674 30224
L72923 30147
" />
<path d="M72428 30299
L72674 30224
" />
<path d="M76800 40028
L76674 39937
" />
<path d="M72133 32021
L72112 31997
" />
<path d="M72153 32044
L72133 32021
" />
<path d="M59476 27408
L59477 27408
" />
<path d="M59476 27407
L59476 27408
" />
<path d="M59475 27406
L59476 27407
" />
<path d="M71707 30496
L71724 30492
" />
<path d="M71691 30500
L71707 30496
" />
<path d="M76267 36241
L76351 36214
" />
<path d="M76182 36267
L76267 36241
" />
<path d="M69546 26433
L69378 26273
" />
<path d="M69724 26590
L69546 26433
" />
<path d="M71773 30479
L71789 30475
" />
<path d="M71756 30483
L71773 30479
" />
<path d="M70816 27386
L70568 27221
" />
<path d="M71082 27558
L70816 27386
" />
<path d="M60231 26645
L60038 26832
" />
<path d="M60423 26459
L60231 26645
" />
<path d="M60614 26272
L60423 26459
" />
<path d="M73657 33506
L73611 33467
" />
<path d="M73704 33545
L73657 33506
" />
<path d="M59469 27401
L59470 27401
" />
<path d="M59468 27400
L59469 27401
" />
<path d="M59468 27399
L59468 27400
" />
<path d="M71903 30445
L71919 30441
" />
<path d="M71887 30450
L71903 30445
" />
<path d="M73189 30072
L73465 29998
" />
<path d="M72923 30147
L73189 30072
" />
<path d="M65089 20421
L64973 20700
" />
<path d="M65204 20157
L65089 20421
" />
<path d="M74452 37858
L74332 37734
" />
<path d="M74573 37982
L74452 37858
" />
<path d="M74935 34430
L74884 34397
" />
<path d="M74987 34463
L74935 34430
" />
<path d="M55843 36419
L56036 36479
" />
<path d="M55652 36356
L55843 36419
" />
<path d="M55462 36292
L55652 36356
" />
<path d="M81491 47005
L81327 46932
" />
<path d="M73751 33583
L73704 33545
" />
<path d="M73798 33622
L73751 33583
" />
<path d="M64055 22427
L63909 22640
" />
<path d="M64197 22207
L64055 22427
" />
<path d="M79822 41655
L79847 41589
" />
<path d="M59527 30489
L59601 30514
" />
<path d="M59453 30464
L59527 30489
" />
<path d="M59379 30439
L59453 30464
" />
<path d="M75519 34790
L75473 34762
" />
<path d="M75566 34818
L75519 34790
" />
<path d="M79116 45742
L78968 45642
" />
<path d="M71250 30612
L71267 30608
" />
<path d="M71234 30616
L71250 30612
" />
<path d="M71235 30774
L71232 30769
" />
<path d="M71238 30779
L71235 30774
" />
<path d="M77352 40382
L77206 40295
" />
<path d="M72774 32706
L72752 32684
" />
<path d="M72796 32728
L72774 32706
" />
<path d="M74232 33954
L74183 33918
" />
<path d="M74281 33990
L74232 33954
" />
<path d="M78606 40970
L78398 40887
" />
<path d="M59223 27606
L59201 27621
" />
<path d="M59245 27590
L59223 27606
" />
<path d="M59267 27575
L59245 27590
" />
<path d="M71205 30725
L71202 30720
" />
<path d="M71208 30730
L71205 30725
" />
<path d="M78633 42047
L78842 41996
" />
<path d="M57207 28920
L57114 28957
" />
<path d="M57299 28883
L57207 28920
" />
<path d="M57385 28845
L57299 28883
" />
<path d="M58699 27980
L58677 27995
" />
<path d="M58720 27964
L58699 27980
" />
<path d="M58742 27948
L58720 27964
" />
<path d="M53666 35473
L53843 35578
" />
<path d="M53487 35359
L53666 35473
" />
<path d="M53306 35235
L53487 35359
" />
<path d="M71194 30705
L71191 30700
" />
<path d="M71197 30710
L71194 30705
" />
<path d="M73291 33188
L73245 33147
" />
<path d="M73336 33228
L73291 33188
" />
<path d="M58545 31647
L58391 31781
" />
<path d="M58700 31514
L58545 31647
" />
<path d="M58857 31382
L58700 31514
" />
<path d="M71218 30620
L71234 30616
" />
<path d="M71201 30624
L71218 30620
" />
<path d="M72652 28536
L72323 28327
" />
<path d="M72966 28745
L72652 28536
" />
<path d="M74037 33809
L73989 33772
" />
<path d="M74085 33846
L74037 33809
" />
<path d="M75055 36541
L75142 36523
" />
<path d="M74968 36559
L75055 36541
" />
<path d="M55035 34068
L54751 34113
" />
<path d="M55301 34014
L55035 34068
" />
<path d="M55547 33948
L55301 34014
" />
<path d="M71217 30744
L71214 30739
" />
<path d="M71220 30749
L71217 30744
" />
<path d="M58660 30179
L58729 30206
" />
<path d="M58591 30151
L58660 30179
" />
<path d="M58523 30124
L58591 30151
" />
<path d="M71349 30587
L71365 30583
" />
<path d="M71332 30591
L71349 30587
" />
<path d="M71870 30454
L71887 30450
" />
<path d="M71854 30458
L71870 30454
" />
<path d="M76538 35398
L76490 35373
" />
<path d="M76586 35422
L76538 35398
" />
<path d="M80515 46545
L80355 46464
" />
<path d="M78677 45435
L78536 45328
" />
<path d="M59420 27466
L59398 27482
" />
<path d="M59442 27451
L59420 27466
" />
<path d="M59464 27435
L59442 27451
" />
<path d="M59354 27513
L59332 27528
" />
<path d="M59376 27497
L59354 27513
" />
<path d="M59398 27482
L59376 27497
" />
<path d="M68166 24463
L68045 24194
" />
<path d="M68287 24714
L68166 24463
" />
<path d="M58633 28026
L58611 28042
" />
<path d="M58655 28011
L58633 28026
" />
<path d="M58677 27995
L58655 28011
" />
<path d="M52218 41829
L52396 41880
" />
<path d="M52037 41778
L52218 41829
" />
<path d="M51852 41725
L52037 41778
" />
<path d="M76674 39937
L76552 39844
" />
<path d="M71366 27736
L71082 27558
" />
<path d="M71669 27924
L71366 27736
" />
<path d="M56825 29265
L56887 29307
" />
<path d="M56782 29225
L56825 29265
" />
<path d="M56765 29185
L56782 29225
" />
<path d="M69219 26108
L69069 25938
" />
<path d="M69378 26273
L69219 26108
" />
<path d="M77257 35844
L77338 35806
" />
<path d="M77176 35881
L77257 35844
" />
<path d="M75038 34495
L74987 34463
" />
<path d="M75089 34528
L75038 34495
" />
<path d="M76443 35348
L76396 35322
" />
<path d="M76490 35373
L76443 35348
" />
<path d="M76611 43466
L76491 43331
" />
<path d="M59467 27399
L59468 27399
" />
<path d="M59466 27398
L59467 27399
" />
<path d="M59466 27398
L59466 27398
" />
<path d="M71805 30471
L71822 30467
" />
<path d="M71789 30475
L71805 30471
" />
<path d="M76436 36185
L76519 36155
" />
<path d="M76351 36214
L76436 36185
" />
<path d="M73020 32944
L72975 32903
" />
<path d="M73065 32985
L73020 32944
" />
<path d="M71764 31547
L71749 31526
" />
<path d="M71778 31567
L71764 31547
" />
<path d="M72382 32301
L72361 32278
" />
<path d="M72404 32324
L72382 32301
" />
<path d="M71283 30604
L71300 30600
" />
<path d="M71267 30608
L71283 30604
" />
<path d="M69915 26746
L69724 26590
" />
<path d="M70118 26902
L69915 26746
" />
<path d="M72685 32618
L72663 32596
" />
<path d="M72707 32640
L72685 32618
" />
<path d="M54503 43266
L54218 43488
" />
<path d="M54791 43044
L54503 43266
" />
<path d="M55081 42821
L54791 43044
" />
<path d="M73875 29668
L73823 29511
" />
<path d="M73838 29802
L73875 29668
" />
<path d="M76603 36125
L76686 36092
" />
<path d="M76519 36155
L76603 36125
" />
<path d="M52387 40530
L52105 40604
" />
<path d="M52674 40454
L52387 40530
" />
<path d="M52961 40376
L52674 40454
" />
<path d="M77623 42351
L77773 42301
" />
<path d="M59652 27205
L59458 27391
" />
<path d="M59845 27018
L59652 27205
" />
<path d="M60038 26832
L59845 27018
" />
<path d="M71577 30530
L71593 30525
" />
<path d="M71561 30534
L71577 30530
" />
<path d="M54030 40044
L53783 40130
" />
<path d="M54259 39956
L54030 40044
" />
<path d="M54472 39865
L54259 39956
" />
<path d="M76163 35185
L76117 35157
" />
<path d="M76209 35213
L76163 35185
" />
<path d="M59157 27652
L59135 27668
" />
<path d="M59179 27637
L59157 27652
" />
<path d="M59201 27621
L59179 27637
" />
<path d="M50576 41328
L50694 41388
" />
<path d="M50516 41268
L50576 41328
" />
<path d="M50509 41207
L50516 41268
" />
<path d="M77773 42301
L77927 42252
" />
<path d="M79741 41718
L79822 41655
" />
<path d="M76134 42924
L76016 42788
" />
<path d="M77989 44872
L77857 44752
" />
<path d="M72863 32794
L72841 32772
" />
<path d="M72886 32816
L72863 32794
" />
<path d="M76853 42579
L77014 42536
" />
<path d="M72425 32347
L72404 32324
" />
<path d="M72446 32370
L72425 32347
" />
<path d="M78014 40721
L77836 40637
" />
<path d="M77598 44507
L77471 44381
" />
<path d="M71188 30695
L71185 30690
" />
<path d="M71191 30700
L71188 30695
" />
<path d="M79570 46028
L79417 45935
" />
<path d="M71199 30715
L71197 30710
" />
<path d="M71202 30720
L71199 30715
" />
<path d="M77475 42399
L77623 42351
" />
<path d="M65553 19605
L65435 19734
" />
<path d="M65676 19544
L65553 19605
" />
<path d="M67671 23271
L67541 22930
" />
<path d="M67798 23598
L67671 23271
" />
<path d="M48361 46901
L47982 47023
" />
<path d="M48791 46774
L48361 46901
" />
<path d="M49249 46642
L48791 46774
" />
<path d="M47894 47757
L48263 47886
" />
<path d="M47605 47629
L47894 47757
" />
<path d="M47423 47503
L47605 47629
" />
<path d="M67923 23906
L67798 23598
" />
<path d="M68045 24194
L67923 23906
" />
<path d="M51061 41504
L51268 41561
" />
<path d="M50863 41446
L51061 41504
" />
<path d="M50694 41388
L50863 41446
" />
<path d="M56940 29032
L56869 29069
" />
<path d="M57024 28995
L56940 29032
" />
<path d="M57114 28957
L57024 28995
" />
<path d="M76349 35295
L76302 35268
" />
<path d="M76396 35322
L76349 35295
" />
<path d="M76830 35532
L76780 35512
" />
<path d="M76880 35551
L76830 35532
" />
<path d="M56777 29145
L56765 29185
" />
<path d="M56813 29107
L56777 29145
" />
<path d="M56869 29069
L56813 29107
" />
<path d="M68927 25761
L68790 25574
" />
<path d="M69069 25938
L68927 25761
" />
<path d="M71241 30784
L71238 30779
" />
<path d="M71244 30789
L71241 30784
" />
<path d="M56841 33244
L56690 33365
" />
<path d="M56985 33119
L56841 33244
" />
<path d="M57124 32990
L56985 33119
" />
<path d="M71185 30628
L71201 30624
" />
<path d="M71169 30632
L71185 30628
" />
<path d="M58194 28315
L58131 28357
" />
<path d="M58257 28273
L58194 28315
" />
<path d="M58322 28230
L58257 28273
" />
<path d="M58455 30096
L58523 30124
" />
<path d="M58389 30067
L58455 30096
" />
<path d="M58323 30039
L58389 30067
" />
<path d="M73698 29912
L73838 29802
" />
<path d="M73465 29998
L73698 29912
" />
<path d="M57701 29725
L57764 29759
" />
<path d="M57638 29691
L57701 29725
" />
<path d="M57572 29656
L57638 29691
" />
<path d="M66325 20074
L66191 19874
" />
<path d="M66460 20311
L66325 20074
" />
<path d="M71822 31628
L71807 31608
" />
<path d="M71837 31649
L71822 31628
" />
<path d="M78842 41996
L79054 41943
" />
<path d="M79036 41135
L78821 41053
" />
<path d="M79812 41520
L79726 41448
" />
<path d="M63451 23247
L63292 23441
" />
<path d="M63607 23049
L63451 23247
" />
<path d="M64853 20978
L64730 21244
" />
<path d="M64973 20700
L64853 20978
" />
<path d="M75230 36504
L75317 36485
" />
<path d="M75142 36523
L75230 36504
" />
<path d="M53850 42255
L54038 42299
" />
<path d="M53664 42211
L53850 42255
" />
<path d="M53478 42166
L53664 42211
" />
<path d="M59480 27411
L59480 27412
" />
<path d="M59479 27411
L59480 27411
" />
<path d="M59479 27410
L59479 27411
" />
<path d="M77095 35918
L77176 35881
" />
<path d="M77014 35954
L77095 35918
" />
<path d="M74530 34163
L74480 34129
" />
<path d="M74580 34197
L74530 34163
" />
<path d="M57887 29825
L57947 29857
" />
<path d="M57826 29792
L57887 29825
" />
<path d="M57764 29759
L57826 29792
" />
<path d="M54725 36012
L54906 36086
" />
<path d="M54547 35935
L54725 36012
" />
<path d="M54370 35854
L54547 35935
" />
<path d="M80196 46380
L80037 46295
" />
<path d="M52752 41978
L52931 42026
" />
<path d="M52574 41930
L52752 41978
" />
<path d="M52396 41880
L52574 41930
" />
<path d="M57758 50324
L58109 50373
" />
<path d="M57411 50273
L57758 50324
" />
<path d="M57068 50220
L57411 50273
" />
<path d="M56729 50165
L57068 50220
" />
<path d="M59473 27404
L59473 27405
" />
<path d="M59472 27403
L59473 27404
" />
<path d="M59471 27403
L59472 27403
" />
<path d="M76253 43060
L76134 42924
" />
<path d="M78123 44989
L77989 44872
" />
<path d="M65801 19546
L65676 19544
" />
<path d="M65929 19605
L65801 19546
" />
<path d="M79417 45935
L79265 45840
" />
<path d="M77672 49225
L77999 49144
" />
<path d="M77344 49302
L77672 49225
" />
<path d="M77015 49374
L77344 49302
" />
<path d="M76685 49443
L77015 49374
" />
<path d="M60644 50664
L61015 50701
" />
<path d="M60275 50627
L60644 50664
" />
<path d="M59908 50588
L60275 50627
" />
<path d="M59543 50548
L59908 50588
" />
<path d="M68317 50566
L68652 50528
" />
<path d="M67982 50603
L68317 50566
" />
<path d="M67647 50640
L67982 50603
" />
<path d="M67312 50677
L67647 50640
" />
<path d="M52132 45236
L51862 45442
" />
<path d="M52390 45026
L52132 45236
" />
<path d="M52640 44811
L52390 45026
" />
<path d="M81984 47219
L81819 47149
" />
<path d="M81819 47149
L81655 47077
" />
<path d="M76372 43196
L76253 43060
" />
<path d="M71259 30814
L71256 30809
" />
<path d="M71262 30818
L71259 30814
" />
<path d="M57764 37438
L57609 37561
" />
<path d="M57921 37315
L57764 37438
" />
<path d="M58078 37191
L57921 37315
" />
<path d="M58235 37068
L58078 37191
" />
<path d="M58032 37017
L58235 37068
" />
<path d="M57830 36967
L58032 37017
" />
<path d="M71677 31424
L71663 31403
" />
<path d="M71692 31444
L71677 31424
" />
<path d="M57301 37805
L57150 37927
" />
<path d="M57454 37684
L57301 37805
" />
<path d="M57609 37561
L57454 37684
" />
<path d="M75335 34680
L75289 34652
" />
<path d="M75381 34707
L75335 34680
" />
<path d="M71740 30488
L71756 30483
" />
<path d="M71724 30492
L71740 30488
" />
<path d="M81164 46857
L81001 46781
" />
<path d="M71851 31669
L71837 31649
" />
<path d="M71866 31689
L71851 31669
" />
<path d="M71642 30513
L71659 30509
" />
<path d="M71626 30517
L71642 30513
" />
<path d="M64336 21980
L64197 22207
" />
<path d="M64471 21745
L64336 21980
" />
<path d="M75887 35014
L75841 34986
" />
<path d="M75933 35043
L75887 35014
" />
<path d="M71288 30863
L71285 30858
" />
<path d="M71291 30868
L71288 30863
" />
<path d="M80037 46295
L79880 46208
" />
<path d="M74211 37608
L74090 37482
" />
<path d="M74332 37734
L74211 37608
" />
<path d="M75427 34735
L75381 34707
" />
<path d="M75473 34762
L75427 34735
" />
<path d="M71414 30571
L71430 30567
" />
<path d="M71398 30575
L71414 30571
" />
<path d="M75752 36385
L75838 36363
" />
<path d="M75665 36406
L75752 36385
" />
<path d="M74006 36747
L74093 36730
" />
<path d="M73919 36763
L74006 36747
" />
<path d="M47374 47381
L47423 47503
" />
<path d="M47465 47261
L47374 47381
" />
<path d="M47675 47142
L47465 47261
" />
<path d="M47982 47023
L47675 47142
" />
<path d="M59305 30414
L59379 30439
" />
<path d="M59231 30388
L59305 30414
" />
<path d="M59158 30363
L59231 30388
" />
<path d="M79724 46119
L79570 46028
" />
<path d="M56361 33590
L56180 33692
" />
<path d="M56531 33480
L56361 33590
" />
<path d="M56690 33365
L56531 33480
" />
<path d="M71253 30804
L71250 30799
" />
<path d="M71256 30809
L71253 30804
" />
<path d="M76491 43331
L76372 43196
" />
<path d="M71620 31341
L71606 31321
" />
<path d="M71634 31362
L71620 31341
" />
<path d="M60805 26085
L60614 26272
" />
<path d="M60994 25898
L60805 26085
" />
<path d="M61182 25711
L60994 25898
" />
<path d="M71535 31218
L71521 31197
" />
<path d="M71549 31238
L71535 31218
" />
<path d="M71449 31094
L71435 31073
" />
<path d="M71464 31114
L71449 31094
" />
<path d="M63759 22847
L63607 23049
" />
<path d="M63909 22640
L63759 22847
" />
<path d="M76016 42788
L76185 42747
" />
<path d="M78973 48877
L79296 48780
" />
<path d="M78649 48970
L78973 48877
" />
<path d="M78324 49059
L78649 48970
" />
<path d="M77999 49144
L78324 49059
" />
<path d="M74356 36680
L74443 36664
" />
<path d="M74268 36697
L74356 36680
" />
<path d="M76930 35569
L76880 35551
" />
<path d="M76981 35587
L76930 35569
" />
<path d="M78396 45217
L78258 45105
" />
<path d="M79265 45840
L79116 45742
" />
<path d="M59486 27420
L59464 27435
" />
<path d="M59485 27419
L59486 27420
" />
<path d="M59485 27418
L59485 27419
" />
<path d="M73845 33660
L73798 33622
" />
<path d="M73893 33697
L73845 33660
" />
<path d="M57289 29508
L57364 29546
" />
<path d="M57212 29469
L57289 29508
" />
<path d="M57131 29430
L57212 29469
" />
<path d="M67410 22580
L67276 22226
" />
<path d="M67541 22930
L67410 22580
" />
<path d="M69658 50416
L69993 50378
" />
<path d="M69323 50454
L69658 50416
" />
<path d="M68987 50491
L69323 50454
" />
<path d="M68652 50528
L68987 50491
" />
<path d="M64602 21500
L64471 21745
" />
<path d="M64730 21244
L64602 21500
" />
<path d="M73941 33735
L73893 33697
" />
<path d="M73989 33772
L73941 33735
" />
<path d="M80259 48471
L80579 48363
" />
<path d="M79939 48577
L80259 48471
" />
<path d="M79618 48680
L79939 48577
" />
<path d="M79296 48780
L79618 48680
" />
<path d="M75925 36340
L76011 36317
" />
<path d="M75838 36363
L75925 36340
" />
<path d="M59092 27699
L59070 27715
" />
<path d="M59114 27683
L59092 27699
" />
<path d="M59135 27668
L59114 27683
" />
<path d="M78256 42150
L78437 42099
" />
<path d="M78821 45540
L78677 45435
" />
<path d="M77727 44630
L77598 44507
" />
<path d="M71182 30685
L71179 30680
" />
<path d="M71185 30690
L71182 30685
" />
<path d="M78968 45642
L78821 45540
" />
<path d="M61369 25524
L61182 25711
" />
<path d="M61554 25336
L61369 25524
" />
<path d="M61738 25148
L61554 25336
" />
<path d="M76852 43733
L76731 43599
" />
<path d="M77220 44126
L77096 43996
" />
<path d="M71282 30853
L71280 30848
" />
<path d="M71285 30858
L71282 30853
" />
<path d="M71170 30665
L71167 30660
" />
<path d="M71173 30670
L71170 30665
" />
<path d="M79847 41589
L79812 41520
" />
<path d="M77096 43996
L76974 43865
" />
<path d="M78087 42201
L78256 42150
" />
<path d="M77345 44254
L77220 44126
" />
<path d="M72597 32529
L72575 32506
" />
<path d="M72619 32551
L72597 32529
" />
<path d="M65319 19922
L65204 20157
" />
<path d="M65435 19734
L65319 19922
" />
<path d="M72175 30371
L72428 30299
" />
<path d="M71919 30441
L72175 30371
" />
<path d="M79054 41943
L79261 41890
" />
<path d="M82643 47496
L82478 47428
" />
<path d="M72641 32574
L72619 32551
" />
<path d="M72663 32596
L72641 32574
" />
<path d="M74693 38105
L74573 37982
" />
<path d="M74812 38226
L74693 38105
" />
<path d="M77667 40552
L77506 40467
" />
<path d="M59459 27392
L59460 27393
" />
<path d="M59459 27392
L59459 27392
" />
<path d="M59458 27391
L59459 27392
" />
<path d="M80355 46464
L80196 46380
" />
<path d="M79880 46208
L79724 46119
" />
<path d="M73381 33268
L73336 33228
" />
<path d="M73427 33309
L73381 33268
" />
<path d="M53294 42120
L53478 42166
" />
<path d="M53112 42074
L53294 42120
" />
<path d="M52931 42026
L53112 42074
" />
<path d="M59475 27406
L59475 27406
" />
<path d="M59474 27405
L59475 27406
" />
<path d="M59473 27405
L59474 27405
" />
<path d="M79450 41834
L79614 41777
" />
<path d="M72554 32484
L72532 32461
" />
<path d="M72575 32506
L72554 32484
" />
<path d="M73200 33107
L73155 33066
" />
<path d="M73245 33147
L73200 33107
" />
<path d="M73565 33428
L73519 33388
" />
<path d="M73611 33467
L73565 33428
" />
<path d="M58501 28119
L58479 28135
" />
<path d="M58523 28104
L58501 28119
" />
<path d="M58545 28088
L58523 28104
" />
<path d="M57024 36760
L57224 36812
" />
<path d="M56824 36706
L57024 36760
" />
<path d="M56625 36651
L56824 36706
" />
<path d="M74706 36612
L74793 36595
" />
<path d="M74618 36629
L74706 36612
" />
<path d="M58008 28441
L57949 28483
" />
<path d="M58069 28399
L58008 28441
" />
<path d="M58131 28357
L58069 28399
" />
<path d="M76071 35128
L76025 35100
" />
<path d="M76117 35157
L76071 35128
" />
<path d="M55108 49844
L55421 49914
" />
<path d="M54799 49770
L55108 49844
" />
<path d="M54493 49693
L54799 49770
" />
<path d="M54188 49612
L54493 49693
" />
<path d="M75243 34625
L75192 34592
" />
<path d="M75289 34652
L75243 34625
" />
<path d="M57260 32858
L57124 32990
" />
<path d="M57394 32724
L57260 32858
" />
<path d="M57528 32589
L57394 32724
" />
<path d="M76185 42747
L76355 42706
" />
<path d="M76096 36292
L76182 36267
" />
<path d="M76011 36317
L76096 36292
" />
<path d="M80838 46704
L80676 46625
" />
<path d="M78437 42099
L78633 42047
" />
<path d="M57505 29620
L57572 29656
" />
<path d="M57436 29583
L57505 29620
" />
<path d="M57364 29546
L57436 29583
" />
<path d="M73253 28951
L72966 28745
" />
<path d="M73499 29149
L73253 28951
" />
<path d="M56428 36595
L56625 36651
" />
<path d="M56231 36538
L56428 36595
" />
<path d="M56036 36479
L56231 36538
" />
<path d="M74732 34298
L74681 34265
" />
<path d="M74782 34331
L74732 34298
" />
<path d="M54162 34181
L53872 34211
" />
<path d="M54458 34150
L54162 34181
" />
<path d="M54751 34113
L54458 34150
" />
<path d="M54417 42386
L54607 42429
" />
<path d="M54227 42343
L54417 42386
" />
<path d="M54038 42299
L54227 42343
" />
<path d="M50550 41145
L50509 41207
" />
<path d="M50635 41082
L50550 41145
" />
<path d="M50760 41017
L50635 41082
" />
<path d="M72340 32255
L72319 32232
" />
<path d="M72361 32278
L72340 32255
" />
<path d="M56039 38854
L55908 38963
" />
<path d="M56169 38743
L56039 38854
" />
<path d="M56301 38630
L56169 38743
" />
<path d="M56395 50106
L56729 50165
" />
<path d="M56065 50045
L56395 50106
" />
<path d="M55741 49981
L56065 50045
" />
<path d="M55421 49914
L55741 49981
" />
<path d="M53123 35102
L53306 35235
" />
<path d="M52942 34960
L53123 35102
" />
<path d="M52786 34819
L52942 34960
" />
<path d="M74931 38347
L74812 38226
" />
<path d="M75050 38466
L74931 38347
" />
<path d="M58567 28073
L58545 28088
" />
<path d="M58589 28057
L58567 28073
" />
<path d="M58611 28042
L58589 28057
" />
<path d="M71649 31383
L71634 31362
" />
<path d="M71663 31403
L71649 31383
" />
<path d="M58258 30009
L58323 30039
" />
<path d="M58194 29980
L58258 30009
" />
<path d="M58132 29950
L58194 29980
" />
<path d="M71544 30538
L71561 30534
" />
<path d="M71528 30542
L71544 30538
" />
<path d="M71271 30833
L71268 30828
" />
<path d="M71274 30838
L71271 30833
" />
<path d="M59289 27559
L59267 27575
" />
<path d="M59311 27544
L59289 27559
" />
<path d="M59332 27528
L59311 27544
" />
<path d="M75402 38813
L75285 38699
" />
<path d="M75518 38925
L75402 38813
" />
<path d="M72174 32068
L72153 32044
" />
<path d="M72194 32091
L72174 32068
" />
<path d="M75612 34846
L75566 34818
" />
<path d="M75658 34873
L75612 34846
" />
<path d="M71306 30889
L71291 30868
" />
<path d="M71320 30909
L71306 30889
" />
<path d="M73968 37355
L73847 37228
" />
<path d="M74090 37482
L73968 37355
" />
<path d="M58895 27839
L58873 27855
" />
<path d="M58917 27824
L58895 27839
" />
<path d="M58939 27808
L58917 27824
" />
<path d="M71265 30823
L71262 30818
" />
<path d="M71268 30828
L71265 30823
" />
<path d="M52777 34420
L52683 34492
" />
<path d="M52923 34361
L52777 34420
" />
<path d="M53113 34313
L52923 34361
" />
<path d="M82313 47359
L82148 47289
" />
<path d="M59471 27402
L59471 27403
" />
<path d="M59470 27402
L59471 27402
" />
<path d="M59470 27401
L59470 27402
" />
<path d="M52630 49161
L52953 49257
" />
<path d="M52300 49060
L52630 49161
" />
<path d="M51959 48957
L52300 49060
" />
<path d="M51605 48850
L51959 48957
" />
<path d="M55775 33872
L55547 33948
" />
<path d="M55985 33786
L55775 33872
" />
<path d="M56180 33692
L55985 33786
" />
<path d="M59086 30337
L59158 30363
" />
<path d="M59013 30311
L59086 30337
" />
<path d="M58941 30285
L59013 30311
" />
<path d="M59465 27397
L59466 27398
" />
<path d="M59464 27397
L59465 27397
" />
<path d="M59464 27396
L59464 27397
" />
<path d="M56434 38516
L56301 38630
" />
<path d="M56571 38401
L56434 38516
" />
<path d="M56712 38284
L56571 38401
" />
<path d="M71969 31831
L71955 31811
" />
<path d="M71990 31855
L71969 31831
" />
<path d="M70336 27060
L70118 26902
" />
<path d="M70568 27221
L70336 27060
" />
<path d="M71381 30579
L71398 30575
" />
<path d="M71365 30583
L71381 30579
" />
<path d="M77927 42252
L78087 42201
" />
<path d="M71164 30655
L71161 30650
" />
<path d="M71167 30660
L71164 30655
" />
<path d="M71158 30646
L71155 30641
" />
<path d="M71161 30650
L71158 30646
" />
<path d="M52682 34690
L52786 34819
" />
<path d="M52648 34582
L52682 34690
" />
<path d="M52683 34492
L52648 34582
" />
<path d="M76355 42706
L76523 42664
" />
<path d="M67141 21874
L67006 21528
" />
<path d="M67276 22226
L67141 21874
" />
<path d="M77032 35603
L76981 35587
" />
<path d="M77083 35619
L77032 35603
" />
<path d="M75861 39250
L75748 39144
" />
<path d="M75974 39354
L75861 39250
" />
<path d="M79614 41777
L79741 41718
" />
<path d="M71610 30521
L71626 30517
" />
<path d="M71593 30525
L71610 30521
" />
<path d="M78821 41053
L78606 40970
" />
<path d="M74330 34025
L74281 33990
" />
<path d="M74380 34060
L74330 34025
" />
<path d="M58092 32048
L57946 32183
" />
<path d="M58240 31914
L58092 32048
" />
<path d="M58391 31781
L58240 31914
" />
<path d="M73831 36780
L73919 36763
" />
<path d="M73744 36796
L73831 36780
" />
<path d="M71910 31750
L71896 31730
" />
<path d="M71925 31770
L71910 31750
" />
<path d="M58961 27793
L58939 27808
" />
<path d="M58983 27777
L58961 27793
" />
<path d="M59004 27761
L58983 27777
" />
<path d="M75795 34958
L75750 34929
" />
<path d="M75841 34986
L75795 34958
" />
<path d="M55638 39176
L55497 39280
" />
<path d="M55774 39071
L55638 39176
" />
<path d="M55908 38963
L55774 39071
" />
<path d="M71506 31176
L71492 31156
" />
<path d="M71521 31197
L71506 31176
" />
<path d="M71335 30930
L71320 30909
" />
<path d="M71349 30950
L71335 30930
" />
<path d="M77447 35717
L77395 35704
" />
<path d="M77500 35730
L77447 35717
" />
<path d="M76689 42622
L76853 42579
" />
<path d="M76731 43599
L76611 43466
" />
<path d="M76552 39844
L76433 39750
" />
<path d="M77471 44381
L77345 44254
" />
<path d="M59483 27415
L59483 27416
" />
<path d="M59482 27415
L59483 27415
" />
<path d="M59482 27414
L59482 27415
" />
<path d="M71223 30754
L71220 30749
" />
<path d="M71226 30759
L71223 30754
" />
<path d="M72298 32209
L72277 32185
" />
<path d="M72319 32232
L72298 32209
" />
<path d="M73481 36845
L73569 36829
" />
<path d="M73603 36973
L73481 36845
" />
<path d="M59180 50507
L59543 50548
" />
<path d="M58820 50464
L59180 50507
" />
<path d="M58463 50419
L58820 50464
" />
<path d="M58109 50373
L58463 50419
" />
<path d="M82478 47428
L82313 47359
" />
<path d="M76256 35241
L76209 35213
" />
<path d="M76302 35268
L76256 35241
" />
<path d="M76634 35446
L76586 35422
" />
<path d="M76682 35469
L76634 35446
" />
<path d="M72215 32115
L72194 32091
" />
<path d="M72236 32138
L72215 32115
" />
<path d="M57664 32453
L57528 32589
" />
<path d="M57803 32318
L57664 32453
" />
<path d="M57946 32183
L57803 32318
" />
<path d="M71479 30555
L71495 30550
" />
<path d="M71463 30559
L71479 30555
" />
<path d="M79726 41448
L79596 41372
" />
<path d="M76731 35491
L76682 35469
" />
<path d="M76780 35512
L76731 35491
" />
<path d="M72510 32439
L72489 32416
" />
<path d="M72532 32461
L72510 32439
" />
<path d="M77014 42536
L77171 42491
" />
<path d="M75024 49741
L75357 49687
" />
<path d="M74690 49793
L75024 49741
" />
<path d="M74355 49842
L74690 49793
" />
<path d="M74020 49890
L74355 49842
" />
<path d="M72818 32750
L72796 32728
" />
<path d="M72841 32772
L72818 32750
" />
<path d="M82808 47565
L82643 47496
" />
<path d="M51266 45832
L50929 46015
" />
<path d="M51575 45641
L51266 45832
" />
<path d="M51862 45442
L51575 45641
" />
<path d="M49711 46501
L49249 46642
" />
<path d="M50154 46350
L49711 46501
" />
<path d="M50560 46188
L50154 46350
" />
<path d="M50929 46015
L50560 46188
" />
<path d="M81655 47077
L81491 47005
" />
<path d="M77238 35663
L77186 35649
" />
<path d="M77290 35677
L77238 35663
" />
<path d="M75404 36466
L75491 36447
" />
<path d="M75317 36485
L75404 36466
" />
<path d="M76316 39653
L76201 39556
" />
<path d="M76433 39750
L76316 39653
" />
<path d="M75633 39036
L75518 38925
" />
<path d="M75748 39144
L75633 39036
" />
<path d="M71176 30675
L71173 30670
" />
<path d="M71179 30680
L71176 30675
" />
<path d="M76930 40118
L76800 40028
" />
<path d="M51573 40748
L51332 40817
" />
<path d="M51832 40677
L51573 40748
" />
<path d="M52105 40604
L51832 40677
" />
<path d="M71211 30735
L71208 30730
" />
<path d="M71214 30739
L71211 30735
" />
<path d="M78536 45328
L78396 45217
" />
<path d="M71363 30971
L71349 30950
" />
<path d="M71378 30991
L71363 30971
" />
<path d="M78258 45105
L78123 44989
" />
<path d="M58764 27933
L58742 27948
" />
<path d="M58786 27917
L58764 27933
" />
<path d="M58808 27902
L58786 27917
" />
<path d="M77836 40637
L77667 40552
" />
<path d="M71793 31588
L71778 31567
" />
<path d="M71807 31608
L71793 31588
" />
<path d="M77171 42491
L77325 42446
" />
<path d="M71421 31053
L71406 31032
" />
<path d="M71435 31073
L71421 31053
" />
<path d="M72729 32662
L72707 32640
" />
<path d="M72752 32684
L72729 32662
" />
<path d="M53340 34274
L53113 34313
" />
<path d="M53595 34241
L53340 34274
" />
<path d="M53872 34211
L53595 34241
" />
<path d="M75704 34901
L75658 34873
" />
<path d="M75750 34929
L75704 34901
" />
<path d="M56855 38166
L56712 38284
" />
<path d="M57002 38047
L56855 38166
" />
<path d="M57150 37927
L57002 38047
" />
<path d="M74430 34095
L74380 34060
" />
<path d="M74480 34129
L74430 34095
" />
<path d="M73110 33025
L73065 32985
" />
<path d="M73155 33066
L73110 33025
" />
<path d="M75140 34560
L75089 34528
" />
<path d="M75192 34592
L75140 34560
" />
<path d="M73725 37100
L73603 36973
" />
<path d="M73847 37228
L73725 37100
" />
<path d="M57835 28566
L57779 28607
" />
<path d="M57891 28525
L57835 28566
" />
<path d="M57949 28483
L57891 28525
" />
<path d="M73473 33348
L73427 33309
" />
<path d="M73519 33388
L73473 33348
" />
<path d="M77419 35768
L77500 35730
" />
<path d="M77338 35806
L77419 35768
" />
<path d="M77065 40207
L76930 40118
" />
<path d="M77325 42446
L77475 42399
" />
<path d="M71940 31790
L71925 31770
" />
<path d="M71955 31811
L71940 31790
" />
<path d="M77135 35634
L77083 35619
" />
<path d="M77186 35649
L77135 35634
" />
<path d="M74833 34364
L74782 34331
" />
<path d="M74884 34397
L74833 34364
" />
<path d="M71881 31709
L71866 31689
" />
<path d="M71896 31730
L71881 31709
" />
<path d="M78398 40887
L78201 40804
" />
<path d="M76768 36059
L76850 36025
" />
<path d="M76686 36092
L76768 36059
" />
<path d="M59016 31249
L58857 31382
" />
<path d="M59176 31117
L59016 31249
" />
<path d="M59338 30984
L59176 31117
" />
<path d="M79243 41216
L79036 41135
" />
<path d="M73694 29337
L73499 29149
" />
<path d="M73823 29511
L73694 29337
" />
<path d="M53884 49529
L54188 49612
" />
<path d="M53578 49442
L53884 49529
" />
<path d="M53268 49351
L53578 49442
" />
<path d="M52953 49257
L53268 49351
" />
<path d="M55373 42599
L55081 42821
" />
<path d="M58458 28150
L58452 28145
" />
<path d="M55181 42556
L55373 42599
" />
<path d="M52888 44593
L52640 44811
" />
<path d="M53139 44373
L52888 44593
" />
<path d="M53398 44153
L53139 44373
" />
<path d="M71838 30462
L71854 30458
" />
<path d="M71822 30467
L71838 30462
" />
<path d="M59500 30852
L59338 30984
" />
<path d="M59662 30720
L59500 30852
" />
<path d="M59825 30588
L59662 30720
" />
<path d="M71392 31012
L71378 30991
" />
<path d="M71406 31032
L71392 31012
" />
<path d="M72342 50105
L72678 50064
" />
<path d="M72006 50145
L72342 50105
" />
<path d="M71671 50185
L72006 50145
" />
<path d="M71335 50224
L71671 50185
" />
<path d="M76523 42664
L76689 42622
" />
<path d="M50921 40952
L50760 41017
" />
<path d="M51113 40885
L50921 40952
" />
<path d="M51332 40817
L51113 40885
" />
<path d="M62965 23824
L62797 24015
" />
<path d="M63130 23634
L62965 23824
" />
<path d="M63292 23441
L63130 23634
" />
<path d="M49599 48269
L50038 48391
" />
<path d="M49142 48143
L49599 48269
" />
<path d="M48688 48015
L49142 48143
" />
<path d="M48263 47886
L48688 48015
" />
<path d="M71000 50263
L71335 50224
" />
<path d="M70664 50302
L71000 50263
" />
<path d="M70329 50340
L70664 50302
" />
<path d="M69993 50378
L70329 50340
" />
<path d="M55194 39483
L55031 39582
" />
<path d="M55349 39383
L55194 39483
" />
<path d="M55497 39280
L55349 39383
" />
<path d="M51238 48740
L51605 48850
" />
<path d="M50856 48627
L51238 48740
" />
<path d="M50456 48511
L50856 48627
" />
<path d="M50038 48391
L50456 48511
" />
<path d="M73656 36812
L73744 36796
" />
<path d="M73569 36829
L73656 36812
" />
<path d="M62133 50807
L62507 50842
" />
<path d="M61759 50772
L62133 50807
" />
<path d="M61386 50737
L61759 50772
" />
<path d="M61015 50701
L61386 50737
" />
<path d="M71706 31465
L71692 31444
" />
<path d="M71720 31485
L71706 31465
" />
<path d="M71478 31135
L71464 31114
" />
<path d="M71492 31156
L71478 31135
" />
<path d="M72908 32838
L72886 32816
" />
<path d="M72930 32859
L72908 32838
" />
<path d="M58870 30259
L58941 30285
" />
<path d="M58799 30233
L58870 30259
" />
<path d="M58729 30206
L58799 30233
" />
<path d="M55275 36226
L55462 36292
" />
<path d="M55089 36157
L55275 36226
" />
<path d="M54906 36086
L55089 36157
" />
<path d="M68659 25378
L68533 25170
" />
<path d="M68790 25574
L68659 25378
" />
<path d="M67773 54856
L67312 50677
" />
<path d="M62521 54856
L67773 54856
" />
<path d="M62882 50876
L62521 54856
" />
<path d="M62507 50842
L62882 50876
" />
<path d="M59461 27394
L59462 27394
" />
<path d="M59461 27393
L59461 27394
" />
<path d="M59460 27393
L59461 27393
" />
<path d="M76974 43865
L76852 43733
" />
<path d="M82808 47565
L82808 47565
" />
<path d="M82490 47681
L82808 47565
" />
<path d="M82172 47798
L82490 47681
" />
<path d="M81854 47913
L82172 47798
" />
<path d="M81536 48028
L81854 47913
" />
<path d="M81218 48141
L81536 48028
" />
<path d="M80899 48253
L81218 48141
" />
<path d="M80579 48363
L80899 48253
" />
<path d="M72051 31926
L72031 31902
" />
<path d="M72071 31950
L72051 31926
" />
<path d="M77506 40467
L77352 40382
" />
<path d="M57464 28806
L57385 28845
" />
<path d="M57536 28767
L57464 28806
" />
<path d="M57602 28728
L57536 28767
" />
<path d="M77206 40295
L77065 40207
" />
<path d="M72092 31973
L72071 31950
" />
<path d="M72112 31997
L72092 31973
" />
<path d="M71592 31300
L71577 31280
" />
<path d="M71606 31321
L71592 31300
" />
<path d="M66869 21194
L66733 20876
" />
<path d="M67006 21528
L66869 21194
" />
<path d="M59026 27746
L59004 27761
" />
<path d="M59048 27730
L59026 27746
" />
<path d="M59070 27715
L59048 27730
" />
<path d="M57627 36916
L57830 36967
" />
<path d="M57426 36864
L57627 36916
" />
<path d="M57224 36812
L57426 36864
" />
<path d="M75578 36427
L75665 36406
" />
<path d="M75491 36447
L75578 36427
" />
<path d="M59750 30563
L59825 30588
" />
<path d="M59676 30539
L59750 30563
" />
<path d="M59601 30514
L59676 30539
" />
<path d="M59484 27417
L59485 27418
" />
<path d="M59484 27417
L59484 27417
" />
<path d="M59483 27416
L59484 27417
" />
<path d="M72467 32393
L72446 32370
" />
<path d="M72489 32416
L72467 32393
" />
<path d="M53665 43931
L53398 44153
" />
<path d="M53939 43710
L53665 43931
" />
<path d="M54218 43488
L53939 43710
" />
<path d="M71152 30636
L71169 30632
" />
<path d="M71155 30641
L71152 30636
" />
<path d="M54671 39773
L54472 39865
" />
<path d="M54856 39678
L54671 39773
" />
<path d="M55031 39582
L54856 39678
" />
<path d="M73685 49935
L74020 49890
" />
<path d="M73350 49979
L73685 49935
" />
<path d="M73014 50022
L73350 49979
" />
<path d="M72678 50064
L73014 50022
" />
<path d="M57664 28688
L57602 28728
" />
<path d="M57723 28648
L57664 28688
" />
<path d="M57779 28607
L57723 28648
" />
<path d="M72953 32881
L72930 32859
" />
<path d="M72975 32903
L72953 32881
" />
<path d="M74880 36577
L74968 36559
" />
<path d="M74793 36595
L74880 36577
" />
<path d="M77343 35691
L77290 35677
" />
<path d="M77395 35704
L77343 35691
" />
<path d="M71735 31506
L71720 31485
" />
<path d="M71749 31526
L71735 31506
" />
<path d="M58830 27886
L58808 27902
" />
<path d="M58852 27871
L58830 27886
" />
<path d="M58873 27855
L58852 27871
" />
<path d="M71512 30546
L71528 30542
" />
<path d="M71495 30550
L71512 30546
" />
<path d="M74630 34231
L74580 34197
" />
<path d="M74681 34265
L74630 34231
" />
<path d="M76088 39456
L75974 39354
" />
<path d="M76201 39556
L76088 39456
" />
<path d="M72010 31878
L71990 31855
" />
<path d="M72031 31902
L72010 31878
" />
<path d="M59463 27396
L59464 27396
" />
<path d="M59463 27395
L59463 27396
" />
<path d="M59462 27394
L59463 27395
" />
<path d="M66596 20580
L66460 20311
" />
<path d="M66733 20876
L66596 20580
" />
<path d="M74531 36647
L74618 36629
" />
<path d="M74443 36664
L74531 36647
" />
<path d="M61920 24960
L61738 25148
" />
<path d="M62100 24772
L61920 24960
" />
<path d="M62278 24583
L62100 24772
" />
<path d="M59481 27413
L59482 27414
" />
<path d="M59481 27413
L59481 27413
" />
<path d="M59480 27412
L59481 27413
" />
<path d="M77857 44752
L77727 44630
" />
<path d="M72257 32162
L72236 32138
" />
<path d="M72277 32185
L72257 32162
" />
<path d="M80676 46625
L80515 46545
" />
<path d="M71229 30764
L71226 30759
" />
<path d="M71232 30769
L71229 30764
" />
<path d="M81327 46932
L81164 46857
" />
<path d="M62453 24394
L62278 24583
" />
<path d="M62626 24204
L62453 24394
" />
<path d="M62797 24015
L62626 24204
" />
<path d="M79261 41890
L79450 41834
" />
<path d="M81001 46781
L80838 46704
" />
<path d="M71991 28122
L71669 27924
" />
<path d="M72323 28327
L71991 28122
" />
<path d="M51664 41671
L51852 41725
" />
<path d="M51469 41617
L51664 41671
" />
<path d="M51268 41561
L51469 41617
" />
<path d="M82148 47289
L81984 47219
" />
<path d="M71675 30504
L71691 30500
" />
<path d="M71659 30509
L71675 30504
" />
<path d="M71316 30595
L71332 30591
" />
<path d="M71300 30600
L71316 30595
" />
</g> 
</svg>
