999
dxfrw 0.6.3
  0
SECTION
  2
HEADER
  9
$ACADVER
  1
AC1021
  9
$DWGCODEPAGE
  3
ANSI_1252
  9
$INSBASE
 10
0
 20
0
 30
0
  9
$EXTMIN
 10
144.017858
 20
-120.288277261888
 30
0
  9
$EXTMAX
 10
192.135295
 20
-71.287536
 30
0
  9
$LIMMIN
 10
0
 20
0
  9
$LIMMAX
 10
420
 20
297
  9
$ORTHOMODE
 70
    0
  9
$REGENMODE
 70
    1
  9
$FILLMODE
 70
    1
  9
$QTEXTMODE
 70
    0
  9
$MIRRTEXT
 70
    0
  9
$LTSCALE
 40
1
  9
$ATTMODE
 70
    0
  9
$TEXTSIZE
 40
2.5
  9
$TRACEWID
 40
15.68
  9
$TEXTSTYLE
  7
STANDARD
  9
$CLAYER
  8
0
  9
$CELTYPE
  6
BYLAYER
  9
$CECOLOR
 62
  256
  9
$CELTSCALE
 40
1
  9
$DISPSILH
 70
    0
  9
$DIMSCALE
 40
2.5
  9
$DIMASZ
 40
2.5
  9
$DIMEXO
 40
0.625
  9
$DIMDLI
 40
3.75
  9
$DIMRND
 40
0
  9
$DIMDLE
 40
0
  9
$DIMEXE
 40
1.25
  9
$DIMTP
 40
0
  9
$DIMTM
 40
0
  9
$DIMTXT
 40
2.5
  9
$DIMCEN
 40
2.5
  9
$DIMTSZ
 40
0
  9
$DIMTOL
 70
    0
  9
$DIMLIM
 70
    0
  9
$DIMTIH
 70
    0
  9
$DIMTOH
 70
    0
  9
$DIMSE1
 70
    0
  9
$DIMSE2
 70
    0
  9
$DIMTAD
 70
    1
  9
$DIMZIN
 70
    8
  9
$DIMBLK
  1

  9
$DIMASO
 70
    1
  9
$DIMSHO
 70
    1
  9
$DIMPOST
  1

  9
$DIMAPOST
  1

  9
$DIMALT
 70
    0
  9
$DIMALTD
 70
    3
  9
$DIMALTF
 40
0.03937
  9
$DIMLFAC
 40
1
  9
$DIMTOFL
 70
    1
  9
$DIMTVP
 40
0
  9
$DIMTIX
 70
    0
  9
$DIMSOXD
 70
    0
  9
$DIMSAH
 70
    0
  9
$DIMBLK1
  1

  9
$DIMBLK2
  1

  9
$DIMSTYLE
  2
Standard
  9
$DIMCLRD
 70
    0
  9
$DIMCLRE
 70
    0
  9
$DIMCLRT
 70
    0
  9
$DIMTFAC
 40
1
  9
$DIMGAP
 40
0.625
  9
$DIMJUST
 70
    0
  9
$DIMSD1
 70
    0
  9
$DIMSD2
 70
    0
  9
$DIMTOLJ
 70
    0
  9
$DIMTZIN
 70
    8
  9
$DIMALTZ
 70
    0
  9
$DIMALTTZ
 70
    0
  9
$DIMUPT
 70
    0
  9
$DIMDEC
 70
    2
  9
$DIMTDEC
 70
    2
  9
$DIMALTU
 70
    2
  9
$DIMALTTD
 70
    3
  9
$DIMTXSTY
  7
STANDARD
  9
$DIMAUNIT
 70
    0
  9
$DIMADEC
 70
    0
  9
$DIMALTRND
 40
0
  9
$DIMAZIN
 70
    0
  9
$DIMDSEP
 70
   44
  9
$DIMATFIT
 70
    3
  9
$DIMFRAC
 70
    0
  9
$DIMLDRBLK
  1
STANDARD
  9
$DIMLUNIT
 70
    2
  9
$DIMLWD
 70
   -2
  9
$DIMLWE
 70
   -2
  9
$DIMTMOVE
 70
    0
  9
$DIMFXL
 40
1
  9
$DIMFXLON
 70
    0
  9
$DIMJOGANG
 40
0.7854
  9
$DIMTFILL
 70
    0
  9
$DIMTFILLCLR
 70
    0
  9
$DIMARCSYM
 70
    0
  9
$DIMLTYPE
  6

  9
$DIMLTEX1
  6

  9
$DIMLTEX2
  6

  9
$LUNITS
 70
    2
  9
$LUPREC
 70
    4
  9
$SKETCHINC
 40
1
  9
$FILLETRAD
 40
0
  9
$AUNITS
 70
    0
  9
$AUPREC
 70
    2
  9
$MENU
  1
.
  9
$ELEVATION
 40
0
  9
$PELEVATION
 40
0
  9
$THICKNESS
 40
0
  9
$LIMCHECK
 70
    0
  9
$CHAMFERA
 40
0
  9
$CHAMFERB
 40
0
  9
$CHAMFERC
 40
0
  9
$CHAMFERD
 40
0
  9
$SKPOLY
 70
    0
  9
$USRTIMER
 70
    1
  9
$ANGBASE
 50
0
  9
$ANGDIR
 70
    0
  9
$PDMODE
 70
   34
  9
$PDSIZE
 40
0
  9
$PLINEWID
 40
0
  9
$SPLFRAME
 70
    0
  9
$SPLINETYPE
 70
    2
  9
$SPLINESEGS
 70
    8
  9
$HANDSEED
  5
20000
  9
$SURFTAB1
 70
    6
  9
$SURFTAB2
 70
    6
  9
$SURFTYPE
 70
    6
  9
$SURFU
 70
    6
  9
$SURFV
 70
    6
  9
$UCSBASE
  2

  9
$UCSNAME
  2

  9
$UCSORG
 10
0
 20
0
 30
0
  9
$UCSXDIR
 10
1
 20
0
 30
0
  9
$UCSYDIR
 10
0
 20
1
 30
0
  9
$UCSORTHOREF
  2

  9
$UCSORTHOVIEW
 70
    0
  9
$UCSORGTOP
 10
0
 20
0
 30
0
  9
$UCSORGBOTTOM
 10
0
 20
0
 30
0
  9
$UCSORGLEFT
 10
0
 20
0
 30
0
  9
$UCSORGRIGHT
 10
0
 20
0
 30
0
  9
$UCSORGFRONT
 10
0
 20
0
 30
0
  9
$UCSORGBACK
 10
0
 20
0
 30
0
  9
$PUCSBASE
  2

  9
$PUCSNAME
  2

  9
$PUCSORG
 10
0
 20
0
 30
0
  9
$PUCSXDIR
 10
1
 20
0
 30
0
  9
$PUCSYDIR
 10
0
 20
1
 30
0
  9
$PUCSORTHOREF
  2

  9
$PUCSORTHOVIEW
 70
    0
  9
$PUCSORGTOP
 10
0
 20
0
 30
0
  9
$PUCSORGBOTTOM
 10
0
 20
0
 30
0
  9
$PUCSORGLEFT
 10
0
 20
0
 30
0
  9
$PUCSORGRIGHT
 10
0
 20
0
 30
0
  9
$PUCSORGFRONT
 10
0
 20
0
 30
0
  9
$PUCSORGBACK
 10
0
 20
0
 30
0
  9
$USERI1
 70
    0
  9
$USERI2
 70
    0
  9
$USERI3
 70
    0
  9
$USERI4
 70
    0
  9
$USERI5
 70
    0
  9
$USERR1
 40
0
  9
$USERR2
 40
0
  9
$USERR3
 40
0
  9
$USERR4
 40
0
  9
$USERR5
 40
0
  9
$WORLDVIEW
 70
    1
  9
$SHADEDGE
 70
    3
  9
$SHADEDIF
 70
   70
  9
$TILEMODE
 70
    1
  9
$MAXACTVP
 70
   64
  9
$PINSBASE
 10
0
 20
0
 30
0
  9
$PLIMCHECK
 70
    0
  9
$PEXTMIN
 10
0
 20
0
 30
0
  9
$PEXTMAX
 10
0
 20
0
 30
0
  9
$GRIDMODE
 70
    0
  9
$SNAPSTYLE
 70
    0
  9
$PLIMMIN
 10
0
 20
0
  9
$PLIMMAX
 10
210
 20
297
  9
$UNITMODE
 70
    0
  9
$VISRETAIN
 70
    1
  9
$PLINEGEN
 70
    0
  9
$PSLTSCALE
 70
    1
  9
$TREEDEPTH
 70
 3020
  9
$CMLSTYLE
  2
Standard
  9
$CMLJUST
 70
    0
  9
$CMLSCALE
 40
20
  9
$PROXYGRAPHICS
 70
    1
  9
$MEASUREMENT
 70
    1
  9
$CELWEIGHT
370
   -1
  9
$ENDCAPS
280
    0
  9
$JOINSTYLE
280
    0
  9
$LWDISPLAY
290
    0
  9
$INSUNITS
 70
    4
  9
$HYPERLINKBASE
  1

  9
$STYLESHEET
  1

  9
$XEDIT
290
    1
  9
$CEPSNTYPE
380
    0
  9
$PSTYLEMODE
290
    1
  9
$EXTNAMES
290
    1
  9
$PSVPSCALE
 40
1
  9
$OLESTARTUP
290
    0
  9
$SORTENTS
280
  127
  9
$INDEXCTL
280
    0
  9
$HIDETEXT
280
    1
  9
$XCLIPFRAME
290
    0
  9
$HALOGAP
280
    0
  9
$OBSCOLOR
 70
  257
  9
$OBSLTYPE
280
    0
  9
$INTERSECTIONDISPLAY
280
    0
  9
$INTERSECTIONCOLOR
 70
  257
  9
$DIMASSOC
280
    1
  9
$PROJECTNAME
  1

  9
$CAMERADISPLAY
290
    0
  9
$LENSLENGTH
 40
50
  9
$CAMERAHEIGHT
 40
0
  9
$STEPSPERSEC
 40
2
  9
$STEPSIZE
 40
50
  9
$3DDWFPREC
 40
2
  9
$PSOLWIDTH
 40
5
  9
$PSOLHEIGHT
 40
80
  9
$LOFTANG1
 40
1.570796326794897
  9
$LOFTANG2
 40
1.570796326794897
  9
$LOFTMAG1
 40
0
  9
$LOFTMAG2
 40
0
  9
$LOFTPARAM
 70
    7
  9
$LOFTNORMALS
280
    1
  9
$LATITUDE
 40
1
  9
$LONGITUDE
 40
1
  9
$NORTHDIRECTION
 40
0
  9
$TIMEZONE
 70
-8000
  9
$LIGHTGLYPHDISPLAY
280
    1
  9
$TILEMODELIGHTSYNCH
280
    1
  9
$SOLIDHIST
280
    1
  9
$SHOWHIST
280
    1
  9
$DWFFRAME
280
    2
  9
$DGNFRAME
280
    0
  9
$REALWORLDSCALE
290
    1
  9
$INTERFERECOLOR
 62
    1
  9
$CSHADOW
280
    0
  9
$SHADOWPLANELOCATION
 40
0
  0
ENDSEC
  0
SECTION
  2
CLASSES
  0
ENDSEC
  0
SECTION
  2
TABLES
  0
TABLE
  2
VPORT
  5
8
330
0
100
AcDbSymbolTable
 70
    1
  0
VPORT
  5
31
330
2
100
AcDbSymbolTableRecord
100
AcDbViewportTableRecord
  2
*ACTIVE
 70
    0
 10
0
 20
0
 11
1
 21
1
 12
105.8928317497113
 22
-31.82502021991922
 13
0
 23
0
 14
10
 24
10
 15
10
 25
10
 16
0
 26
0
 36
1
 17
0
 27
0
 37
0
 40
106.4645386997697
 41
0.850835322195704
 42
50
 43
0
 44
0
 50
0
 51
0
 71
    0
 72
  100
 73
    1
 74
    3
 75
    0
 76
    0
 77
    0
 78
    0
281
    0
 65
    1
110
0
120
0
130
0
111
1
121
0
131
0
112
0
122
1
132
0
 79
    0
146
0
348
10020
 60
    7
 61
    5
292
1
282
    1
141
0
142
0
 63
  250
421
3358443
  0
ENDTAB
  0
TABLE
  2
LTYPE
  5
5
330
0
100
AcDbSymbolTable
 70
    4
  0
LTYPE
  5
14
330
5
100
AcDbSymbolTableRecord
100
AcDbLinetypeTableRecord
  2
ByBlock
 70
    0
  3

 72
   65
 73
    0
 40
0
  0
LTYPE
  5
15
330
5
100
AcDbSymbolTableRecord
100
AcDbLinetypeTableRecord
  2
ByLayer
 70
    0
  3

 72
   65
 73
    0
 40
0
  0
LTYPE
  5
16
330
5
100
AcDbSymbolTableRecord
100
AcDbLinetypeTableRecord
  2
Continuous
 70
    0
  3
Solid line
 72
   65
 73
    0
 40
0
  0
LTYPE
  5
32
330
5
100
AcDbSymbolTableRecord
100
AcDbLinetypeTableRecord
  2
DOT
 70
    0
  3
Dot . . . . . . . . . . . . . . . . . . . . . .
 72
   65
 73
    2
 40
6.35
 49
0
 74
    0
 49
-6.35
 74
    0
  0
LTYPE
  5
33
330
5
100
AcDbSymbolTableRecord
100
AcDbLinetypeTableRecord
  2
DOTTINY
 70
    0
  3
Dot (.15x) .....................................
 72
   65
 73
    2
 40
0.9525
 49
0
 74
    0
 49
-0.9525
 74
    0
  0
LTYPE
  5
34
330
5
100
AcDbSymbolTableRecord
100
AcDbLinetypeTableRecord
  2
DOT2
 70
    0
  3
Dot (.5x) .....................................
 72
   65
 73
    2
 40
3.175
 49
0
 74
    0
 49
-3.175
 74
    0
  0
LTYPE
  5
35
330
5
100
AcDbSymbolTableRecord
100
AcDbLinetypeTableRecord
  2
DOTX2
 70
    0
  3
Dot (2x) .  .  .  .  .  .  .  .  .  .  .  .  .
 72
   65
 73
    2
 40
12.7
 49
0
 74
    0
 49
-12.7
 74
    0
  0
LTYPE
  5
36
330
5
100
AcDbSymbolTableRecord
100
AcDbLinetypeTableRecord
  2
DASHED
 70
    0
  3
Dashed _ _ _ _ _ _ _ _ _ _ _ _ _ _ _ _ _
 72
   65
 73
    2
 40
19.05
 49
12.7
 74
    0
 49
-6.35
 74
    0
  0
LTYPE
  5
37
330
5
100
AcDbSymbolTableRecord
100
AcDbLinetypeTableRecord
  2
DASHEDTINY
 70
    0
  3
Dashed (.15x) _ _ _ _ _ _ _ _ _ _ _ _ _ _ _ _ _
 72
   65
 73
    2
 40
2.8575
 49
1.905
 74
    0
 49
-0.9525
 74
    0
  0
LTYPE
  5
38
330
5
100
AcDbSymbolTableRecord
100
AcDbLinetypeTableRecord
  2
DASHED2
 70
    0
  3
Dashed (.5x) _ _ _ _ _ _ _ _ _ _ _ _ _ _ _ _ _
 72
   65
 73
    2
 40
9.524999999999999
 49
6.35
 74
    0
 49
-3.175
 74
    0
  0
LTYPE
  5
39
330
5
100
AcDbSymbolTableRecord
100
AcDbLinetypeTableRecord
  2
DASHEDX2
 70
    0
  3
Dashed (2x) ____  ____  ____  ____  ____  ___
 72
   65
 73
    2
 40
38.09999999999999
 49
25.4
 74
    0
 49
-12.7
 74
    0
  0
LTYPE
  5
3A
330
5
100
AcDbSymbolTableRecord
100
AcDbLinetypeTableRecord
  2
DASHDOT
 70
    0
  3
Dash dot __ . __ . __ . __ . __ . __ . __ . __
 72
   65
 73
    4
 40
25.4
 49
12.7
 74
    0
 49
-6.35
 74
    0
 49
0
 74
    0
 49
-6.35
 74
    0
  0
LTYPE
  5
3B
330
5
100
AcDbSymbolTableRecord
100
AcDbLinetypeTableRecord
  2
DASHDOTTINY
 70
    0
  3
Dash dot (.15x) _._._._._._._._._._._._._._._.
 72
   65
 73
    4
 40
3.81
 49
1.905
 74
    0
 49
-0.9525
 74
    0
 49
0
 74
    0
 49
-0.9525
 74
    0
  0
LTYPE
  5
3C
330
5
100
AcDbSymbolTableRecord
100
AcDbLinetypeTableRecord
  2
DASHDOT2
 70
    0
  3
Dash dot (.5x) _._._._._._._._._._._._._._._.
 72
   65
 73
    4
 40
12.7
 49
6.35
 74
    0
 49
-3.175
 74
    0
 49
0
 74
    0
 49
-3.175
 74
    0
  0
LTYPE
  5
3D
330
5
100
AcDbSymbolTableRecord
100
AcDbLinetypeTableRecord
  2
DASHDOTX2
 70
    0
  3
Dash dot (2x) ____  .  ____  .  ____  .  ___
 72
   65
 73
    4
 40
50.8
 49
25.4
 74
    0
 49
-12.7
 74
    0
 49
0
 74
    0
 49
-12.7
 74
    0
  0
LTYPE
  5
3E
330
5
100
AcDbSymbolTableRecord
100
AcDbLinetypeTableRecord
  2
DIVIDE
 70
    0
  3
Divide ____ . . ____ . . ____ . . ____ . . ____
 72
   65
 73
    6
 40
31.75
 49
12.7
 74
    0
 49
-6.35
 74
    0
 49
0
 74
    0
 49
-6.35
 74
    0
 49
0
 74
    0
 49
-6.35
 74
    0
  0
LTYPE
  5
3F
330
5
100
AcDbSymbolTableRecord
100
AcDbLinetypeTableRecord
  2
DIVIDETINY
 70
    0
  3
Divide (.15x) __..__..__..__..__..__..__..__.._
 72
   65
 73
    6
 40
4.7625
 49
1.905
 74
    0
 49
-0.9525
 74
    0
 49
0
 74
    0
 49
-0.9525
 74
    0
 49
0
 74
    0
 49
-0.9525
 74
    0
  0
LTYPE
  5
40
330
5
100
AcDbSymbolTableRecord
100
AcDbLinetypeTableRecord
  2
DIVIDE2
 70
    0
  3
Divide (.5x) __..__..__..__..__..__..__..__.._
 72
   65
 73
    6
 40
15.875
 49
6.35
 74
    0
 49
-3.175
 74
    0
 49
0
 74
    0
 49
-3.175
 74
    0
 49
0
 74
    0
 49
-3.175
 74
    0
  0
LTYPE
  5
41
330
5
100
AcDbSymbolTableRecord
100
AcDbLinetypeTableRecord
  2
DIVIDEX2
 70
    0
  3
Divide (2x) ________  .  .  ________  .  .  _
 72
   65
 73
    6
 40
63.5
 49
25.4
 74
    0
 49
-12.7
 74
    0
 49
0
 74
    0
 49
-12.7
 74
    0
 49
0
 74
    0
 49
-12.7
 74
    0
  0
LTYPE
  5
42
330
5
100
AcDbSymbolTableRecord
100
AcDbLinetypeTableRecord
  2
BORDER
 70
    0
  3
Border __ __ . __ __ . __ __ . __ __ . __ __ .
 72
   65
 73
    6
 40
44.45
 49
12.7
 74
    0
 49
-6.35
 74
    0
 49
12.7
 74
    0
 49
-6.35
 74
    0
 49
0
 74
    0
 49
-6.35
 74
    0
  0
LTYPE
  5
43
330
5
100
AcDbSymbolTableRecord
100
AcDbLinetypeTableRecord
  2
BORDERTINY
 70
    0
  3
Border (.15x) __.__.__.__.__.__.__.__.__.__.__.
 72
   65
 73
    6
 40
6.6675
 49
1.905
 74
    0
 49
-0.9525
 74
    0
 49
1.905
 74
    0
 49
-0.9525
 74
    0
 49
0
 74
    0
 49
-0.9525
 74
    0
  0
LTYPE
  5
44
330
5
100
AcDbSymbolTableRecord
100
AcDbLinetypeTableRecord
  2
BORDER2
 70
    0
  3
Border (.5x) __.__.__.__.__.__.__.__.__.__.__.
 72
   65
 73
    6
 40
22.225
 49
6.35
 74
    0
 49
-3.175
 74
    0
 49
6.35
 74
    0
 49
-3.175
 74
    0
 49
0
 74
    0
 49
-3.175
 74
    0
  0
LTYPE
  5
45
330
5
100
AcDbSymbolTableRecord
100
AcDbLinetypeTableRecord
  2
BORDERX2
 70
    0
  3
Border (2x) ____  ____  .  ____  ____  .  ___
 72
   65
 73
    6
 40
88.89999999999999
 49
25.4
 74
    0
 49
-12.7
 74
    0
 49
25.4
 74
    0
 49
-12.7
 74
    0
 49
0
 74
    0
 49
-12.7
 74
    0
  0
LTYPE
  5
46
330
5
100
AcDbSymbolTableRecord
100
AcDbLinetypeTableRecord
  2
CENTER
 70
    0
  3
Center ____ _ ____ _ ____ _ ____ _ ____ _ ____
 72
   65
 73
    4
 40
50.8
 49
31.75
 74
    0
 49
-6.35
 74
    0
 49
6.35
 74
    0
 49
-6.35
 74
    0
  0
LTYPE
  5
47
330
5
100
AcDbSymbolTableRecord
100
AcDbLinetypeTableRecord
  2
CENTERTINY
 70
    0
  3
Center (.15x) ___ _ ___ _ ___ _ ___ _ ___ _ ___
 72
   65
 73
    4
 40
7.619999999999999
 49
4.7625
 74
    0
 49
-0.9525
 74
    0
 49
0.9525
 74
    0
 49
-0.9525
 74
    0
  0
LTYPE
  5
48
330
5
100
AcDbSymbolTableRecord
100
AcDbLinetypeTableRecord
  2
CENTER2
 70
    0
  3
Center (.5x) ___ _ ___ _ ___ _ ___ _ ___ _ ___
 72
   65
 73
    4
 40
28.575
 49
19.05
 74
    0
 49
-3.175
 74
    0
 49
3.175
 74
    0
 49
-3.175
 74
    0
  0
LTYPE
  5
49
330
5
100
AcDbSymbolTableRecord
100
AcDbLinetypeTableRecord
  2
CENTERX2
 70
    0
  3
Center (2x) ________  __  ________  __  _____
 72
   65
 73
    4
 40
101.6
 49
63.5
 74
    0
 49
-12.7
 74
    0
 49
12.7
 74
    0
 49
-12.7
 74
    0
  0
ENDTAB
  0
TABLE
  2
LAYER
  5
2
330
0
100
AcDbSymbolTable
 70
    1
  0
LAYER
  5
10
330
2
100
AcDbSymbolTableRecord
100
AcDbLayerTableRecord
  2
0
 70
    0
 62
    7
  6
CONTINUOUS
370
   -3
390
F
  0
ENDTAB
  0
TABLE
  2
STYLE
  5
3
330
0
100
AcDbSymbolTable
 70
    3
  0
STYLE
  5
4A
330
2
100
AcDbSymbolTableRecord
100
AcDbTextStyleTableRecord
  2
Standard
 70
    0
 40
0
 41
1
 50
0
 71
    0
 42
1
  3
txt
  4

  0
ENDTAB
  0
TABLE
  2
VIEW
  5
6
330
0
100
AcDbSymbolTable
 70
    0
  0
ENDTAB
  0
TABLE
  2
UCS
  5
7
330
0
100
AcDbSymbolTable
 70
    0
  0
ENDTAB
  0
TABLE
  2
APPID
  5
9
330
0
100
AcDbSymbolTable
 70
    1
  0
APPID
  5
12
330
9
100
AcDbSymbolTableRecord
100
AcDbRegAppTableRecord
  2
ACAD
 70
    0
  0
APPID
  5
4B
330
9
100
AcDbSymbolTableRecord
100
AcDbRegAppTableRecord
  2
LibreCad
 70
    0
  0
ENDTAB
  0
TABLE
  2
DIMSTYLE
  5
A
330
0
100
AcDbSymbolTable
 70
    1
100
AcDbDimStyleTable
 71
    1
  0
DIMSTYLE
105
4C
330
A
100
AcDbSymbolTableRecord
100
AcDbDimStyleTableRecord
  2
Standard
 70
    0
 40
1
 41
2.5
 42
0.625
 43
0.38
 44
1.25
 45
0
 46
0
 47
0
 48
0
 49
1
140
2.5
141
0.09
142
2.5
143
25.4
144
1
145
0
146
1
147
0.625
148
0
 71
    0
 72
    0
 73
    0
 74
    1
 75
    0
 76
    0
 77
    0
 78
    1
 79
    0
170
    0
171
    2
172
    0
173
    0
174
    0
175
    0
176
    0
177
    0
178
    0
179
    0
271
    2
272
    4
273
    2
274
    2
275
    0
276
    0
277
    2
278
    0
279
    0
280
    0
281
    0
282
    0
283
    1
284
    0
285
    0
286
    0
288
    0
289
    3
340
standard
341

371
   -2
372
   -2
  0
ENDTAB
  0
TABLE
  2
BLOCK_RECORD
  5
1
330
0
100
AcDbSymbolTable
 70
    2
  0
BLOCK_RECORD
  5
1F
330
1
100
AcDbSymbolTableRecord
100
AcDbBlockTableRecord
  2
*Model_Space
 70
    0
280
    1
281
    0
  0
BLOCK_RECORD
  5
1E
330
1
100
AcDbSymbolTableRecord
100
AcDbBlockTableRecord
  2
*Paper_Space
 70
    0
280
    1
281
    0
  0
ENDTAB
  0
ENDSEC
  0
SECTION
  2
BLOCKS
  0
BLOCK
  5
20
330
1F
100
AcDbEntity
  8
0
100
AcDbBlockBegin
  2
*Model_Space
 70
    0
 10
0
 20
0
 30
0
  3
*Model_Space
  1

  0
ENDBLK
  5
21
330
1F
100
AcDbEntity
  8
0
100
AcDbBlockEnd
  0
BLOCK
  5
1C
330
1B
100
AcDbEntity
  8
0
100
AcDbBlockBegin
  2
*Paper_Space
 70
    0
 10
0
 20
0
 30
0
  3
*Paper_Space
  1

  0
ENDBLK
  5
1D
330
1F
100
AcDbEntity
  8
0
100
AcDbBlockEnd
  0
ENDSEC
  0
SECTION
  2
ENTITIES
  0
LINE
  5
4D
100
AcDbEntity
  8
0
  6
ByLayer
 62
    7
370
   -1
100
AcDbLine
 10
144.017858
 20
-115.385879
 11
145.0279166127352
 21
-115.6664628092801
  0
LINE
  5
4E
100
AcDbEntity
  8
0
  6
ByLayer
 62
    7
370
   -1
100
AcDbLine
 10
145.0279166127352
 20
-115.6664628092801
 11
146.0382550720575
 21
-115.9462578570518
  0
LINE
  5
4F
100
AcDbEntity
  8
0
  6
ByLayer
 62
    7
370
   -1
100
AcDbLine
 10
146.0382550720575
 20
-115.9462578570518
 11
147.0491532339887
 21
-116.2244753721924
  0
LINE
  5
50
100
AcDbEntity
  8
0
  6
ByLayer
 62
    7
370
   -1
100
AcDbLine
 10
147.0491532339887
 20
-116.2244753721924
 11
148.0608909545508
 21
-116.5003265835796
  0
LINE
  5
51
100
AcDbEntity
  8
0
  6
ByLayer
 62
    7
370
   -1
100
AcDbLine
 10
148.0608909545508
 20
-116.5003265835796
 11
149.0737480897656
 21
-116.773022720091
  0
LINE
  5
52
100
AcDbEntity
  8
0
  6
ByLayer
 62
    7
370
   -1
100
AcDbLine
 10
149.0737480897656
 20
-116.773022720091
 11
150.088004495655
 21
-117.041775010604
  0
LINE
  5
53
100
AcDbEntity
  8
0
  6
ByLayer
 62
    7
370
   -1
100
AcDbLine
 10
150.088004495655
 20
-117.041775010604
 11
151.103940028241
 21
-117.3057946839962
  0
LINE
  5
54
100
AcDbEntity
  8
0
  6
ByLayer
 62
    7
370
   -1
100
AcDbLine
 10
151.103940028241
 20
-117.3057946839962
 11
152.1218345435454
 21
-117.5642929691453
  0
LINE
  5
55
100
AcDbEntity
  8
0
  6
ByLayer
 62
    7
370
   -1
100
AcDbLine
 10
152.1218345435454
 20
-117.5642929691453
 11
153.1419678975901
 21
-117.8164810949287
  0
LINE
  5
56
100
AcDbEntity
  8
0
  6
ByLayer
 62
    7
370
   -1
100
AcDbLine
 10
153.1419678975901
 20
-117.8164810949287
 11
154.164619946397
 21
-118.061570290224
  0
LINE
  5
57
100
AcDbEntity
  8
0
  6
ByLayer
 62
    7
370
   -1
100
AcDbLine
 10
154.164619946397
 20
-118.061570290224
 11
155.1900705459879
 21
-118.2987717839087
  0
LINE
  5
58
100
AcDbEntity
  8
0
  6
ByLayer
 62
    7
370
   -1
100
AcDbLine
 10
155.1900705459879
 20
-118.2987717839087
 11
156.2185995523849
 21
-118.5272968048605
  0
LINE
  5
59
100
AcDbEntity
  8
0
  6
ByLayer
 62
    7
370
   -1
100
AcDbLine
 10
156.2185995523849
 20
-118.5272968048605
 11
157.2504868216098
 21
-118.7463565819569
  0
LINE
  5
5A
100
AcDbEntity
  8
0
  6
ByLayer
 62
    7
370
   -1
100
AcDbLine
 10
157.2504868216098
 20
-118.7463565819569
 11
158.2860122096843
 21
-118.9551623440753
  0
LINE
  5
5B
100
AcDbEntity
  8
0
  6
ByLayer
 62
    7
370
   -1
100
AcDbLine
 10
158.2860122096843
 20
-118.9551623440753
 11
159.3254555726306
 21
-119.1529253200935
  0
LINE
  5
5C
100
AcDbEntity
  8
0
  6
ByLayer
 62
    7
370
   -1
100
AcDbLine
 10
159.3254555726306
 20
-119.1529253200935
 11
160.3690652578597
 21
-119.3388419838076
  0
LINE
  5
5D
100
AcDbEntity
  8
0
  6
ByLayer
 62
    7
370
   -1
100
AcDbLine
 10
160.3690652578597
 20
-119.3388419838076
 11
161.4165974980258
 21
-119.5118783579382
  0
LINE
  5
5E
100
AcDbEntity
  8
0
  6
ByLayer
 62
    7
370
   -1
100
AcDbLine
 10
161.4165974980258
 20
-119.5118783579382
 11
162.4674188462602
 21
-119.6708179832463
  0
LINE
  5
5F
100
AcDbEntity
  8
0
  6
ByLayer
 62
    7
370
   -1
100
AcDbLine
 10
162.4674188462602
 20
-119.6708179832463
 11
163.5208851845819
 21
-119.8144394033467
  0
LINE
  5
60
100
AcDbEntity
  8
0
  6
ByLayer
 62
    7
370
   -1
100
AcDbLine
 10
163.5208851845819
 20
-119.8144394033467
 11
164.57635239501
 21
-119.9415211618544
  0
LINE
  5
61
100
AcDbEntity
  8
0
  6
ByLayer
 62
    7
370
   -1
100
AcDbLine
 10
164.57635239501
 20
-119.9415211618544
 11
165.6331763595638
 21
-120.0508418023843
  0
LINE
  5
62
100
AcDbEntity
  8
0
  6
ByLayer
 62
    7
370
   -1
100
AcDbLine
 10
165.6331763595638
 20
-120.0508418023843
 11
166.6907129602621
 21
-120.1411798685512
  0
LINE
  5
63
100
AcDbEntity
  8
0
  6
ByLayer
 62
    7
370
   -1
100
AcDbLine
 10
166.6907129602621
 20
-120.1411798685512
 11
167.748318079124
 21
-120.2113139039701
  0
LINE
  5
64
100
AcDbEntity
  8
0
  6
ByLayer
 62
    7
370
   -1
100
AcDbLine
 10
167.748318079124
 20
-120.2113139039701
 11
168.8053475981688
 21
-120.2600224522559
  0
LINE
  5
65
100
AcDbEntity
  8
0
  6
ByLayer
 62
    7
370
   -1
100
AcDbLine
 10
168.8053475981688
 20
-120.2600224522559
 11
169.8611573994154
 21
-120.2860840570236
  0
LINE
  5
66
100
AcDbEntity
  8
0
  6
ByLayer
 62
    7
370
   -1
100
AcDbLine
 10
169.8611573994154
 20
-120.2860840570236
 11
170.9151033648829
 21
-120.288277261888
  0
LINE
  5
67
100
AcDbEntity
  8
0
  6
ByLayer
 62
    7
370
   -1
100
AcDbLine
 10
170.9151033648829
 20
-120.288277261888
 11
171.9665413765904
 21
-120.2653806104639
  0
LINE
  5
68
100
AcDbEntity
  8
0
  6
ByLayer
 62
    7
370
   -1
100
AcDbLine
 10
171.9665413765904
 20
-120.2653806104639
 11
173.0148273165571
 21
-120.2161726463665
  0
LINE
  5
69
100
AcDbEntity
  8
0
  6
ByLayer
 62
    7
370
   -1
100
AcDbLine
 10
173.0148273165571
 20
-120.2161726463665
 11
174.0593170668019
 21
-120.1394319132105
  0
LINE
  5
6A
100
AcDbEntity
  8
0
  6
ByLayer
 62
    7
370
   -1
100
AcDbLine
 10
174.0593170668019
 20
-120.1394319132105
 11
175.099366509344
 21
-120.0339369546108
  0
LINE
  5
6B
100
AcDbEntity
  8
0
  6
ByLayer
 62
    7
370
   -1
100
AcDbLine
 10
175.099366509344
 20
-120.0339369546108
 11
176.1343315262023
 21
-119.8984663141825
  0
LINE
  5
6C
100
AcDbEntity
  8
0
  6
ByLayer
 62
    7
370
   -1
100
AcDbLine
 10
176.1343315262023
 20
-119.8984663141825
 11
177.1636260438823
 21
-119.7319822154113
  0
LINE
  5
6D
100
AcDbEntity
  8
0
  6
ByLayer
 62
    7
370
   -1
100
AcDbLine
 10
177.1636260438823
 20
-119.7319822154113
 11
178.1872661228084
 21
-119.5353523148049
  0
LINE
  5
6E
100
AcDbEntity
  8
0
  6
ByLayer
 62
    7
370
   -1
100
AcDbLine
 10
178.1872661228084
 20
-119.5353523148049
 11
179.2056243764005
 21
-119.3105725691191
  0
LINE
  5
6F
100
AcDbEntity
  8
0
  6
ByLayer
 62
    7
370
   -1
100
AcDbLine
 10
179.2056243764005
 20
-119.3105725691191
 11
180.219078078136
 21
-119.05965368171
  0
LINE
  5
70
100
AcDbEntity
  8
0
  6
ByLayer
 62
    7
370
   -1
100
AcDbLine
 10
180.219078078136
 20
-119.05965368171
 11
181.2280045014927
 21
-118.7846063559337
  0
LINE
  5
71
100
AcDbEntity
  8
0
  6
ByLayer
 62
    7
370
   -1
100
AcDbLine
 10
181.2280045014927
 20
-118.7846063559337
 11
182.232780919948
 21
-118.4874412951463
  0
LINE
  5
72
100
AcDbEntity
  8
0
  6
ByLayer
 62
    7
370
   -1
100
AcDbLine
 10
182.232780919948
 20
-118.4874412951463
 11
183.2337846069796
 21
-118.1701692027039
  0
LINE
  5
73
100
AcDbEntity
  8
0
  6
ByLayer
 62
    7
370
   -1
100
AcDbLine
 10
183.2337846069796
 20
-118.1701692027039
 11
184.2313928360651
 21
-117.8348007819625
  0
LINE
  5
74
100
AcDbEntity
  8
0
  6
ByLayer
 62
    7
370
   -1
100
AcDbLine
 10
184.2313928360651
 20
-117.8348007819625
 11
185.2259828806821
 21
-117.4833467362782
  0
LINE
  5
75
100
AcDbEntity
  8
0
  6
ByLayer
 62
    7
370
   -1
100
AcDbLine
 10
185.2259828806821
 20
-117.4833467362782
 11
186.2179320143082
 21
-117.1178177690072
  0
LINE
  5
76
100
AcDbEntity
  8
0
  6
ByLayer
 62
    7
370
   -1
100
AcDbLine
 10
186.2179320143082
 20
-117.1178177690072
 11
187.2076175104208
 21
-116.7402245835055
  0
LINE
  5
77
100
AcDbEntity
  8
0
  6
ByLayer
 62
    7
370
   -1
100
AcDbLine
 10
187.2076175104208
 20
-116.7402245835055
 11
188.1954166424978
 21
-116.3525778831292
  0
LINE
  5
78
100
AcDbEntity
  8
0
  6
ByLayer
 62
    7
370
   -1
100
AcDbLine
 10
188.1954166424978
 20
-116.3525778831292
 11
189.1817066840165
 21
-115.9568883712344
  0
LINE
  5
79
100
AcDbEntity
  8
0
  6
ByLayer
 62
    7
370
   -1
100
AcDbLine
 10
189.1817066840165
 20
-115.9568883712344
 11
190.1668649084548
 21
-115.5551667511773
  0
LINE
  5
7A
100
AcDbEntity
  8
0
  6
ByLayer
 62
    7
370
   -1
100
AcDbLine
 10
190.1668649084548
 20
-115.5551667511773
 11
191.1512685892901
 21
-115.1494237263137
  0
LINE
  5
7B
100
AcDbEntity
  8
0
  6
ByLayer
 62
    7
370
   -1
100
AcDbLine
 10
191.1512685892901
 20
-115.1494237263137
 11
192.135295
 21
-114.74167
  0
LINE
  5
7C
100
AcDbEntity
  8
0
  6
ByLayer
 62
    7
370
   -1
100
AcDbLine
 10
192.13529
 20
-114.741665
 11
191.1625106879749
 21
-114.606744854238
  0
LINE
  5
7D
100
AcDbEntity
  8
0
  6
ByLayer
 62
    7
370
   -1
100
AcDbLine
 10
191.1625106879749
 20
-114.606744854238
 11
190.1895308929747
 21
-114.4718379705204
  0
LINE
  5
7E
100
AcDbEntity
  8
0
  6
ByLayer
 62
    7
370
   -1
100
AcDbLine
 10
190.1895308929747
 20
-114.4718379705204
 11
189.2161501321409
 21
-114.3369576066442
  0
LINE
  5
7F
100
AcDbEntity
  8
0
  6
ByLayer
 62
    7
370
   -1
100
AcDbLine
 10
189.2161501321409
 20
-114.3369576066442
 11
188.2421679226149
 21
-114.2021170204062
  0
LINE
  5
80
100
AcDbEntity
  8
0
  6
ByLayer
 62
    7
370
   -1
100
AcDbLine
 10
188.2421679226149
 20
-114.2021170204062
 11
187.267383781538
 21
-114.0673294696037
  0
LINE
  5
81
100
AcDbEntity
  8
0
  6
ByLayer
 62
    7
370
   -1
100
AcDbLine
 10
187.267383781538
 20
-114.0673294696037
 11
186.2915972260519
 21
-113.9326082120335
  0
LINE
  5
82
100
AcDbEntity
  8
0
  6
ByLayer
 62
    7
370
   -1
100
AcDbLine
 10
186.2915972260519
 20
-113.9326082120335
 11
185.314607773298
 21
-113.7979665054927
  0
LINE
  5
83
100
AcDbEntity
  8
0
  6
ByLayer
 62
    7
370
   -1
100
AcDbLine
 10
185.314607773298
 20
-113.7979665054927
 11
184.3362149404175
 21
-113.6634176077782
  0
LINE
  5
84
100
AcDbEntity
  8
0
  6
ByLayer
 62
    7
370
   -1
100
AcDbLine
 10
184.3362149404175
 20
-113.6634176077782
 11
183.3562182445521
 21
-113.5289747766871
  0
LINE
  5
85
100
AcDbEntity
  8
0
  6
ByLayer
 62
    7
370
   -1
100
AcDbLine
 10
183.3562182445521
 20
-113.5289747766871
 11
182.3744172028432
 21
-113.3946512700164
  0
LINE
  5
86
100
AcDbEntity
  8
0
  6
ByLayer
 62
    7
370
   -1
100
AcDbLine
 10
182.3744172028432
 20
-113.3946512700164
 11
181.3906113324322
 21
-113.260460345563
  0
LINE
  5
87
100
AcDbEntity
  8
0
  6
ByLayer
 62
    7
370
   -1
100
AcDbLine
 10
181.3906113324322
 20
-113.260460345563
 11
180.4046001504605
 21
-113.1264152611241
  0
LINE
  5
88
100
AcDbEntity
  8
0
  6
ByLayer
 62
    7
370
   -1
100
AcDbLine
 10
180.4046001504605
 20
-113.1264152611241
 11
179.4161831740696
 21
-112.9925292744965
  0
LINE
  5
89
100
AcDbEntity
  8
0
  6
ByLayer
 62
    7
370
   -1
100
AcDbLine
 10
179.4161831740696
 20
-112.9925292744965
 11
178.4251599204009
 21
-112.8588156434772
  0
LINE
  5
8A
100
AcDbEntity
  8
0
  6
ByLayer
 62
    7
370
   -1
100
AcDbLine
 10
178.4251599204009
 20
-112.8588156434772
 11
177.4313299065959
 21
-112.7252876258634
  0
LINE
  5
8B
100
AcDbEntity
  8
0
  6
ByLayer
 62
    7
370
   -1
100
AcDbLine
 10
177.4313299065959
 20
-112.7252876258634
 11
176.4344929525041
 21
-112.5919580346876
  0
LINE
  5
8C
100
AcDbEntity
  8
0
  6
ByLayer
 62
    7
370
   -1
100
AcDbLine
 10
176.4344929525041
 20
-112.5919580346876
 11
175.4348106969861
 21
-112.4583080678351
  0
LINE
  5
8D
100
AcDbEntity
  8
0
  6
ByLayer
 62
    7
370
   -1
100
AcDbLine
 10
175.4348106969861
 20
-112.4583080678351
 11
174.4335076767223
 21
-112.3222572236564
  0
LINE
  5
8E
100
AcDbEntity
  8
0
  6
ByLayer
 62
    7
370
   -1
100
AcDbLine
 10
174.4335076767223
 20
-112.3222572236564
 11
173.4320026139614
 21
-112.1814396866123
  0
LINE
  5
8F
100
AcDbEntity
  8
0
  6
ByLayer
 62
    7
370
   -1
100
AcDbLine
 10
173.4320026139614
 20
-112.1814396866123
 11
172.4317142309518
 21
-112.0334896411637
  0
LINE
  5
90
100
AcDbEntity
  8
0
  6
ByLayer
 62
    7
370
   -1
100
AcDbLine
 10
172.4317142309518
 20
-112.0334896411637
 11
171.4340612499419
 21
-111.8760412717714
  0
LINE
  5
91
100
AcDbEntity
  8
0
  6
ByLayer
 62
    7
370
   -1
100
AcDbLine
 10
171.4340612499419
 20
-111.8760412717714
 11
170.4404623931807
 21
-111.7067287628964
  0
LINE
  5
92
100
AcDbEntity
  8
0
  6
ByLayer
 62
    7
370
   -1
100
AcDbLine
 10
170.4404623931807
 20
-111.7067287628964
 11
169.4523363829163
 21
-111.5231862989994
  0
LINE
  5
93
100
AcDbEntity
  8
0
  6
ByLayer
 62
    7
370
   -1
100
AcDbLine
 10
169.4523363829163
 20
-111.5231862989994
 11
168.4711019413975
 21
-111.3230480645413
  0
LINE
  5
94
100
AcDbEntity
  8
0
  6
ByLayer
 62
    7
370
   -1
100
AcDbLine
 10
168.4711019413975
 20
-111.3230480645413
 11
167.4981777908728
 21
-111.1039482439829
  0
LINE
  5
95
100
AcDbEntity
  8
0
  6
ByLayer
 62
    7
370
   -1
100
AcDbLine
 10
167.4981777908728
 20
-111.1039482439829
 11
166.5349826535908
 21
-110.8635210217851
  0
LINE
  5
96
100
AcDbEntity
  8
0
  6
ByLayer
 62
    7
370
   -1
100
AcDbLine
 10
166.5349826535908
 20
-110.8635210217851
 11
165.5829352518
 21
-110.5994005824087
  0
LINE
  5
97
100
AcDbEntity
  8
0
  6
ByLayer
 62
    7
370
   -1
100
AcDbLine
 10
165.5829352518
 20
-110.5994005824087
 11
164.6434543077489
 21
-110.3092211103146
  0
LINE
  5
98
100
AcDbEntity
  8
0
  6
ByLayer
 62
    7
370
   -1
100
AcDbLine
 10
164.6434543077489
 20
-110.3092211103146
 11
163.717958543686
 21
-109.9906167899636
  0
LINE
  5
99
100
AcDbEntity
  8
0
  6
ByLayer
 62
    7
370
   -1
100
AcDbLine
 10
163.717958543686
 20
-109.9906167899636
 11
162.8078666818601
 21
-109.6412218058166
  0
LINE
  5
9A
100
AcDbEntity
  8
0
  6
ByLayer
 62
    7
370
   -1
100
AcDbLine
 10
162.8078666818601
 20
-109.6412218058166
 11
161.9145974445195
 21
-109.2586703423344
  0
LINE
  5
9B
100
AcDbEntity
  8
0
  6
ByLayer
 62
    7
370
   -1
100
AcDbLine
 10
161.9145974445195
 20
-109.2586703423344
 11
161.0395695539129
 21
-108.8405965839779
  0
LINE
  5
9C
100
AcDbEntity
  8
0
  6
ByLayer
 62
    7
370
   -1
100
AcDbLine
 10
161.0395695539129
 20
-108.8405965839779
 11
160.1837750956052
 21
-108.3853993440014
  0
LINE
  5
9D
100
AcDbEntity
  8
0
  6
ByLayer
 62
    7
370
   -1
100
AcDbLine
 10
160.1837750956052
 20
-108.3853993440014
 11
159.3463851962042
 21
-107.8947410032423
  0
LINE
  5
9E
100
AcDbEntity
  8
0
  6
ByLayer
 62
    7
370
   -1
100
AcDbLine
 10
159.3463851962042
 20
-107.8947410032423
 11
158.5260852476054
 21
-107.3711544882776
  0
LINE
  5
9F
100
AcDbEntity
  8
0
  6
ByLayer
 62
    7
370
   -1
100
AcDbLine
 10
158.5260852476054
 20
-107.3711544882776
 11
157.7215606370971
 21
-106.8171727339407
  0
LINE
  5
A0
100
AcDbEntity
  8
0
  6
ByLayer
 62
    7
370
   -1
100
AcDbLine
 10
157.7215606370971
 20
-106.8171727339407
 11
156.9314967519679
 21
-106.2353286750649
  0
LINE
  5
A1
100
AcDbEntity
  8
0
  6
ByLayer
 62
    7
370
   -1
100
AcDbLine
 10
156.9314967519679
 20
-106.2353286750649
 11
156.1545789795063
 21
-105.6281552464835
  0
LINE
  5
A2
100
AcDbEntity
  8
0
  6
ByLayer
 62
    7
370
   -1
100
AcDbLine
 10
156.1545789795063
 20
-105.6281552464835
 11
155.3894927070008
 21
-104.9981853830299
  0
LINE
  5
A3
100
AcDbEntity
  8
0
  6
ByLayer
 62
    7
370
   -1
100
AcDbLine
 10
155.3894927070008
 20
-104.9981853830299
 11
154.6349233217399
 21
-104.3479520195374
  0
LINE
  5
A4
100
AcDbEntity
  8
0
  6
ByLayer
 62
    7
370
   -1
100
AcDbLine
 10
154.6349233217399
 20
-104.3479520195374
 11
153.8895562110122
 21
-103.6799880908393
  0
LINE
  5
A5
100
AcDbEntity
  8
0
  6
ByLayer
 62
    7
370
   -1
100
AcDbLine
 10
153.8895562110122
 20
-103.6799880908393
 11
153.1520767621062
 21
-102.996826531769
  0
LINE
  5
A6
100
AcDbEntity
  8
0
  6
ByLayer
 62
    7
370
   -1
100
AcDbLine
 10
153.1520767621062
 20
-102.996826531769
 11
152.4211703623105
 21
-102.3010002771598
  0
LINE
  5
A7
100
AcDbEntity
  8
0
  6
ByLayer
 62
    7
370
   -1
100
AcDbLine
 10
152.4211703623105
 20
-102.3010002771598
 11
151.6955223989135
 21
-101.5950422618449
  0
LINE
  5
A8
100
AcDbEntity
  8
0
  6
ByLayer
 62
    7
370
   -1
100
AcDbLine
 10
151.6955223989135
 20
-101.5950422618449
 11
150.9738182592037
 21
-100.8814854206578
  0
LINE
  5
A9
100
AcDbEntity
  8
0
  6
ByLayer
 62
    7
370
   -1
100
AcDbLine
 10
150.9738182592037
 20
-100.8814854206578
 11
150.2547433304697
 21
-100.1628626884317
  0
LINE
  5
AA
100
AcDbEntity
  8
0
  6
ByLayer
 62
    7
370
   -1
100
AcDbLine
 10
150.2547433304697
 20
-100.1628626884317
 11
149.536983
 21
-99.44170699999999
  0
LINE
  5
AB
100
AcDbEntity
  8
0
  6
ByLayer
 62
    7
370
   -1
100
AcDbLine
 10
149.53698
 20
-99.44170200000001
 11
150.3269404580236
 21
-99.59445088735144
  0
LINE
  5
AC
100
AcDbEntity
  8
0
  6
ByLayer
 62
    7
370
   -1
100
AcDbLine
 10
150.3269404580236
 20
-99.59445088735144
 11
151.1171051253859
 21
-99.7466271376705
  0
LINE
  5
AD
100
AcDbEntity
  8
0
  6
ByLayer
 62
    7
370
   -1
100
AcDbLine
 10
151.1171051253859
 20
-99.7466271376705
 11
151.9076782237305
 21
-99.89765810462373
  0
LINE
  5
AE
100
AcDbEntity
  8
0
  6
ByLayer
 62
    7
370
   -1
100
AcDbLine
 10
151.9076782237305
 20
-99.89765810462373
 11
152.6988639747012
 21
-100.0469711418777
  0
LINE
  5
AF
100
AcDbEntity
  8
0
  6
ByLayer
 62
    7
370
   -1
100
AcDbLine
 10
152.6988639747012
 20
-100.0469711418777
 11
153.4908665999418
 21
-100.1939936030989
  0
LINE
  5
B0
100
AcDbEntity
  8
0
  6
ByLayer
 62
    7
370
   -1
100
AcDbLine
 10
153.4908665999418
 20
-100.1939936030989
 11
154.2838903210961
 21
-100.338152841954
  0
LINE
  5
B1
100
AcDbEntity
  8
0
  6
ByLayer
 62
    7
370
   -1
100
AcDbLine
 10
154.2838903210961
 20
-100.338152841954
 11
155.0781393598077
 21
-100.4788762121095
  0
LINE
  5
B2
100
AcDbEntity
  8
0
  6
ByLayer
 62
    7
370
   -1
100
AcDbLine
 10
155.0781393598077
 20
-100.4788762121095
 11
155.8738179377205
 21
-100.6155910672319
  0
LINE
  5
B3
100
AcDbEntity
  8
0
  6
ByLayer
 62
    7
370
   -1
100
AcDbLine
 10
155.8738179377205
 20
-100.6155910672319
 11
156.6711302764782
 21
-100.7477247609878
  0
LINE
  5
B4
100
AcDbEntity
  8
0
  6
ByLayer
 62
    7
370
   -1
100
AcDbLine
 10
156.6711302764782
 20
-100.7477247609878
 11
157.4702805977244
 21
-100.8747046470437
  0
LINE
  5
B5
100
AcDbEntity
  8
0
  6
ByLayer
 62
    7
370
   -1
100
AcDbLine
 10
157.4702805977244
 20
-100.8747046470437
 11
158.2714731231032
 21
-100.9959580790662
  0
LINE
  5
B6
100
AcDbEntity
  8
0
  6
ByLayer
 62
    7
370
   -1
100
AcDbLine
 10
158.2714731231032
 20
-100.9959580790662
 11
159.0749120742581
 21
-101.110912410722
  0
LINE
  5
B7
100
AcDbEntity
  8
0
  6
ByLayer
 62
    7
370
   -1
100
AcDbLine
 10
159.0749120742581
 20
-101.110912410722
 11
159.8808016728329
 21
-101.2189949956773
  0
LINE
  5
B8
100
AcDbEntity
  8
0
  6
ByLayer
 62
    7
370
   -1
100
AcDbLine
 10
159.8808016728329
 20
-101.2189949956773
 11
160.6893461404714
 21
-101.319633187599
  0
LINE
  5
B9
100
AcDbEntity
  8
0
  6
ByLayer
 62
    7
370
   -1
100
AcDbLine
 10
160.6893461404714
 20
-101.319633187599
 11
161.5007496988173
 21
-101.4122543401535
  0
LINE
  5
BA
100
AcDbEntity
  8
0
  6
ByLayer
 62
    7
370
   -1
100
AcDbLine
 10
161.5007496988173
 20
-101.4122543401535
 11
162.3152121106151
 21
-101.4962827894747
  0
LINE
  5
BB
100
AcDbEntity
  8
0
  6
ByLayer
 62
    7
370
   -1
100
AcDbLine
 10
162.3152121106151
 20
-101.4962827894747
 11
163.1325922946997
 21
-101.5709122076769
  0
LINE
  5
BC
100
AcDbEntity
  8
0
  6
ByLayer
 62
    7
370
   -1
100
AcDbLine
 10
163.1325922946997
 20
-101.5709122076769
 11
163.9521737447366
 21
-101.6349468514302
  0
LINE
  5
BD
100
AcDbEntity
  8
0
  6
ByLayer
 62
    7
370
   -1
100
AcDbLine
 10
163.9521737447366
 20
-101.6349468514302
 11
164.7731845070826
 21
-101.6871534537795
  0
LINE
  5
BE
100
AcDbEntity
  8
0
  6
ByLayer
 62
    7
370
   -1
100
AcDbLine
 10
164.7731845070826
 20
-101.6871534537795
 11
165.5948526280948
 21
-101.7262987477697
  0
LINE
  5
BF
100
AcDbEntity
  8
0
  6
ByLayer
 62
    7
370
   -1
100
AcDbLine
 10
165.5948526280948
 20
-101.7262987477697
 11
166.4164061541301
 21
-101.7511494664458
  0
LINE
  5
C0
100
AcDbEntity
  8
0
  6
ByLayer
 62
    7
370
   -1
100
AcDbLine
 10
166.4164061541301
 20
-101.7511494664458
 11
167.2370731315453
 21
-101.7604723428528
  0
LINE
  5
C1
100
AcDbEntity
  8
0
  6
ByLayer
 62
    7
370
   -1
100
AcDbLine
 10
167.2370731315453
 20
-101.7604723428528
 11
168.0560816066975
 21
-101.7530341100354
  0
LINE
  5
C2
100
AcDbEntity
  8
0
  6
ByLayer
 62
    7
370
   -1
100
AcDbLine
 10
168.0560816066975
 20
-101.7530341100354
 11
168.8726596259434
 21
-101.7276015010388
  0
LINE
  5
C3
100
AcDbEntity
  8
0
  6
ByLayer
 62
    7
370
   -1
100
AcDbLine
 10
168.8726596259434
 20
-101.7276015010388
 11
169.6860352356402
 21
-101.6829412489079
  0
LINE
  5
C4
100
AcDbEntity
  8
0
  6
ByLayer
 62
    7
370
   -1
100
AcDbLine
 10
169.6860352356402
 20
-101.6829412489079
 11
170.4954364821447
 21
-101.6178200866876
  0
LINE
  5
C5
100
AcDbEntity
  8
0
  6
ByLayer
 62
    7
370
   -1
100
AcDbLine
 10
170.4954364821447
 20
-101.6178200866876
 11
171.3000914118138
 21
-101.5310047474228
  0
LINE
  5
C6
100
AcDbEntity
  8
0
  6
ByLayer
 62
    7
370
   -1
100
AcDbLine
 10
171.3000914118138
 20
-101.5310047474228
 11
172.0992280710044
 21
-101.4212619641586
  0
LINE
  5
C7
100
AcDbEntity
  8
0
  6
ByLayer
 62
    7
370
   -1
100
AcDbLine
 10
172.0992280710044
 20
-101.4212619641586
 11
172.8920745060736
 21
-101.2873584699397
  0
LINE
  5
C8
100
AcDbEntity
  8
0
  6
ByLayer
 62
    7
370
   -1
100
AcDbLine
 10
172.8920745060736
 20
-101.2873584699397
 11
173.6778587633783
 21
-101.1280609978113
  0
LINE
  5
C9
100
AcDbEntity
  8
0
  6
ByLayer
 62
    7
370
   -1
100
AcDbLine
 10
173.6778587633783
 20
-101.1280609978113
 11
174.4558088892752
 21
-100.9421362808182
  0
LINE
  5
CA
100
AcDbEntity
  8
0
  6
ByLayer
 62
    7
370
   -1
100
AcDbLine
 10
174.4558088892752
 20
-100.9421362808182
 11
175.2251549438319
 21
-100.7283556250077
  0
LINE
  5
CB
100
AcDbEntity
  8
0
  6
ByLayer
 62
    7
370
   -1
100
AcDbLine
 10
175.2251549438319
 20
-100.7283556250077
 11
175.9855220362235
 21
-100.4863874666518
  0
LINE
  5
CC
100
AcDbEntity
  8
0
  6
ByLayer
 62
    7
370
   -1
100
AcDbLine
 10
175.9855220362235
 20
-100.4863874666518
 11
176.7374015285465
 21
-100.2178674447387
  0
LINE
  5
CD
100
AcDbEntity
  8
0
  6
ByLayer
 62
    7
370
   -1
100
AcDbLine
 10
176.7374015285465
 20
-100.2178674447387
 11
177.4813996794328
 21
-99.92469212063935
  0
LINE
  5
CE
100
AcDbEntity
  8
0
  6
ByLayer
 62
    7
370
   -1
100
AcDbLine
 10
177.4813996794328
 20
-99.92469212063935
 11
178.2181227475142
 21
-99.60875805572486
  0
LINE
  5
CF
100
AcDbEntity
  8
0
  6
ByLayer
 62
    7
370
   -1
100
AcDbLine
 10
178.2181227475142
 20
-99.60875805572486
 11
178.9481769914226
 21
-99.27196181136641
  0
LINE
  5
D0
100
AcDbEntity
  8
0
  6
ByLayer
 62
    7
370
   -1
100
AcDbLine
 10
178.9481769914226
 20
-99.27196181136641
 11
179.6721686697898
 21
-98.91619994893496
  0
LINE
  5
D1
100
AcDbEntity
  8
0
  6
ByLayer
 62
    7
370
   -1
100
AcDbLine
 10
179.6721686697898
 20
-98.91619994893496
 11
180.3907040412477
 21
-98.54336902980168
  0
LINE
  5
D2
100
AcDbEntity
  8
0
  6
ByLayer
 62
    7
370
   -1
100
AcDbLine
 10
180.3907040412477
 20
-98.54336902980168
 11
181.1043893644282
 21
-98.15536561533767
  0
LINE
  5
D3
100
AcDbEntity
  8
0
  6
ByLayer
 62
    7
370
   -1
100
AcDbLine
 10
181.1043893644282
 20
-98.15536561533767
 11
181.8138308979632
 21
-97.75408626691399
  0
LINE
  5
D4
100
AcDbEntity
  8
0
  6
ByLayer
 62
    7
370
   -1
100
AcDbLine
 10
181.8138308979632
 20
-97.75408626691399
 11
182.5196349004844
 21
-97.34142754590172
  0
LINE
  5
D5
100
AcDbEntity
  8
0
  6
ByLayer
 62
    7
370
   -1
100
AcDbLine
 10
182.5196349004844
 20
-97.34142754590172
 11
183.2224076306237
 21
-96.91928601367198
  0
LINE
  5
D6
100
AcDbEntity
  8
0
  6
ByLayer
 62
    7
370
   -1
100
AcDbLine
 10
183.2224076306237
 20
-96.91928601367198
 11
183.9227553470131
 21
-96.48955823159585
  0
LINE
  5
D7
100
AcDbEntity
  8
0
  6
ByLayer
 62
    7
370
   -1
100
AcDbLine
 10
183.9227553470131
 20
-96.48955823159585
 11
184.6212843082844
 21
-96.05414076104441
  0
LINE
  5
D8
100
AcDbEntity
  8
0
  6
ByLayer
 62
    7
370
   -1
100
AcDbLine
 10
184.6212843082844
 20
-96.05414076104441
 11
185.3186007730694
 21
-95.61493016338876
  0
LINE
  5
D9
100
AcDbEntity
  8
0
  6
ByLayer
 62
    7
370
   -1
100
AcDbLine
 10
185.3186007730694
 20
-95.61493016338876
 11
186.015311
 21
-95.173823
  0
LINE
  5
DA
100
AcDbEntity
  8
0
  6
ByLayer
 62
    7
370
   -1
100
AcDbLine
 10
186.015306
 20
-95.173821
 11
185.1546043297561
 21
-95.08166316648796
  0
LINE
  5
DB
100
AcDbEntity
  8
0
  6
ByLayer
 62
    7
370
   -1
100
AcDbLine
 10
185.1546043297561
 20
-95.08166316648796
 11
184.2937796589581
 21
-94.98959800839756
  0
LINE
  5
DC
100
AcDbEntity
  8
0
  6
ByLayer
 62
    7
370
   -1
100
AcDbLine
 10
184.2937796589581
 20
-94.98959800839756
 11
183.4327089949682
 21
-94.89771819495543
  0
LINE
  5
DD
100
AcDbEntity
  8
0
  6
ByLayer
 62
    7
370
   -1
100
AcDbLine
 10
183.4327089949682
 20
-94.89771819495543
 11
182.5712693451483
 21
-94.80611639538809
  0
LINE
  5
DE
100
AcDbEntity
  8
0
  6
ByLayer
 62
    7
370
   -1
100
AcDbLine
 10
182.5712693451483
 20
-94.80611639538809
 11
181.7093377168601
 21
-94.71488527892211
  0
LINE
  5
DF
100
AcDbEntity
  8
0
  6
ByLayer
 62
    7
370
   -1
100
AcDbLine
 10
181.7093377168601
 20
-94.71488527892211
 11
180.846791117466
 21
-94.62411751478405
  0
LINE
  5
E0
100
AcDbEntity
  8
0
  6
ByLayer
 62
    7
370
   -1
100
AcDbLine
 10
180.846791117466
 20
-94.62411751478405
 11
179.9835065543276
 21
-94.53390577220046
  0
LINE
  5
E1
100
AcDbEntity
  8
0
  6
ByLayer
 62
    7
370
   -1
100
AcDbLine
 10
179.9835065543276
 20
-94.53390577220046
 11
179.119361034807
 21
-94.44434272039793
  0
LINE
  5
E2
100
AcDbEntity
  8
0
  6
ByLayer
 62
    7
370
   -1
100
AcDbLine
 10
179.119361034807
 20
-94.44434272039793
 11
178.2542315662662
 21
-94.35552102860301
  0
LINE
  5
E3
100
AcDbEntity
  8
0
  6
ByLayer
 62
    7
370
   -1
100
AcDbLine
 10
178.2542315662662
 20
-94.35552102860301
 11
177.3879951560671
 21
-94.26753336604226
  0
LINE
  5
E4
100
AcDbEntity
  8
0
  6
ByLayer
 62
    7
370
   -1
100
AcDbLine
 10
177.3879951560671
 20
-94.26753336604226
 11
176.5205288115718
 21
-94.18047240194221
  0
LINE
  5
E5
100
AcDbEntity
  8
0
  6
ByLayer
 62
    7
370
   -1
100
AcDbLine
 10
176.5205288115718
 20
-94.18047240194221
 11
175.6517095401421
 21
-94.09443080552948
  0
LINE
  5
E6
100
AcDbEntity
  8
0
  6
ByLayer
 62
    7
370
   -1
100
AcDbLine
 10
175.6517095401421
 20
-94.09443080552948
 11
174.7814143491401
 21
-94.0095012460306
  0
LINE
  5
E7
100
AcDbEntity
  8
0
  6
ByLayer
 62
    7
370
   -1
100
AcDbLine
 10
174.7814143491401
 20
-94.0095012460306
 11
173.9095202459276
 21
-93.92577639267216
  0
LINE
  5
E8
100
AcDbEntity
  8
0
  6
ByLayer
 62
    7
370
   -1
100
AcDbLine
 10
173.9095202459276
 20
-93.92577639267216
 11
173.0359042378668
 21
-93.84334891468067
  0
LINE
  5
E9
100
AcDbEntity
  8
0
  6
ByLayer
 62
    7
370
   -1
100
AcDbLine
 10
173.0359042378668
 20
-93.84334891468067
 11
172.1604589098484
 21
-93.7622781897485
  0
LINE
  5
EA
100
AcDbEntity
  8
0
  6
ByLayer
 62
    7
370
   -1
100
AcDbLine
 10
172.1604589098484
 20
-93.7622781897485
 11
171.2834879011897
 21
-93.68174511012325
  0
LINE
  5
EB
100
AcDbEntity
  8
0
  6
ByLayer
 62
    7
370
   -1
100
AcDbLine
 10
171.2834879011897
 20
-93.68174511012325
 11
170.405737553831
 21
-93.59998444562609
  0
LINE
  5
EC
100
AcDbEntity
  8
0
  6
ByLayer
 62
    7
370
   -1
100
AcDbLine
 10
170.405737553831
 20
-93.59998444562609
 11
169.5279761277996
 21
-93.51518412381347
  0
LINE
  5
ED
100
AcDbEntity
  8
0
  6
ByLayer
 62
    7
370
   -1
100
AcDbLine
 10
169.5279761277996
 20
-93.51518412381347
 11
168.6509718831228
 21
-93.42553207224185
  0
LINE
  5
EE
100
AcDbEntity
  8
0
  6
ByLayer
 62
    7
370
   -1
100
AcDbLine
 10
168.6509718831228
 20
-93.42553207224185
 11
167.7754930798279
 21
-93.32921621846771
  0
LINE
  5
EF
100
AcDbEntity
  8
0
  6
ByLayer
 62
    7
370
   -1
100
AcDbLine
 10
167.7754930798279
 20
-93.32921621846771
 11
166.9023079779422
 21
-93.2244244900475
  0
LINE
  5
F0
100
AcDbEntity
  8
0
  6
ByLayer
 62
    7
370
   -1
100
AcDbLine
 10
166.9023079779422
 20
-93.2244244900475
 11
166.0321848374928
 21
-93.10934481453766
  0
LINE
  5
F1
100
AcDbEntity
  8
0
  6
ByLayer
 62
    7
370
   -1
100
AcDbLine
 10
166.0321848374928
 20
-93.10934481453766
 11
165.1658919185071
 21
-92.98216511949468
  0
LINE
  5
F2
100
AcDbEntity
  8
0
  6
ByLayer
 62
    7
370
   -1
100
AcDbLine
 10
165.1658919185071
 20
-92.98216511949468
 11
164.3041974810123
 21
-92.84107333247498
  0
LINE
  5
F3
100
AcDbEntity
  8
0
  6
ByLayer
 62
    7
370
   -1
100
AcDbLine
 10
164.3041974810123
 20
-92.84107333247498
 11
163.4478697850357
 21
-92.68425738103505
  0
LINE
  5
F4
100
AcDbEntity
  8
0
  6
ByLayer
 62
    7
370
   -1
100
AcDbLine
 10
163.4478697850357
 20
-92.68425738103505
 11
162.5976770906045
 21
-92.50990519273134
  0
LINE
  5
F5
100
AcDbEntity
  8
0
  6
ByLayer
 62
    7
370
   -1
100
AcDbLine
 10
162.5976770906045
 20
-92.50990519273134
 11
161.7543876577462
 21
-92.31620469512033
  0
LINE
  5
F6
100
AcDbEntity
  8
0
  6
ByLayer
 62
    7
370
   -1
100
AcDbLine
 10
161.7543876577462
 20
-92.31620469512033
 11
160.9187697464878
 21
-92.10134381575847
  0
LINE
  5
F7
100
AcDbEntity
  8
0
  6
ByLayer
 62
    7
370
   -1
100
AcDbLine
 10
160.9187697464878
 20
-92.10134381575847
 11
160.0915916168567
 21
-91.86351048220219
  0
LINE
  5
F8
100
AcDbEntity
  8
0
  6
ByLayer
 62
    7
370
   -1
100
AcDbLine
 10
160.0915916168567
 20
-91.86351048220219
 11
159.2736215288802
 21
-91.60089262200798
  0
LINE
  5
F9
100
AcDbEntity
  8
0
  6
ByLayer
 62
    7
370
   -1
100
AcDbLine
 10
159.2736215288802
 20
-91.60089262200798
 11
158.4656237628711
 21
-91.31168809747366
  0
LINE
  5
FA
100
AcDbEntity
  8
0
  6
ByLayer
 62
    7
370
   -1
100
AcDbLine
 10
158.4656237628711
 20
-91.31168809747366
 11
157.6678989076425
 21
-90.9952523050181
  0
LINE
  5
FB
100
AcDbEntity
  8
0
  6
ByLayer
 62
    7
370
   -1
100
AcDbLine
 10
157.6678989076425
 20
-90.9952523050181
 11
156.8798564406759
 21
-90.65316516269145
  0
LINE
  5
FC
100
AcDbEntity
  8
0
  6
ByLayer
 62
    7
370
   -1
100
AcDbLine
 10
156.8798564406759
 20
-90.65316516269145
 11
156.1008047626263
 21
-90.28725891120983
  0
LINE
  5
FD
100
AcDbEntity
  8
0
  6
ByLayer
 62
    7
370
   -1
100
AcDbLine
 10
156.1008047626263
 20
-90.28725891120983
 11
155.3300522741488
 21
-89.89936579128931
  0
LINE
  5
FE
100
AcDbEntity
  8
0
  6
ByLayer
 62
    7
370
   -1
100
AcDbLine
 10
155.3300522741488
 20
-89.89936579128931
 11
154.5669073758984
 21
-89.49131804364603
  0
LINE
  5
FF
100
AcDbEntity
  8
0
  6
ByLayer
 62
    7
370
   -1
100
AcDbLine
 10
154.5669073758984
 20
-89.49131804364603
 11
153.8106784685303
 21
-89.06494790899602
  0
LINE
  5
100
100
AcDbEntity
  8
0
  6
ByLayer
 62
    7
370
   -1
100
AcDbLine
 10
153.8106784685303
 20
-89.06494790899602
 11
153.0606739526993
 21
-88.62208762805541
  0
LINE
  5
101
100
AcDbEntity
  8
0
  6
ByLayer
 62
    7
370
   -1
100
AcDbLine
 10
153.0606739526993
 20
-88.62208762805541
 11
152.3162022290607
 21
-88.16456944154029
  0
LINE
  5
102
100
AcDbEntity
  8
0
  6
ByLayer
 62
    7
370
   -1
100
AcDbLine
 10
152.3162022290607
 20
-88.16456944154029
 11
151.5765716982695
 21
-87.69422559016675
  0
LINE
  5
103
100
AcDbEntity
  8
0
  6
ByLayer
 62
    7
370
   -1
100
AcDbLine
 10
151.5765716982695
 20
-87.69422559016675
 11
150.8410907609806
 21
-87.21288831465088
  0
LINE
  5
104
100
AcDbEntity
  8
0
  6
ByLayer
 62
    7
370
   -1
100
AcDbLine
 10
150.8410907609806
 20
-87.21288831465088
 11
150.1090678178493
 21
-86.7223898557088
  0
LINE
  5
105
100
AcDbEntity
  8
0
  6
ByLayer
 62
    7
370
   -1
100
AcDbLine
 10
150.1090678178493
 20
-86.7223898557088
 11
149.3798112695305
 21
-86.22456245405657
  0
LINE
  5
106
100
AcDbEntity
  8
0
  6
ByLayer
 62
    7
370
   -1
100
AcDbLine
 10
149.3798112695305
 20
-86.22456245405657
 11
148.6526295166794
 21
-85.7212383504103
  0
LINE
  5
107
100
AcDbEntity
  8
0
  6
ByLayer
 62
    7
370
   -1
100
AcDbLine
 10
148.6526295166794
 20
-85.7212383504103
 11
147.9268309599508
 21
-85.21424978548609
  0
LINE
  5
108
100
AcDbEntity
  8
0
  6
ByLayer
 62
    7
370
   -1
100
AcDbLine
 10
147.9268309599508
 20
-85.21424978548609
 11
147.201724
 21
-84.705429
  0
LINE
  5
109
100
AcDbEntity
  8
0
  6
ByLayer
 62
    7
370
   -1
100
AcDbLine
 10
166.280378
 20
-74.395675
 11
166.280378
 21
-74.25991500000001
  0
LINE
  5
10A
100
AcDbEntity
  8
0
  6
ByLayer
 62
    7
370
   -1
100
AcDbLine
 10
166.280378
 20
-74.25991500000001
 11
166.148351
 21
-74.25991500000001
  0
LINE
  5
10B
100
AcDbEntity
  8
0
  6
ByLayer
 62
    7
370
   -1
100
AcDbLine
 10
166.148351
 20
-74.25991500000001
 11
166.016325
 21
-74.25991500000001
  0
LINE
  5
10C
100
AcDbEntity
  8
0
  6
ByLayer
 62
    7
370
   -1
100
AcDbLine
 10
166.016325
 20
-74.25991500000001
 11
166.014382
 21
-74.125945
  0
LINE
  5
10D
100
AcDbEntity
  8
0
  6
ByLayer
 62
    7
370
   -1
100
AcDbLine
 10
166.014382
 20
-74.125945
 11
166.012436
 21
-73.991973
  0
LINE
  5
10E
100
AcDbEntity
  8
0
  6
ByLayer
 62
    7
370
   -1
100
AcDbLine
 10
166.012436
 20
-73.991973
 11
165.878621
 21
-73.99003
  0
LINE
  5
10F
100
AcDbEntity
  8
0
  6
ByLayer
 62
    7
370
   -1
100
AcDbLine
 10
165.878621
 20
-73.99003
 11
165.744807
 21
-73.98808699999999
  0
LINE
  5
110
100
AcDbEntity
  8
0
  6
ByLayer
 62
    7
370
   -1
100
AcDbLine
 10
165.744807
 20
-73.98808699999999
 11
165.742863
 21
-73.85427199999999
  0
LINE
  5
111
100
AcDbEntity
  8
0
  6
ByLayer
 62
    7
370
   -1
100
AcDbLine
 10
165.742863
 20
-73.85427199999999
 11
165.74092
 21
-73.72046
  0
LINE
  5
112
100
AcDbEntity
  8
0
  6
ByLayer
 62
    7
370
   -1
100
AcDbLine
 10
165.74092
 20
-73.72046
 11
165.607106
 21
-73.718514
  0
LINE
  5
113
100
AcDbEntity
  8
0
  6
ByLayer
 62
    7
370
   -1
100
AcDbLine
 10
165.607106
 20
-73.718514
 11
165.473294
 21
-73.716571
  0
LINE
  5
114
100
AcDbEntity
  8
0
  6
ByLayer
 62
    7
370
   -1
100
AcDbLine
 10
165.473294
 20
-73.716571
 11
165.471348
 21
-73.582759
  0
LINE
  5
115
100
AcDbEntity
  8
0
  6
ByLayer
 62
    7
370
   -1
100
AcDbLine
 10
165.471348
 20
-73.582759
 11
165.469407
 21
-73.448942
  0
LINE
  5
116
100
AcDbEntity
  8
0
  6
ByLayer
 62
    7
370
   -1
100
AcDbLine
 10
165.469407
 20
-73.448942
 11
165.335435
 21
-73.44699900000001
  0
LINE
  5
117
100
AcDbEntity
  8
0
  6
ByLayer
 62
    7
370
   -1
100
AcDbLine
 10
165.335435
 20
-73.44699900000001
 11
165.201463
 21
-73.445053
  0
LINE
  5
118
100
AcDbEntity
  8
0
  6
ByLayer
 62
    7
370
   -1
100
AcDbLine
 10
165.201463
 20
-73.445053
 11
165.201463
 21
-73.31302700000001
  0
LINE
  5
119
100
AcDbEntity
  8
0
  6
ByLayer
 62
    7
370
   -1
100
AcDbLine
 10
165.201463
 20
-73.31302700000001
 11
165.201463
 21
-73.181
  0
LINE
  5
11A
100
AcDbEntity
  8
0
  6
ByLayer
 62
    7
370
   -1
100
AcDbLine
 10
165.201463
 20
-73.181
 11
165.065705
 21
-73.181
  0
LINE
  5
11B
100
AcDbEntity
  8
0
  6
ByLayer
 62
    7
370
   -1
100
AcDbLine
 10
165.065705
 20
-73.181
 11
164.929945
 21
-73.181
  0
LINE
  5
11C
100
AcDbEntity
  8
0
  6
ByLayer
 62
    7
370
   -1
100
AcDbLine
 10
164.929945
 20
-73.181
 11
164.929945
 21
-73.045242
  0
LINE
  5
11D
100
AcDbEntity
  8
0
  6
ByLayer
 62
    7
370
   -1
100
AcDbLine
 10
164.929945
 20
-73.045242
 11
164.929945
 21
-72.90948400000001
  0
LINE
  5
11E
100
AcDbEntity
  8
0
  6
ByLayer
 62
    7
370
   -1
100
AcDbLine
 10
164.929945
 20
-72.90948400000001
 11
164.79419
 21
-72.90948400000001
  0
LINE
  5
11F
100
AcDbEntity
  8
0
  6
ByLayer
 62
    7
370
   -1
100
AcDbLine
 10
164.79419
 20
-72.90948400000001
 11
164.658432
 21
-72.90948400000001
  0
LINE
  5
120
100
AcDbEntity
  8
0
  6
ByLayer
 62
    7
370
   -1
100
AcDbLine
 10
164.658432
 20
-72.90948400000001
 11
164.658432
 21
-72.37002699999999
  0
LINE
  5
121
100
AcDbEntity
  8
0
  6
ByLayer
 62
    7
370
   -1
100
AcDbLine
 10
164.658432
 20
-72.37002699999999
 11
164.658432
 21
-71.830567
  0
LINE
  5
122
100
AcDbEntity
  8
0
  6
ByLayer
 62
    7
370
   -1
100
AcDbLine
 10
164.658432
 20
-71.830567
 11
164.79419
 21
-71.830567
  0
LINE
  5
123
100
AcDbEntity
  8
0
  6
ByLayer
 62
    7
370
   -1
100
AcDbLine
 10
164.79419
 20
-71.830567
 11
164.929945
 21
-71.830567
  0
LINE
  5
124
100
AcDbEntity
  8
0
  6
ByLayer
 62
    7
370
   -1
100
AcDbLine
 10
164.929945
 20
-71.830567
 11
164.929945
 21
-71.69480900000001
  0
LINE
  5
125
100
AcDbEntity
  8
0
  6
ByLayer
 62
    7
370
   -1
100
AcDbLine
 10
164.929945
 20
-71.69480900000001
 11
164.929945
 21
-71.55905199999999
  0
LINE
  5
126
100
AcDbEntity
  8
0
  6
ByLayer
 62
    7
370
   -1
100
AcDbLine
 10
164.929945
 20
-71.55905199999999
 11
165.065705
 21
-71.55905199999999
  0
LINE
  5
127
100
AcDbEntity
  8
0
  6
ByLayer
 62
    7
370
   -1
100
AcDbLine
 10
165.065705
 20
-71.55905199999999
 11
165.201463
 21
-71.55905199999999
  0
LINE
  5
128
100
AcDbEntity
  8
0
  6
ByLayer
 62
    7
370
   -1
100
AcDbLine
 10
165.201463
 20
-71.55905199999999
 11
165.201463
 21
-71.423294
  0
LINE
  5
129
100
AcDbEntity
  8
0
  6
ByLayer
 62
    7
370
   -1
100
AcDbLine
 10
165.201463
 20
-71.423294
 11
165.201463
 21
-71.287536
  0
LINE
  5
12A
100
AcDbEntity
  8
0
  6
ByLayer
 62
    7
370
   -1
100
AcDbLine
 10
165.201463
 20
-71.287536
 11
165.605163
 21
-71.287536
  0
LINE
  5
12B
100
AcDbEntity
  8
0
  6
ByLayer
 62
    7
370
   -1
100
AcDbLine
 10
165.605163
 20
-71.287536
 11
166.008865
 21
-71.287536
  0
LINE
  5
12C
100
AcDbEntity
  8
0
  6
ByLayer
 62
    7
370
   -1
100
AcDbLine
 10
166.008865
 20
-71.287536
 11
166.008865
 21
-71.423294
  0
LINE
  5
12D
100
AcDbEntity
  8
0
  6
ByLayer
 62
    7
370
   -1
100
AcDbLine
 10
166.008865
 20
-71.423294
 11
166.008865
 21
-71.55905199999999
  0
LINE
  5
12E
100
AcDbEntity
  8
0
  6
ByLayer
 62
    7
370
   -1
100
AcDbLine
 10
166.008865
 20
-71.55905199999999
 11
166.144623
 21
-71.55905199999999
  0
LINE
  5
12F
100
AcDbEntity
  8
0
  6
ByLayer
 62
    7
370
   -1
100
AcDbLine
 10
166.144623
 20
-71.55905199999999
 11
166.280378
 21
-71.55905199999999
  0
LINE
  5
130
100
AcDbEntity
  8
0
  6
ByLayer
 62
    7
370
   -1
100
AcDbLine
 10
166.280378
 20
-71.55905199999999
 11
166.280378
 21
-71.69480900000001
  0
LINE
  5
131
100
AcDbEntity
  8
0
  6
ByLayer
 62
    7
370
   -1
100
AcDbLine
 10
166.280378
 20
-71.69480900000001
 11
166.280378
 21
-71.830567
  0
LINE
  5
132
100
AcDbEntity
  8
0
  6
ByLayer
 62
    7
370
   -1
100
AcDbLine
 10
166.280378
 20
-71.830567
 11
166.416138
 21
-71.830567
  0
LINE
  5
133
100
AcDbEntity
  8
0
  6
ByLayer
 62
    7
370
   -1
100
AcDbLine
 10
166.416138
 20
-71.830567
 11
166.551896
 21
-71.830567
  0
LINE
  5
134
100
AcDbEntity
  8
0
  6
ByLayer
 62
    7
370
   -1
100
AcDbLine
 10
166.551896
 20
-71.830567
 11
166.551896
 21
-71.69480900000001
  0
LINE
  5
135
100
AcDbEntity
  8
0
  6
ByLayer
 62
    7
370
   -1
100
AcDbLine
 10
166.551896
 20
-71.69480900000001
 11
166.551896
 21
-71.55905199999999
  0
LINE
  5
136
100
AcDbEntity
  8
0
  6
ByLayer
 62
    7
370
   -1
100
AcDbLine
 10
166.551896
 20
-71.55905199999999
 11
166.687651
 21
-71.55905199999999
  0
LINE
  5
137
100
AcDbEntity
  8
0
  6
ByLayer
 62
    7
370
   -1
100
AcDbLine
 10
166.687651
 20
-71.55905199999999
 11
166.823411
 21
-71.55905199999999
  0
LINE
  5
138
100
AcDbEntity
  8
0
  6
ByLayer
 62
    7
370
   -1
100
AcDbLine
 10
166.823411
 20
-71.55905199999999
 11
166.823411
 21
-71.423294
  0
LINE
  5
139
100
AcDbEntity
  8
0
  6
ByLayer
 62
    7
370
   -1
100
AcDbLine
 10
166.823411
 20
-71.423294
 11
166.823411
 21
-71.287536
  0
LINE
  5
13A
100
AcDbEntity
  8
0
  6
ByLayer
 62
    7
370
   -1
100
AcDbLine
 10
166.823411
 20
-71.287536
 11
167.227111
 21
-71.287536
  0
LINE
  5
13B
100
AcDbEntity
  8
0
  6
ByLayer
 62
    7
370
   -1
100
AcDbLine
 10
167.227111
 20
-71.287536
 11
167.630811
 21
-71.287536
  0
LINE
  5
13C
100
AcDbEntity
  8
0
  6
ByLayer
 62
    7
370
   -1
100
AcDbLine
 10
167.630811
 20
-71.287536
 11
167.630811
 21
-71.423294
  0
LINE
  5
13D
100
AcDbEntity
  8
0
  6
ByLayer
 62
    7
370
   -1
100
AcDbLine
 10
167.630811
 20
-71.423294
 11
167.630811
 21
-71.55905199999999
  0
LINE
  5
13E
100
AcDbEntity
  8
0
  6
ByLayer
 62
    7
370
   -1
100
AcDbLine
 10
167.630811
 20
-71.55905199999999
 11
167.766568
 21
-71.55905199999999
  0
LINE
  5
13F
100
AcDbEntity
  8
0
  6
ByLayer
 62
    7
370
   -1
100
AcDbLine
 10
167.766568
 20
-71.55905199999999
 11
167.902326
 21
-71.55905199999999
  0
LINE
  5
140
100
AcDbEntity
  8
0
  6
ByLayer
 62
    7
370
   -1
100
AcDbLine
 10
167.902326
 20
-71.55905199999999
 11
167.902326
 21
-71.69480900000001
  0
LINE
  5
141
100
AcDbEntity
  8
0
  6
ByLayer
 62
    7
370
   -1
100
AcDbLine
 10
167.902326
 20
-71.69480900000001
 11
167.902326
 21
-71.830567
  0
LINE
  5
142
100
AcDbEntity
  8
0
  6
ByLayer
 62
    7
370
   -1
100
AcDbLine
 10
167.902326
 20
-71.830567
 11
168.038084
 21
-71.830567
  0
LINE
  5
143
100
AcDbEntity
  8
0
  6
ByLayer
 62
    7
370
   -1
100
AcDbLine
 10
168.038084
 20
-71.830567
 11
168.173842
 21
-71.830567
  0
LINE
  5
144
100
AcDbEntity
  8
0
  6
ByLayer
 62
    7
370
   -1
100
AcDbLine
 10
168.173842
 20
-71.830567
 11
168.173842
 21
-72.37002699999999
  0
LINE
  5
145
100
AcDbEntity
  8
0
  6
ByLayer
 62
    7
370
   -1
100
AcDbLine
 10
168.173842
 20
-72.37002699999999
 11
168.173842
 21
-72.90948400000001
  0
LINE
  5
146
100
AcDbEntity
  8
0
  6
ByLayer
 62
    7
370
   -1
100
AcDbLine
 10
168.173842
 20
-72.90948400000001
 11
168.038084
 21
-72.90948400000001
  0
LINE
  5
147
100
AcDbEntity
  8
0
  6
ByLayer
 62
    7
370
   -1
100
AcDbLine
 10
168.038084
 20
-72.90948400000001
 11
167.902326
 21
-72.90948400000001
  0
LINE
  5
148
100
AcDbEntity
  8
0
  6
ByLayer
 62
    7
370
   -1
100
AcDbLine
 10
167.902326
 20
-72.90948400000001
 11
167.902326
 21
-73.045242
  0
LINE
  5
149
100
AcDbEntity
  8
0
  6
ByLayer
 62
    7
370
   -1
100
AcDbLine
 10
167.902326
 20
-73.045242
 11
167.902326
 21
-73.181
  0
LINE
  5
14A
100
AcDbEntity
  8
0
  6
ByLayer
 62
    7
370
   -1
100
AcDbLine
 10
167.902326
 20
-73.181
 11
167.766568
 21
-73.181
  0
LINE
  5
14B
100
AcDbEntity
  8
0
  6
ByLayer
 62
    7
370
   -1
100
AcDbLine
 10
167.766568
 20
-73.181
 11
167.630811
 21
-73.181
  0
LINE
  5
14C
100
AcDbEntity
  8
0
  6
ByLayer
 62
    7
370
   -1
100
AcDbLine
 10
167.630811
 20
-73.181
 11
167.630811
 21
-73.31302700000001
  0
LINE
  5
14D
100
AcDbEntity
  8
0
  6
ByLayer
 62
    7
370
   -1
100
AcDbLine
 10
167.630811
 20
-73.31302700000001
 11
167.630811
 21
-73.445053
  0
LINE
  5
14E
100
AcDbEntity
  8
0
  6
ByLayer
 62
    7
370
   -1
100
AcDbLine
 10
167.630811
 20
-73.445053
 11
167.496841
 21
-73.44699900000001
  0
LINE
  5
14F
100
AcDbEntity
  8
0
  6
ByLayer
 62
    7
370
   -1
100
AcDbLine
 10
167.496841
 20
-73.44699900000001
 11
167.362869
 21
-73.448942
  0
LINE
  5
150
100
AcDbEntity
  8
0
  6
ByLayer
 62
    7
370
   -1
100
AcDbLine
 10
167.362869
 20
-73.448942
 11
167.360926
 21
-73.582759
  0
LINE
  5
151
100
AcDbEntity
  8
0
  6
ByLayer
 62
    7
370
   -1
100
AcDbLine
 10
167.360926
 20
-73.582759
 11
167.358983
 21
-73.716571
  0
LINE
  5
152
100
AcDbEntity
  8
0
  6
ByLayer
 62
    7
370
   -1
100
AcDbLine
 10
167.358983
 20
-73.716571
 11
167.225168
 21
-73.718514
  0
LINE
  5
153
100
AcDbEntity
  8
0
  6
ByLayer
 62
    7
370
   -1
100
AcDbLine
 10
167.225168
 20
-73.718514
 11
167.091353
 21
-73.72046
  0
LINE
  5
154
100
AcDbEntity
  8
0
  6
ByLayer
 62
    7
370
   -1
100
AcDbLine
 10
167.091353
 20
-73.72046
 11
167.08941
 21
-73.85427199999999
  0
LINE
  5
155
100
AcDbEntity
  8
0
  6
ByLayer
 62
    7
370
   -1
100
AcDbLine
 10
167.08941
 20
-73.85427199999999
 11
167.087467
 21
-73.98808699999999
  0
LINE
  5
156
100
AcDbEntity
  8
0
  6
ByLayer
 62
    7
370
   -1
100
AcDbLine
 10
167.087467
 20
-73.98808699999999
 11
166.953652
 21
-73.99003
  0
LINE
  5
157
100
AcDbEntity
  8
0
  6
ByLayer
 62
    7
370
   -1
100
AcDbLine
 10
166.953652
 20
-73.99003
 11
166.819838
 21
-73.991973
  0
LINE
  5
158
100
AcDbEntity
  8
0
  6
ByLayer
 62
    7
370
   -1
100
AcDbLine
 10
166.819838
 20
-73.991973
 11
166.817895
 21
-74.125945
  0
LINE
  5
159
100
AcDbEntity
  8
0
  6
ByLayer
 62
    7
370
   -1
100
AcDbLine
 10
166.817895
 20
-74.125945
 11
166.815949
 21
-74.25991500000001
  0
LINE
  5
15A
100
AcDbEntity
  8
0
  6
ByLayer
 62
    7
370
   -1
100
AcDbLine
 10
166.815949
 20
-74.25991500000001
 11
166.683922
 21
-74.25991500000001
  0
LINE
  5
15B
100
AcDbEntity
  8
0
  6
ByLayer
 62
    7
370
   -1
100
AcDbLine
 10
166.683922
 20
-74.25991500000001
 11
166.551896
 21
-74.25991500000001
  0
LINE
  5
15C
100
AcDbEntity
  8
0
  6
ByLayer
 62
    7
370
   -1
100
AcDbLine
 10
166.551896
 20
-74.25991500000001
 11
166.551896
 21
-74.395675
  0
LINE
  5
15D
100
AcDbEntity
  8
0
  6
ByLayer
 62
    7
370
   -1
100
AcDbLine
 10
166.551896
 20
-74.395675
 11
166.551896
 21
-74.53143
  0
LINE
  5
15E
100
AcDbEntity
  8
0
  6
ByLayer
 62
    7
370
   -1
100
AcDbLine
 10
166.551896
 20
-74.53143
 11
166.416138
 21
-74.53143
  0
LINE
  5
15F
100
AcDbEntity
  8
0
  6
ByLayer
 62
    7
370
   -1
100
AcDbLine
 10
166.416138
 20
-74.53143
 11
166.280378
 21
-74.53143
  0
LINE
  5
160
100
AcDbEntity
  8
0
  6
ByLayer
 62
    7
370
   -1
100
AcDbLine
 10
166.280378
 20
-74.53143
 11
166.280378
 21
-74.395675
  0
LINE
  5
161
100
AcDbEntity
  8
0
  6
ByLayer
 62
    7
370
   -1
100
AcDbLine
 10
147.201719
 20
-84.705426
 11
147.8669310016758
 21
-84.70434483953865
  0
LINE
  5
162
100
AcDbEntity
  8
0
  6
ByLayer
 62
    7
370
   -1
100
AcDbLine
 10
147.8669310016758
 20
-84.70434483953865
 11
148.5322198519025
 21
-84.70312506879027
  0
LINE
  5
163
100
AcDbEntity
  8
0
  6
ByLayer
 62
    7
370
   -1
100
AcDbLine
 10
148.5322198519025
 20
-84.70312506879027
 11
149.1976624182879
 21
-84.70162809688577
  0
LINE
  5
164
100
AcDbEntity
  8
0
  6
ByLayer
 62
    7
370
   -1
100
AcDbLine
 10
149.1976624182879
 20
-84.70162809688577
 11
149.8633355684396
 21
-84.69971533295599
  0
LINE
  5
165
100
AcDbEntity
  8
0
  6
ByLayer
 62
    7
370
   -1
100
AcDbLine
 10
149.8633355684396
 20
-84.69971533295599
 11
150.5293161699655
 21
-84.6972481861318
  0
LINE
  5
166
100
AcDbEntity
  8
0
  6
ByLayer
 62
    7
370
   -1
100
AcDbLine
 10
150.5293161699655
 20
-84.6972481861318
 11
151.195681090473
 21
-84.69408806554408
  0
LINE
  5
167
100
AcDbEntity
  8
0
  6
ByLayer
 62
    7
370
   -1
100
AcDbLine
 10
151.195681090473
 20
-84.69408806554408
 11
151.8625071975699
 21
-84.69009638032364
  0
LINE
  5
168
100
AcDbEntity
  8
0
  6
ByLayer
 62
    7
370
   -1
100
AcDbLine
 10
151.8625071975699
 20
-84.69009638032364
 11
152.5298713588639
 21
-84.68513453960142
  0
LINE
  5
169
100
AcDbEntity
  8
0
  6
ByLayer
 62
    7
370
   -1
100
AcDbLine
 10
152.5298713588639
 20
-84.68513453960142
 11
153.1978504419626
 21
-84.67906395250823
  0
LINE
  5
16A
100
AcDbEntity
  8
0
  6
ByLayer
 62
    7
370
   -1
100
AcDbLine
 10
153.1978504419626
 20
-84.67906395250823
 11
153.8665213144738
 21
-84.67174602817495
  0
LINE
  5
16B
100
AcDbEntity
  8
0
  6
ByLayer
 62
    7
370
   -1
100
AcDbLine
 10
153.8665213144738
 20
-84.67174602817495
 11
154.5359608440051
 21
-84.66304217573247
  0
LINE
  5
16C
100
AcDbEntity
  8
0
  6
ByLayer
 62
    7
370
   -1
100
AcDbLine
 10
154.5359608440051
 20
-84.66304217573247
 11
155.2062458981643
 21
-84.65281380431162
  0
LINE
  5
16D
100
AcDbEntity
  8
0
  6
ByLayer
 62
    7
370
   -1
100
AcDbLine
 10
155.2062458981643
 20
-84.65281380431162
 11
155.8774533445589
 21
-84.64092232304328
  0
LINE
  5
16E
100
AcDbEntity
  8
0
  6
ByLayer
 62
    7
370
   -1
100
AcDbLine
 10
155.8774533445589
 20
-84.64092232304328
 11
156.5496600507967
 21
-84.62722914105831
  0
LINE
  5
16F
100
AcDbEntity
  8
0
  6
ByLayer
 62
    7
370
   -1
100
AcDbLine
 10
156.5496600507967
 20
-84.62722914105831
 11
157.2229428844854
 21
-84.61159566748758
  0
LINE
  5
170
100
AcDbEntity
  8
0
  6
ByLayer
 62
    7
370
   -1
100
AcDbLine
 10
157.2229428844854
 20
-84.61159566748758
 11
157.8973787132326
 21
-84.59388331146197
  0
LINE
  5
171
100
AcDbEntity
  8
0
  6
ByLayer
 62
    7
370
   -1
100
AcDbLine
 10
157.8973787132326
 20
-84.59388331146197
 11
158.5729721109734
 21
-84.57383297080962
  0
LINE
  5
172
100
AcDbEntity
  8
0
  6
ByLayer
 62
    7
370
   -1
100
AcDbLine
 10
158.5729721109734
 20
-84.57383297080962
 11
159.2493602191973
 21
-84.55057304490572
  0
LINE
  5
173
100
AcDbEntity
  8
0
  6
ByLayer
 62
    7
370
   -1
100
AcDbLine
 10
159.2493602191973
 20
-84.55057304490572
 11
159.9260637342425
 21
-84.5230378226815
  0
LINE
  5
174
100
AcDbEntity
  8
0
  6
ByLayer
 62
    7
370
   -1
100
AcDbLine
 10
159.9260637342425
 20
-84.5230378226815
 11
160.602603305787
 21
-84.49016151528731
  0
LINE
  5
175
100
AcDbEntity
  8
0
  6
ByLayer
 62
    7
370
   -1
100
AcDbLine
 10
160.602603305787
 20
-84.49016151528731
 11
161.2784995835087
 21
-84.45087833387348
  0
LINE
  5
176
100
AcDbEntity
  8
0
  6
ByLayer
 62
    7
370
   -1
100
AcDbLine
 10
161.2784995835087
 20
-84.45087833387348
 11
161.9532732170858
 21
-84.40412248959036
  0
LINE
  5
177
100
AcDbEntity
  8
0
  6
ByLayer
 62
    7
370
   -1
100
AcDbLine
 10
161.9532732170858
 20
-84.40412248959036
 11
162.6264448561963
 21
-84.34882819358828
  0
LINE
  5
178
100
AcDbEntity
  8
0
  6
ByLayer
 62
    7
370
   -1
100
AcDbLine
 10
162.6264448561963
 20
-84.34882819358828
 11
163.2975351505183
 21
-84.28392965701759
  0
LINE
  5
179
100
AcDbEntity
  8
0
  6
ByLayer
 62
    7
370
   -1
100
AcDbLine
 10
163.2975351505183
 20
-84.28392965701759
 11
163.9660647497297
 21
-84.20836109102865
  0
LINE
  5
17A
100
AcDbEntity
  8
0
  6
ByLayer
 62
    7
370
   -1
100
AcDbLine
 10
163.9660647497297
 20
-84.20836109102865
 11
164.6315543035087
 21
-84.12105670677178
  0
LINE
  5
17B
100
AcDbEntity
  8
0
  6
ByLayer
 62
    7
370
   -1
100
AcDbLine
 10
164.6315543035087
 20
-84.12105670677178
 11
165.2935244615331
 21
-84.0209507153973
  0
LINE
  5
17C
100
AcDbEntity
  8
0
  6
ByLayer
 62
    7
370
   -1
100
AcDbLine
 10
165.2935244615331
 20
-84.0209507153973
 11
165.9514958734812
 21
-83.9069773280556
  0
LINE
  5
17D
100
AcDbEntity
  8
0
  6
ByLayer
 62
    7
370
   -1
100
AcDbLine
 10
165.9514958734812
 20
-83.9069773280556
 11
166.6049891890308
 21
-83.77807075589698
  0
LINE
  5
17E
100
AcDbEntity
  8
0
  6
ByLayer
 62
    7
370
   -1
100
AcDbLine
 10
166.6049891890308
 20
-83.77807075589698
 11
167.2535250578602
 21
-83.63316521007179
  0
LINE
  5
17F
100
AcDbEntity
  8
0
  6
ByLayer
 62
    7
370
   -1
100
AcDbLine
 10
167.2535250578602
 20
-83.63316521007179
 11
167.8966241296473
 21
-83.4711949017304
  0
LINE
  5
180
100
AcDbEntity
  8
0
  6
ByLayer
 62
    7
370
   -1
100
AcDbLine
 10
167.8966241296473
 20
-83.4711949017304
 11
168.53380705407
 21
-83.29109404202312
  0
LINE
  5
181
100
AcDbEntity
  8
0
  6
ByLayer
 62
    7
370
   -1
100
AcDbLine
 10
168.53380705407
 20
-83.29109404202312
 11
169.1645944808066
 21
-83.09179684210029
  0
LINE
  5
182
100
AcDbEntity
  8
0
  6
ByLayer
 62
    7
370
   -1
100
AcDbLine
 10
169.1645944808066
 20
-83.09179684210029
 11
169.7886377870093
 21
-82.87257605966003
  0
LINE
  5
183
100
AcDbEntity
  8
0
  6
ByLayer
 62
    7
370
   -1
100
AcDbLine
 10
169.7886377870093
 20
-82.87257605966003
 11
170.4062339252587
 21
-82.63437630702475
  0
LINE
  5
184
100
AcDbEntity
  8
0
  6
ByLayer
 62
    7
370
   -1
100
AcDbLine
 10
170.4062339252587
 20
-82.63437630702475
 11
171.0178787789039
 21
-82.37865736997438
  0
LINE
  5
185
100
AcDbEntity
  8
0
  6
ByLayer
 62
    7
370
   -1
100
AcDbLine
 10
171.0178787789039
 20
-82.37865736997438
 11
171.6240682871577
 21
-82.10687917895983
  0
LINE
  5
186
100
AcDbEntity
  8
0
  6
ByLayer
 62
    7
370
   -1
100
AcDbLine
 10
171.6240682871577
 20
-82.10687917895983
 11
172.225298389233
 21
-81.82050166443211
  0
LINE
  5
187
100
AcDbEntity
  8
0
  6
ByLayer
 62
    7
370
   -1
100
AcDbLine
 10
172.225298389233
 20
-81.82050166443211
 11
172.8220650243427
 21
-81.5209847568422
  0
LINE
  5
188
100
AcDbEntity
  8
0
  6
ByLayer
 62
    7
370
   -1
100
AcDbLine
 10
172.8220650243427
 20
-81.5209847568422
 11
173.4148641316995
 21
-81.20978838664102
  0
LINE
  5
189
100
AcDbEntity
  8
0
  6
ByLayer
 62
    7
370
   -1
100
AcDbLine
 10
173.4148641316995
 20
-81.20978838664102
 11
174.0041916505165
 21
-80.88837248427961
  0
LINE
  5
18A
100
AcDbEntity
  8
0
  6
ByLayer
 62
    7
370
   -1
100
AcDbLine
 10
174.0041916505165
 20
-80.88837248427961
 11
174.5905435200064
 21
-80.55819698020889
  0
LINE
  5
18B
100
AcDbEntity
  8
0
  6
ByLayer
 62
    7
370
   -1
100
AcDbLine
 10
174.5905435200064
 20
-80.55819698020889
 11
175.1744156793821
 21
-80.22072180487986
  0
LINE
  5
18C
100
AcDbEntity
  8
0
  6
ByLayer
 62
    7
370
   -1
100
AcDbLine
 10
175.1744156793821
 20
-80.22072180487986
 11
175.7563040678564
 21
-79.87740688874348
  0
LINE
  5
18D
100
AcDbEntity
  8
0
  6
ByLayer
 62
    7
370
   -1
100
AcDbLine
 10
175.7563040678564
 20
-79.87740688874348
 11
176.3367046246423
 21
-79.52971216225073
  0
LINE
  5
18E
100
AcDbEntity
  8
0
  6
ByLayer
 62
    7
370
   -1
100
AcDbLine
 10
176.3367046246423
 20
-79.52971216225073
 11
176.9161132889525
 21
-79.17909755585258
  0
LINE
  5
18F
100
AcDbEntity
  8
0
  6
ByLayer
 62
    7
370
   -1
100
AcDbLine
 10
176.9161132889525
 20
-79.17909755585258
 11
177.495026
 21
-78.827023
  0
LINE
  5
190
100
AcDbEntity
  8
0
  6
ByLayer
 62
    7
370
   -1
100
AcDbLine
 10
165.472979
 20
-72.505942
 11
165.472979
 21
-72.1024
  0
LINE
  5
191
100
AcDbEntity
  8
0
  6
ByLayer
 62
    7
370
   -1
100
AcDbLine
 10
165.472979
 20
-72.1024
 11
165.606948
 21
-72.100455
  0
LINE
  5
192
100
AcDbEntity
  8
0
  6
ByLayer
 62
    7
370
   -1
100
AcDbLine
 10
165.606948
 20
-72.100455
 11
165.74092
 21
-72.098511
  0
LINE
  5
193
100
AcDbEntity
  8
0
  6
ByLayer
 62
    7
370
   -1
100
AcDbLine
 10
165.74092
 20
-72.098511
 11
165.74092
 21
-71.962754
  0
LINE
  5
194
100
AcDbEntity
  8
0
  6
ByLayer
 62
    7
370
   -1
100
AcDbLine
 10
165.74092
 20
-71.962754
 11
165.74092
 21
-71.826993
  0
LINE
  5
195
100
AcDbEntity
  8
0
  6
ByLayer
 62
    7
370
   -1
100
AcDbLine
 10
165.74092
 20
-71.826993
 11
165.605163
 21
-71.826993
  0
LINE
  5
196
100
AcDbEntity
  8
0
  6
ByLayer
 62
    7
370
   -1
100
AcDbLine
 10
165.605163
 20
-71.826993
 11
165.469407
 21
-71.826993
  0
LINE
  5
197
100
AcDbEntity
  8
0
  6
ByLayer
 62
    7
370
   -1
100
AcDbLine
 10
165.469407
 20
-71.826993
 11
165.467462
 21
-71.960965
  0
LINE
  5
198
100
AcDbEntity
  8
0
  6
ByLayer
 62
    7
370
   -1
100
AcDbLine
 10
165.467462
 20
-71.960965
 11
165.465519
 21
-72.094938
  0
LINE
  5
199
100
AcDbEntity
  8
0
  6
ByLayer
 62
    7
370
   -1
100
AcDbLine
 10
165.465519
 20
-72.094938
 11
165.333492
 21
-72.094938
  0
LINE
  5
19A
100
AcDbEntity
  8
0
  6
ByLayer
 62
    7
370
   -1
100
AcDbLine
 10
165.333492
 20
-72.094938
 11
165.201463
 21
-72.094938
  0
LINE
  5
19B
100
AcDbEntity
  8
0
  6
ByLayer
 62
    7
370
   -1
100
AcDbLine
 10
165.201463
 20
-72.094938
 11
165.201463
 21
-72.502211
  0
LINE
  5
19C
100
AcDbEntity
  8
0
  6
ByLayer
 62
    7
370
   -1
100
AcDbLine
 10
165.201463
 20
-72.502211
 11
165.201463
 21
-72.90948400000001
  0
LINE
  5
19D
100
AcDbEntity
  8
0
  6
ByLayer
 62
    7
370
   -1
100
AcDbLine
 10
165.201463
 20
-72.90948400000001
 11
165.337218
 21
-72.90948400000001
  0
LINE
  5
19E
100
AcDbEntity
  8
0
  6
ByLayer
 62
    7
370
   -1
100
AcDbLine
 10
165.337218
 20
-72.90948400000001
 11
165.472979
 21
-72.90948400000001
  0
LINE
  5
19F
100
AcDbEntity
  8
0
  6
ByLayer
 62
    7
370
   -1
100
AcDbLine
 10
165.472979
 20
-72.90948400000001
 11
165.472979
 21
-72.505942
  0
ENDSEC
  0
SECTION
  2
OBJECTS
  0
DICTIONARY
  5
C
330
0
100
AcDbDictionary
281
    1
  3
ACAD_GROUP
350
D
  0
DICTIONARY
  5
D
330
C
100
AcDbDictionary
281
    1
  0
ENDSEC
  0
EOF
