<?xml version="1.0" encoding="UTF-8" standalone="no"?>
<!-- Generator: Adobe Illustrator 19.1.0, SVG Export Plug-In . SVG Version: 6.00 Build 0)  -->

<svg
   xmlns:dc="http://purl.org/dc/elements/1.1/"
   xmlns:cc="http://creativecommons.org/ns#"
   xmlns:rdf="http://www.w3.org/1999/02/22-rdf-syntax-ns#"
   xmlns:svg="http://www.w3.org/2000/svg"
   xmlns="http://www.w3.org/2000/svg"
   xmlns:sodipodi="http://sodipodi.sourceforge.net/DTD/sodipodi-0.dtd"
   xmlns:inkscape="http://www.inkscape.org/namespaces/inkscape"
   version="1.1"
   id="Layer_1"
   x="0px"
   y="0px"
   viewBox="0 0 1000 1000"
   style="enable-background:new 0 0 1000 1000;"
   xml:space="preserve"
   sodipodi:docname="tree_scaled.svg"
   inkscape:version="0.92.2 2405546, 2018-03-11"><metadata
   id="metadata9"><rdf:RDF><cc:Work
       rdf:about=""><dc:format>image/svg+xml</dc:format><dc:type
         rdf:resource="http://purl.org/dc/dcmitype/StillImage" /><dc:title></dc:title></cc:Work></rdf:RDF></metadata><defs
   id="defs7" /><sodipodi:namedview
   pagecolor="#ffffff"
   bordercolor="#666666"
   borderopacity="1"
   objecttolerance="10"
   gridtolerance="10"
   guidetolerance="10"
   inkscape:pageopacity="0"
   inkscape:pageshadow="2"
   inkscape:window-width="1900"
   inkscape:window-height="1037"
   id="namedview5"
   showgrid="false"
   inkscape:zoom="1.3350176"
   inkscape:cx="220.5629"
   inkscape:cy="387.31053"
   inkscape:window-x="1930"
   inkscape:window-y="10"
   inkscape:window-maximized="0"
   inkscape:current-layer="Layer_1" />
<path
   d="m 535.73969,756.89482 c 0,0 -48.92932,-17.85056 -65.20351,-45.85591 12.37906,-2.95991 24.65141,-6.69396 36.76368,-11.29321 0,0 -45.99463,-21.12924 -61.09495,-45.76483 16.86114,-2.86884 31.74803,-6.42074 38.57786,-10.70123 -2.40112,1.50272 -19.79583,-9.51728 -21.66337,-10.61017 -7.95034,-4.7814 -15.2604,-10.33693 -21.77007,-16.52998 -3.46828,-3.27868 -6.66976,-6.7395 -9.65782,-10.2914 -1.01379,-1.2295 -6.45631,-9.24404 -6.50967,-9.24404 -0.42687,-0.7286 -0.90708,-1.50273 -1.33395,-2.23132 2.45447,-0.59198 4.90894,-1.2295 7.36341,-1.86702 5.65596,-1.54827 11.47198,-3.27868 17.44808,-5.28231 0,0 -74.38111,-67.48606 -79.07662,-98.26918 0,0 -16.70107,41.25667 -58.00018,74.2711 0.10674,0.0911 0.21343,0.18215 0.26679,0.27322 -3.30821,2.3224 -6.56304,4.69033 -9.87124,7.01272 0,0 -0.0534,-0.0455 -0.0534,-0.0455 -5.06901,3.55189 -10.45817,6.92164 -16.16749,10.10924 0,0 9.97796,7.37702 29.34692,13.34239 -17.71486,16.84874 -46.10134,39.89054 -68.51172,39.48071 0,0 10.5649,14.02545 53.25133,22.72304 -12.80594,11.47536 -39.59167,32.37692 -72.88708,41.25666 0,0 17.39471,5.91983 45.40769,11.83966 -12.96601,10.88338 -54.79871,44.6264 -76.78222,46.31128 0,0 70.75275,30.87419 148.86892,33.15105 l -3.46827,38.20567 h 50.42335 l -4.42872,-40.11823 c 27.42604,-2.59562 120.05559,-12.43164 148.7622,-29.87238 z"
   id="path2"
   inkscape:connector-curvature="0"
   style="stroke-width:0.49292728" />
</svg>