999
dxfrw 0.6.3
  0
SECTION
  2
HEADER
  9
$ACADVER
  1
AC1021
  9
$DWGCODEPAGE
  3
ANSI_1252
  9
$INSBASE
 10
0
 20
0
 30
0
  9
$EXTMIN
 10
51.74657401160734
 20
45.803222
 30
0
  9
$EXTMAX
 10
141.747793
 20
135.4938849819878
 30
0
  9
$LIMMIN
 10
0
 20
0
  9
$LIMMAX
 10
420
 20
297
  9
$ORTHOMODE
 70
    0
  9
$REGENMODE
 70
    1
  9
$FILLMODE
 70
    1
  9
$QTEXTMODE
 70
    0
  9
$MIRRTEXT
 70
    0
  9
$LTSCALE
 40
1
  9
$ATTMODE
 70
    0
  9
$TEXTSIZE
 40
2.5
  9
$TRACEWID
 40
15.68
  9
$TEXTSTYLE
  7
STANDARD
  9
$CLAYER
  8
0
  9
$CELTYPE
  6
BYLAYER
  9
$CECOLOR
 62
  256
  9
$CELTSCALE
 40
1
  9
$DISPSILH
 70
    0
  9
$DIMSCALE
 40
2.5
  9
$DIMASZ
 40
2.5
  9
$DIMEXO
 40
0.625
  9
$DIMDLI
 40
3.75
  9
$DIMRND
 40
0
  9
$DIMDLE
 40
0
  9
$DIMEXE
 40
1.25
  9
$DIMTP
 40
0
  9
$DIMTM
 40
0
  9
$DIMTXT
 40
2.5
  9
$DIMCEN
 40
2.5
  9
$DIMTSZ
 40
0
  9
$DIMTOL
 70
    0
  9
$DIMLIM
 70
    0
  9
$DIMTIH
 70
    0
  9
$DIMTOH
 70
    0
  9
$DIMSE1
 70
    0
  9
$DIMSE2
 70
    0
  9
$DIMTAD
 70
    1
  9
$DIMZIN
 70
    8
  9
$DIMBLK
  1

  9
$DIMASO
 70
    1
  9
$DIMSHO
 70
    1
  9
$DIMPOST
  1

  9
$DIMAPOST
  1

  9
$DIMALT
 70
    0
  9
$DIMALTD
 70
    3
  9
$DIMALTF
 40
0.03937
  9
$DIMLFAC
 40
1
  9
$DIMTOFL
 70
    1
  9
$DIMTVP
 40
0
  9
$DIMTIX
 70
    0
  9
$DIMSOXD
 70
    0
  9
$DIMSAH
 70
    0
  9
$DIMBLK1
  1

  9
$DIMBLK2
  1

  9
$DIMSTYLE
  2
Standard
  9
$DIMCLRD
 70
    0
  9
$DIMCLRE
 70
    0
  9
$DIMCLRT
 70
    0
  9
$DIMTFAC
 40
1
  9
$DIMGAP
 40
0.625
  9
$DIMJUST
 70
    0
  9
$DIMSD1
 70
    0
  9
$DIMSD2
 70
    0
  9
$DIMTOLJ
 70
    0
  9
$DIMTZIN
 70
    8
  9
$DIMALTZ
 70
    0
  9
$DIMALTTZ
 70
    0
  9
$DIMUPT
 70
    0
  9
$DIMDEC
 70
    2
  9
$DIMTDEC
 70
    2
  9
$DIMALTU
 70
    2
  9
$DIMALTTD
 70
    3
  9
$DIMTXSTY
  7
STANDARD
  9
$DIMAUNIT
 70
    0
  9
$DIMADEC
 70
    0
  9
$DIMALTRND
 40
0
  9
$DIMAZIN
 70
    0
  9
$DIMDSEP
 70
   44
  9
$DIMATFIT
 70
    3
  9
$DIMFRAC
 70
    0
  9
$DIMLDRBLK
  1
STANDARD
  9
$DIMLUNIT
 70
    2
  9
$DIMLWD
 70
   -2
  9
$DIMLWE
 70
   -2
  9
$DIMTMOVE
 70
    0
  9
$DIMFXL
 40
1
  9
$DIMFXLON
 70
    0
  9
$DIMJOGANG
 40
0.7854
  9
$DIMTFILL
 70
    0
  9
$DIMTFILLCLR
 70
    0
  9
$DIMARCSYM
 70
    0
  9
$DIMLTYPE
  6

  9
$DIMLTEX1
  6

  9
$DIMLTEX2
  6

  9
$LUNITS
 70
    2
  9
$LUPREC
 70
    4
  9
$SKETCHINC
 40
1
  9
$FILLETRAD
 40
0
  9
$AUNITS
 70
    0
  9
$AUPREC
 70
    2
  9
$MENU
  1
.
  9
$ELEVATION
 40
0
  9
$PELEVATION
 40
0
  9
$THICKNESS
 40
0
  9
$LIMCHECK
 70
    0
  9
$CHAMFERA
 40
0
  9
$CHAMFERB
 40
0
  9
$CHAMFERC
 40
0
  9
$CHAMFERD
 40
0
  9
$SKPOLY
 70
    0
  9
$USRTIMER
 70
    1
  9
$ANGBASE
 50
0
  9
$ANGDIR
 70
    0
  9
$PDMODE
 70
   34
  9
$PDSIZE
 40
0
  9
$PLINEWID
 40
0
  9
$SPLFRAME
 70
    0
  9
$SPLINETYPE
 70
    2
  9
$SPLINESEGS
 70
    8
  9
$HANDSEED
  5
20000
  9
$SURFTAB1
 70
    6
  9
$SURFTAB2
 70
    6
  9
$SURFTYPE
 70
    6
  9
$SURFU
 70
    6
  9
$SURFV
 70
    6
  9
$UCSBASE
  2

  9
$UCSNAME
  2

  9
$UCSORG
 10
0
 20
0
 30
0
  9
$UCSXDIR
 10
1
 20
0
 30
0
  9
$UCSYDIR
 10
0
 20
1
 30
0
  9
$UCSORTHOREF
  2

  9
$UCSORTHOVIEW
 70
    0
  9
$UCSORGTOP
 10
0
 20
0
 30
0
  9
$UCSORGBOTTOM
 10
0
 20
0
 30
0
  9
$UCSORGLEFT
 10
0
 20
0
 30
0
  9
$UCSORGRIGHT
 10
0
 20
0
 30
0
  9
$UCSORGFRONT
 10
0
 20
0
 30
0
  9
$UCSORGBACK
 10
0
 20
0
 30
0
  9
$PUCSBASE
  2

  9
$PUCSNAME
  2

  9
$PUCSORG
 10
0
 20
0
 30
0
  9
$PUCSXDIR
 10
1
 20
0
 30
0
  9
$PUCSYDIR
 10
0
 20
1
 30
0
  9
$PUCSORTHOREF
  2

  9
$PUCSORTHOVIEW
 70
    0
  9
$PUCSORGTOP
 10
0
 20
0
 30
0
  9
$PUCSORGBOTTOM
 10
0
 20
0
 30
0
  9
$PUCSORGLEFT
 10
0
 20
0
 30
0
  9
$PUCSORGRIGHT
 10
0
 20
0
 30
0
  9
$PUCSORGFRONT
 10
0
 20
0
 30
0
  9
$PUCSORGBACK
 10
0
 20
0
 30
0
  9
$USERI1
 70
    0
  9
$USERI2
 70
    0
  9
$USERI3
 70
    0
  9
$USERI4
 70
    0
  9
$USERI5
 70
    0
  9
$USERR1
 40
0
  9
$USERR2
 40
0
  9
$USERR3
 40
0
  9
$USERR4
 40
0
  9
$USERR5
 40
0
  9
$WORLDVIEW
 70
    1
  9
$SHADEDGE
 70
    3
  9
$SHADEDIF
 70
   70
  9
$TILEMODE
 70
    1
  9
$MAXACTVP
 70
   64
  9
$PINSBASE
 10
0
 20
0
 30
0
  9
$PLIMCHECK
 70
    0
  9
$PEXTMIN
 10
0
 20
0
 30
0
  9
$PEXTMAX
 10
0
 20
0
 30
0
  9
$GRIDMODE
 70
    0
  9
$SNAPSTYLE
 70
    0
  9
$PLIMMIN
 10
0
 20
0
  9
$PLIMMAX
 10
210
 20
297
  9
$UNITMODE
 70
    0
  9
$VISRETAIN
 70
    1
  9
$PLINEGEN
 70
    0
  9
$PSLTSCALE
 70
    1
  9
$TREEDEPTH
 70
 3020
  9
$CMLSTYLE
  2
Standard
  9
$CMLJUST
 70
    0
  9
$CMLSCALE
 40
20
  9
$PROXYGRAPHICS
 70
    1
  9
$MEASUREMENT
 70
    1
  9
$CELWEIGHT
370
   -1
  9
$ENDCAPS
280
    0
  9
$JOINSTYLE
280
    0
  9
$LWDISPLAY
290
    0
  9
$INSUNITS
 70
    4
  9
$HYPERLINKBASE
  1

  9
$STYLESHEET
  1

  9
$XEDIT
290
    1
  9
$CEPSNTYPE
380
    0
  9
$PSTYLEMODE
290
    1
  9
$EXTNAMES
290
    1
  9
$PSVPSCALE
 40
1
  9
$OLESTARTUP
290
    0
  9
$SORTENTS
280
  127
  9
$INDEXCTL
280
    0
  9
$HIDETEXT
280
    1
  9
$XCLIPFRAME
290
    0
  9
$HALOGAP
280
    0
  9
$OBSCOLOR
 70
  257
  9
$OBSLTYPE
280
    0
  9
$INTERSECTIONDISPLAY
280
    0
  9
$INTERSECTIONCOLOR
 70
  257
  9
$DIMASSOC
280
    1
  9
$PROJECTNAME
  1

  9
$CAMERADISPLAY
290
    0
  9
$LENSLENGTH
 40
50
  9
$CAMERAHEIGHT
 40
0
  9
$STEPSPERSEC
 40
2
  9
$STEPSIZE
 40
50
  9
$3DDWFPREC
 40
2
  9
$PSOLWIDTH
 40
5
  9
$PSOLHEIGHT
 40
80
  9
$LOFTANG1
 40
1.570796326794897
  9
$LOFTANG2
 40
1.570796326794897
  9
$LOFTMAG1
 40
0
  9
$LOFTMAG2
 40
0
  9
$LOFTPARAM
 70
    7
  9
$LOFTNORMALS
280
    1
  9
$LATITUDE
 40
1
  9
$LONGITUDE
 40
1
  9
$NORTHDIRECTION
 40
0
  9
$TIMEZONE
 70
-8000
  9
$LIGHTGLYPHDISPLAY
280
    1
  9
$TILEMODELIGHTSYNCH
280
    1
  9
$SOLIDHIST
280
    1
  9
$SHOWHIST
280
    1
  9
$DWFFRAME
280
    2
  9
$DGNFRAME
280
    0
  9
$REALWORLDSCALE
290
    1
  9
$INTERFERECOLOR
 62
    1
  9
$CSHADOW
280
    0
  9
$SHADOWPLANELOCATION
 40
0
  0
ENDSEC
  0
SECTION
  2
CLASSES
  0
ENDSEC
  0
SECTION
  2
TABLES
  0
TABLE
  2
VPORT
  5
8
330
0
100
AcDbSymbolTable
 70
    1
  0
VPORT
  5
31
330
2
100
AcDbSymbolTableRecord
100
AcDbViewportTableRecord
  2
*ACTIVE
 70
    0
 10
0
 20
0
 11
1
 21
1
 12
70.80701881169065
 22
113.0188954109678
 13
0
 23
0
 14
10
 24
10
 15
10
 25
10
 16
0
 26
0
 36
1
 17
0
 27
0
 37
0
 40
326.0235261769053
 41
0.3591885441527446
 42
50
 43
0
 44
0
 50
0
 51
0
 71
    0
 72
  100
 73
    1
 74
    3
 75
    0
 76
    0
 77
    0
 78
    0
281
    0
 65
    1
110
0
120
0
130
0
111
1
121
0
131
0
112
0
122
1
132
0
 79
    0
146
0
348
10020
 60
    7
 61
    5
292
1
282
    1
141
0
142
0
 63
  250
421
3358443
  0
ENDTAB
  0
TABLE
  2
LTYPE
  5
5
330
0
100
AcDbSymbolTable
 70
    4
  0
LTYPE
  5
14
330
5
100
AcDbSymbolTableRecord
100
AcDbLinetypeTableRecord
  2
ByBlock
 70
    0
  3

 72
   65
 73
    0
 40
0
  0
LTYPE
  5
15
330
5
100
AcDbSymbolTableRecord
100
AcDbLinetypeTableRecord
  2
ByLayer
 70
    0
  3

 72
   65
 73
    0
 40
0
  0
LTYPE
  5
16
330
5
100
AcDbSymbolTableRecord
100
AcDbLinetypeTableRecord
  2
Continuous
 70
    0
  3
Solid line
 72
   65
 73
    0
 40
0
  0
LTYPE
  5
32
330
5
100
AcDbSymbolTableRecord
100
AcDbLinetypeTableRecord
  2
DOT
 70
    0
  3
Dot . . . . . . . . . . . . . . . . . . . . . .
 72
   65
 73
    2
 40
6.35
 49
0
 74
    0
 49
-6.35
 74
    0
  0
LTYPE
  5
33
330
5
100
AcDbSymbolTableRecord
100
AcDbLinetypeTableRecord
  2
DOTTINY
 70
    0
  3
Dot (.15x) .....................................
 72
   65
 73
    2
 40
0.9525
 49
0
 74
    0
 49
-0.9525
 74
    0
  0
LTYPE
  5
34
330
5
100
AcDbSymbolTableRecord
100
AcDbLinetypeTableRecord
  2
DOT2
 70
    0
  3
Dot (.5x) .....................................
 72
   65
 73
    2
 40
3.175
 49
0
 74
    0
 49
-3.175
 74
    0
  0
LTYPE
  5
35
330
5
100
AcDbSymbolTableRecord
100
AcDbLinetypeTableRecord
  2
DOTX2
 70
    0
  3
Dot (2x) .  .  .  .  .  .  .  .  .  .  .  .  .
 72
   65
 73
    2
 40
12.7
 49
0
 74
    0
 49
-12.7
 74
    0
  0
LTYPE
  5
36
330
5
100
AcDbSymbolTableRecord
100
AcDbLinetypeTableRecord
  2
DASHED
 70
    0
  3
Dashed _ _ _ _ _ _ _ _ _ _ _ _ _ _ _ _ _
 72
   65
 73
    2
 40
19.05
 49
12.7
 74
    0
 49
-6.35
 74
    0
  0
LTYPE
  5
37
330
5
100
AcDbSymbolTableRecord
100
AcDbLinetypeTableRecord
  2
DASHEDTINY
 70
    0
  3
Dashed (.15x) _ _ _ _ _ _ _ _ _ _ _ _ _ _ _ _ _
 72
   65
 73
    2
 40
2.8575
 49
1.905
 74
    0
 49
-0.9525
 74
    0
  0
LTYPE
  5
38
330
5
100
AcDbSymbolTableRecord
100
AcDbLinetypeTableRecord
  2
DASHED2
 70
    0
  3
Dashed (.5x) _ _ _ _ _ _ _ _ _ _ _ _ _ _ _ _ _
 72
   65
 73
    2
 40
9.524999999999999
 49
6.35
 74
    0
 49
-3.175
 74
    0
  0
LTYPE
  5
39
330
5
100
AcDbSymbolTableRecord
100
AcDbLinetypeTableRecord
  2
DASHEDX2
 70
    0
  3
Dashed (2x) ____  ____  ____  ____  ____  ___
 72
   65
 73
    2
 40
38.09999999999999
 49
25.4
 74
    0
 49
-12.7
 74
    0
  0
LTYPE
  5
3A
330
5
100
AcDbSymbolTableRecord
100
AcDbLinetypeTableRecord
  2
DASHDOT
 70
    0
  3
Dash dot __ . __ . __ . __ . __ . __ . __ . __
 72
   65
 73
    4
 40
25.4
 49
12.7
 74
    0
 49
-6.35
 74
    0
 49
0
 74
    0
 49
-6.35
 74
    0
  0
LTYPE
  5
3B
330
5
100
AcDbSymbolTableRecord
100
AcDbLinetypeTableRecord
  2
DASHDOTTINY
 70
    0
  3
Dash dot (.15x) _._._._._._._._._._._._._._._.
 72
   65
 73
    4
 40
3.81
 49
1.905
 74
    0
 49
-0.9525
 74
    0
 49
0
 74
    0
 49
-0.9525
 74
    0
  0
LTYPE
  5
3C
330
5
100
AcDbSymbolTableRecord
100
AcDbLinetypeTableRecord
  2
DASHDOT2
 70
    0
  3
Dash dot (.5x) _._._._._._._._._._._._._._._.
 72
   65
 73
    4
 40
12.7
 49
6.35
 74
    0
 49
-3.175
 74
    0
 49
0
 74
    0
 49
-3.175
 74
    0
  0
LTYPE
  5
3D
330
5
100
AcDbSymbolTableRecord
100
AcDbLinetypeTableRecord
  2
DASHDOTX2
 70
    0
  3
Dash dot (2x) ____  .  ____  .  ____  .  ___
 72
   65
 73
    4
 40
50.8
 49
25.4
 74
    0
 49
-12.7
 74
    0
 49
0
 74
    0
 49
-12.7
 74
    0
  0
LTYPE
  5
3E
330
5
100
AcDbSymbolTableRecord
100
AcDbLinetypeTableRecord
  2
DIVIDE
 70
    0
  3
Divide ____ . . ____ . . ____ . . ____ . . ____
 72
   65
 73
    6
 40
31.75
 49
12.7
 74
    0
 49
-6.35
 74
    0
 49
0
 74
    0
 49
-6.35
 74
    0
 49
0
 74
    0
 49
-6.35
 74
    0
  0
LTYPE
  5
3F
330
5
100
AcDbSymbolTableRecord
100
AcDbLinetypeTableRecord
  2
DIVIDETINY
 70
    0
  3
Divide (.15x) __..__..__..__..__..__..__..__.._
 72
   65
 73
    6
 40
4.7625
 49
1.905
 74
    0
 49
-0.9525
 74
    0
 49
0
 74
    0
 49
-0.9525
 74
    0
 49
0
 74
    0
 49
-0.9525
 74
    0
  0
LTYPE
  5
40
330
5
100
AcDbSymbolTableRecord
100
AcDbLinetypeTableRecord
  2
DIVIDE2
 70
    0
  3
Divide (.5x) __..__..__..__..__..__..__..__.._
 72
   65
 73
    6
 40
15.875
 49
6.35
 74
    0
 49
-3.175
 74
    0
 49
0
 74
    0
 49
-3.175
 74
    0
 49
0
 74
    0
 49
-3.175
 74
    0
  0
LTYPE
  5
41
330
5
100
AcDbSymbolTableRecord
100
AcDbLinetypeTableRecord
  2
DIVIDEX2
 70
    0
  3
Divide (2x) ________  .  .  ________  .  .  _
 72
   65
 73
    6
 40
63.5
 49
25.4
 74
    0
 49
-12.7
 74
    0
 49
0
 74
    0
 49
-12.7
 74
    0
 49
0
 74
    0
 49
-12.7
 74
    0
  0
LTYPE
  5
42
330
5
100
AcDbSymbolTableRecord
100
AcDbLinetypeTableRecord
  2
BORDER
 70
    0
  3
Border __ __ . __ __ . __ __ . __ __ . __ __ .
 72
   65
 73
    6
 40
44.45
 49
12.7
 74
    0
 49
-6.35
 74
    0
 49
12.7
 74
    0
 49
-6.35
 74
    0
 49
0
 74
    0
 49
-6.35
 74
    0
  0
LTYPE
  5
43
330
5
100
AcDbSymbolTableRecord
100
AcDbLinetypeTableRecord
  2
BORDERTINY
 70
    0
  3
Border (.15x) __.__.__.__.__.__.__.__.__.__.__.
 72
   65
 73
    6
 40
6.6675
 49
1.905
 74
    0
 49
-0.9525
 74
    0
 49
1.905
 74
    0
 49
-0.9525
 74
    0
 49
0
 74
    0
 49
-0.9525
 74
    0
  0
LTYPE
  5
44
330
5
100
AcDbSymbolTableRecord
100
AcDbLinetypeTableRecord
  2
BORDER2
 70
    0
  3
Border (.5x) __.__.__.__.__.__.__.__.__.__.__.
 72
   65
 73
    6
 40
22.225
 49
6.35
 74
    0
 49
-3.175
 74
    0
 49
6.35
 74
    0
 49
-3.175
 74
    0
 49
0
 74
    0
 49
-3.175
 74
    0
  0
LTYPE
  5
45
330
5
100
AcDbSymbolTableRecord
100
AcDbLinetypeTableRecord
  2
BORDERX2
 70
    0
  3
Border (2x) ____  ____  .  ____  ____  .  ___
 72
   65
 73
    6
 40
88.89999999999999
 49
25.4
 74
    0
 49
-12.7
 74
    0
 49
25.4
 74
    0
 49
-12.7
 74
    0
 49
0
 74
    0
 49
-12.7
 74
    0
  0
LTYPE
  5
46
330
5
100
AcDbSymbolTableRecord
100
AcDbLinetypeTableRecord
  2
CENTER
 70
    0
  3
Center ____ _ ____ _ ____ _ ____ _ ____ _ ____
 72
   65
 73
    4
 40
50.8
 49
31.75
 74
    0
 49
-6.35
 74
    0
 49
6.35
 74
    0
 49
-6.35
 74
    0
  0
LTYPE
  5
47
330
5
100
AcDbSymbolTableRecord
100
AcDbLinetypeTableRecord
  2
CENTERTINY
 70
    0
  3
Center (.15x) ___ _ ___ _ ___ _ ___ _ ___ _ ___
 72
   65
 73
    4
 40
7.619999999999999
 49
4.7625
 74
    0
 49
-0.9525
 74
    0
 49
0.9525
 74
    0
 49
-0.9525
 74
    0
  0
LTYPE
  5
48
330
5
100
AcDbSymbolTableRecord
100
AcDbLinetypeTableRecord
  2
CENTER2
 70
    0
  3
Center (.5x) ___ _ ___ _ ___ _ ___ _ ___ _ ___
 72
   65
 73
    4
 40
28.575
 49
19.05
 74
    0
 49
-3.175
 74
    0
 49
3.175
 74
    0
 49
-3.175
 74
    0
  0
LTYPE
  5
49
330
5
100
AcDbSymbolTableRecord
100
AcDbLinetypeTableRecord
  2
CENTERX2
 70
    0
  3
Center (2x) ________  __  ________  __  _____
 72
   65
 73
    4
 40
101.6
 49
63.5
 74
    0
 49
-12.7
 74
    0
 49
12.7
 74
    0
 49
-12.7
 74
    0
  0
ENDTAB
  0
TABLE
  2
LAYER
  5
2
330
0
100
AcDbSymbolTable
 70
    1
  0
LAYER
  5
10
330
2
100
AcDbSymbolTableRecord
100
AcDbLayerTableRecord
  2
0
 70
    0
 62
    7
  6
CONTINUOUS
370
   -3
390
F
  0
ENDTAB
  0
TABLE
  2
STYLE
  5
3
330
0
100
AcDbSymbolTable
 70
    3
  0
STYLE
  5
4A
330
2
100
AcDbSymbolTableRecord
100
AcDbTextStyleTableRecord
  2
Standard
 70
    0
 40
0
 41
1
 50
0
 71
    0
 42
1
  3
txt
  4

  0
ENDTAB
  0
TABLE
  2
VIEW
  5
6
330
0
100
AcDbSymbolTable
 70
    0
  0
ENDTAB
  0
TABLE
  2
UCS
  5
7
330
0
100
AcDbSymbolTable
 70
    0
  0
ENDTAB
  0
TABLE
  2
APPID
  5
9
330
0
100
AcDbSymbolTable
 70
    1
  0
APPID
  5
12
330
9
100
AcDbSymbolTableRecord
100
AcDbRegAppTableRecord
  2
ACAD
 70
    0
  0
APPID
  5
4B
330
9
100
AcDbSymbolTableRecord
100
AcDbRegAppTableRecord
  2
LibreCad
 70
    0
  0
ENDTAB
  0
TABLE
  2
DIMSTYLE
  5
A
330
0
100
AcDbSymbolTable
 70
    1
100
AcDbDimStyleTable
 71
    1
  0
DIMSTYLE
105
4C
330
A
100
AcDbSymbolTableRecord
100
AcDbDimStyleTableRecord
  2
Standard
 70
    0
 40
1
 41
2.5
 42
0.625
 43
0.38
 44
1.25
 45
0
 46
0
 47
0
 48
0
 49
1
140
2.5
141
0.09
142
2.5
143
25.4
144
1
145
0
146
1
147
0.625
148
0
 71
    0
 72
    0
 73
    0
 74
    1
 75
    0
 76
    0
 77
    0
 78
    1
 79
    0
170
    0
171
    2
172
    0
173
    0
174
    0
175
    0
176
    0
177
    0
178
    0
179
    0
271
    2
272
    4
273
    2
274
    2
275
    0
276
    0
277
    2
278
    0
279
    0
280
    0
281
    0
282
    0
283
    1
284
    0
285
    0
286
    0
288
    0
289
    3
340
standard
341

371
   -2
372
   -2
  0
ENDTAB
  0
TABLE
  2
BLOCK_RECORD
  5
1
330
0
100
AcDbSymbolTable
 70
    2
  0
BLOCK_RECORD
  5
1F
330
1
100
AcDbSymbolTableRecord
100
AcDbBlockTableRecord
  2
*Model_Space
 70
    0
280
    1
281
    0
  0
BLOCK_RECORD
  5
1E
330
1
100
AcDbSymbolTableRecord
100
AcDbBlockTableRecord
  2
*Paper_Space
 70
    0
280
    1
281
    0
  0
ENDTAB
  0
ENDSEC
  0
SECTION
  2
BLOCKS
  0
BLOCK
  5
20
330
1F
100
AcDbEntity
  8
0
100
AcDbBlockBegin
  2
*Model_Space
 70
    0
 10
0
 20
0
 30
0
  3
*Model_Space
  1

  0
ENDBLK
  5
21
330
1F
100
AcDbEntity
  8
0
100
AcDbBlockEnd
  0
BLOCK
  5
1C
330
1B
100
AcDbEntity
  8
0
100
AcDbBlockBegin
  2
*Paper_Space
 70
    0
 10
0
 20
0
 30
0
  3
*Paper_Space
  1

  0
ENDBLK
  5
1D
330
1F
100
AcDbEntity
  8
0
100
AcDbBlockEnd
  0
ENDSEC
  0
SECTION
  2
ENTITIES
  0
LINE
  5
4D
100
AcDbEntity
  8
0
  6
ByLayer
 62
    7
370
   -1
100
AcDbLine
 10
141.747793
 20
64.321579
 11
141.3289692735163
 21
64.49581720402136
  0
LINE
  5
4E
100
AcDbEntity
  8
0
  6
ByLayer
 62
    7
370
   -1
100
AcDbLine
 10
141.3289692735163
 20
64.49581720402136
 11
140.910222366914
 21
64.67039413913484
  0
LINE
  5
4F
100
AcDbEntity
  8
0
  6
ByLayer
 62
    7
370
   -1
100
AcDbLine
 10
140.910222366914
 20
64.67039413913484
 11
140.4916291566673
 21
64.84564853681435
  0
LINE
  5
50
100
AcDbEntity
  8
0
  6
ByLayer
 62
    7
370
   -1
100
AcDbLine
 10
140.4916291566673
 20
64.84564853681435
 11
140.0732665192501
 21
65.02191912853395
  0
LINE
  5
51
100
AcDbEntity
  8
0
  6
ByLayer
 62
    7
370
   -1
100
AcDbLine
 10
140.0732665192501
 20
65.02191912853395
 11
139.6552113311367
 21
65.1995446457676
  0
LINE
  5
52
100
AcDbEntity
  8
0
  6
ByLayer
 62
    7
370
   -1
100
AcDbLine
 10
139.6552113311367
 20
65.1995446457676
 11
139.2375404688009
 21
65.37886381998926
  0
LINE
  5
53
100
AcDbEntity
  8
0
  6
ByLayer
 62
    7
370
   -1
100
AcDbLine
 10
139.2375404688009
 20
65.37886381998926
 11
138.8203308087169
 21
65.56021538267292
  0
LINE
  5
54
100
AcDbEntity
  8
0
  6
ByLayer
 62
    7
370
   -1
100
AcDbLine
 10
138.8203308087169
 20
65.56021538267292
 11
138.4036592273588
 21
65.74393806529258
  0
LINE
  5
55
100
AcDbEntity
  8
0
  6
ByLayer
 62
    7
370
   -1
100
AcDbLine
 10
138.4036592273588
 20
65.74393806529258
 11
137.9876090756287
 21
65.93036646411859
  0
LINE
  5
56
100
AcDbEntity
  8
0
  6
ByLayer
 62
    7
370
   -1
100
AcDbLine
 10
137.9876090756287
 20
65.93036646411859
 11
137.5723655256088
 21
66.11977014244901
  0
LINE
  5
57
100
AcDbEntity
  8
0
  6
ByLayer
 62
    7
370
   -1
100
AcDbLine
 10
137.5723655256088
 20
66.11977014244901
 11
137.1581947399715
 21
66.312366935063
  0
LINE
  5
58
100
AcDbEntity
  8
0
  6
ByLayer
 62
    7
370
   -1
100
AcDbLine
 10
137.1581947399715
 20
66.312366935063
 11
136.7453651211617
 21
66.50837324620186
  0
LINE
  5
59
100
AcDbEntity
  8
0
  6
ByLayer
 62
    7
370
   -1
100
AcDbLine
 10
136.7453651211617
 20
66.50837324620186
 11
136.334145071624
 21
66.70800548010692
  0
LINE
  5
5A
100
AcDbEntity
  8
0
  6
ByLayer
 62
    7
370
   -1
100
AcDbLine
 10
136.334145071624
 20
66.70800548010692
 11
135.9248029938031
 21
66.91148004101946
  0
LINE
  5
5B
100
AcDbEntity
  8
0
  6
ByLayer
 62
    7
370
   -1
100
AcDbLine
 10
135.9248029938031
 20
66.91148004101946
 11
135.517607290144
 21
67.11901333318087
  0
LINE
  5
5C
100
AcDbEntity
  8
0
  6
ByLayer
 62
    7
370
   -1
100
AcDbLine
 10
135.517607290144
 20
67.11901333318087
 11
135.1128263630912
 21
67.33082176083238
  0
LINE
  5
5D
100
AcDbEntity
  8
0
  6
ByLayer
 62
    7
370
   -1
100
AcDbLine
 10
135.1128263630912
 20
67.33082176083238
 11
134.7107286150897
 21
67.54712172821539
  0
LINE
  5
5E
100
AcDbEntity
  8
0
  6
ByLayer
 62
    7
370
   -1
100
AcDbLine
 10
134.7107286150897
 20
67.54712172821539
 11
134.3115824485841
 21
67.76812963957116
  0
LINE
  5
5F
100
AcDbEntity
  8
0
  6
ByLayer
 62
    7
370
   -1
100
AcDbLine
 10
134.3115824485841
 20
67.76812963957116
 11
133.9156562660191
 21
67.99406189914102
  0
LINE
  5
60
100
AcDbEntity
  8
0
  6
ByLayer
 62
    7
370
   -1
100
AcDbLine
 10
133.9156562660191
 20
67.99406189914102
 11
133.5232184698397
 21
68.22513491116631
  0
LINE
  5
61
100
AcDbEntity
  8
0
  6
ByLayer
 62
    7
370
   -1
100
AcDbLine
 10
133.5232184698397
 20
68.22513491116631
 11
133.1345374624905
 21
68.46156507988835
  0
LINE
  5
62
100
AcDbEntity
  8
0
  6
ByLayer
 62
    7
370
   -1
100
AcDbLine
 10
133.1345374624905
 20
68.46156507988835
 11
132.7498816464162
 21
68.7035688095484
  0
LINE
  5
63
100
AcDbEntity
  8
0
  6
ByLayer
 62
    7
370
   -1
100
AcDbLine
 10
132.7498816464162
 20
68.7035688095484
 11
132.3695194240617
 21
68.95136250438782
  0
LINE
  5
64
100
AcDbEntity
  8
0
  6
ByLayer
 62
    7
370
   -1
100
AcDbLine
 10
132.3695194240617
 20
68.95136250438782
 11
131.9937191978717
 21
69.20516256864795
  0
LINE
  5
65
100
AcDbEntity
  8
0
  6
ByLayer
 62
    7
370
   -1
100
AcDbLine
 10
131.9937191978717
 20
69.20516256864795
 11
131.622749370291
 21
69.46518540657006
  0
LINE
  5
66
100
AcDbEntity
  8
0
  6
ByLayer
 62
    7
370
   -1
100
AcDbLine
 10
131.622749370291
 20
69.46518540657006
 11
131.2568783437643
 21
69.7316474223955
  0
LINE
  5
67
100
AcDbEntity
  8
0
  6
ByLayer
 62
    7
370
   -1
100
AcDbLine
 10
131.2568783437643
 20
69.7316474223955
 11
130.8963745207363
 21
70.00476502036555
  0
LINE
  5
68
100
AcDbEntity
  8
0
  6
ByLayer
 62
    7
370
   -1
100
AcDbLine
 10
130.8963745207363
 20
70.00476502036555
 11
130.5414247584871
 21
70.28467160387976
  0
LINE
  5
69
100
AcDbEntity
  8
0
  6
ByLayer
 62
    7
370
   -1
100
AcDbLine
 10
130.5414247584871
 20
70.28467160387976
 11
130.1918492311634
 21
70.57112734748041
  0
LINE
  5
6A
100
AcDbEntity
  8
0
  6
ByLayer
 62
    7
370
   -1
100
AcDbLine
 10
130.1918492311634
 20
70.57112734748041
 11
129.8473650899601
 21
70.86378756367675
  0
LINE
  5
6B
100
AcDbEntity
  8
0
  6
ByLayer
 62
    7
370
   -1
100
AcDbLine
 10
129.8473650899601
 20
70.86378756367675
 11
129.5076894806294
 21
71.16230755943869
  0
LINE
  5
6C
100
AcDbEntity
  8
0
  6
ByLayer
 62
    7
370
   -1
100
AcDbLine
 10
129.5076894806294
 20
71.16230755943869
 11
129.1725395489239
 21
71.46634264173609
  0
LINE
  5
6D
100
AcDbEntity
  8
0
  6
ByLayer
 62
    7
370
   -1
100
AcDbLine
 10
129.1725395489239
 20
71.46634264173609
 11
128.8416324405958
 21
71.77554811753895
  0
LINE
  5
6E
100
AcDbEntity
  8
0
  6
ByLayer
 62
    7
370
   -1
100
AcDbLine
 10
128.8416324405958
 20
71.77554811753895
 11
128.5146853013977
 21
72.08957929381712
  0
LINE
  5
6F
100
AcDbEntity
  8
0
  6
ByLayer
 62
    7
370
   -1
100
AcDbLine
 10
128.5146853013977
 20
72.08957929381712
 11
128.191415277082
 21
72.40809147754054
  0
LINE
  5
70
100
AcDbEntity
  8
0
  6
ByLayer
 62
    7
370
   -1
100
AcDbLine
 10
128.191415277082
 20
72.40809147754054
 11
127.8715395134011
 21
72.73073997567914
  0
LINE
  5
71
100
AcDbEntity
  8
0
  6
ByLayer
 62
    7
370
   -1
100
AcDbLine
 10
127.8715395134011
 20
72.73073997567914
 11
127.5547751561074
 21
73.0571800952028
  0
LINE
  5
72
100
AcDbEntity
  8
0
  6
ByLayer
 62
    7
370
   -1
100
AcDbLine
 10
127.5547751561074
 20
73.0571800952028
 11
127.2408393509533
 21
73.38706714308144
  0
LINE
  5
73
100
AcDbEntity
  8
0
  6
ByLayer
 62
    7
370
   -1
100
AcDbLine
 10
127.2408393509533
 20
73.38706714308144
 11
126.9294492436913
 21
73.720056426285
  0
LINE
  5
74
100
AcDbEntity
  8
0
  6
ByLayer
 62
    7
370
   -1
100
AcDbLine
 10
126.9294492436913
 20
73.720056426285
 11
126.6203219800738
 21
74.05580325178339
  0
LINE
  5
75
100
AcDbEntity
  8
0
  6
ByLayer
 62
    7
370
   -1
100
AcDbLine
 10
126.6203219800738
 20
74.05580325178339
 11
126.3131747058531
 21
74.39396292654651
  0
LINE
  5
76
100
AcDbEntity
  8
0
  6
ByLayer
 62
    7
370
   -1
100
AcDbLine
 10
126.3131747058531
 20
74.39396292654651
 11
126.0077245667818
 21
74.73419075754428
  0
LINE
  5
77
100
AcDbEntity
  8
0
  6
ByLayer
 62
    7
370
   -1
100
AcDbLine
 10
126.0077245667818
 20
74.73419075754428
 11
125.7036887086123
 21
75.07614205174663
  0
LINE
  5
78
100
AcDbEntity
  8
0
  6
ByLayer
 62
    7
370
   -1
100
AcDbLine
 10
125.7036887086123
 20
75.07614205174663
 11
125.4007842770969
 21
75.41947211612344
  0
LINE
  5
79
100
AcDbEntity
  8
0
  6
ByLayer
 62
    7
370
   -1
100
AcDbLine
 10
125.4007842770969
 20
75.41947211612344
 11
125.0987284179881
 21
75.76383625764468
  0
LINE
  5
7A
100
AcDbEntity
  8
0
  6
ByLayer
 62
    7
370
   -1
100
AcDbLine
 10
125.0987284179881
 20
75.76383625764468
 11
124.7972382770383
 21
76.10888978328022
  0
LINE
  5
7B
100
AcDbEntity
  8
0
  6
ByLayer
 62
    7
370
   -1
100
AcDbLine
 10
124.7972382770383
 20
76.10888978328022
 11
124.496031
 21
76.45428800000001
  0
LINE
  5
7C
100
AcDbEntity
  8
0
  6
ByLayer
 62
    7
370
   -1
100
AcDbLine
 10
124.496031
 20
76.45428800000001
 11
124.9270788122853
 21
76.55874582035899
  0
LINE
  5
7D
100
AcDbEntity
  8
0
  6
ByLayer
 62
    7
370
   -1
100
AcDbLine
 10
124.9270788122853
 20
76.55874582035899
 11
125.3566668795089
 21
76.66362096546378
  0
LINE
  5
7E
100
AcDbEntity
  8
0
  6
ByLayer
 62
    7
370
   -1
100
AcDbLine
 10
125.3566668795089
 20
76.66362096546378
 11
125.7833355155556
 21
76.76933081974934
  0
LINE
  5
7F
100
AcDbEntity
  8
0
  6
ByLayer
 62
    7
370
   -1
100
AcDbLine
 10
125.7833355155556
 20
76.76933081974934
 11
126.2056250343105
 21
76.87629276765075
  0
LINE
  5
80
100
AcDbEntity
  8
0
  6
ByLayer
 62
    7
370
   -1
100
AcDbLine
 10
126.2056250343105
 20
76.87629276765075
 11
126.6220757496582
 21
76.98492419360309
  0
LINE
  5
81
100
AcDbEntity
  8
0
  6
ByLayer
 62
    7
370
   -1
100
AcDbLine
 10
126.6220757496582
 20
76.98492419360309
 11
127.0312279754838
 21
77.09564248204136
  0
LINE
  5
82
100
AcDbEntity
  8
0
  6
ByLayer
 62
    7
370
   -1
100
AcDbLine
 10
127.0312279754838
 20
77.09564248204136
 11
127.4316220256722
 21
77.20886501740061
  0
LINE
  5
83
100
AcDbEntity
  8
0
  6
ByLayer
 62
    7
370
   -1
100
AcDbLine
 10
127.4316220256722
 20
77.20886501740061
 11
127.8218034912174
 21
77.32500866700452
  0
LINE
  5
84
100
AcDbEntity
  8
0
  6
ByLayer
 62
    7
370
   -1
100
AcDbLine
 10
127.8218034912174
 20
77.32500866700452
 11
128.20241915538
 21
77.44428439938339
  0
LINE
  5
85
100
AcDbEntity
  8
0
  6
ByLayer
 62
    7
370
   -1
100
AcDbLine
 10
128.20241915538
 20
77.44428439938339
 11
128.5794148483286
 21
77.56638392198825
  0
LINE
  5
86
100
AcDbEntity
  8
0
  6
ByLayer
 62
    7
370
   -1
100
AcDbLine
 10
128.5794148483286
 20
77.56638392198825
 11
128.9595587839741
 21
77.69091835572743
  0
LINE
  5
87
100
AcDbEntity
  8
0
  6
ByLayer
 62
    7
370
   -1
100
AcDbLine
 10
128.9595587839741
 20
77.69091835572743
 11
129.3496191762275
 21
77.81749882150922
  0
LINE
  5
88
100
AcDbEntity
  8
0
  6
ByLayer
 62
    7
370
   -1
100
AcDbLine
 10
129.3496191762275
 20
77.81749882150922
 11
129.7563642389998
 21
77.945736440242
  0
LINE
  5
89
100
AcDbEntity
  8
0
  6
ByLayer
 62
    7
370
   -1
100
AcDbLine
 10
129.7563642389998
 20
77.945736440242
 11
130.1865621862019
 21
78.07524233283408
  0
LINE
  5
8A
100
AcDbEntity
  8
0
  6
ByLayer
 62
    7
370
   -1
100
AcDbLine
 10
130.1865621862019
 20
78.07524233283408
 11
130.6469812317449
 21
78.20562762019377
  0
LINE
  5
8B
100
AcDbEntity
  8
0
  6
ByLayer
 62
    7
370
   -1
100
AcDbLine
 10
130.6469812317449
 20
78.20562762019377
 11
131.144280881616
 21
78.33650860916111
  0
LINE
  5
8C
100
AcDbEntity
  8
0
  6
ByLayer
 62
    7
370
   -1
100
AcDbLine
 10
131.144280881616
 20
78.33650860916111
 11
131.6744867925279
 21
78.46800889632765
  0
LINE
  5
8D
100
AcDbEntity
  8
0
  6
ByLayer
 62
    7
370
   -1
100
AcDbLine
 10
131.6744867925279
 20
78.46800889632765
 11
132.2142051713543
 21
78.60117848674075
  0
LINE
  5
8E
100
AcDbEntity
  8
0
  6
ByLayer
 62
    7
370
   -1
100
AcDbLine
 10
132.2142051713543
 20
78.60117848674075
 11
132.7379740268666
 21
78.73716604922177
  0
LINE
  5
8F
100
AcDbEntity
  8
0
  6
ByLayer
 62
    7
370
   -1
100
AcDbLine
 10
132.7379740268666
 20
78.73716604922177
 11
133.2203313678358
 21
78.87712025259211
  0
LINE
  5
90
100
AcDbEntity
  8
0
  6
ByLayer
 62
    7
370
   -1
100
AcDbLine
 10
133.2203313678358
 20
78.87712025259211
 11
133.635815203033
 21
79.02218976567306
  0
LINE
  5
91
100
AcDbEntity
  8
0
  6
ByLayer
 62
    7
370
   -1
100
AcDbLine
 10
133.635815203033
 20
79.02218976567306
 11
133.9589635412295
 21
79.17352325728599
  0
LINE
  5
92
100
AcDbEntity
  8
0
  6
ByLayer
 62
    7
370
   -1
100
AcDbLine
 10
133.9589635412295
 20
79.17352325728599
 11
134.1643143911964
 21
79.33226939625231
  0
LINE
  5
93
100
AcDbEntity
  8
0
  6
ByLayer
 62
    7
370
   -1
100
AcDbLine
 10
134.1643143911964
 20
79.33226939625231
 11
134.2267054301267
 21
79.49956296446686
  0
LINE
  5
94
100
AcDbEntity
  8
0
  6
ByLayer
 62
    7
370
   -1
100
AcDbLine
 10
134.2267054301267
 20
79.49956296446686
 11
134.1385752588583
 21
79.67572309988327
  0
LINE
  5
95
100
AcDbEntity
  8
0
  6
ByLayer
 62
    7
370
   -1
100
AcDbLine
 10
134.1385752588583
 20
79.67572309988327
 11
133.9194280857124
 21
79.85981469384831
  0
LINE
  5
96
100
AcDbEntity
  8
0
  6
ByLayer
 62
    7
370
   -1
100
AcDbLine
 10
133.9194280857124
 20
79.85981469384831
 11
133.5910712998516
 21
80.05079590606569
  0
LINE
  5
97
100
AcDbEntity
  8
0
  6
ByLayer
 62
    7
370
   -1
100
AcDbLine
 10
133.5910712998516
 20
80.05079590606569
 11
133.175312290439
 21
80.24762489623917
  0
LINE
  5
98
100
AcDbEntity
  8
0
  6
ByLayer
 62
    7
370
   -1
100
AcDbLine
 10
133.175312290439
 20
80.24762489623917
 11
132.6939584466373
 21
80.44925982407243
  0
LINE
  5
99
100
AcDbEntity
  8
0
  6
ByLayer
 62
    7
370
   -1
100
AcDbLine
 10
132.6939584466373
 20
80.44925982407243
 11
132.1688171576094
 21
80.65465884926928
  0
LINE
  5
9A
100
AcDbEntity
  8
0
  6
ByLayer
 62
    7
370
   -1
100
AcDbLine
 10
132.1688171576094
 20
80.65465884926928
 11
131.621695812518
 21
80.86278013153337
  0
LINE
  5
9B
100
AcDbEntity
  8
0
  6
ByLayer
 62
    7
370
   -1
100
AcDbLine
 10
131.621695812518
 20
80.86278013153337
 11
131.0744018005261
 21
81.07258183056852
  0
LINE
  5
9C
100
AcDbEntity
  8
0
  6
ByLayer
 62
    7
370
   -1
100
AcDbLine
 10
131.0744018005261
 20
81.07258183056852
 11
130.5473326874888
 21
81.28310207305697
  0
LINE
  5
9D
100
AcDbEntity
  8
0
  6
ByLayer
 62
    7
370
   -1
100
AcDbLine
 10
130.5473326874888
 20
81.28310207305697
 11
130.0469485850532
 21
81.49416953588391
  0
LINE
  5
9E
100
AcDbEntity
  8
0
  6
ByLayer
 62
    7
370
   -1
100
AcDbLine
 10
130.0469485850532
 20
81.49416953588391
 11
129.5717596950081
 21
81.70606382497499
  0
LINE
  5
9F
100
AcDbEntity
  8
0
  6
ByLayer
 62
    7
370
   -1
100
AcDbLine
 10
129.5717596950081
 20
81.70606382497499
 11
129.120183545927
 21
81.91906980279897
  0
LINE
  5
A0
100
AcDbEntity
  8
0
  6
ByLayer
 62
    7
370
   -1
100
AcDbLine
 10
129.120183545927
 20
81.91906980279897
 11
128.690637666383
 21
82.13347233182449
  0
LINE
  5
A1
100
AcDbEntity
  8
0
  6
ByLayer
 62
    7
370
   -1
100
AcDbLine
 10
128.690637666383
 20
82.13347233182449
 11
128.2815395849499
 21
82.3495562745204
  0
LINE
  5
A2
100
AcDbEntity
  8
0
  6
ByLayer
 62
    7
370
   -1
100
AcDbLine
 10
128.2815395849499
 20
82.3495562745204
 11
127.8913068302008
 21
82.56760649335537
  0
LINE
  5
A3
100
AcDbEntity
  8
0
  6
ByLayer
 62
    7
370
   -1
100
AcDbLine
 10
127.8913068302008
 20
82.56760649335537
 11
127.5183569307093
 21
82.78790785079812
  0
LINE
  5
A4
100
AcDbEntity
  8
0
  6
ByLayer
 62
    7
370
   -1
100
AcDbLine
 10
127.5183569307093
 20
82.78790785079812
 11
127.1611074150488
 21
83.01074520931743
  0
LINE
  5
A5
100
AcDbEntity
  8
0
  6
ByLayer
 62
    7
370
   -1
100
AcDbLine
 10
127.1611074150488
 20
83.01074520931743
 11
126.8179758117926
 21
83.23640343138206
  0
LINE
  5
A6
100
AcDbEntity
  8
0
  6
ByLayer
 62
    7
370
   -1
100
AcDbLine
 10
126.8179758117926
 20
83.23640343138206
 11
126.4873796495143
 21
83.46516737946067
  0
LINE
  5
A7
100
AcDbEntity
  8
0
  6
ByLayer
 62
    7
370
   -1
100
AcDbLine
 10
126.4873796495143
 20
83.46516737946067
 11
126.1677364567872
 21
83.69732191602206
  0
LINE
  5
A8
100
AcDbEntity
  8
0
  6
ByLayer
 62
    7
370
   -1
100
AcDbLine
 10
126.1677364567872
 20
83.69732191602206
 11
125.8574637621847
 21
83.93315190353491
  0
LINE
  5
A9
100
AcDbEntity
  8
0
  6
ByLayer
 62
    7
370
   -1
100
AcDbLine
 10
125.8574637621847
 20
83.93315190353491
 11
125.5549790942803
 21
84.17294220446803
  0
LINE
  5
AA
100
AcDbEntity
  8
0
  6
ByLayer
 62
    7
370
   -1
100
AcDbLine
 10
125.5549790942803
 20
84.17294220446803
 11
125.2586999816474
 21
84.41697768129009
  0
LINE
  5
AB
100
AcDbEntity
  8
0
  6
ByLayer
 62
    7
370
   -1
100
AcDbLine
 10
125.2586999816474
 20
84.41697768129009
 11
124.9670439528594
 21
84.66554319646986
  0
LINE
  5
AC
100
AcDbEntity
  8
0
  6
ByLayer
 62
    7
370
   -1
100
AcDbLine
 10
124.9670439528594
 20
84.66554319646986
 11
124.6784285364897
 21
84.91892361247606
  0
LINE
  5
AD
100
AcDbEntity
  8
0
  6
ByLayer
 62
    7
370
   -1
100
AcDbLine
 10
124.6784285364897
 20
84.91892361247606
 11
124.3912712611117
 21
85.17740379177744
  0
LINE
  5
AE
100
AcDbEntity
  8
0
  6
ByLayer
 62
    7
370
   -1
100
AcDbLine
 10
124.3912712611117
 20
85.17740379177744
 11
124.1039896552989
 21
85.44126859684275
  0
LINE
  5
AF
100
AcDbEntity
  8
0
  6
ByLayer
 62
    7
370
   -1
100
AcDbLine
 10
124.1039896552989
 20
85.44126859684275
 11
123.8151088997582
 21
85.71076620571505
  0
LINE
  5
B0
100
AcDbEntity
  8
0
  6
ByLayer
 62
    7
370
   -1
100
AcDbLine
 10
123.8151088997582
 20
85.71076620571505
 11
123.5241716354303
 21
85.98579807832731
  0
LINE
  5
B1
100
AcDbEntity
  8
0
  6
ByLayer
 62
    7
370
   -1
100
AcDbLine
 10
123.5241716354303
 20
85.98579807832731
 11
123.2312805810541
 21
86.26607481789954
  0
LINE
  5
B2
100
AcDbEntity
  8
0
  6
ByLayer
 62
    7
370
   -1
100
AcDbLine
 10
123.2312805810541
 20
86.26607481789954
 11
122.9365442807172
 21
86.55130504255816
  0
LINE
  5
B3
100
AcDbEntity
  8
0
  6
ByLayer
 62
    7
370
   -1
100
AcDbLine
 10
122.9365442807172
 20
86.55130504255816
 11
122.6400712785069
 21
86.8411973704296
  0
LINE
  5
B4
100
AcDbEntity
  8
0
  6
ByLayer
 62
    7
370
   -1
100
AcDbLine
 10
122.6400712785069
 20
86.8411973704296
 11
122.3419701185106
 21
87.13546041964028
  0
LINE
  5
B5
100
AcDbEntity
  8
0
  6
ByLayer
 62
    7
370
   -1
100
AcDbLine
 10
122.3419701185106
 20
87.13546041964028
 11
122.0423493448159
 21
87.4338028083166
  0
LINE
  5
B6
100
AcDbEntity
  8
0
  6
ByLayer
 62
    7
370
   -1
100
AcDbLine
 10
122.0423493448159
 20
87.4338028083166
 11
121.7413175015101
 21
87.73593315458496
  0
LINE
  5
B7
100
AcDbEntity
  8
0
  6
ByLayer
 62
    7
370
   -1
100
AcDbLine
 10
121.7413175015101
 20
87.73593315458496
 11
121.4389831326806
 21
88.04156007657176
  0
LINE
  5
B8
100
AcDbEntity
  8
0
  6
ByLayer
 62
    7
370
   -1
100
AcDbLine
 10
121.4389831326806
 20
88.04156007657176
 11
121.1354547824149
 21
88.35039219240346
  0
LINE
  5
B9
100
AcDbEntity
  8
0
  6
ByLayer
 62
    7
370
   -1
100
AcDbLine
 10
121.1354547824149
 20
88.35039219240346
 11
120.8308409948004
 21
88.66213812020646
  0
LINE
  5
BA
100
AcDbEntity
  8
0
  6
ByLayer
 62
    7
370
   -1
100
AcDbLine
 10
120.8308409948004
 20
88.66213812020646
 11
120.5252503139245
 21
88.97650647810717
  0
LINE
  5
BB
100
AcDbEntity
  8
0
  6
ByLayer
 62
    7
370
   -1
100
AcDbLine
 10
120.5252503139245
 20
88.97650647810717
 11
120.2187912838747
 21
89.29320588423198
  0
LINE
  5
BC
100
AcDbEntity
  8
0
  6
ByLayer
 62
    7
370
   -1
100
AcDbLine
 10
120.2187912838747
 20
89.29320588423198
 11
119.9115724487384
 21
89.61194495670736
  0
LINE
  5
BD
100
AcDbEntity
  8
0
  6
ByLayer
 62
    7
370
   -1
100
AcDbLine
 10
119.9115724487384
 20
89.61194495670736
 11
119.6037023526031
 21
89.93243231365967
  0
LINE
  5
BE
100
AcDbEntity
  8
0
  6
ByLayer
 62
    7
370
   -1
100
AcDbLine
 10
119.6037023526031
 20
89.93243231365967
 11
119.295289539556
 21
90.25437657321535
  0
LINE
  5
BF
100
AcDbEntity
  8
0
  6
ByLayer
 62
    7
370
   -1
100
AcDbLine
 10
119.295289539556
 20
90.25437657321535
 11
118.9864425536848
 21
90.57748635350082
  0
LINE
  5
C0
100
AcDbEntity
  8
0
  6
ByLayer
 62
    7
370
   -1
100
AcDbLine
 10
118.9864425536848
 20
90.57748635350082
 11
118.6772699390767
 21
90.90147027264247
  0
LINE
  5
C1
100
AcDbEntity
  8
0
  6
ByLayer
 62
    7
370
   -1
100
AcDbLine
 10
118.6772699390767
 20
90.90147027264247
 11
118.3678802398193
 21
91.22603694876673
  0
LINE
  5
C2
100
AcDbEntity
  8
0
  6
ByLayer
 62
    7
370
   -1
100
AcDbLine
 10
118.3678802398193
 20
91.22603694876673
 11
118.058382
 21
91.550895
  0
LINE
  5
C3
100
AcDbEntity
  8
0
  6
ByLayer
 62
    7
370
   -1
100
AcDbLine
 10
118.058382
 20
91.550895
 11
118.2805688241628
 21
91.59213253336139
  0
LINE
  5
C4
100
AcDbEntity
  8
0
  6
ByLayer
 62
    7
370
   -1
100
AcDbLine
 10
118.2805688241628
 20
91.59213253336139
 11
118.5027538597735
 21
91.63340037247208
  0
LINE
  5
C5
100
AcDbEntity
  8
0
  6
ByLayer
 62
    7
370
   -1
100
AcDbLine
 10
118.5027538597735
 20
91.63340037247208
 11
118.7249353177049
 21
91.67472882493495
  0
LINE
  5
C6
100
AcDbEntity
  8
0
  6
ByLayer
 62
    7
370
   -1
100
AcDbLine
 10
118.7249353177049
 20
91.67472882493495
 11
118.94711140883
 21
91.71614819835295
  0
LINE
  5
C7
100
AcDbEntity
  8
0
  6
ByLayer
 62
    7
370
   -1
100
AcDbLine
 10
118.94711140883
 20
91.71614819835295
 11
119.1692803440215
 21
91.75768880032908
  0
LINE
  5
C8
100
AcDbEntity
  8
0
  6
ByLayer
 62
    7
370
   -1
100
AcDbLine
 10
119.1692803440215
 20
91.75768880032908
 11
119.3914403341523
 21
91.79938093846621
  0
LINE
  5
C9
100
AcDbEntity
  8
0
  6
ByLayer
 62
    7
370
   -1
100
AcDbLine
 10
119.3914403341523
 20
91.79938093846621
 11
119.6135895900954
 21
91.84125492036732
  0
LINE
  5
CA
100
AcDbEntity
  8
0
  6
ByLayer
 62
    7
370
   -1
100
AcDbLine
 10
119.6135895900954
 20
91.84125492036732
 11
119.8357263227237
 21
91.88334105363539
  0
LINE
  5
CB
100
AcDbEntity
  8
0
  6
ByLayer
 62
    7
370
   -1
100
AcDbLine
 10
119.8357263227237
 20
91.88334105363539
 11
120.05784874291
 21
91.9256696458733
  0
LINE
  5
CC
100
AcDbEntity
  8
0
  6
ByLayer
 62
    7
370
   -1
100
AcDbLine
 10
120.05784874291
 20
91.9256696458733
 11
120.2799550615272
 21
91.96827100468403
  0
LINE
  5
CD
100
AcDbEntity
  8
0
  6
ByLayer
 62
    7
370
   -1
100
AcDbLine
 10
120.2799550615272
 20
91.96827100468403
 11
120.5020434894482
 21
92.0111754376705
  0
LINE
  5
CE
100
AcDbEntity
  8
0
  6
ByLayer
 62
    7
370
   -1
100
AcDbLine
 10
120.5020434894482
 20
92.0111754376705
 11
120.7241122375459
 21
92.05441325243568
  0
LINE
  5
CF
100
AcDbEntity
  8
0
  6
ByLayer
 62
    7
370
   -1
100
AcDbLine
 10
120.7241122375459
 20
92.05441325243568
 11
120.9461595166931
 21
92.09801475658249
  0
LINE
  5
D0
100
AcDbEntity
  8
0
  6
ByLayer
 62
    7
370
   -1
100
AcDbLine
 10
120.9461595166931
 20
92.09801475658249
 11
121.1681835377629
 21
92.14201025771391
  0
LINE
  5
D1
100
AcDbEntity
  8
0
  6
ByLayer
 62
    7
370
   -1
100
AcDbLine
 10
121.1681835377629
 20
92.14201025771391
 11
121.3901825116279
 21
92.18643006343285
  0
LINE
  5
D2
100
AcDbEntity
  8
0
  6
ByLayer
 62
    7
370
   -1
100
AcDbLine
 10
121.3901825116279
 20
92.18643006343285
 11
121.6121546491612
 21
92.23130448134226
  0
LINE
  5
D3
100
AcDbEntity
  8
0
  6
ByLayer
 62
    7
370
   -1
100
AcDbLine
 10
121.6121546491612
 20
92.23130448134226
 11
121.8340981612356
 21
92.2766638190451
  0
LINE
  5
D4
100
AcDbEntity
  8
0
  6
ByLayer
 62
    7
370
   -1
100
AcDbLine
 10
121.8340981612356
 20
92.2766638190451
 11
122.0560112587239
 21
92.32253838414429
  0
LINE
  5
D5
100
AcDbEntity
  8
0
  6
ByLayer
 62
    7
370
   -1
100
AcDbLine
 10
122.0560112587239
 20
92.32253838414429
 11
122.2778921524992
 21
92.3689584842428
  0
LINE
  5
D6
100
AcDbEntity
  8
0
  6
ByLayer
 62
    7
370
   -1
100
AcDbLine
 10
122.2778921524992
 20
92.3689584842428
 11
122.4997287240601
 21
92.41597452829421
  0
LINE
  5
D7
100
AcDbEntity
  8
0
  6
ByLayer
 62
    7
370
   -1
100
AcDbLine
 10
122.4997287240601
 20
92.41597452829421
 11
122.7214628501883
 21
92.46372645216226
  0
LINE
  5
D8
100
AcDbEntity
  8
0
  6
ByLayer
 62
    7
370
   -1
100
AcDbLine
 10
122.7214628501883
 20
92.46372645216226
 11
122.9430236047275
 21
92.51237910671048
  0
LINE
  5
D9
100
AcDbEntity
  8
0
  6
ByLayer
 62
    7
370
   -1
100
AcDbLine
 10
122.9430236047275
 20
92.51237910671048
 11
123.1643400609924
 21
92.56209734383071
  0
LINE
  5
DA
100
AcDbEntity
  8
0
  6
ByLayer
 62
    7
370
   -1
100
AcDbLine
 10
123.1643400609924
 20
92.56209734383071
 11
123.3853412922981
 21
92.61304601541472
  0
LINE
  5
DB
100
AcDbEntity
  8
0
  6
ByLayer
 62
    7
370
   -1
100
AcDbLine
 10
123.3853412922981
 20
92.61304601541472
 11
123.6059563719597
 21
92.66538997335438
  0
LINE
  5
DC
100
AcDbEntity
  8
0
  6
ByLayer
 62
    7
370
   -1
100
AcDbLine
 10
123.6059563719597
 20
92.66538997335438
 11
123.826114373292
 21
92.71929406954141
  0
LINE
  5
DD
100
AcDbEntity
  8
0
  6
ByLayer
 62
    7
370
   -1
100
AcDbLine
 10
123.826114373292
 20
92.71929406954141
 11
124.0457443696102
 21
92.77492315586768
  0
LINE
  5
DE
100
AcDbEntity
  8
0
  6
ByLayer
 62
    7
370
   -1
100
AcDbLine
 10
124.0457443696102
 20
92.77492315586768
 11
124.2647754342291
 21
92.83244208422491
  0
LINE
  5
DF
100
AcDbEntity
  8
0
  6
ByLayer
 62
    7
370
   -1
100
AcDbLine
 10
124.2647754342291
 20
92.83244208422491
 11
124.4831366404638
 21
92.89201570650498
  0
LINE
  5
E0
100
AcDbEntity
  8
0
  6
ByLayer
 62
    7
370
   -1
100
AcDbLine
 10
124.4831366404638
 20
92.89201570650498
 11
124.7007570616293
 21
92.95380887459966
  0
LINE
  5
E1
100
AcDbEntity
  8
0
  6
ByLayer
 62
    7
370
   -1
100
AcDbLine
 10
124.7007570616293
 20
92.95380887459966
 11
124.9175657710407
 21
93.01798644040076
  0
LINE
  5
E2
100
AcDbEntity
  8
0
  6
ByLayer
 62
    7
370
   -1
100
AcDbLine
 10
124.9175657710407
 20
93.01798644040076
 11
125.1334918420128
 21
93.0847132558001
  0
LINE
  5
E3
100
AcDbEntity
  8
0
  6
ByLayer
 62
    7
370
   -1
100
AcDbLine
 10
125.1334918420128
 20
93.0847132558001
 11
125.3484643478607
 21
93.15415417268943
  0
LINE
  5
E4
100
AcDbEntity
  8
0
  6
ByLayer
 62
    7
370
   -1
100
AcDbLine
 10
125.3484643478607
 20
93.15415417268943
 11
125.5624123618994
 21
93.2264740429606
  0
LINE
  5
E5
100
AcDbEntity
  8
0
  6
ByLayer
 62
    7
370
   -1
100
AcDbLine
 10
125.5624123618994
 20
93.2264740429606
 11
125.7752649574439
 21
93.30183771850541
  0
LINE
  5
E6
100
AcDbEntity
  8
0
  6
ByLayer
 62
    7
370
   -1
100
AcDbLine
 10
125.7752649574439
 20
93.30183771850541
 11
125.9869685467051
 21
93.38036547326304
  0
LINE
  5
E7
100
AcDbEntity
  8
0
  6
ByLayer
 62
    7
370
   -1
100
AcDbLine
 10
125.9869685467051
 20
93.38036547326304
 11
126.1975794464938
 21
93.46189501865605
  0
LINE
  5
E8
100
AcDbEntity
  8
0
  6
ByLayer
 62
    7
370
   -1
100
AcDbLine
 10
126.1975794464938
 20
93.46189501865605
 11
126.4071969032196
 21
93.54615369497232
  0
LINE
  5
E9
100
AcDbEntity
  8
0
  6
ByLayer
 62
    7
370
   -1
100
AcDbLine
 10
126.4071969032196
 20
93.54615369497232
 11
126.615920261877
 21
93.63286858903999
  0
LINE
  5
EA
100
AcDbEntity
  8
0
  6
ByLayer
 62
    7
370
   -1
100
AcDbLine
 10
126.615920261877
 20
93.63286858903999
 11
126.8238488674602
 21
93.72176678768705
  0
LINE
  5
EB
100
AcDbEntity
  8
0
  6
ByLayer
 62
    7
370
   -1
100
AcDbLine
 10
126.8238488674602
 20
93.72176678768705
 11
127.0310820649639
 21
93.81257537774167
  0
LINE
  5
EC
100
AcDbEntity
  8
0
  6
ByLayer
 62
    7
370
   -1
100
AcDbLine
 10
127.0310820649639
 20
93.81257537774167
 11
127.2377191993822
 21
93.9050214460319
  0
LINE
  5
ED
100
AcDbEntity
  8
0
  6
ByLayer
 62
    7
370
   -1
100
AcDbLine
 10
127.2377191993822
 20
93.9050214460319
 11
127.4438596157098
 21
93.99883207938582
  0
LINE
  5
EE
100
AcDbEntity
  8
0
  6
ByLayer
 62
    7
370
   -1
100
AcDbLine
 10
127.4438596157098
 20
93.99883207938582
 11
127.6496026589409
 21
94.09373436463149
  0
LINE
  5
EF
100
AcDbEntity
  8
0
  6
ByLayer
 62
    7
370
   -1
100
AcDbLine
 10
127.6496026589409
 20
94.09373436463149
 11
127.8550476740701
 21
94.18945538859704
  0
LINE
  5
F0
100
AcDbEntity
  8
0
  6
ByLayer
 62
    7
370
   -1
100
AcDbLine
 10
127.8550476740701
 20
94.18945538859704
 11
128.0602940060916
 21
94.28572223811051
  0
LINE
  5
F1
100
AcDbEntity
  8
0
  6
ByLayer
 62
    7
370
   -1
100
AcDbLine
 10
128.0602940060916
 20
94.28572223811051
 11
128.265441
 21
94.382262
  0
LINE
  5
F2
100
AcDbEntity
  8
0
  6
ByLayer
 62
    7
370
   -1
100
AcDbLine
 10
128.265441
 20
94.382262
 11
128.1322741874702
 21
94.41540524460827
  0
LINE
  5
F3
100
AcDbEntity
  8
0
  6
ByLayer
 62
    7
370
   -1
100
AcDbLine
 10
128.1322741874702
 20
94.41540524460827
 11
127.9991885959018
 21
94.44874862459315
  0
LINE
  5
F4
100
AcDbEntity
  8
0
  6
ByLayer
 62
    7
370
   -1
100
AcDbLine
 10
127.9991885959018
 20
94.44874862459315
 11
127.8662654503075
 21
94.48249229053727
  0
LINE
  5
F5
100
AcDbEntity
  8
0
  6
ByLayer
 62
    7
370
   -1
100
AcDbLine
 10
127.8662654503075
 20
94.48249229053727
 11
127.7335859756997
 21
94.51683639302327
  0
LINE
  5
F6
100
AcDbEntity
  8
0
  6
ByLayer
 62
    7
370
   -1
100
AcDbLine
 10
127.7335859756997
 20
94.51683639302327
 11
127.6012313970913
 21
94.5519810826338
  0
LINE
  5
F7
100
AcDbEntity
  8
0
  6
ByLayer
 62
    7
370
   -1
100
AcDbLine
 10
127.6012313970913
 20
94.5519810826338
 11
127.4692829394948
 21
94.58812650995152
  0
LINE
  5
F8
100
AcDbEntity
  8
0
  6
ByLayer
 62
    7
370
   -1
100
AcDbLine
 10
127.4692829394948
 20
94.58812650995152
 11
127.3378218279229
 21
94.62547282555907
  0
LINE
  5
F9
100
AcDbEntity
  8
0
  6
ByLayer
 62
    7
370
   -1
100
AcDbLine
 10
127.3378218279229
 20
94.62547282555907
 11
127.2069292873882
 21
94.66422018003912
  0
LINE
  5
FA
100
AcDbEntity
  8
0
  6
ByLayer
 62
    7
370
   -1
100
AcDbLine
 10
127.2069292873882
 20
94.66422018003912
 11
127.0766865429033
 21
94.70456872397429
  0
LINE
  5
FB
100
AcDbEntity
  8
0
  6
ByLayer
 62
    7
370
   -1
100
AcDbLine
 10
127.0766865429033
 20
94.70456872397429
 11
126.9471748194808
 21
94.74671860794723
  0
LINE
  5
FC
100
AcDbEntity
  8
0
  6
ByLayer
 62
    7
370
   -1
100
AcDbLine
 10
126.9471748194808
 20
94.74671860794723
 11
126.8184753421335
 21
94.79086998254063
  0
LINE
  5
FD
100
AcDbEntity
  8
0
  6
ByLayer
 62
    7
370
   -1
100
AcDbLine
 10
126.8184753421335
 20
94.79086998254063
 11
126.6906693358738
 21
94.83722299833707
  0
LINE
  5
FE
100
AcDbEntity
  8
0
  6
ByLayer
 62
    7
370
   -1
100
AcDbLine
 10
126.6906693358738
 20
94.83722299833707
 11
126.5638371496709
 21
94.88597559074033
  0
LINE
  5
FF
100
AcDbEntity
  8
0
  6
ByLayer
 62
    7
370
   -1
100
AcDbLine
 10
126.5638371496709
 20
94.88597559074033
 11
126.4380090951444
 21
94.93719916986412
  0
LINE
  5
100
100
AcDbEntity
  8
0
  6
ByLayer
 62
    7
370
   -1
100
AcDbLine
 10
126.4380090951444
 20
94.93719916986412
 11
126.3131393442233
 21
94.99077261770816
  0
LINE
  5
101
100
AcDbEntity
  8
0
  6
ByLayer
 62
    7
370
   -1
100
AcDbLine
 10
126.3131393442233
 20
94.99077261770816
 11
126.1891756821815
 21
95.04655866686805
  0
LINE
  5
102
100
AcDbEntity
  8
0
  6
ByLayer
 62
    7
370
   -1
100
AcDbLine
 10
126.1891756821815
 20
95.04655866686805
 11
126.066065894293
 21
95.10442004993945
  0
LINE
  5
103
100
AcDbEntity
  8
0
  6
ByLayer
 62
    7
370
   -1
100
AcDbLine
 10
126.066065894293
 20
95.10442004993945
 11
125.9437577658316
 21
95.16421949951796
  0
LINE
  5
104
100
AcDbEntity
  8
0
  6
ByLayer
 62
    7
370
   -1
100
AcDbLine
 10
125.9437577658316
 20
95.16421949951796
 11
125.8221990820714
 21
95.22581974819927
  0
LINE
  5
105
100
AcDbEntity
  8
0
  6
ByLayer
 62
    7
370
   -1
100
AcDbLine
 10
125.8221990820714
 20
95.22581974819927
 11
125.7013376282864
 21
95.28908352857897
  0
LINE
  5
106
100
AcDbEntity
  8
0
  6
ByLayer
 62
    7
370
   -1
100
AcDbLine
 10
125.7013376282864
 20
95.28908352857897
 11
125.5811211897503
 21
95.35387357325267
  0
LINE
  5
107
100
AcDbEntity
  8
0
  6
ByLayer
 62
    7
370
   -1
100
AcDbLine
 10
125.5811211897503
 20
95.35387357325267
 11
125.4614975517373
 21
95.42005261481604
  0
LINE
  5
108
100
AcDbEntity
  8
0
  6
ByLayer
 62
    7
370
   -1
100
AcDbLine
 10
125.4614975517373
 20
95.42005261481604
 11
125.3424144995212
 21
95.48748338586471
  0
LINE
  5
109
100
AcDbEntity
  8
0
  6
ByLayer
 62
    7
370
   -1
100
AcDbLine
 10
125.3424144995212
 20
95.48748338586471
 11
125.2238198183761
 21
95.5560286189943
  0
LINE
  5
10A
100
AcDbEntity
  8
0
  6
ByLayer
 62
    7
370
   -1
100
AcDbLine
 10
125.2238198183761
 20
95.5560286189943
 11
125.1056612935757
 21
95.62555104680041
  0
LINE
  5
10B
100
AcDbEntity
  8
0
  6
ByLayer
 62
    7
370
   -1
100
AcDbLine
 10
125.1056612935757
 20
95.62555104680041
 11
124.9878867103942
 21
95.69591340187873
  0
LINE
  5
10C
100
AcDbEntity
  8
0
  6
ByLayer
 62
    7
370
   -1
100
AcDbLine
 10
124.9878867103942
 20
95.69591340187873
 11
124.8704438541054
 21
95.76697841682486
  0
LINE
  5
10D
100
AcDbEntity
  8
0
  6
ByLayer
 62
    7
370
   -1
100
AcDbLine
 10
124.8704438541054
 20
95.76697841682486
 11
124.7532805099833
 21
95.83860882423443
  0
LINE
  5
10E
100
AcDbEntity
  8
0
  6
ByLayer
 62
    7
370
   -1
100
AcDbLine
 10
124.7532805099833
 20
95.83860882423443
 11
124.6363444633018
 21
95.91066735670306
  0
LINE
  5
10F
100
AcDbEntity
  8
0
  6
ByLayer
 62
    7
370
   -1
100
AcDbLine
 10
124.6363444633018
 20
95.91066735670306
 11
124.519583499335
 21
95.98301674682642
  0
LINE
  5
110
100
AcDbEntity
  8
0
  6
ByLayer
 62
    7
370
   -1
100
AcDbLine
 10
124.519583499335
 20
95.98301674682642
 11
124.4029454033567
 21
96.05551972720014
  0
LINE
  5
111
100
AcDbEntity
  8
0
  6
ByLayer
 62
    7
370
   -1
100
AcDbLine
 10
124.4029454033567
 20
96.05551972720014
 11
124.2863779606408
 21
96.12803903041979
  0
LINE
  5
112
100
AcDbEntity
  8
0
  6
ByLayer
 62
    7
370
   -1
100
AcDbLine
 10
124.2863779606408
 20
96.12803903041979
 11
124.1698289564614
 21
96.20043738908105
  0
LINE
  5
113
100
AcDbEntity
  8
0
  6
ByLayer
 62
    7
370
   -1
100
AcDbLine
 10
124.1698289564614
 20
96.20043738908105
 11
124.0532467188937
 21
96.27257908293097
  0
LINE
  5
114
100
AcDbEntity
  8
0
  6
ByLayer
 62
    7
370
   -1
100
AcDbLine
 10
124.0532467188937
 20
96.27257908293097
 11
123.9366026971257
 21
96.34439429402893
  0
LINE
  5
115
100
AcDbEntity
  8
0
  6
ByLayer
 62
    7
370
   -1
100
AcDbLine
 10
123.9366026971257
 20
96.34439429402893
 11
123.8198995991401
 21
96.41590230165389
  0
LINE
  5
116
100
AcDbEntity
  8
0
  6
ByLayer
 62
    7
370
   -1
100
AcDbLine
 10
123.8198995991401
 20
96.41590230165389
 11
123.7031423497939
 21
96.48712870386075
  0
LINE
  5
117
100
AcDbEntity
  8
0
  6
ByLayer
 62
    7
370
   -1
100
AcDbLine
 10
123.7031423497939
 20
96.48712870386075
 11
123.5863358739437
 21
96.55809909870426
  0
LINE
  5
118
100
AcDbEntity
  8
0
  6
ByLayer
 62
    7
370
   -1
100
AcDbLine
 10
123.5863358739437
 20
96.55809909870426
 11
123.4694850964466
 21
96.6288390842394
  0
LINE
  5
119
100
AcDbEntity
  8
0
  6
ByLayer
 62
    7
370
   -1
100
AcDbLine
 10
123.4694850964466
 20
96.6288390842394
 11
123.3525949421594
 21
96.69937425852098
  0
LINE
  5
11A
100
AcDbEntity
  8
0
  6
ByLayer
 62
    7
370
   -1
100
AcDbLine
 10
123.3525949421594
 20
96.69937425852098
 11
123.2356703359388
 21
96.76973021960382
  0
LINE
  5
11B
100
AcDbEntity
  8
0
  6
ByLayer
 62
    7
370
   -1
100
AcDbLine
 10
123.2356703359388
 20
96.76973021960382
 11
123.1187162026418
 21
96.83993256554282
  0
LINE
  5
11C
100
AcDbEntity
  8
0
  6
ByLayer
 62
    7
370
   -1
100
AcDbLine
 10
123.1187162026418
 20
96.83993256554282
 11
123.0017374671252
 21
96.91000689439284
  0
LINE
  5
11D
100
AcDbEntity
  8
0
  6
ByLayer
 62
    7
370
   -1
100
AcDbLine
 10
123.0017374671252
 20
96.91000689439284
 11
122.8847390542458
 21
96.97997880420867
  0
LINE
  5
11E
100
AcDbEntity
  8
0
  6
ByLayer
 62
    7
370
   -1
100
AcDbLine
 10
122.8847390542458
 20
96.97997880420867
 11
122.7677258888607
 21
97.04987389304526
  0
LINE
  5
11F
100
AcDbEntity
  8
0
  6
ByLayer
 62
    7
370
   -1
100
AcDbLine
 10
122.7677258888607
 20
97.04987389304526
 11
122.6507028958264
 21
97.11971775895742
  0
LINE
  5
120
100
AcDbEntity
  8
0
  6
ByLayer
 62
    7
370
   -1
100
AcDbLine
 10
122.6507028958264
 20
97.11971775895742
 11
122.533675
 21
97.189536
  0
LINE
  5
121
100
AcDbEntity
  8
0
  6
ByLayer
 62
    7
370
   -1
100
AcDbLine
 10
122.533675
 20
97.189536
 11
122.4032678560266
 21
97.27181064484847
  0
LINE
  5
122
100
AcDbEntity
  8
0
  6
ByLayer
 62
    7
370
   -1
100
AcDbLine
 10
122.4032678560266
 20
97.27181064484847
 11
122.272890291076
 21
97.35412959190072
  0
LINE
  5
123
100
AcDbEntity
  8
0
  6
ByLayer
 62
    7
370
   -1
100
AcDbLine
 10
122.272890291076
 20
97.35412959190072
 11
122.1425718700937
 21
97.43653715688302
  0
LINE
  5
124
100
AcDbEntity
  8
0
  6
ByLayer
 62
    7
370
   -1
100
AcDbLine
 10
122.1425718700937
 20
97.43653715688302
 11
122.0123421580249
 21
97.51907765552157
  0
LINE
  5
125
100
AcDbEntity
  8
0
  6
ByLayer
 62
    7
370
   -1
100
AcDbLine
 10
122.0123421580249
 20
97.51907765552157
 11
121.8822307198151
 21
97.6017954035427
  0
LINE
  5
126
100
AcDbEntity
  8
0
  6
ByLayer
 62
    7
370
   -1
100
AcDbLine
 10
121.8822307198151
 20
97.6017954035427
 11
121.7522671204096
 21
97.68473471667258
  0
LINE
  5
127
100
AcDbEntity
  8
0
  6
ByLayer
 62
    7
370
   -1
100
AcDbLine
 10
121.7522671204096
 20
97.68473471667258
 11
121.6224809247539
 21
97.76793991063758
  0
LINE
  5
128
100
AcDbEntity
  8
0
  6
ByLayer
 62
    7
370
   -1
100
AcDbLine
 10
121.6224809247539
 20
97.76793991063758
 11
121.4929016977932
 21
97.85145530116384
  0
LINE
  5
129
100
AcDbEntity
  8
0
  6
ByLayer
 62
    7
370
   -1
100
AcDbLine
 10
121.4929016977932
 20
97.85145530116384
 11
121.363559004473
 21
97.93532520397768
  0
LINE
  5
12A
100
AcDbEntity
  8
0
  6
ByLayer
 62
    7
370
   -1
100
AcDbLine
 10
121.363559004473
 20
97.93532520397768
 11
121.2344824097386
 21
98.01959393480539
  0
LINE
  5
12B
100
AcDbEntity
  8
0
  6
ByLayer
 62
    7
370
   -1
100
AcDbLine
 10
121.2344824097386
 20
98.01959393480539
 11
121.1057014785354
 21
98.10430580937314
  0
LINE
  5
12C
100
AcDbEntity
  8
0
  6
ByLayer
 62
    7
370
   -1
100
AcDbLine
 10
121.1057014785354
 20
98.10430580937314
 11
120.9772457758087
 21
98.18950514340723
  0
LINE
  5
12D
100
AcDbEntity
  8
0
  6
ByLayer
 62
    7
370
   -1
100
AcDbLine
 10
120.9772457758087
 20
98.18950514340723
 11
120.849144866504
 21
98.27523625263392
  0
LINE
  5
12E
100
AcDbEntity
  8
0
  6
ByLayer
 62
    7
370
   -1
100
AcDbLine
 10
120.849144866504
 20
98.27523625263392
 11
120.7214283155666
 21
98.36154345277946
  0
LINE
  5
12F
100
AcDbEntity
  8
0
  6
ByLayer
 62
    7
370
   -1
100
AcDbLine
 10
120.7214283155666
 20
98.36154345277946
 11
120.5941256879419
 21
98.4484710595701
  0
LINE
  5
130
100
AcDbEntity
  8
0
  6
ByLayer
 62
    7
370
   -1
100
AcDbLine
 10
120.5941256879419
 20
98.4484710595701
 11
120.4672665314551
 21
98.536063353852
  0
LINE
  5
131
100
AcDbEntity
  8
0
  6
ByLayer
 62
    7
370
   -1
100
AcDbLine
 10
120.4672665314551
 20
98.536063353852
 11
120.3408744502211
 21
98.62435250692175
  0
LINE
  5
132
100
AcDbEntity
  8
0
  6
ByLayer
 62
    7
370
   -1
100
AcDbLine
 10
120.3408744502211
 20
98.62435250692175
 11
120.2149584152709
 21
98.71334087703866
  0
LINE
  5
133
100
AcDbEntity
  8
0
  6
ByLayer
 62
    7
370
   -1
100
AcDbLine
 10
120.2149584152709
 20
98.71334087703866
 11
120.0895251859733
 21
98.80302631648384
  0
LINE
  5
134
100
AcDbEntity
  8
0
  6
ByLayer
 62
    7
370
   -1
100
AcDbLine
 10
120.0895251859733
 20
98.80302631648384
 11
119.9645815216976
 21
98.89340667753838
  0
LINE
  5
135
100
AcDbEntity
  8
0
  6
ByLayer
 62
    7
370
   -1
100
AcDbLine
 10
119.9645815216976
 20
98.89340667753838
 11
119.8401341818125
 21
98.98447981248331
  0
LINE
  5
136
100
AcDbEntity
  8
0
  6
ByLayer
 62
    7
370
   -1
100
AcDbLine
 10
119.8401341818125
 20
98.98447981248331
 11
119.7161899256872
 21
99.07624357359975
  0
LINE
  5
137
100
AcDbEntity
  8
0
  6
ByLayer
 62
    7
370
   -1
100
AcDbLine
 10
119.7161899256872
 20
99.07624357359975
 11
119.5927555126906
 21
99.16869581316878
  0
LINE
  5
138
100
AcDbEntity
  8
0
  6
ByLayer
 62
    7
370
   -1
100
AcDbLine
 10
119.5927555126906
 20
99.16869581316878
 11
119.4698377021917
 21
99.26183438347149
  0
LINE
  5
139
100
AcDbEntity
  8
0
  6
ByLayer
 62
    7
370
   -1
100
AcDbLine
 10
119.4698377021917
 20
99.26183438347149
 11
119.3474432535596
 21
99.35565713678901
  0
LINE
  5
13A
100
AcDbEntity
  8
0
  6
ByLayer
 62
    7
370
   -1
100
AcDbLine
 10
119.3474432535596
 20
99.35565713678901
 11
119.2255789261632
 21
99.45016192540238
  0
LINE
  5
13B
100
AcDbEntity
  8
0
  6
ByLayer
 62
    7
370
   -1
100
AcDbLine
 10
119.2255789261632
 20
99.45016192540238
 11
119.1042514793716
 21
99.5453466015927
  0
LINE
  5
13C
100
AcDbEntity
  8
0
  6
ByLayer
 62
    7
370
   -1
100
AcDbLine
 10
119.1042514793716
 20
99.5453466015927
 11
118.9834676725537
 21
99.64120901764102
  0
LINE
  5
13D
100
AcDbEntity
  8
0
  6
ByLayer
 62
    7
370
   -1
100
AcDbLine
 10
118.9834676725537
 20
99.64120901764102
 11
118.8632342650786
 21
99.73774702582848
  0
LINE
  5
13E
100
AcDbEntity
  8
0
  6
ByLayer
 62
    7
370
   -1
100
AcDbLine
 10
118.8632342650786
 20
99.73774702582848
 11
118.7435580163152
 21
99.83495847843614
  0
LINE
  5
13F
100
AcDbEntity
  8
0
  6
ByLayer
 62
    7
370
   -1
100
AcDbLine
 10
118.7435580163152
 20
99.83495847843614
 11
118.6244456856325
 21
99.9328412277451
  0
LINE
  5
140
100
AcDbEntity
  8
0
  6
ByLayer
 62
    7
370
   -1
100
AcDbLine
 10
118.6244456856325
 20
99.9328412277451
 11
118.5059031225242
 21
100.0313922752084
  0
LINE
  5
141
100
AcDbEntity
  8
0
  6
ByLayer
 62
    7
370
   -1
100
AcDbLine
 10
118.5059031225242
 20
100.0313922752084
 11
118.3879152032853
 21
100.1305890101592
  0
LINE
  5
142
100
AcDbEntity
  8
0
  6
ByLayer
 62
    7
370
   -1
100
AcDbLine
 10
118.3879152032853
 20
100.1305890101592
 11
118.2704458053884
 21
100.2303891858502
  0
LINE
  5
143
100
AcDbEntity
  8
0
  6
ByLayer
 62
    7
370
   -1
100
AcDbLine
 10
118.2704458053884
 20
100.2303891858502
 11
118.1534578913066
 21
100.3307496999139
  0
LINE
  5
144
100
AcDbEntity
  8
0
  6
ByLayer
 62
    7
370
   -1
100
AcDbLine
 10
118.1534578913066
 20
100.3307496999139
 11
118.0369144235127
 21
100.4316274499829
  0
LINE
  5
145
100
AcDbEntity
  8
0
  6
ByLayer
 62
    7
370
   -1
100
AcDbLine
 10
118.0369144235127
 20
100.4316274499829
 11
117.9207783644793
 21
100.5329793336897
  0
LINE
  5
146
100
AcDbEntity
  8
0
  6
ByLayer
 62
    7
370
   -1
100
AcDbLine
 10
117.9207783644793
 20
100.5329793336897
 11
117.8050126766794
 21
100.634762248667
  0
LINE
  5
147
100
AcDbEntity
  8
0
  6
ByLayer
 62
    7
370
   -1
100
AcDbLine
 10
117.8050126766794
 20
100.634762248667
 11
117.6895803225858
 21
100.7369330925471
  0
LINE
  5
148
100
AcDbEntity
  8
0
  6
ByLayer
 62
    7
370
   -1
100
AcDbLine
 10
117.6895803225858
 20
100.7369330925471
 11
117.5744442646713
 21
100.8394487629627
  0
LINE
  5
149
100
AcDbEntity
  8
0
  6
ByLayer
 62
    7
370
   -1
100
AcDbLine
 10
117.5744442646713
 20
100.8394487629627
 11
117.4595674654086
 21
100.9422661575464
  0
LINE
  5
14A
100
AcDbEntity
  8
0
  6
ByLayer
 62
    7
370
   -1
100
AcDbLine
 10
117.4595674654086
 20
100.9422661575464
 11
117.3449128872706
 21
101.0453421739306
  0
LINE
  5
14B
100
AcDbEntity
  8
0
  6
ByLayer
 62
    7
370
   -1
100
AcDbLine
 10
117.3449128872706
 20
101.0453421739306
 11
117.2304434927302
 21
101.1486337097481
  0
LINE
  5
14C
100
AcDbEntity
  8
0
  6
ByLayer
 62
    7
370
   -1
100
AcDbLine
 10
117.2304434927302
 20
101.1486337097481
 11
117.1161222442601
 21
101.2520976626311
  0
LINE
  5
14D
100
AcDbEntity
  8
0
  6
ByLayer
 62
    7
370
   -1
100
AcDbLine
 10
117.1161222442601
 20
101.2520976626311
 11
117.0019121043332
 21
101.3556909302124
  0
LINE
  5
14E
100
AcDbEntity
  8
0
  6
ByLayer
 62
    7
370
   -1
100
AcDbLine
 10
117.0019121043332
 20
101.3556909302124
 11
116.8877760354222
 21
101.4593704101245
  0
LINE
  5
14F
100
AcDbEntity
  8
0
  6
ByLayer
 62
    7
370
   -1
100
AcDbLine
 10
116.8877760354222
 20
101.4593704101245
 11
116.773677
 21
101.563093
  0
LINE
  5
150
100
AcDbEntity
  8
0
  6
ByLayer
 62
    7
370
   -1
100
AcDbLine
 10
116.773677
 20
101.563093
 11
116.7166257638544
 21
101.6184548737452
  0
LINE
  5
151
100
AcDbEntity
  8
0
  6
ByLayer
 62
    7
370
   -1
100
AcDbLine
 10
116.7166257638544
 20
101.6184548737452
 11
116.6595857571828
 21
101.6738279458825
  0
LINE
  5
152
100
AcDbEntity
  8
0
  6
ByLayer
 62
    7
370
   -1
100
AcDbLine
 10
116.6595857571828
 20
101.6738279458825
 11
116.6025682279557
 21
101.7292234130271
  0
LINE
  5
153
100
AcDbEntity
  8
0
  6
ByLayer
 62
    7
370
   -1
100
AcDbLine
 10
116.6025682279557
 20
101.7292234130271
 11
116.5455844241436
 21
101.7846524717941
  0
LINE
  5
154
100
AcDbEntity
  8
0
  6
ByLayer
 62
    7
370
   -1
100
AcDbLine
 10
116.5455844241436
 20
101.7846524717941
 11
116.4886455937169
 21
101.8401263187987
  0
LINE
  5
155
100
AcDbEntity
  8
0
  6
ByLayer
 62
    7
370
   -1
100
AcDbLine
 10
116.4886455937169
 20
101.8401263187987
 11
116.431762984646
 21
101.8956561506561
  0
LINE
  5
156
100
AcDbEntity
  8
0
  6
ByLayer
 62
    7
370
   -1
100
AcDbLine
 10
116.431762984646
 20
101.8956561506561
 11
116.3749478449014
 21
101.9512531639814
  0
LINE
  5
157
100
AcDbEntity
  8
0
  6
ByLayer
 62
    7
370
   -1
100
AcDbLine
 10
116.3749478449014
 20
101.9512531639814
 11
116.3182114224537
 21
102.0069285553899
  0
LINE
  5
158
100
AcDbEntity
  8
0
  6
ByLayer
 62
    7
370
   -1
100
AcDbLine
 10
116.3182114224537
 20
102.0069285553899
 11
116.2615649652732
 21
102.0626935214967
  0
LINE
  5
159
100
AcDbEntity
  8
0
  6
ByLayer
 62
    7
370
   -1
100
AcDbLine
 10
116.2615649652732
 20
102.0626935214967
 11
116.2050197213304
 21
102.1185592589169
  0
LINE
  5
15A
100
AcDbEntity
  8
0
  6
ByLayer
 62
    7
370
   -1
100
AcDbLine
 10
116.2050197213304
 20
102.1185592589169
 11
116.1485869385958
 21
102.1745369642658
  0
LINE
  5
15B
100
AcDbEntity
  8
0
  6
ByLayer
 62
    7
370
   -1
100
AcDbLine
 10
116.1485869385958
 20
102.1745369642658
 11
116.0922778650399
 21
102.2306378341586
  0
LINE
  5
15C
100
AcDbEntity
  8
0
  6
ByLayer
 62
    7
370
   -1
100
AcDbLine
 10
116.0922778650399
 20
102.2306378341586
 11
116.036103748633
 21
102.2868730652103
  0
LINE
  5
15D
100
AcDbEntity
  8
0
  6
ByLayer
 62
    7
370
   -1
100
AcDbLine
 10
116.036103748633
 20
102.2868730652103
 11
115.9800758373458
 21
102.3432538540362
  0
LINE
  5
15E
100
AcDbEntity
  8
0
  6
ByLayer
 62
    7
370
   -1
100
AcDbLine
 10
115.9800758373458
 20
102.3432538540362
 11
115.9242053791485
 21
102.3997913972514
  0
LINE
  5
15F
100
AcDbEntity
  8
0
  6
ByLayer
 62
    7
370
   -1
100
AcDbLine
 10
115.9242053791485
 20
102.3997913972514
 11
115.8685036079864
 21
102.4564968761338
  0
LINE
  5
160
100
AcDbEntity
  8
0
  6
ByLayer
 62
    7
370
   -1
100
AcDbLine
 10
115.8685036079864
 20
102.4564968761338
 11
115.8129783362211
 21
102.5133777303256
  0
LINE
  5
161
100
AcDbEntity
  8
0
  6
ByLayer
 62
    7
370
   -1
100
AcDbLine
 10
115.8129783362211
 20
102.5133777303256
 11
115.7576295093998
 21
102.570432796798
  0
LINE
  5
162
100
AcDbEntity
  8
0
  6
ByLayer
 62
    7
370
   -1
100
AcDbLine
 10
115.7576295093998
 20
102.570432796798
 11
115.702455971596
 21
102.6276597080179
  0
LINE
  5
163
100
AcDbEntity
  8
0
  6
ByLayer
 62
    7
370
   -1
100
AcDbLine
 10
115.702455971596
 20
102.6276597080179
 11
115.6474565668832
 21
102.6850560964519
  0
LINE
  5
164
100
AcDbEntity
  8
0
  6
ByLayer
 62
    7
370
   -1
100
AcDbLine
 10
115.6474565668832
 20
102.6850560964519
 11
115.5926301393349
 21
102.7426195945667
  0
LINE
  5
165
100
AcDbEntity
  8
0
  6
ByLayer
 62
    7
370
   -1
100
AcDbLine
 10
115.5926301393349
 20
102.7426195945667
 11
115.5379755330247
 21
102.8003478348292
  0
LINE
  5
166
100
AcDbEntity
  8
0
  6
ByLayer
 62
    7
370
   -1
100
AcDbLine
 10
115.5379755330247
 20
102.8003478348292
 11
115.483491592026
 21
102.8582384497059
  0
LINE
  5
167
100
AcDbEntity
  8
0
  6
ByLayer
 62
    7
370
   -1
100
AcDbLine
 10
115.483491592026
 20
102.8582384497059
 11
115.4291771604124
 21
102.9162890716636
  0
LINE
  5
168
100
AcDbEntity
  8
0
  6
ByLayer
 62
    7
370
   -1
100
AcDbLine
 10
115.4291771604124
 20
102.9162890716636
 11
115.3750310822574
 21
102.974497333169
  0
LINE
  5
169
100
AcDbEntity
  8
0
  6
ByLayer
 62
    7
370
   -1
100
AcDbLine
 10
115.3750310822574
 20
102.974497333169
 11
115.3210522016344
 21
103.0328608666889
  0
LINE
  5
16A
100
AcDbEntity
  8
0
  6
ByLayer
 62
    7
370
   -1
100
AcDbLine
 10
115.3210522016344
 20
103.0328608666889
 11
115.2672393626171
 21
103.0913773046899
  0
LINE
  5
16B
100
AcDbEntity
  8
0
  6
ByLayer
 62
    7
370
   -1
100
AcDbLine
 10
115.2672393626171
 20
103.0913773046899
 11
115.2135914092789
 21
103.1500442796389
  0
LINE
  5
16C
100
AcDbEntity
  8
0
  6
ByLayer
 62
    7
370
   -1
100
AcDbLine
 10
115.2135914092789
 20
103.1500442796389
 11
115.1601071856933
 21
103.2088594240024
  0
LINE
  5
16D
100
AcDbEntity
  8
0
  6
ByLayer
 62
    7
370
   -1
100
AcDbLine
 10
115.1601071856933
 20
103.2088594240024
 11
115.1067855359339
 21
103.2678203702472
  0
LINE
  5
16E
100
AcDbEntity
  8
0
  6
ByLayer
 62
    7
370
   -1
100
AcDbLine
 10
115.1067855359339
 20
103.2678203702472
 11
115.0536253040742
 21
103.3269247508401
  0
LINE
  5
16F
100
AcDbEntity
  8
0
  6
ByLayer
 62
    7
370
   -1
100
AcDbLine
 10
115.0536253040742
 20
103.3269247508401
 11
115.0006251166977
 21
103.3861700399117
  0
LINE
  5
170
100
AcDbEntity
  8
0
  6
ByLayer
 62
    7
370
   -1
100
AcDbLine
 10
115.0006251166977
 20
103.3861700399117
 11
114.9477790960939
 21
103.4455504323967
  0
LINE
  5
171
100
AcDbEntity
  8
0
  6
ByLayer
 62
    7
370
   -1
100
AcDbLine
 10
114.9477790960939
 20
103.4455504323967
 11
114.895077120681
 21
103.5050570336258
  0
LINE
  5
172
100
AcDbEntity
  8
0
  6
ByLayer
 62
    7
370
   -1
100
AcDbLine
 10
114.895077120681
 20
103.5050570336258
 11
114.8425089035301
 21
103.5646808285544
  0
LINE
  5
173
100
AcDbEntity
  8
0
  6
ByLayer
 62
    7
370
   -1
100
AcDbLine
 10
114.8425089035301
 20
103.5646808285544
 11
114.7900641577122
 21
103.6244128021378
  0
LINE
  5
174
100
AcDbEntity
  8
0
  6
ByLayer
 62
    7
370
   -1
100
AcDbLine
 10
114.7900641577122
 20
103.6244128021378
 11
114.7377325962983
 21
103.6842439393313
  0
LINE
  5
175
100
AcDbEntity
  8
0
  6
ByLayer
 62
    7
370
   -1
100
AcDbLine
 10
114.7377325962983
 20
103.6842439393313
 11
114.6855039323593
 21
103.7441652250904
  0
LINE
  5
176
100
AcDbEntity
  8
0
  6
ByLayer
 62
    7
370
   -1
100
AcDbLine
 10
114.6855039323593
 20
103.7441652250904
 11
114.6333678789664
 21
103.8041676443703
  0
LINE
  5
177
100
AcDbEntity
  8
0
  6
ByLayer
 62
    7
370
   -1
100
AcDbLine
 10
114.6333678789664
 20
103.8041676443703
 11
114.5813141491905
 21
103.8642421821263
  0
LINE
  5
178
100
AcDbEntity
  8
0
  6
ByLayer
 62
    7
370
   -1
100
AcDbLine
 10
114.5813141491905
 20
103.8642421821263
 11
114.5293324561026
 21
103.9243798233139
  0
LINE
  5
179
100
AcDbEntity
  8
0
  6
ByLayer
 62
    7
370
   -1
100
AcDbLine
 10
114.5293324561026
 20
103.9243798233139
 11
114.4774125127737
 21
103.9845715528883
  0
LINE
  5
17A
100
AcDbEntity
  8
0
  6
ByLayer
 62
    7
370
   -1
100
AcDbLine
 10
114.4774125127737
 20
103.9845715528883
 11
114.4255440322748
 21
104.0448083558049
  0
LINE
  5
17B
100
AcDbEntity
  8
0
  6
ByLayer
 62
    7
370
   -1
100
AcDbLine
 10
114.4255440322748
 20
104.0448083558049
 11
114.373716727677
 21
104.105081217019
  0
LINE
  5
17C
100
AcDbEntity
  8
0
  6
ByLayer
 62
    7
370
   -1
100
AcDbLine
 10
114.373716727677
 20
104.105081217019
 11
114.3219203120513
 21
104.165381121486
  0
LINE
  5
17D
100
AcDbEntity
  8
0
  6
ByLayer
 62
    7
370
   -1
100
AcDbLine
 10
114.3219203120513
 20
104.165381121486
 11
114.2701444984686
 21
104.2256990541612
  0
LINE
  5
17E
100
AcDbEntity
  8
0
  6
ByLayer
 62
    7
370
   -1
100
AcDbLine
 10
114.2701444984686
 20
104.2256990541612
 11
114.218379
 21
104.286026
  0
LINE
  5
17F
100
AcDbEntity
  8
0
  6
ByLayer
 62
    7
370
   -1
100
AcDbLine
 10
114.218379
 20
104.286026
 11
114.1808552004826
 21
104.337442834262
  0
LINE
  5
180
100
AcDbEntity
  8
0
  6
ByLayer
 62
    7
370
   -1
100
AcDbLine
 10
114.1808552004826
 20
104.337442834262
 11
114.1433379530995
 21
104.3888642830337
  0
LINE
  5
181
100
AcDbEntity
  8
0
  6
ByLayer
 62
    7
370
   -1
100
AcDbLine
 10
114.1433379530995
 20
104.3888642830337
 11
114.1058338102765
 21
104.4402949813253
  0
LINE
  5
182
100
AcDbEntity
  8
0
  6
ByLayer
 62
    7
370
   -1
100
AcDbLine
 10
114.1058338102765
 20
104.4402949813253
 11
114.0683493244393
 21
104.4917395641472
  0
LINE
  5
183
100
AcDbEntity
  8
0
  6
ByLayer
 62
    7
370
   -1
100
AcDbLine
 10
114.0683493244393
 20
104.4917395641472
 11
114.0308910480139
 21
104.5432026665096
  0
LINE
  5
184
100
AcDbEntity
  8
0
  6
ByLayer
 62
    7
370
   -1
100
AcDbLine
 10
114.0308910480139
 20
104.5432026665096
 11
113.9934655334259
 21
104.5946889234229
  0
LINE
  5
185
100
AcDbEntity
  8
0
  6
ByLayer
 62
    7
370
   -1
100
AcDbLine
 10
113.9934655334259
 20
104.5946889234229
 11
113.9560793331013
 21
104.6462029698973
  0
LINE
  5
186
100
AcDbEntity
  8
0
  6
ByLayer
 62
    7
370
   -1
100
AcDbLine
 10
113.9560793331013
 20
104.6462029698973
 11
113.9187389994657
 21
104.6977494409432
  0
LINE
  5
187
100
AcDbEntity
  8
0
  6
ByLayer
 62
    7
370
   -1
100
AcDbLine
 10
113.9187389994657
 20
104.6977494409432
 11
113.881451084945
 21
104.7493329715707
  0
LINE
  5
188
100
AcDbEntity
  8
0
  6
ByLayer
 62
    7
370
   -1
100
AcDbLine
 10
113.881451084945
 20
104.7493329715707
 11
113.844222141965
 21
104.8009581967903
  0
LINE
  5
189
100
AcDbEntity
  8
0
  6
ByLayer
 62
    7
370
   -1
100
AcDbLine
 10
113.844222141965
 20
104.8009581967903
 11
113.8070587229516
 21
104.8526297516121
  0
LINE
  5
18A
100
AcDbEntity
  8
0
  6
ByLayer
 62
    7
370
   -1
100
AcDbLine
 10
113.8070587229516
 20
104.8526297516121
 11
113.7699673803304
 21
104.9043522710466
  0
LINE
  5
18B
100
AcDbEntity
  8
0
  6
ByLayer
 62
    7
370
   -1
100
AcDbLine
 10
113.7699673803304
 20
104.9043522710466
 11
113.7329546665274
 21
104.9561303901039
  0
LINE
  5
18C
100
AcDbEntity
  8
0
  6
ByLayer
 62
    7
370
   -1
100
AcDbLine
 10
113.7329546665274
 20
104.9561303901039
 11
113.6960271339683
 21
105.0079687437944
  0
LINE
  5
18D
100
AcDbEntity
  8
0
  6
ByLayer
 62
    7
370
   -1
100
AcDbLine
 10
113.6960271339683
 20
105.0079687437944
 11
113.659191335079
 21
105.0598719671283
  0
LINE
  5
18E
100
AcDbEntity
  8
0
  6
ByLayer
 62
    7
370
   -1
100
AcDbLine
 10
113.659191335079
 20
105.0598719671283
 11
113.6224521090259
 21
105.111843484675
  0
LINE
  5
18F
100
AcDbEntity
  8
0
  6
ByLayer
 62
    7
370
   -1
100
AcDbLine
 10
113.6224521090259
 20
105.111843484675
 11
113.5858052211645
 21
105.1638803102323
  0
LINE
  5
190
100
AcDbEntity
  8
0
  6
ByLayer
 62
    7
370
   -1
100
AcDbLine
 10
113.5858052211645
 20
105.1638803102323
 11
113.5492434442123
 21
105.2159773432585
  0
LINE
  5
191
100
AcDbEntity
  8
0
  6
ByLayer
 62
    7
370
   -1
100
AcDbLine
 10
113.5492434442123
 20
105.2159773432585
 11
113.512759549033
 21
105.2681294819024
  0
LINE
  5
192
100
AcDbEntity
  8
0
  6
ByLayer
 62
    7
370
   -1
100
AcDbLine
 10
113.512759549033
 20
105.2681294819024
 11
113.4763463064906
 21
105.3203316243128
  0
LINE
  5
193
100
AcDbEntity
  8
0
  6
ByLayer
 62
    7
370
   -1
100
AcDbLine
 10
113.4763463064906
 20
105.3203316243128
 11
113.439996487449
 21
105.3725786686385
  0
LINE
  5
194
100
AcDbEntity
  8
0
  6
ByLayer
 62
    7
370
   -1
100
AcDbLine
 10
113.439996487449
 20
105.3725786686385
 11
113.4037028627721
 21
105.4248655130282
  0
LINE
  5
195
100
AcDbEntity
  8
0
  6
ByLayer
 62
    7
370
   -1
100
AcDbLine
 10
113.4037028627721
 20
105.4248655130282
 11
113.3674582033237
 21
105.4771870556308
  0
LINE
  5
196
100
AcDbEntity
  8
0
  6
ByLayer
 62
    7
370
   -1
100
AcDbLine
 10
113.3674582033237
 20
105.4771870556308
 11
113.3312552799679
 21
105.5295381945949
  0
LINE
  5
197
100
AcDbEntity
  8
0
  6
ByLayer
 62
    7
370
   -1
100
AcDbLine
 10
113.3312552799679
 20
105.5295381945949
 11
113.2950868635684
 21
105.5819138280695
  0
LINE
  5
198
100
AcDbEntity
  8
0
  6
ByLayer
 62
    7
370
   -1
100
AcDbLine
 10
113.2950868635684
 20
105.5819138280695
 11
113.2589457249891
 21
105.6343088542032
  0
LINE
  5
199
100
AcDbEntity
  8
0
  6
ByLayer
 62
    7
370
   -1
100
AcDbLine
 10
113.2589457249891
 20
105.6343088542032
 11
113.222824635094
 21
105.6867181711449
  0
LINE
  5
19A
100
AcDbEntity
  8
0
  6
ByLayer
 62
    7
370
   -1
100
AcDbLine
 10
113.222824635094
 20
105.6867181711449
 11
113.186716364747
 21
105.7391366770433
  0
LINE
  5
19B
100
AcDbEntity
  8
0
  6
ByLayer
 62
    7
370
   -1
100
AcDbLine
 10
113.186716364747
 20
105.7391366770433
 11
113.1506136848118
 21
105.7915592700472
  0
LINE
  5
19C
100
AcDbEntity
  8
0
  6
ByLayer
 62
    7
370
   -1
100
AcDbLine
 10
113.1506136848118
 20
105.7915592700472
 11
113.1145093661525
 21
105.8439808483054
  0
LINE
  5
19D
100
AcDbEntity
  8
0
  6
ByLayer
 62
    7
370
   -1
100
AcDbLine
 10
113.1145093661525
 20
105.8439808483054
 11
113.0783961796328
 21
105.8963963099667
  0
LINE
  5
19E
100
AcDbEntity
  8
0
  6
ByLayer
 62
    7
370
   -1
100
AcDbLine
 10
113.0783961796328
 20
105.8963963099667
 11
113.0422668961168
 21
105.9488005531798
  0
LINE
  5
19F
100
AcDbEntity
  8
0
  6
ByLayer
 62
    7
370
   -1
100
AcDbLine
 10
113.0422668961168
 20
105.9488005531798
 11
113.0061142864683
 21
106.0011884760935
  0
LINE
  5
1A0
100
AcDbEntity
  8
0
  6
ByLayer
 62
    7
370
   -1
100
AcDbLine
 10
113.0061142864683
 20
106.0011884760935
 11
112.9699311215512
 21
106.0535549768566
  0
LINE
  5
1A1
100
AcDbEntity
  8
0
  6
ByLayer
 62
    7
370
   -1
100
AcDbLine
 10
112.9699311215512
 20
106.0535549768566
 11
112.9337101722293
 21
106.1058949536179
  0
LINE
  5
1A2
100
AcDbEntity
  8
0
  6
ByLayer
 62
    7
370
   -1
100
AcDbLine
 10
112.9337101722293
 20
106.1058949536179
 11
112.8974442093666
 21
106.1582033045262
  0
LINE
  5
1A3
100
AcDbEntity
  8
0
  6
ByLayer
 62
    7
370
   -1
100
AcDbLine
 10
112.8974442093666
 20
106.1582033045262
 11
112.8611269478972
 21
106.2104755930631
  0
LINE
  5
1A4
100
AcDbEntity
  8
0
  6
ByLayer
 62
    7
370
   -1
100
AcDbLine
 10
112.8611269478972
 20
106.2104755930631
 11
112.8247597001373
 21
106.2627127369601
  0
LINE
  5
1A5
100
AcDbEntity
  8
0
  6
ByLayer
 62
    7
370
   -1
100
AcDbLine
 10
112.8247597001373
 20
106.2627127369601
 11
112.7883474423252
 21
106.3149182360953
  0
LINE
  5
1A6
100
AcDbEntity
  8
0
  6
ByLayer
 62
    7
370
   -1
100
AcDbLine
 10
112.7883474423252
 20
106.3149182360953
 11
112.7518951743114
 21
106.3670956069874
  0
LINE
  5
1A7
100
AcDbEntity
  8
0
  6
ByLayer
 62
    7
370
   -1
100
AcDbLine
 10
112.7518951743114
 20
106.3670956069874
 11
112.7154078959463
 21
106.4192483661553
  0
LINE
  5
1A8
100
AcDbEntity
  8
0
  6
ByLayer
 62
    7
370
   -1
100
AcDbLine
 10
112.7154078959463
 20
106.4192483661553
 11
112.6788906070802
 21
106.4713800301175
  0
LINE
  5
1A9
100
AcDbEntity
  8
0
  6
ByLayer
 62
    7
370
   -1
100
AcDbLine
 10
112.6788906070802
 20
106.4713800301175
 11
112.6423483075637
 21
106.5234941153929
  0
LINE
  5
1AA
100
AcDbEntity
  8
0
  6
ByLayer
 62
    7
370
   -1
100
AcDbLine
 10
112.6423483075637
 20
106.5234941153929
 11
112.605785997247
 21
106.5755941385002
  0
LINE
  5
1AB
100
AcDbEntity
  8
0
  6
ByLayer
 62
    7
370
   -1
100
AcDbLine
 10
112.605785997247
 20
106.5755941385002
 11
112.5692086759805
 21
106.6276836159579
  0
LINE
  5
1AC
100
AcDbEntity
  8
0
  6
ByLayer
 62
    7
370
   -1
100
AcDbLine
 10
112.5692086759805
 20
106.6276836159579
 11
112.5326213436147
 21
106.679766064285
  0
LINE
  5
1AD
100
AcDbEntity
  8
0
  6
ByLayer
 62
    7
370
   -1
100
AcDbLine
 10
112.5326213436147
 20
106.679766064285
 11
112.496029
 21
106.731845
  0
LINE
  5
1AE
100
AcDbEntity
  8
0
  6
ByLayer
 62
    7
370
   -1
100
AcDbLine
 10
112.496029
 20
106.731845
 11
112.488567467555
 21
106.7444348518575
  0
LINE
  5
1AF
100
AcDbEntity
  8
0
  6
ByLayer
 62
    7
370
   -1
100
AcDbLine
 10
112.488567467555
 20
106.7444348518575
 11
112.4811053490062
 21
106.7570243326823
  0
LINE
  5
1B0
100
AcDbEntity
  8
0
  6
ByLayer
 62
    7
370
   -1
100
AcDbLine
 10
112.4811053490062
 20
106.7570243326823
 11
112.4736420562702
 21
106.7696130918029
  0
LINE
  5
1B1
100
AcDbEntity
  8
0
  6
ByLayer
 62
    7
370
   -1
100
AcDbLine
 10
112.4736420562702
 20
106.7696130918029
 11
112.4661770012637
 21
106.7822007785479
  0
LINE
  5
1B2
100
AcDbEntity
  8
0
  6
ByLayer
 62
    7
370
   -1
100
AcDbLine
 10
112.4661770012637
 20
106.7822007785479
 11
112.4587095959034
 21
106.7947870422457
  0
LINE
  5
1B3
100
AcDbEntity
  8
0
  6
ByLayer
 62
    7
370
   -1
100
AcDbLine
 10
112.4587095959034
 20
106.7947870422457
 11
112.4512392521059
 21
106.8073715322248
  0
LINE
  5
1B4
100
AcDbEntity
  8
0
  6
ByLayer
 62
    7
370
   -1
100
AcDbLine
 10
112.4512392521059
 20
106.8073715322248
 11
112.4437653817879
 21
106.8199538978137
  0
LINE
  5
1B5
100
AcDbEntity
  8
0
  6
ByLayer
 62
    7
370
   -1
100
AcDbLine
 10
112.4437653817879
 20
106.8199538978137
 11
112.436287396866
 21
106.8325337883409
  0
LINE
  5
1B6
100
AcDbEntity
  8
0
  6
ByLayer
 62
    7
370
   -1
100
AcDbLine
 10
112.436287396866
 20
106.8325337883409
 11
112.4288047092569
 21
106.8451108531349
  0
LINE
  5
1B7
100
AcDbEntity
  8
0
  6
ByLayer
 62
    7
370
   -1
100
AcDbLine
 10
112.4288047092569
 20
106.8451108531349
 11
112.4213167308773
 21
106.8576847415241
  0
LINE
  5
1B8
100
AcDbEntity
  8
0
  6
ByLayer
 62
    7
370
   -1
100
AcDbLine
 10
112.4213167308773
 20
106.8576847415241
 11
112.4138228736439
 21
106.8702551028371
  0
LINE
  5
1B9
100
AcDbEntity
  8
0
  6
ByLayer
 62
    7
370
   -1
100
AcDbLine
 10
112.4138228736439
 20
106.8702551028371
 11
112.4063225494732
 21
106.8828215864023
  0
LINE
  5
1BA
100
AcDbEntity
  8
0
  6
ByLayer
 62
    7
370
   -1
100
AcDbLine
 10
112.4063225494732
 20
106.8828215864023
 11
112.398815170282
 21
106.8953838415482
  0
LINE
  5
1BB
100
AcDbEntity
  8
0
  6
ByLayer
 62
    7
370
   -1
100
AcDbLine
 10
112.398815170282
 20
106.8953838415482
 11
112.3913001479869
 21
106.9079415176034
  0
LINE
  5
1BC
100
AcDbEntity
  8
0
  6
ByLayer
 62
    7
370
   -1
100
AcDbLine
 10
112.3913001479869
 20
106.9079415176034
 11
112.3837768945045
 21
106.9204942638962
  0
LINE
  5
1BD
100
AcDbEntity
  8
0
  6
ByLayer
 62
    7
370
   -1
100
AcDbLine
 10
112.3837768945045
 20
106.9204942638962
 11
112.376244843643
 21
106.933041742842
  0
LINE
  5
1BE
100
AcDbEntity
  8
0
  6
ByLayer
 62
    7
370
   -1
100
AcDbLine
 10
112.376244843643
 20
106.933041742842
 11
112.3687041779824
 21
106.9455840644762
  0
LINE
  5
1BF
100
AcDbEntity
  8
0
  6
ByLayer
 62
    7
370
   -1
100
AcDbLine
 10
112.3687041779824
 20
106.9455840644762
 11
112.3611559974473
 21
106.9581218872274
  0
LINE
  5
1C0
100
AcDbEntity
  8
0
  6
ByLayer
 62
    7
370
   -1
100
AcDbLine
 10
112.3611559974473
 20
106.9581218872274
 11
112.3536014580044
 21
106.9706559030268
  0
LINE
  5
1C1
100
AcDbEntity
  8
0
  6
ByLayer
 62
    7
370
   -1
100
AcDbLine
 10
112.3536014580044
 20
106.9706559030268
 11
112.3460417156201
 21
106.9831868038054
  0
LINE
  5
1C2
100
AcDbEntity
  8
0
  6
ByLayer
 62
    7
370
   -1
100
AcDbLine
 10
112.3460417156201
 20
106.9831868038054
 11
112.338477926261
 21
106.9957152814942
  0
LINE
  5
1C3
100
AcDbEntity
  8
0
  6
ByLayer
 62
    7
370
   -1
100
AcDbLine
 10
112.338477926261
 20
106.9957152814942
 11
112.3309112458938
 21
107.0082420280242
  0
LINE
  5
1C4
100
AcDbEntity
  8
0
  6
ByLayer
 62
    7
370
   -1
100
AcDbLine
 10
112.3309112458938
 20
107.0082420280242
 11
112.3233428304848
 21
107.0207677353265
  0
LINE
  5
1C5
100
AcDbEntity
  8
0
  6
ByLayer
 62
    7
370
   -1
100
AcDbLine
 10
112.3233428304848
 20
107.0207677353265
 11
112.3157738360007
 21
107.033293095332
  0
LINE
  5
1C6
100
AcDbEntity
  8
0
  6
ByLayer
 62
    7
370
   -1
100
AcDbLine
 10
112.3157738360007
 20
107.033293095332
 11
112.3082054184081
 21
107.0458187999719
  0
LINE
  5
1C7
100
AcDbEntity
  8
0
  6
ByLayer
 62
    7
370
   -1
100
AcDbLine
 10
112.3082054184081
 20
107.0458187999719
 11
112.3006387336736
 21
107.0583455411771
  0
LINE
  5
1C8
100
AcDbEntity
  8
0
  6
ByLayer
 62
    7
370
   -1
100
AcDbLine
 10
112.3006387336736
 20
107.0583455411771
 11
112.2930749377636
 21
107.0708740108788
  0
LINE
  5
1C9
100
AcDbEntity
  8
0
  6
ByLayer
 62
    7
370
   -1
100
AcDbLine
 10
112.2930749377636
 20
107.0708740108788
 11
112.2855151866448
 21
107.0834049010078
  0
LINE
  5
1CA
100
AcDbEntity
  8
0
  6
ByLayer
 62
    7
370
   -1
100
AcDbLine
 10
112.2855151866448
 20
107.0834049010078
 11
112.2779606362836
 21
107.0959389034953
  0
LINE
  5
1CB
100
AcDbEntity
  8
0
  6
ByLayer
 62
    7
370
   -1
100
AcDbLine
 10
112.2779606362836
 20
107.0959389034953
 11
112.2704124426468
 21
107.1084767102722
  0
LINE
  5
1CC
100
AcDbEntity
  8
0
  6
ByLayer
 62
    7
370
   -1
100
AcDbLine
 10
112.2704124426468
 20
107.1084767102722
 11
112.2628717617008
 21
107.1210190132696
  0
LINE
  5
1CD
100
AcDbEntity
  8
0
  6
ByLayer
 62
    7
370
   -1
100
AcDbLine
 10
112.2628717617008
 20
107.1210190132696
 11
112.2553396934562
 21
107.1335664709344
  0
LINE
  5
1CE
100
AcDbEntity
  8
0
  6
ByLayer
 62
    7
370
   -1
100
AcDbLine
 10
112.2553396934562
 20
107.1335664709344
 11
112.247816421474
 21
107.1461191933076
  0
LINE
  5
1CF
100
AcDbEntity
  8
0
  6
ByLayer
 62
    7
370
   -1
100
AcDbLine
 10
112.247816421474
 20
107.1461191933076
 11
112.2403013810057
 21
107.1586768426399
  0
LINE
  5
1D0
100
AcDbEntity
  8
0
  6
ByLayer
 62
    7
370
   -1
100
AcDbLine
 10
112.2403013810057
 20
107.1586768426399
 11
112.2327939854079
 21
107.1712390680803
  0
LINE
  5
1D1
100
AcDbEntity
  8
0
  6
ByLayer
 62
    7
370
   -1
100
AcDbLine
 10
112.2327939854079
 20
107.1712390680803
 11
112.2252936480375
 21
107.1838055187776
  0
LINE
  5
1D2
100
AcDbEntity
  8
0
  6
ByLayer
 62
    7
370
   -1
100
AcDbLine
 10
112.2252936480375
 20
107.1838055187776
 11
112.2177997822511
 21
107.1963758438809
  0
LINE
  5
1D3
100
AcDbEntity
  8
0
  6
ByLayer
 62
    7
370
   -1
100
AcDbLine
 10
112.2177997822511
 20
107.1963758438809
 11
112.2103118014056
 21
107.2089496925389
  0
LINE
  5
1D4
100
AcDbEntity
  8
0
  6
ByLayer
 62
    7
370
   -1
100
AcDbLine
 10
112.2103118014056
 20
107.2089496925389
 11
112.2028291188577
 21
107.2215267139007
  0
LINE
  5
1D5
100
AcDbEntity
  8
0
  6
ByLayer
 62
    7
370
   -1
100
AcDbLine
 10
112.2028291188577
 20
107.2215267139007
 11
112.1953511479642
 21
107.2341065571151
  0
LINE
  5
1D6
100
AcDbEntity
  8
0
  6
ByLayer
 62
    7
370
   -1
100
AcDbLine
 10
112.1953511479642
 20
107.2341065571151
 11
112.1878773020817
 21
107.2466888713311
  0
LINE
  5
1D7
100
AcDbEntity
  8
0
  6
ByLayer
 62
    7
370
   -1
100
AcDbLine
 10
112.1878773020817
 20
107.2466888713311
 11
112.1804069945673
 21
107.2592733056976
  0
LINE
  5
1D8
100
AcDbEntity
  8
0
  6
ByLayer
 62
    7
370
   -1
100
AcDbLine
 10
112.1804069945673
 20
107.2592733056976
 11
112.1729396387774
 21
107.2718595093635
  0
LINE
  5
1D9
100
AcDbEntity
  8
0
  6
ByLayer
 62
    7
370
   -1
100
AcDbLine
 10
112.1729396387774
 20
107.2718595093635
 11
112.165474648069
 21
107.2844471314778
  0
LINE
  5
1DA
100
AcDbEntity
  8
0
  6
ByLayer
 62
    7
370
   -1
100
AcDbLine
 10
112.165474648069
 20
107.2844471314778
 11
112.1580114357988
 21
107.2970358211894
  0
LINE
  5
1DB
100
AcDbEntity
  8
0
  6
ByLayer
 62
    7
370
   -1
100
AcDbLine
 10
112.1580114357988
 20
107.2970358211894
 11
112.1505494153235
 21
107.3096252276471
  0
LINE
  5
1DC
100
AcDbEntity
  8
0
  6
ByLayer
 62
    7
370
   -1
100
AcDbLine
 10
112.1505494153235
 20
107.3096252276471
 11
112.143088
 21
107.322215
  0
LINE
  5
1DD
100
AcDbEntity
  8
0
  6
ByLayer
 62
    7
370
   -1
100
AcDbLine
 10
112.143088
 20
107.322215
 11
112.1846260193488
 21
107.3323823246374
  0
LINE
  5
1DE
100
AcDbEntity
  8
0
  6
ByLayer
 62
    7
370
   -1
100
AcDbLine
 10
112.1846260193488
 20
107.3323823246374
 11
112.2261635911833
 21
107.3425514875519
  0
LINE
  5
1DF
100
AcDbEntity
  8
0
  6
ByLayer
 62
    7
370
   -1
100
AcDbLine
 10
112.2261635911833
 20
107.3425514875519
 11
112.2677002542945
 21
107.3527243302237
  0
LINE
  5
1E0
100
AcDbEntity
  8
0
  6
ByLayer
 62
    7
370
   -1
100
AcDbLine
 10
112.2677002542945
 20
107.3527243302237
 11
112.3092355474736
 21
107.3629026941328
  0
LINE
  5
1E1
100
AcDbEntity
  8
0
  6
ByLayer
 62
    7
370
   -1
100
AcDbLine
 10
112.3092355474736
 20
107.3629026941328
 11
112.3507690095118
 21
107.3730884207596
  0
LINE
  5
1E2
100
AcDbEntity
  8
0
  6
ByLayer
 62
    7
370
   -1
100
AcDbLine
 10
112.3507690095118
 20
107.3730884207596
 11
112.3923001792001
 21
107.3832833515841
  0
LINE
  5
1E3
100
AcDbEntity
  8
0
  6
ByLayer
 62
    7
370
   -1
100
AcDbLine
 10
112.3923001792001
 20
107.3832833515841
 11
112.4338285953296
 21
107.3934893280866
  0
LINE
  5
1E4
100
AcDbEntity
  8
0
  6
ByLayer
 62
    7
370
   -1
100
AcDbLine
 10
112.4338285953296
 20
107.3934893280866
 11
112.4753537966915
 21
107.4037081917472
  0
LINE
  5
1E5
100
AcDbEntity
  8
0
  6
ByLayer
 62
    7
370
   -1
100
AcDbLine
 10
112.4753537966915
 20
107.4037081917472
 11
112.516875322077
 21
107.4139417840461
  0
LINE
  5
1E6
100
AcDbEntity
  8
0
  6
ByLayer
 62
    7
370
   -1
100
AcDbLine
 10
112.516875322077
 20
107.4139417840461
 11
112.5583927102769
 21
107.4241919464635
  0
LINE
  5
1E7
100
AcDbEntity
  8
0
  6
ByLayer
 62
    7
370
   -1
100
AcDbLine
 10
112.5583927102769
 20
107.4241919464635
 11
112.5999055000827
 21
107.4344605204795
  0
LINE
  5
1E8
100
AcDbEntity
  8
0
  6
ByLayer
 62
    7
370
   -1
100
AcDbLine
 10
112.5999055000827
 20
107.4344605204795
 11
112.6414132302852
 21
107.4447493475743
  0
LINE
  5
1E9
100
AcDbEntity
  8
0
  6
ByLayer
 62
    7
370
   -1
100
AcDbLine
 10
112.6414132302852
 20
107.4447493475743
 11
112.6829154396757
 21
107.4550602692282
  0
LINE
  5
1EA
100
AcDbEntity
  8
0
  6
ByLayer
 62
    7
370
   -1
100
AcDbLine
 10
112.6829154396757
 20
107.4550602692282
 11
112.7244116670453
 21
107.4653951269212
  0
LINE
  5
1EB
100
AcDbEntity
  8
0
  6
ByLayer
 62
    7
370
   -1
100
AcDbLine
 10
112.7244116670453
 20
107.4653951269212
 11
112.765901451185
 21
107.4757557621335
  0
LINE
  5
1EC
100
AcDbEntity
  8
0
  6
ByLayer
 62
    7
370
   -1
100
AcDbLine
 10
112.765901451185
 20
107.4757557621335
 11
112.807384336926
 21
107.4861439920052
  0
LINE
  5
1ED
100
AcDbEntity
  8
0
  6
ByLayer
 62
    7
370
   -1
100
AcDbLine
 10
112.807384336926
 20
107.4861439920052
 11
112.8488601729149
 21
107.4965604093342
  0
LINE
  5
1EE
100
AcDbEntity
  8
0
  6
ByLayer
 62
    7
370
   -1
100
AcDbLine
 10
112.8488601729149
 20
107.4965604093342
 11
112.8903292478019
 21
107.5070038337545
  0
LINE
  5
1EF
100
AcDbEntity
  8
0
  6
ByLayer
 62
    7
370
   -1
100
AcDbLine
 10
112.8903292478019
 20
107.5070038337545
 11
112.9317918846917
 21
107.5174729460529
  0
LINE
  5
1F0
100
AcDbEntity
  8
0
  6
ByLayer
 62
    7
370
   -1
100
AcDbLine
 10
112.9317918846917
 20
107.5174729460529
 11
112.9732484066888
 21
107.5279664270167
  0
LINE
  5
1F1
100
AcDbEntity
  8
0
  6
ByLayer
 62
    7
370
   -1
100
AcDbLine
 10
112.9732484066888
 20
107.5279664270167
 11
113.0146991368979
 21
107.5384829574328
  0
LINE
  5
1F2
100
AcDbEntity
  8
0
  6
ByLayer
 62
    7
370
   -1
100
AcDbLine
 10
113.0146991368979
 20
107.5384829574328
 11
113.0561443984234
 21
107.5490212180884
  0
LINE
  5
1F3
100
AcDbEntity
  8
0
  6
ByLayer
 62
    7
370
   -1
100
AcDbLine
 10
113.0561443984234
 20
107.5490212180884
 11
113.09758451437
 21
107.5595798897706
  0
LINE
  5
1F4
100
AcDbEntity
  8
0
  6
ByLayer
 62
    7
370
   -1
100
AcDbLine
 10
113.09758451437
 20
107.5595798897706
 11
113.1390198078422
 21
107.5701576532664
  0
LINE
  5
1F5
100
AcDbEntity
  8
0
  6
ByLayer
 62
    7
370
   -1
100
AcDbLine
 10
113.1390198078422
 20
107.5701576532664
 11
113.1804506019447
 21
107.580753189363
  0
LINE
  5
1F6
100
AcDbEntity
  8
0
  6
ByLayer
 62
    7
370
   -1
100
AcDbLine
 10
113.1804506019447
 20
107.580753189363
 11
113.221877219782
 21
107.5913651788474
  0
LINE
  5
1F7
100
AcDbEntity
  8
0
  6
ByLayer
 62
    7
370
   -1
100
AcDbLine
 10
113.221877219782
 20
107.5913651788474
 11
113.2632999844587
 21
107.6019923025067
  0
LINE
  5
1F8
100
AcDbEntity
  8
0
  6
ByLayer
 62
    7
370
   -1
100
AcDbLine
 10
113.2632999844587
 20
107.6019923025067
 11
113.3047192190793
 21
107.6126332411279
  0
LINE
  5
1F9
100
AcDbEntity
  8
0
  6
ByLayer
 62
    7
370
   -1
100
AcDbLine
 10
113.3047192190793
 20
107.6126332411279
 11
113.3461352467484
 21
107.6232866754983
  0
LINE
  5
1FA
100
AcDbEntity
  8
0
  6
ByLayer
 62
    7
370
   -1
100
AcDbLine
 10
113.3461352467484
 20
107.6232866754983
 11
113.3875483905707
 21
107.6339512864048
  0
LINE
  5
1FB
100
AcDbEntity
  8
0
  6
ByLayer
 62
    7
370
   -1
100
AcDbLine
 10
113.3875483905707
 20
107.6339512864048
 11
113.4289589736506
 21
107.6446257546345
  0
LINE
  5
1FC
100
AcDbEntity
  8
0
  6
ByLayer
 62
    7
370
   -1
100
AcDbLine
 10
113.4289589736506
 20
107.6446257546345
 11
113.4703673089463
 21
107.6553088044064
  0
LINE
  5
1FD
100
AcDbEntity
  8
0
  6
ByLayer
 62
    7
370
   -1
100
AcDbLine
 10
113.4703673089463
 20
107.6553088044064
 11
113.5117735998406
 21
107.6659996289761
  0
LINE
  5
1FE
100
AcDbEntity
  8
0
  6
ByLayer
 62
    7
370
   -1
100
AcDbLine
 10
113.5117735998406
 20
107.6659996289761
 11
113.5531779828068
 21
107.676697708004
  0
LINE
  5
1FF
100
AcDbEntity
  8
0
  6
ByLayer
 62
    7
370
   -1
100
AcDbLine
 10
113.5531779828068
 20
107.676697708004
 11
113.5945805933617
 21
107.6874025252459
  0
LINE
  5
200
100
AcDbEntity
  8
0
  6
ByLayer
 62
    7
370
   -1
100
AcDbLine
 10
113.5945805933617
 20
107.6874025252459
 11
113.635981567022
 21
107.6981135644578
  0
LINE
  5
201
100
AcDbEntity
  8
0
  6
ByLayer
 62
    7
370
   -1
100
AcDbLine
 10
113.635981567022
 20
107.6981135644578
 11
113.6773810393042
 21
107.7088303093956
  0
LINE
  5
202
100
AcDbEntity
  8
0
  6
ByLayer
 62
    7
370
   -1
100
AcDbLine
 10
113.6773810393042
 20
107.7088303093956
 11
113.718779145725
 21
107.7195522438152
  0
LINE
  5
203
100
AcDbEntity
  8
0
  6
ByLayer
 62
    7
370
   -1
100
AcDbLine
 10
113.718779145725
 20
107.7195522438152
 11
113.7601760218012
 21
107.7302788514725
  0
LINE
  5
204
100
AcDbEntity
  8
0
  6
ByLayer
 62
    7
370
   -1
100
AcDbLine
 10
113.7601760218012
 20
107.7302788514725
 11
113.8015718030493
 21
107.7410096161235
  0
LINE
  5
205
100
AcDbEntity
  8
0
  6
ByLayer
 62
    7
370
   -1
100
AcDbLine
 10
113.8015718030493
 20
107.7410096161235
 11
113.842966624986
 21
107.751744021524
  0
LINE
  5
206
100
AcDbEntity
  8
0
  6
ByLayer
 62
    7
370
   -1
100
AcDbLine
 10
113.842966624986
 20
107.751744021524
 11
113.884360623128
 21
107.7624815514301
  0
LINE
  5
207
100
AcDbEntity
  8
0
  6
ByLayer
 62
    7
370
   -1
100
AcDbLine
 10
113.884360623128
 20
107.7624815514301
 11
113.9257539329919
 21
107.7732216895975
  0
LINE
  5
208
100
AcDbEntity
  8
0
  6
ByLayer
 62
    7
370
   -1
100
AcDbLine
 10
113.9257539329919
 20
107.7732216895975
 11
113.9671466900944
 21
107.7839639197824
  0
LINE
  5
209
100
AcDbEntity
  8
0
  6
ByLayer
 62
    7
370
   -1
100
AcDbLine
 10
113.9671466900944
 20
107.7839639197824
 11
114.0085390299521
 21
107.7947077257404
  0
LINE
  5
20A
100
AcDbEntity
  8
0
  6
ByLayer
 62
    7
370
   -1
100
AcDbLine
 10
114.0085390299521
 20
107.7947077257404
 11
114.0499310880818
 21
107.8054525912277
  0
LINE
  5
20B
100
AcDbEntity
  8
0
  6
ByLayer
 62
    7
370
   -1
100
AcDbLine
 10
114.0499310880818
 20
107.8054525912277
 11
114.091323
 21
107.816198
  0
LINE
  5
20C
100
AcDbEntity
  8
0
  6
ByLayer
 62
    7
370
   -1
100
AcDbLine
 10
114.091323
 20
107.816198
 11
114.7417698361347
 21
107.9946769097159
  0
LINE
  5
20D
100
AcDbEntity
  8
0
  6
ByLayer
 62
    7
370
   -1
100
AcDbLine
 10
114.7417698361347
 20
107.9946769097159
 11
115.383277767185
 21
108.1775712395566
  0
LINE
  5
20E
100
AcDbEntity
  8
0
  6
ByLayer
 62
    7
370
   -1
100
AcDbLine
 10
115.383277767185
 20
108.1775712395566
 11
116.0091742573174
 21
108.3686459136728
  0
LINE
  5
20F
100
AcDbEntity
  8
0
  6
ByLayer
 62
    7
370
   -1
100
AcDbLine
 10
116.0091742573174
 20
108.3686459136728
 11
116.6404362751696
 21
108.5637331312376
  0
LINE
  5
210
100
AcDbEntity
  8
0
  6
ByLayer
 62
    7
370
   -1
100
AcDbLine
 10
116.6404362751696
 20
108.5637331312376
 11
117.3160354501408
 21
108.7534767541443
  0
LINE
  5
211
100
AcDbEntity
  8
0
  6
ByLayer
 62
    7
370
   -1
100
AcDbLine
 10
117.3160354501408
 20
108.7534767541443
 11
118.0167468078459
 21
108.9421349993251
  0
LINE
  5
212
100
AcDbEntity
  8
0
  6
ByLayer
 62
    7
370
   -1
100
AcDbLine
 10
118.0167468078459
 20
108.9421349993251
 11
118.6098359594872
 21
109.1605549061039
  0
LINE
  5
213
100
AcDbEntity
  8
0
  6
ByLayer
 62
    7
370
   -1
100
AcDbLine
 10
118.6098359594872
 20
109.1605549061039
 11
118.9640303554594
 21
109.4391161951822
  0
LINE
  5
214
100
AcDbEntity
  8
0
  6
ByLayer
 62
    7
370
   -1
100
AcDbLine
 10
118.9640303554594
 20
109.4391161951822
 11
119.0591695364984
 21
109.7812129014181
  0
LINE
  5
215
100
AcDbEntity
  8
0
  6
ByLayer
 62
    7
370
   -1
100
AcDbLine
 10
119.0591695364984
 20
109.7812129014181
 11
118.9265456725122
 21
110.17774280942
  0
LINE
  5
216
100
AcDbEntity
  8
0
  6
ByLayer
 62
    7
370
   -1
100
AcDbLine
 10
118.9265456725122
 20
110.17774280942
 11
118.5977312124406
 21
110.619535632699
  0
LINE
  5
217
100
AcDbEntity
  8
0
  6
ByLayer
 62
    7
370
   -1
100
AcDbLine
 10
118.5977312124406
 20
110.619535632699
 11
118.1042986052234
 21
111.0974210847663
  0
LINE
  5
218
100
AcDbEntity
  8
0
  6
ByLayer
 62
    7
370
   -1
100
AcDbLine
 10
118.1042986052234
 20
111.0974210847663
 11
117.4778202998005
 21
111.6022288791331
  0
LINE
  5
219
100
AcDbEntity
  8
0
  6
ByLayer
 62
    7
370
   -1
100
AcDbLine
 10
117.4778202998005
 20
111.6022288791331
 11
116.7498687451116
 21
112.1247887293106
  0
LINE
  5
21A
100
AcDbEntity
  8
0
  6
ByLayer
 62
    7
370
   -1
100
AcDbLine
 10
116.7498687451116
 20
112.1247887293106
 11
115.9520163900966
 21
112.65593034881
  0
LINE
  5
21B
100
AcDbEntity
  8
0
  6
ByLayer
 62
    7
370
   -1
100
AcDbLine
 10
115.9520163900966
 20
112.65593034881
 11
115.1158356836952
 21
113.1864834511424
  0
LINE
  5
21C
100
AcDbEntity
  8
0
  6
ByLayer
 62
    7
370
   -1
100
AcDbLine
 10
115.1158356836952
 20
113.1864834511424
 11
114.2728990748474
 21
113.7072777498191
  0
LINE
  5
21D
100
AcDbEntity
  8
0
  6
ByLayer
 62
    7
370
   -1
100
AcDbLine
 10
114.2728990748474
 20
113.7072777498191
 11
113.4547661005967
 21
114.2091478093189
  0
LINE
  5
21E
100
AcDbEntity
  8
0
  6
ByLayer
 62
    7
370
   -1
100
AcDbLine
 10
113.4547661005967
 20
114.2091478093189
 11
112.6847674510918
 21
114.6860197516907
  0
LINE
  5
21F
100
AcDbEntity
  8
0
  6
ByLayer
 62
    7
370
   -1
100
AcDbLine
 10
112.6847674510918
 20
114.6860197516907
 11
111.9639017511341
 21
115.1402098010915
  0
LINE
  5
220
100
AcDbEntity
  8
0
  6
ByLayer
 62
    7
370
   -1
100
AcDbLine
 10
111.9639017511341
 20
115.1402098010915
 11
111.2894155386569
 21
115.5754438315
  0
LINE
  5
221
100
AcDbEntity
  8
0
  6
ByLayer
 62
    7
370
   -1
100
AcDbLine
 10
111.2894155386569
 20
115.5754438315
 11
110.6585553515935
 21
115.9954477168952
  0
LINE
  5
222
100
AcDbEntity
  8
0
  6
ByLayer
 62
    7
370
   -1
100
AcDbLine
 10
110.6585553515935
 20
115.9954477168952
 11
110.0685677278772
 21
116.4039473312559
  0
LINE
  5
223
100
AcDbEntity
  8
0
  6
ByLayer
 62
    7
370
   -1
100
AcDbLine
 10
110.0685677278772
 20
116.4039473312559
 11
109.5166992054414
 21
116.804668548561
  0
LINE
  5
224
100
AcDbEntity
  8
0
  6
ByLayer
 62
    7
370
   -1
100
AcDbLine
 10
109.5166992054414
 20
116.804668548561
 11
109.0001963222193
 21
117.2013372427893
  0
LINE
  5
225
100
AcDbEntity
  8
0
  6
ByLayer
 62
    7
370
   -1
100
AcDbLine
 10
109.0001963222193
 20
117.2013372427893
 11
108.5163056161441
 21
117.5976792879197
  0
LINE
  5
226
100
AcDbEntity
  8
0
  6
ByLayer
 62
    7
370
   -1
100
AcDbLine
 10
108.5163056161441
 20
117.5976792879197
 11
108.0622736251493
 21
117.9974205579311
  0
LINE
  5
227
100
AcDbEntity
  8
0
  6
ByLayer
 62
    7
370
   -1
100
AcDbLine
 10
108.0622736251493
 20
117.9974205579311
 11
107.6353468871681
 21
118.4042869268023
  0
LINE
  5
228
100
AcDbEntity
  8
0
  6
ByLayer
 62
    7
370
   -1
100
AcDbLine
 10
107.6353468871681
 20
118.4042869268023
 11
107.2327719401338
 21
118.8220042685122
  0
LINE
  5
229
100
AcDbEntity
  8
0
  6
ByLayer
 62
    7
370
   -1
100
AcDbLine
 10
107.2327719401338
 20
118.8220042685122
 11
106.8517953219798
 21
119.2542984570397
  0
LINE
  5
22A
100
AcDbEntity
  8
0
  6
ByLayer
 62
    7
370
   -1
100
AcDbLine
 10
106.8517953219798
 20
119.2542984570397
 11
106.4896635706392
 21
119.7048953663637
  0
LINE
  5
22B
100
AcDbEntity
  8
0
  6
ByLayer
 62
    7
370
   -1
100
AcDbLine
 10
106.4896635706392
 20
119.7048953663637
 11
106.1436232240455
 21
120.1775208704629
  0
LINE
  5
22C
100
AcDbEntity
  8
0
  6
ByLayer
 62
    7
370
   -1
100
AcDbLine
 10
106.1436232240455
 20
120.1775208704629
 11
105.8109208201319
 21
120.6759008433162
  0
LINE
  5
22D
100
AcDbEntity
  8
0
  6
ByLayer
 62
    7
370
   -1
100
AcDbLine
 10
105.8109208201319
 20
120.6759008433162
 11
105.4888028968317
 21
121.2037611589026
  0
LINE
  5
22E
100
AcDbEntity
  8
0
  6
ByLayer
 62
    7
370
   -1
100
AcDbLine
 10
105.4888028968317
 20
121.2037611589026
 11
105.1745159920782
 21
121.7648276912009
  0
LINE
  5
22F
100
AcDbEntity
  8
0
  6
ByLayer
 62
    7
370
   -1
100
AcDbLine
 10
105.1745159920782
 20
121.7648276912009
 11
104.8653066438048
 21
122.36282631419
  0
LINE
  5
230
100
AcDbEntity
  8
0
  6
ByLayer
 62
    7
370
   -1
100
AcDbLine
 10
104.8653066438048
 20
122.36282631419
 11
104.5584213899446
 21
123.0014829018486
  0
LINE
  5
231
100
AcDbEntity
  8
0
  6
ByLayer
 62
    7
370
   -1
100
AcDbLine
 10
104.5584213899446
 20
123.0014829018486
 11
104.2511067684311
 21
123.6845233281557
  0
LINE
  5
232
100
AcDbEntity
  8
0
  6
ByLayer
 62
    7
370
   -1
100
AcDbLine
 10
104.2511067684311
 20
123.6845233281557
 11
103.9406093171975
 21
124.4156734670902
  0
LINE
  5
233
100
AcDbEntity
  8
0
  6
ByLayer
 62
    7
370
   -1
100
AcDbLine
 10
103.9406093171975
 20
124.4156734670902
 11
103.6242252284276
 21
125.198434657766
  0
LINE
  5
234
100
AcDbEntity
  8
0
  6
ByLayer
 62
    7
370
   -1
100
AcDbLine
 10
103.6242252284276
 20
125.198434657766
 11
103.3008570478812
 21
126.0290443619877
  0
LINE
  5
235
100
AcDbEntity
  8
0
  6
ByLayer
 62
    7
370
   -1
100
AcDbLine
 10
103.3008570478812
 20
126.0290443619877
 11
102.9713238576764
 21
126.8950735280513
  0
LINE
  5
236
100
AcDbEntity
  8
0
  6
ByLayer
 62
    7
370
   -1
100
AcDbLine
 10
102.9713238576764
 20
126.8950735280513
 11
102.6365570375508
 21
127.7835852981635
  0
LINE
  5
237
100
AcDbEntity
  8
0
  6
ByLayer
 62
    7
370
   -1
100
AcDbLine
 10
102.6365570375508
 20
127.7835852981635
 11
102.2974879672417
 21
128.6816428145307
  0
LINE
  5
238
100
AcDbEntity
  8
0
  6
ByLayer
 62
    7
370
   -1
100
AcDbLine
 10
102.2974879672417
 20
128.6816428145307
 11
101.9550480264865
 21
129.5763092193594
  0
LINE
  5
239
100
AcDbEntity
  8
0
  6
ByLayer
 62
    7
370
   -1
100
AcDbLine
 10
101.9550480264865
 20
129.5763092193594
 11
101.6101685950227
 21
130.454647654856
  0
LINE
  5
23A
100
AcDbEntity
  8
0
  6
ByLayer
 62
    7
370
   -1
100
AcDbLine
 10
101.6101685950227
 20
130.454647654856
 11
101.2637810525877
 21
131.3037212632272
  0
LINE
  5
23B
100
AcDbEntity
  8
0
  6
ByLayer
 62
    7
370
   -1
100
AcDbLine
 10
101.2637810525877
 20
131.3037212632272
 11
100.9168167789189
 21
132.1105931866792
  0
LINE
  5
23C
100
AcDbEntity
  8
0
  6
ByLayer
 62
    7
370
   -1
100
AcDbLine
 10
100.9168167789189
 20
132.1105931866792
 11
100.5702071537536
 21
132.8623265674187
  0
LINE
  5
23D
100
AcDbEntity
  8
0
  6
ByLayer
 62
    7
370
   -1
100
AcDbLine
 10
100.5702071537536
 20
132.8623265674187
 11
100.2248835568294
 21
133.5459845476521
  0
LINE
  5
23E
100
AcDbEntity
  8
0
  6
ByLayer
 62
    7
370
   -1
100
AcDbLine
 10
100.2248835568294
 20
133.5459845476521
 11
99.88177736788369
 21
134.1486302695859
  0
LINE
  5
23F
100
AcDbEntity
  8
0
  6
ByLayer
 62
    7
370
   -1
100
AcDbLine
 10
99.88177736788369
 20
134.1486302695859
 11
99.54181996665376
 21
134.6573268754266
  0
LINE
  5
240
100
AcDbEntity
  8
0
  6
ByLayer
 62
    7
370
   -1
100
AcDbLine
 10
99.54181996665376
 20
134.6573268754266
 11
99.20594273287711
 21
135.0591375073806
  0
LINE
  5
241
100
AcDbEntity
  8
0
  6
ByLayer
 62
    7
370
   -1
100
AcDbLine
 10
99.20594273287711
 20
135.0591375073806
 11
98.87507704629112
 21
135.3411253076545
  0
LINE
  5
242
100
AcDbEntity
  8
0
  6
ByLayer
 62
    7
370
   -1
100
AcDbLine
 10
98.87507704629112
 20
135.3411253076545
 11
98.55015428663327
 21
135.4903534184548
  0
LINE
  5
243
100
AcDbEntity
  8
0
  6
ByLayer
 62
    7
370
   -1
100
AcDbLine
 10
98.55015428663327
 20
135.4903534184548
 11
98.23210583364093
 21
135.4938849819878
  0
LINE
  5
244
100
AcDbEntity
  8
0
  6
ByLayer
 62
    7
370
   -1
100
AcDbLine
 10
98.23210583364093
 20
135.4938849819878
 11
97.9218630670515
 21
135.3387831404602
  0
LINE
  5
245
100
AcDbEntity
  8
0
  6
ByLayer
 62
    7
370
   -1
100
AcDbLine
 10
97.9218630670515
 20
135.3387831404602
 11
97.62022727824871
 21
135.0135810837149
  0
LINE
  5
246
100
AcDbEntity
  8
0
  6
ByLayer
 62
    7
370
   -1
100
AcDbLine
 10
97.62022727824871
 20
135.0135810837149
 11
97.32562159206672
 21
134.5336861837594
  0
LINE
  5
247
100
AcDbEntity
  8
0
  6
ByLayer
 62
    7
370
   -1
100
AcDbLine
 10
97.32562159206672
 20
134.5336861837594
 11
97.03438901059462
 21
133.9380119869635
  0
LINE
  5
248
100
AcDbEntity
  8
0
  6
ByLayer
 62
    7
370
   -1
100
AcDbLine
 10
97.03438901059462
 20
133.9380119869635
 11
96.74280239157002
 21
133.2662646974189
  0
LINE
  5
249
100
AcDbEntity
  8
0
  6
ByLayer
 62
    7
370
   -1
100
AcDbLine
 10
96.74280239157002
 20
133.2662646974189
 11
96.44713459273058
 21
132.5581505192176
  0
LINE
  5
24A
100
AcDbEntity
  8
0
  6
ByLayer
 62
    7
370
   -1
100
AcDbLine
 10
96.44713459273058
 20
132.5581505192176
 11
96.14367595545455
 21
131.8531907845929
  0
LINE
  5
24B
100
AcDbEntity
  8
0
  6
ByLayer
 62
    7
370
   -1
100
AcDbLine
 10
96.14367595545455
 20
131.8531907845929
 11
95.83009244949966
 21
131.1763609437912
  0
LINE
  5
24C
100
AcDbEntity
  8
0
  6
ByLayer
 62
    7
370
   -1
100
AcDbLine
 10
95.83009244949966
 20
131.1763609437912
 11
95.50639488213932
 21
130.5278421564659
  0
LINE
  5
24D
100
AcDbEntity
  8
0
  6
ByLayer
 62
    7
370
   -1
100
AcDbLine
 10
95.50639488213932
 20
130.5278421564659
 11
95.17282284134166
 21
129.9053964572822
  0
LINE
  5
24E
100
AcDbEntity
  8
0
  6
ByLayer
 62
    7
370
   -1
100
AcDbLine
 10
95.17282284134166
 20
129.9053964572822
 11
94.8296159150749
 21
129.3067858809053
  0
LINE
  5
24F
100
AcDbEntity
  8
0
  6
ByLayer
 62
    7
370
   -1
100
AcDbLine
 10
94.8296159150749
 20
129.3067858809053
 11
94.47701369130725
 21
128.7297724620006
  0
LINE
  5
250
100
AcDbEntity
  8
0
  6
ByLayer
 62
    7
370
   -1
100
AcDbLine
 10
94.47701369130725
 20
128.7297724620006
 11
94.11525575800685
 21
128.172118235233
  0
LINE
  5
251
100
AcDbEntity
  8
0
  6
ByLayer
 62
    7
370
   -1
100
AcDbLine
 10
94.11525575800685
 20
128.172118235233
 11
93.74458170314189
 21
127.631585235268
  0
LINE
  5
252
100
AcDbEntity
  8
0
  6
ByLayer
 62
    7
370
   -1
100
AcDbLine
 10
93.74458170314189
 20
127.631585235268
 11
93.36523111468058
 21
127.1059354967707
  0
LINE
  5
253
100
AcDbEntity
  8
0
  6
ByLayer
 62
    7
370
   -1
100
AcDbLine
 10
93.36523111468058
 20
127.1059354967707
 11
92.97744358059104
 21
126.5929310544062
  0
LINE
  5
254
100
AcDbEntity
  8
0
  6
ByLayer
 62
    7
370
   -1
100
AcDbLine
 10
92.97744358059104
 20
126.5929310544062
 11
92.58145868884152
 21
126.0903339428399
  0
LINE
  5
255
100
AcDbEntity
  8
0
  6
ByLayer
 62
    7
370
   -1
100
AcDbLine
 10
92.58145868884152
 20
126.0903339428399
 11
92.17751602740017
 21
125.5959061967369
  0
LINE
  5
256
100
AcDbEntity
  8
0
  6
ByLayer
 62
    7
370
   -1
100
AcDbLine
 10
92.17751602740017
 20
125.5959061967369
 11
91.76585518423521
 21
125.1074098507624
  0
LINE
  5
257
100
AcDbEntity
  8
0
  6
ByLayer
 62
    7
370
   -1
100
AcDbLine
 10
91.76585518423521
 20
125.1074098507624
 11
91.34671574731476
 21
124.6226069395817
  0
LINE
  5
258
100
AcDbEntity
  8
0
  6
ByLayer
 62
    7
370
   -1
100
AcDbLine
 10
91.34671574731476
 20
124.6226069395817
 11
90.92035088586471
 21
124.1394670749789
  0
LINE
  5
259
100
AcDbEntity
  8
0
  6
ByLayer
 62
    7
370
   -1
100
AcDbLine
 10
90.92035088586471
 20
124.1394670749789
 11
90.48710510909761
 21
123.6573559170065
  0
LINE
  5
25A
100
AcDbEntity
  8
0
  6
ByLayer
 62
    7
370
   -1
100
AcDbLine
 10
90.48710510909761
 20
123.6573559170065
 11
90.04736057925821
 21
123.1762146179237
  0
LINE
  5
25B
100
AcDbEntity
  8
0
  6
ByLayer
 62
    7
370
   -1
100
AcDbLine
 10
90.04736057925821
 20
123.1762146179237
 11
89.60149957614551
 21
122.6959861266991
  0
LINE
  5
25C
100
AcDbEntity
  8
0
  6
ByLayer
 62
    7
370
   -1
100
AcDbLine
 10
89.60149957614551
 20
122.6959861266991
 11
89.14990437955856
 21
122.2166133923014
  0
LINE
  5
25D
100
AcDbEntity
  8
0
  6
ByLayer
 62
    7
370
   -1
100
AcDbLine
 10
89.14990437955856
 20
122.2166133923014
 11
88.6929572692964
 21
121.7380393636992
  0
LINE
  5
25E
100
AcDbEntity
  8
0
  6
ByLayer
 62
    7
370
   -1
100
AcDbLine
 10
88.6929572692964
 20
121.7380393636992
 11
88.23104052515802
 21
121.2602069898612
  0
LINE
  5
25F
100
AcDbEntity
  8
0
  6
ByLayer
 62
    7
370
   -1
100
AcDbLine
 10
88.23104052515802
 20
121.2602069898612
 11
87.7645364269425
 21
120.783059219756
  0
LINE
  5
260
100
AcDbEntity
  8
0
  6
ByLayer
 62
    7
370
   -1
100
AcDbLine
 10
87.7645364269425
 20
120.783059219756
 11
87.29382725444883
 21
120.3065390023524
  0
LINE
  5
261
100
AcDbEntity
  8
0
  6
ByLayer
 62
    7
370
   -1
100
AcDbLine
 10
87.29382725444883
 20
120.3065390023524
 11
86.81929528747604
 21
119.8305892866188
  0
LINE
  5
262
100
AcDbEntity
  8
0
  6
ByLayer
 62
    7
370
   -1
100
AcDbLine
 10
86.81929528747604
 20
119.8305892866188
 11
86.34132280582314
 21
119.355153021524
  0
LINE
  5
263
100
AcDbEntity
  8
0
  6
ByLayer
 62
    7
370
   -1
100
AcDbLine
 10
86.34132280582314
 20
119.355153021524
 11
85.8602920892892
 21
118.8801731560367
  0
LINE
  5
264
100
AcDbEntity
  8
0
  6
ByLayer
 62
    7
370
   -1
100
AcDbLine
 10
85.8602920892892
 20
118.8801731560367
 11
85.37658541767323
 21
118.4055926391255
  0
LINE
  5
265
100
AcDbEntity
  8
0
  6
ByLayer
 62
    7
370
   -1
100
AcDbLine
 10
85.37658541767323
 20
118.4055926391255
 11
84.89058507077422
 21
117.9313544197589
  0
LINE
  5
266
100
AcDbEntity
  8
0
  6
ByLayer
 62
    7
370
   -1
100
AcDbLine
 10
84.89058507077422
 20
117.9313544197589
 11
84.40267332839126
 21
117.4574014469058
  0
LINE
  5
267
100
AcDbEntity
  8
0
  6
ByLayer
 62
    7
370
   -1
100
AcDbLine
 10
84.40267332839126
 20
117.4574014469058
 11
83.91323247032332
 21
116.9836766695347
  0
LINE
  5
268
100
AcDbEntity
  8
0
  6
ByLayer
 62
    7
370
   -1
100
AcDbLine
 10
83.91323247032332
 20
116.9836766695347
 11
83.42264477636948
 21
116.5101230366143
  0
LINE
  5
269
100
AcDbEntity
  8
0
  6
ByLayer
 62
    7
370
   -1
100
AcDbLine
 10
83.42264477636948
 20
116.5101230366143
 11
82.93129252632873
 21
116.0366834971132
  0
LINE
  5
26A
100
AcDbEntity
  8
0
  6
ByLayer
 62
    7
370
   -1
100
AcDbLine
 10
82.93129252632873
 20
116.0366834971132
 11
82.43955800000001
 21
115.563301
  0
LINE
  5
26B
100
AcDbEntity
  8
0
  6
ByLayer
 62
    7
370
   -1
100
AcDbLine
 10
82.43955800000001
 20
115.563301
 11
82.44119279296734
 21
115.5618961317963
  0
LINE
  5
26C
100
AcDbEntity
  8
0
  6
ByLayer
 62
    7
370
   -1
100
AcDbLine
 10
82.44119279296734
 20
115.5618961317963
 11
82.44282745603147
 21
115.5604910568208
  0
LINE
  5
26D
100
AcDbEntity
  8
0
  6
ByLayer
 62
    7
370
   -1
100
AcDbLine
 10
82.44282745603147
 20
115.5604910568208
 11
82.44446184611353
 21
115.5590855474437
  0
LINE
  5
26E
100
AcDbEntity
  8
0
  6
ByLayer
 62
    7
370
   -1
100
AcDbLine
 10
82.44446184611353
 20
115.5590855474437
 11
82.44609582013467
 21
115.5576793760353
  0
LINE
  5
26F
100
AcDbEntity
  8
0
  6
ByLayer
 62
    7
370
   -1
100
AcDbLine
 10
82.44609582013467
 20
115.5576793760353
 11
82.44772923501596
 21
115.5562723149659
  0
LINE
  5
270
100
AcDbEntity
  8
0
  6
ByLayer
 62
    7
370
   -1
100
AcDbLine
 10
82.44772923501596
 20
115.5562723149659
 11
82.44936194767853
 21
115.5548641366057
  0
LINE
  5
271
100
AcDbEntity
  8
0
  6
ByLayer
 62
    7
370
   -1
100
AcDbLine
 10
82.44936194767853
 20
115.5548641366057
 11
82.45099381504352
 21
115.5534546133252
  0
LINE
  5
272
100
AcDbEntity
  8
0
  6
ByLayer
 62
    7
370
   -1
100
AcDbLine
 10
82.45099381504352
 20
115.5534546133252
 11
82.452624694032
 21
115.5520435174944
  0
LINE
  5
273
100
AcDbEntity
  8
0
  6
ByLayer
 62
    7
370
   -1
100
AcDbLine
 10
82.452624694032
 20
115.5520435174944
 11
82.45425444156511
 21
115.5506306214837
  0
LINE
  5
274
100
AcDbEntity
  8
0
  6
ByLayer
 62
    7
370
   -1
100
AcDbLine
 10
82.45425444156511
 20
115.5506306214837
 11
82.45588291456399
 21
115.5492156976635
  0
LINE
  5
275
100
AcDbEntity
  8
0
  6
ByLayer
 62
    7
370
   -1
100
AcDbLine
 10
82.45588291456399
 20
115.5492156976635
 11
82.45750996994971
 21
115.5477985184039
  0
LINE
  5
276
100
AcDbEntity
  8
0
  6
ByLayer
 62
    7
370
   -1
100
AcDbLine
 10
82.45750996994971
 20
115.5477985184039
 11
82.45913546464341
 21
115.5463788560753
  0
LINE
  5
277
100
AcDbEntity
  8
0
  6
ByLayer
 62
    7
370
   -1
100
AcDbLine
 10
82.45913546464341
 20
115.5463788560753
 11
82.46075925556623
 21
115.5449564830479
  0
LINE
  5
278
100
AcDbEntity
  8
0
  6
ByLayer
 62
    7
370
   -1
100
AcDbLine
 10
82.46075925556623
 20
115.5449564830479
 11
82.46238119963925
 21
115.543531171692
  0
LINE
  5
279
100
AcDbEntity
  8
0
  6
ByLayer
 62
    7
370
   -1
100
AcDbLine
 10
82.46238119963925
 20
115.543531171692
 11
82.46400115378357
 21
115.5421026943779
  0
LINE
  5
27A
100
AcDbEntity
  8
0
  6
ByLayer
 62
    7
370
   -1
100
AcDbLine
 10
82.46400115378357
 20
115.5421026943779
 11
82.46561897492036
 21
115.5406708234759
  0
LINE
  5
27B
100
AcDbEntity
  8
0
  6
ByLayer
 62
    7
370
   -1
100
AcDbLine
 10
82.46561897492036
 20
115.5406708234759
 11
82.46723451997072
 21
115.5392353313562
  0
LINE
  5
27C
100
AcDbEntity
  8
0
  6
ByLayer
 62
    7
370
   -1
100
AcDbLine
 10
82.46723451997072
 20
115.5392353313562
 11
82.46884746881764
 21
115.5377958712619
  0
LINE
  5
27D
100
AcDbEntity
  8
0
  6
ByLayer
 62
    7
370
   -1
100
AcDbLine
 10
82.46884746881764
 20
115.5377958712619
 11
82.47045674031911
 21
115.5363515843494
  0
LINE
  5
27E
100
AcDbEntity
  8
0
  6
ByLayer
 62
    7
370
   -1
100
AcDbLine
 10
82.47045674031911
 20
115.5363515843494
 11
82.47206104888636
 21
115.534901474205
  0
LINE
  5
27F
100
AcDbEntity
  8
0
  6
ByLayer
 62
    7
370
   -1
100
AcDbLine
 10
82.47206104888636
 20
115.534901474205
 11
82.4736591089281
 21
115.5334445444131
  0
LINE
  5
280
100
AcDbEntity
  8
0
  6
ByLayer
 62
    7
370
   -1
100
AcDbLine
 10
82.4736591089281
 20
115.5334445444131
 11
82.475249634853
 21
115.5319797985582
  0
LINE
  5
281
100
AcDbEntity
  8
0
  6
ByLayer
 62
    7
370
   -1
100
AcDbLine
 10
82.475249634853
 20
115.5319797985582
 11
82.47683134106973
 21
115.5305062402247
  0
LINE
  5
282
100
AcDbEntity
  8
0
  6
ByLayer
 62
    7
370
   -1
100
AcDbLine
 10
82.47683134106973
 20
115.5305062402247
 11
82.47840294198694
 21
115.5290228729971
  0
LINE
  5
283
100
AcDbEntity
  8
0
  6
ByLayer
 62
    7
370
   -1
100
AcDbLine
 10
82.47840294198694
 20
115.5290228729971
 11
82.47996315201328
 21
115.5275287004599
  0
LINE
  5
284
100
AcDbEntity
  8
0
  6
ByLayer
 62
    7
370
   -1
100
AcDbLine
 10
82.47996315201328
 20
115.5275287004599
 11
82.48151068555747
 21
115.5260227261976
  0
LINE
  5
285
100
AcDbEntity
  8
0
  6
ByLayer
 62
    7
370
   -1
100
AcDbLine
 10
82.48151068555747
 20
115.5260227261976
 11
82.48304425702813
 21
115.5245039537945
  0
LINE
  5
286
100
AcDbEntity
  8
0
  6
ByLayer
 62
    7
370
   -1
100
AcDbLine
 10
82.48304425702813
 20
115.5245039537945
 11
82.48456258083397
 21
115.5229713868353
  0
LINE
  5
287
100
AcDbEntity
  8
0
  6
ByLayer
 62
    7
370
   -1
100
AcDbLine
 10
82.48456258083397
 20
115.5229713868353
 11
82.48606437138362
 21
115.5214240289042
  0
LINE
  5
288
100
AcDbEntity
  8
0
  6
ByLayer
 62
    7
370
   -1
100
AcDbLine
 10
82.48606437138362
 20
115.5214240289042
 11
82.48754834308575
 21
115.5198608835858
  0
LINE
  5
289
100
AcDbEntity
  8
0
  6
ByLayer
 62
    7
370
   -1
100
AcDbLine
 10
82.48754834308575
 20
115.5198608835858
 11
82.48901321034904
 21
115.5182809544646
  0
LINE
  5
28A
100
AcDbEntity
  8
0
  6
ByLayer
 62
    7
370
   -1
100
AcDbLine
 10
82.48901321034904
 20
115.5182809544646
 11
82.49045768758216
 21
115.516683245125
  0
LINE
  5
28B
100
AcDbEntity
  8
0
  6
ByLayer
 62
    7
370
   -1
100
AcDbLine
 10
82.49045768758216
 20
115.516683245125
 11
82.49188048920058
 21
115.5150667591571
  0
LINE
  5
28C
100
AcDbEntity
  8
0
  6
ByLayer
 62
    7
370
   -1
100
AcDbLine
 10
82.49188048920058
 20
115.5150667591571
 11
82.49328085226887
 21
115.5134309302859
  0
LINE
  5
28D
100
AcDbEntity
  8
0
  6
ByLayer
 62
    7
370
   -1
100
AcDbLine
 10
82.49328085226887
 20
115.5134309302859
 11
82.49465995859539
 21
115.5117767927406
  0
LINE
  5
28E
100
AcDbEntity
  8
0
  6
ByLayer
 62
    7
370
   -1
100
AcDbLine
 10
82.49465995859539
 20
115.5117767927406
 11
82.49601944222232
 21
115.5101057529344
  0
LINE
  5
28F
100
AcDbEntity
  8
0
  6
ByLayer
 62
    7
370
   -1
100
AcDbLine
 10
82.49601944222232
 20
115.5101057529344
 11
82.49736093719176
 21
115.5084192172804
  0
LINE
  5
290
100
AcDbEntity
  8
0
  6
ByLayer
 62
    7
370
   -1
100
AcDbLine
 10
82.49736093719176
 20
115.5084192172804
 11
82.49868607754591
 21
115.5067185921917
  0
LINE
  5
291
100
AcDbEntity
  8
0
  6
ByLayer
 62
    7
370
   -1
100
AcDbLine
 10
82.49868607754591
 20
115.5067185921917
 11
82.49999649732695
 21
115.5050052840816
  0
LINE
  5
292
100
AcDbEntity
  8
0
  6
ByLayer
 62
    7
370
   -1
100
AcDbLine
 10
82.49999649732695
 20
115.5050052840816
 11
82.50129383057696
 21
115.503280699363
  0
LINE
  5
293
100
AcDbEntity
  8
0
  6
ByLayer
 62
    7
370
   -1
100
AcDbLine
 10
82.50129383057696
 20
115.503280699363
 11
82.50257971133814
 21
115.5015462444491
  0
LINE
  5
294
100
AcDbEntity
  8
0
  6
ByLayer
 62
    7
370
   -1
100
AcDbLine
 10
82.50257971133814
 20
115.5015462444491
 11
82.50385577365262
 21
115.4998033257531
  0
LINE
  5
295
100
AcDbEntity
  8
0
  6
ByLayer
 62
    7
370
   -1
100
AcDbLine
 10
82.50385577365262
 20
115.4998033257531
 11
82.50512365156257
 21
115.4980533496881
  0
LINE
  5
296
100
AcDbEntity
  8
0
  6
ByLayer
 62
    7
370
   -1
100
AcDbLine
 10
82.50512365156257
 20
115.4980533496881
 11
82.50638497911014
 21
115.4962977226671
  0
LINE
  5
297
100
AcDbEntity
  8
0
  6
ByLayer
 62
    7
370
   -1
100
AcDbLine
 10
82.50638497911014
 20
115.4962977226671
 11
82.50764139033745
 21
115.4945378511033
  0
LINE
  5
298
100
AcDbEntity
  8
0
  6
ByLayer
 62
    7
370
   -1
100
AcDbLine
 10
82.50764139033745
 20
115.4945378511033
 11
82.50889451928668
 21
115.4927751414099
  0
LINE
  5
299
100
AcDbEntity
  8
0
  6
ByLayer
 62
    7
370
   -1
100
AcDbLine
 10
82.50889451928668
 20
115.4927751414099
 11
82.51014600000001
 21
115.491011
  0
LINE
  5
29A
100
AcDbEntity
  8
0
  6
ByLayer
 62
    7
370
   -1
100
AcDbLine
 10
82.51014600000001
 20
115.491011
 11
82.45447803590122
 21
115.4516718362099
  0
LINE
  5
29B
100
AcDbEntity
  8
0
  6
ByLayer
 62
    7
370
   -1
100
AcDbLine
 10
82.45447803590122
 20
115.4516718362099
 11
82.39881127924724
 21
115.4123309710701
  0
LINE
  5
29C
100
AcDbEntity
  8
0
  6
ByLayer
 62
    7
370
   -1
100
AcDbLine
 10
82.39881127924724
 20
115.4123309710701
 11
82.34314693572368
 21
115.3729867096485
  0
LINE
  5
29D
100
AcDbEntity
  8
0
  6
ByLayer
 62
    7
370
   -1
100
AcDbLine
 10
82.34314693572368
 20
115.3729867096485
 11
82.28748621101613
 21
115.3336373570131
  0
LINE
  5
29E
100
AcDbEntity
  8
0
  6
ByLayer
 62
    7
370
   -1
100
AcDbLine
 10
82.28748621101613
 20
115.3336373570131
 11
82.23183031081015
 21
115.2942812182317
  0
LINE
  5
29F
100
AcDbEntity
  8
0
  6
ByLayer
 62
    7
370
   -1
100
AcDbLine
 10
82.23183031081015
 20
115.2942812182317
 11
82.17618044079141
 21
115.2549165983723
  0
LINE
  5
2A0
100
AcDbEntity
  8
0
  6
ByLayer
 62
    7
370
   -1
100
AcDbLine
 10
82.17618044079141
 20
115.2549165983723
 11
82.12053780664544
 21
115.2155418025028
  0
LINE
  5
2A1
100
AcDbEntity
  8
0
  6
ByLayer
 62
    7
370
   -1
100
AcDbLine
 10
82.12053780664544
 20
115.2155418025028
 11
82.06490361405788
 21
115.1761551356911
  0
LINE
  5
2A2
100
AcDbEntity
  8
0
  6
ByLayer
 62
    7
370
   -1
100
AcDbLine
 10
82.06490361405788
 20
115.1761551356911
 11
82.00927906871431
 21
115.1367549030052
  0
LINE
  5
2A3
100
AcDbEntity
  8
0
  6
ByLayer
 62
    7
370
   -1
100
AcDbLine
 10
82.00927906871431
 20
115.1367549030052
 11
81.95366537630032
 21
115.097339409513
  0
LINE
  5
2A4
100
AcDbEntity
  8
0
  6
ByLayer
 62
    7
370
   -1
100
AcDbLine
 10
81.95366537630032
 20
115.097339409513
 11
81.89806374250152
 21
115.0579069602823
  0
LINE
  5
2A5
100
AcDbEntity
  8
0
  6
ByLayer
 62
    7
370
   -1
100
AcDbLine
 10
81.89806374250152
 20
115.0579069602823
 11
81.8424753730035
 21
115.0184558603812
  0
LINE
  5
2A6
100
AcDbEntity
  8
0
  6
ByLayer
 62
    7
370
   -1
100
AcDbLine
 10
81.8424753730035
 20
115.0184558603812
 11
81.78690147349187
 21
114.9789844148776
  0
LINE
  5
2A7
100
AcDbEntity
  8
0
  6
ByLayer
 62
    7
370
   -1
100
AcDbLine
 10
81.78690147349187
 20
114.9789844148776
 11
81.73134324965218
 21
114.9394909288393
  0
LINE
  5
2A8
100
AcDbEntity
  8
0
  6
ByLayer
 62
    7
370
   -1
100
AcDbLine
 10
81.73134324965218
 20
114.9394909288393
 11
81.67580190717011
 21
114.8999737073344
  0
LINE
  5
2A9
100
AcDbEntity
  8
0
  6
ByLayer
 62
    7
370
   -1
100
AcDbLine
 10
81.67580190717011
 20
114.8999737073344
 11
81.62027863036592
 21
114.8604310854715
  0
LINE
  5
2AA
100
AcDbEntity
  8
0
  6
ByLayer
 62
    7
370
   -1
100
AcDbLine
 10
81.62027863036592
 20
114.8604310854715
 11
81.56477327494325
 21
114.8208632664707
  0
LINE
  5
2AB
100
AcDbEntity
  8
0
  6
ByLayer
 62
    7
370
   -1
100
AcDbLine
 10
81.56477327494325
 20
114.8208632664707
 11
81.50928360993862
 21
114.7812733875262
  0
LINE
  5
2AC
100
AcDbEntity
  8
0
  6
ByLayer
 62
    7
370
   -1
100
AcDbLine
 10
81.50928360993862
 20
114.7812733875262
 11
81.4538072216599
 21
114.7416648427591
  0
LINE
  5
2AD
100
AcDbEntity
  8
0
  6
ByLayer
 62
    7
370
   -1
100
AcDbLine
 10
81.4538072216599
 20
114.7416648427591
 11
81.39834169641492
 21
114.7020410262903
  0
LINE
  5
2AE
100
AcDbEntity
  8
0
  6
ByLayer
 62
    7
370
   -1
100
AcDbLine
 10
81.39834169641492
 20
114.7020410262903
 11
81.34288462051153
 21
114.662405332241
  0
LINE
  5
2AF
100
AcDbEntity
  8
0
  6
ByLayer
 62
    7
370
   -1
100
AcDbLine
 10
81.34288462051153
 20
114.662405332241
 11
81.28743358025754
 21
114.6227611547323
  0
LINE
  5
2B0
100
AcDbEntity
  8
0
  6
ByLayer
 62
    7
370
   -1
100
AcDbLine
 10
81.28743358025754
 20
114.6227611547323
 11
81.23198616196085
 21
114.5831118878852
  0
LINE
  5
2B1
100
AcDbEntity
  8
0
  6
ByLayer
 62
    7
370
   -1
100
AcDbLine
 10
81.23198616196085
 20
114.5831118878852
 11
81.17653995192924
 21
114.5434609258209
  0
LINE
  5
2B2
100
AcDbEntity
  8
0
  6
ByLayer
 62
    7
370
   -1
100
AcDbLine
 10
81.17653995192924
 20
114.5434609258209
 11
81.1210925364706
 21
114.5038116626604
  0
LINE
  5
2B3
100
AcDbEntity
  8
0
  6
ByLayer
 62
    7
370
   -1
100
AcDbLine
 10
81.1210925364706
 20
114.5038116626604
 11
81.06564150189274
 21
114.4641674925248
  0
LINE
  5
2B4
100
AcDbEntity
  8
0
  6
ByLayer
 62
    7
370
   -1
100
AcDbLine
 10
81.06564150189274
 20
114.4641674925248
 11
81.01018443450351
 21
114.4245318095351
  0
LINE
  5
2B5
100
AcDbEntity
  8
0
  6
ByLayer
 62
    7
370
   -1
100
AcDbLine
 10
81.01018443450351
 20
114.4245318095351
 11
80.95471892061077
 21
114.3849080078125
  0
LINE
  5
2B6
100
AcDbEntity
  8
0
  6
ByLayer
 62
    7
370
   -1
100
AcDbLine
 10
80.95471892061077
 20
114.3849080078125
 11
80.89924254652234
 21
114.3452994814781
  0
LINE
  5
2B7
100
AcDbEntity
  8
0
  6
ByLayer
 62
    7
370
   -1
100
AcDbLine
 10
80.89924254652234
 20
114.3452994814781
 11
80.84375289854607
 21
114.3057096246528
  0
LINE
  5
2B8
100
AcDbEntity
  8
0
  6
ByLayer
 62
    7
370
   -1
100
AcDbLine
 10
80.84375289854607
 20
114.3057096246528
 11
80.7882475629898
 21
114.2661418314579
  0
LINE
  5
2B9
100
AcDbEntity
  8
0
  6
ByLayer
 62
    7
370
   -1
100
AcDbLine
 10
80.7882475629898
 20
114.2661418314579
 11
80.73272430879653
 21
114.2265992390542
  0
LINE
  5
2BA
100
AcDbEntity
  8
0
  6
ByLayer
 62
    7
370
   -1
100
AcDbLine
 10
80.73272430879653
 20
114.2265992390542
 11
80.67718299072921
 21
114.187082049939
  0
LINE
  5
2BB
100
AcDbEntity
  8
0
  6
ByLayer
 62
    7
370
   -1
100
AcDbLine
 10
80.67718299072921
 20
114.187082049939
 11
80.62162479173229
 21
114.1475885979127
  0
LINE
  5
2BC
100
AcDbEntity
  8
0
  6
ByLayer
 62
    7
370
   -1
100
AcDbLine
 10
80.62162479173229
 20
114.1475885979127
 11
80.56605091611303
 21
114.1081171867189
  0
LINE
  5
2BD
100
AcDbEntity
  8
0
  6
ByLayer
 62
    7
370
   -1
100
AcDbLine
 10
80.56605091611303
 20
114.1081171867189
 11
80.51046256817877
 21
114.0686661201012
  0
LINE
  5
2BE
100
AcDbEntity
  8
0
  6
ByLayer
 62
    7
370
   -1
100
AcDbLine
 10
80.51046256817877
 20
114.0686661201012
 11
80.45486095223677
 21
114.0292337018031
  0
LINE
  5
2BF
100
AcDbEntity
  8
0
  6
ByLayer
 62
    7
370
   -1
100
AcDbLine
 10
80.45486095223677
 20
114.0292337018031
 11
80.39924727259441
 21
113.9898182355684
  0
LINE
  5
2C0
100
AcDbEntity
  8
0
  6
ByLayer
 62
    7
370
   -1
100
AcDbLine
 10
80.39924727259441
 20
113.9898182355684
 11
80.34362273355893
 21
113.9504180251406
  0
LINE
  5
2C1
100
AcDbEntity
  8
0
  6
ByLayer
 62
    7
370
   -1
100
AcDbLine
 10
80.34362273355893
 20
113.9504180251406
 11
80.28798853943766
 21
113.9110313742633
  0
LINE
  5
2C2
100
AcDbEntity
  8
0
  6
ByLayer
 62
    7
370
   -1
100
AcDbLine
 10
80.28798853943766
 20
113.9110313742633
 11
80.23234589453789
 21
113.8716565866802
  0
LINE
  5
2C3
100
AcDbEntity
  8
0
  6
ByLayer
 62
    7
370
   -1
100
AcDbLine
 10
80.23234589453789
 20
113.8716565866802
 11
80.17669600316695
 21
113.8322919661348
  0
LINE
  5
2C4
100
AcDbEntity
  8
0
  6
ByLayer
 62
    7
370
   -1
100
AcDbLine
 10
80.17669600316695
 20
113.8322919661348
 11
80.1210400696321
 21
113.7929358163707
  0
LINE
  5
2C5
100
AcDbEntity
  8
0
  6
ByLayer
 62
    7
370
   -1
100
AcDbLine
 10
80.1210400696321
 20
113.7929358163707
 11
80.0653792982407
 21
113.7535864411315
  0
LINE
  5
2C6
100
AcDbEntity
  8
0
  6
ByLayer
 62
    7
370
   -1
100
AcDbLine
 10
80.0653792982407
 20
113.7535864411315
 11
80.0097148933
 21
113.714242144161
  0
LINE
  5
2C7
100
AcDbEntity
  8
0
  6
ByLayer
 62
    7
370
   -1
100
AcDbLine
 10
80.0097148933
 20
113.714242144161
 11
79.95404805911734
 21
113.6749012292026
  0
LINE
  5
2C8
100
AcDbEntity
  8
0
  6
ByLayer
 62
    7
370
   -1
100
AcDbLine
 10
79.95404805911734
 20
113.6749012292026
 11
79.89838
 21
113.635562
  0
LINE
  5
2C9
100
AcDbEntity
  8
0
  6
ByLayer
 62
    7
370
   -1
100
AcDbLine
 10
79.88425100000001
 20
113.647601
 11
79.71879310330124
 21
113.5396145412481
  0
LINE
  5
2CA
100
AcDbEntity
  8
0
  6
ByLayer
 62
    7
370
   -1
100
AcDbLine
 10
79.71879310330124
 20
113.5396145412481
 11
79.55387813537486
 21
113.4316982111539
  0
LINE
  5
2CB
100
AcDbEntity
  8
0
  6
ByLayer
 62
    7
370
   -1
100
AcDbLine
 10
79.55387813537486
 20
113.4316982111539
 11
79.39004912102455
 21
113.3239221888099
  0
LINE
  5
2CC
100
AcDbEntity
  8
0
  6
ByLayer
 62
    7
370
   -1
100
AcDbLine
 10
79.39004912102455
 20
113.3239221888099
 11
79.22784908505409
 21
113.2163566533088
  0
LINE
  5
2CD
100
AcDbEntity
  8
0
  6
ByLayer
 62
    7
370
   -1
100
AcDbLine
 10
79.22784908505409
 20
113.2163566533088
 11
79.06782105226716
 21
113.1090717837429
  0
LINE
  5
2CE
100
AcDbEntity
  8
0
  6
ByLayer
 62
    7
370
   -1
100
AcDbLine
 10
79.06782105226716
 20
113.1090717837429
 11
78.91050804746752
 21
113.0021377592049
  0
LINE
  5
2CF
100
AcDbEntity
  8
0
  6
ByLayer
 62
    7
370
   -1
100
AcDbLine
 10
78.91050804746752
 20
113.0021377592049
 11
78.75645309545889
 21
112.8956247587874
  0
LINE
  5
2D0
100
AcDbEntity
  8
0
  6
ByLayer
 62
    7
370
   -1
100
AcDbLine
 10
78.75645309545889
 20
112.8956247587874
 11
78.60619922104496
 21
112.7896029615828
  0
LINE
  5
2D1
100
AcDbEntity
  8
0
  6
ByLayer
 62
    7
370
   -1
100
AcDbLine
 10
78.60619922104496
 20
112.7896029615828
 11
78.46025829155539
 21
112.684142732544
  0
LINE
  5
2D2
100
AcDbEntity
  8
0
  6
ByLayer
 62
    7
370
   -1
100
AcDbLine
 10
78.46025829155539
 20
112.684142732544
 11
78.31775382168826
 21
112.5793227184134
  0
LINE
  5
2D3
100
AcDbEntity
  8
0
  6
ByLayer
 62
    7
370
   -1
100
AcDbLine
 10
78.31775382168826
 20
112.5793227184134
 11
78.17589608456447
 21
112.4752329787853
  0
LINE
  5
2D4
100
AcDbEntity
  8
0
  6
ByLayer
 62
    7
370
   -1
100
AcDbLine
 10
78.17589608456447
 20
112.4752329787853
 11
78.03175582217588
 21
112.3719644055845
  0
LINE
  5
2D5
100
AcDbEntity
  8
0
  6
ByLayer
 62
    7
370
   -1
100
AcDbLine
 10
78.03175582217588
 20
112.3719644055845
 11
77.88240377651432
 21
112.2696078907354
  0
LINE
  5
2D6
100
AcDbEntity
  8
0
  6
ByLayer
 62
    7
370
   -1
100
AcDbLine
 10
77.88240377651432
 20
112.2696078907354
 11
77.72491068957171
 21
112.1682543261626
  0
LINE
  5
2D7
100
AcDbEntity
  8
0
  6
ByLayer
 62
    7
370
   -1
100
AcDbLine
 10
77.72491068957171
 20
112.1682543261626
 11
77.55634730333985
 21
112.0679946037906
  0
LINE
  5
2D8
100
AcDbEntity
  8
0
  6
ByLayer
 62
    7
370
   -1
100
AcDbLine
 10
77.55634730333985
 20
112.0679946037906
 11
77.37378435981063
 21
111.968919615544
  0
LINE
  5
2D9
100
AcDbEntity
  8
0
  6
ByLayer
 62
    7
370
   -1
100
AcDbLine
 10
77.37378435981063
 20
111.968919615544
 11
77.17429260097586
 21
111.8711202533472
  0
LINE
  5
2DA
100
AcDbEntity
  8
0
  6
ByLayer
 62
    7
370
   -1
100
AcDbLine
 10
77.17429260097586
 20
111.8711202533472
 11
76.95543930247695
 21
111.7746685733136
  0
LINE
  5
2DB
100
AcDbEntity
  8
0
  6
ByLayer
 62
    7
370
   -1
100
AcDbLine
 10
76.95543930247695
 20
111.7746685733136
 11
76.72224066572784
 21
111.6793540594467
  0
LINE
  5
2DC
100
AcDbEntity
  8
0
  6
ByLayer
 62
    7
370
   -1
100
AcDbLine
 10
76.72224066572784
 20
111.6793540594467
 11
76.48545698268636
 21
111.5847482959037
  0
LINE
  5
2DD
100
AcDbEntity
  8
0
  6
ByLayer
 62
    7
370
   -1
100
AcDbLine
 10
76.48545698268636
 20
111.5847482959037
 11
76.25599687581428
 21
111.4904172399818
  0
LINE
  5
2DE
100
AcDbEntity
  8
0
  6
ByLayer
 62
    7
370
   -1
100
AcDbLine
 10
76.25599687581428
 20
111.4904172399818
 11
76.04476896757335
 21
111.395926848978
  0
LINE
  5
2DF
100
AcDbEntity
  8
0
  6
ByLayer
 62
    7
370
   -1
100
AcDbLine
 10
76.04476896757335
 20
111.395926848978
 11
75.86268188042534
 21
111.3008430801896
  0
LINE
  5
2E0
100
AcDbEntity
  8
0
  6
ByLayer
 62
    7
370
   -1
100
AcDbLine
 10
75.86268188042534
 20
111.3008430801896
 11
75.72064423683204
 21
111.2047318909135
  0
LINE
  5
2E1
100
AcDbEntity
  8
0
  6
ByLayer
 62
    7
370
   -1
100
AcDbLine
 10
75.72064423683204
 20
111.2047318909135
 11
75.62956465925521
 21
111.1071592384468
  0
LINE
  5
2E2
100
AcDbEntity
  8
0
  6
ByLayer
 62
    7
370
   -1
100
AcDbLine
 10
75.62956465925521
 20
111.1071592384468
 11
75.60035177015664
 21
111.0076910800866
  0
LINE
  5
2E3
100
AcDbEntity
  8
0
  6
ByLayer
 62
    7
370
   -1
100
AcDbLine
 10
75.60035177015664
 20
111.0076910800866
 11
75.64265955058048
 21
110.9059537892123
  0
LINE
  5
2E4
100
AcDbEntity
  8
0
  6
ByLayer
 62
    7
370
   -1
100
AcDbLine
 10
75.64265955058048
 20
110.9059537892123
 11
75.75092597975879
 21
110.8023064515171
  0
LINE
  5
2E5
100
AcDbEntity
  8
0
  6
ByLayer
 62
    7
370
   -1
100
AcDbLine
 10
75.75092597975879
 20
110.8023064515171
 11
75.90946418943186
 21
110.6975957052407
  0
LINE
  5
2E6
100
AcDbEntity
  8
0
  6
ByLayer
 62
    7
370
   -1
100
AcDbLine
 10
75.90946418943186
 20
110.6975957052407
 11
76.10240416702896
 21
110.5926770077657
  0
LINE
  5
2E7
100
AcDbEntity
  8
0
  6
ByLayer
 62
    7
370
   -1
100
AcDbLine
 10
76.10240416702896
 20
110.5926770077657
 11
76.31387589997954
 21
110.4884058164748
  0
LINE
  5
2E8
100
AcDbEntity
  8
0
  6
ByLayer
 62
    7
370
   -1
100
AcDbLine
 10
76.31387589997954
 20
110.4884058164748
 11
76.52804017036999
 21
110.3856358868624
  0
LINE
  5
2E9
100
AcDbEntity
  8
0
  6
ByLayer
 62
    7
370
   -1
100
AcDbLine
 10
76.52804017036999
 20
110.3856358868624
 11
76.73401692671814
 21
110.2849469026621
  0
LINE
  5
2EA
100
AcDbEntity
  8
0
  6
ByLayer
 62
    7
370
   -1
100
AcDbLine
 10
76.73401692671814
 20
110.2849469026621
 11
76.9313043938911
 21
110.1863449849908
  0
LINE
  5
2EB
100
AcDbEntity
  8
0
  6
ByLayer
 62
    7
370
   -1
100
AcDbLine
 10
76.9313043938911
 20
110.1863449849908
 11
77.12070449292052
 21
110.0897642052957
  0
LINE
  5
2EC
100
AcDbEntity
  8
0
  6
ByLayer
 62
    7
370
   -1
100
AcDbLine
 10
77.12070449292052
 20
110.0897642052957
 11
77.30301914483806
 21
109.9951386350237
  0
LINE
  5
2ED
100
AcDbEntity
  8
0
  6
ByLayer
 62
    7
370
   -1
100
AcDbLine
 10
77.30301914483806
 20
109.9951386350237
 11
77.4790502706754
 21
109.9024023456221
  0
LINE
  5
2EE
100
AcDbEntity
  8
0
  6
ByLayer
 62
    7
370
   -1
100
AcDbLine
 10
77.4790502706754
 20
109.9024023456221
 11
77.64959979146423
 21
109.8114894085381
  0
LINE
  5
2EF
100
AcDbEntity
  8
0
  6
ByLayer
 62
    7
370
   -1
100
AcDbLine
 10
77.64959979146423
 20
109.8114894085381
 11
77.81546962823617
 21
109.7223338952186
  0
LINE
  5
2F0
100
AcDbEntity
  8
0
  6
ByLayer
 62
    7
370
   -1
100
AcDbLine
 10
77.81546962823617
 20
109.7223338952186
 11
77.97746170202291
 21
109.6348698771108
  0
LINE
  5
2F1
100
AcDbEntity
  8
0
  6
ByLayer
 62
    7
370
   -1
100
AcDbLine
 10
77.97746170202291
 20
109.6348698771108
 11
78.1363779338561
 21
109.5490314256619
  0
LINE
  5
2F2
100
AcDbEntity
  8
0
  6
ByLayer
 62
    7
370
   -1
100
AcDbLine
 10
78.1363779338561
 20
109.5490314256619
 11
78.29302024476745
 21
109.4647526123189
  0
LINE
  5
2F3
100
AcDbEntity
  8
0
  6
ByLayer
 62
    7
370
   -1
100
AcDbLine
 10
78.29302024476745
 20
109.4647526123189
 11
78.44819055578857
 21
109.381967508529
  0
LINE
  5
2F4
100
AcDbEntity
  8
0
  6
ByLayer
 62
    7
370
   -1
100
AcDbLine
 10
78.44819055578857
 20
109.381967508529
 11
78.60269078795115
 21
109.3006101857393
  0
LINE
  5
2F5
100
AcDbEntity
  8
0
  6
ByLayer
 62
    7
370
   -1
100
AcDbLine
 10
78.60269078795115
 20
109.3006101857393
 11
78.75732286228688
 21
109.2206147153969
  0
LINE
  5
2F6
100
AcDbEntity
  8
0
  6
ByLayer
 62
    7
370
   -1
100
AcDbLine
 10
78.75732286228688
 20
109.2206147153969
 11
78.91288869982738
 21
109.1419151689489
  0
LINE
  5
2F7
100
AcDbEntity
  8
0
  6
ByLayer
 62
    7
370
   -1
100
AcDbLine
 10
78.91288869982738
 20
109.1419151689489
 11
79.07019022160432
 21
109.0644456178425
  0
LINE
  5
2F8
100
AcDbEntity
  8
0
  6
ByLayer
 62
    7
370
   -1
100
AcDbLine
 10
79.07019022160432
 20
109.0644456178425
 11
79.22990559946416
 21
108.9881425093749
  0
LINE
  5
2F9
100
AcDbEntity
  8
0
  6
ByLayer
 62
    7
370
   -1
100
AcDbLine
 10
79.22990559946416
 20
108.9881425093749
 11
79.39211003288816
 21
108.9129538672587
  0
LINE
  5
2FA
100
AcDbEntity
  8
0
  6
ByLayer
 62
    7
370
   -1
100
AcDbLine
 10
79.39211003288816
 20
108.9129538672587
 11
79.55669534314512
 21
108.8388312358692
  0
LINE
  5
2FB
100
AcDbEntity
  8
0
  6
ByLayer
 62
    7
370
   -1
100
AcDbLine
 10
79.55669534314512
 20
108.8388312358692
 11
79.72355330866132
 21
108.7657261604042
  0
LINE
  5
2FC
100
AcDbEntity
  8
0
  6
ByLayer
 62
    7
370
   -1
100
AcDbLine
 10
79.72355330866132
 20
108.7657261604042
 11
79.89257570786316
 21
108.6935901860618
  0
LINE
  5
2FD
100
AcDbEntity
  8
0
  6
ByLayer
 62
    7
370
   -1
100
AcDbLine
 10
79.89257570786316
 20
108.6935901860618
 11
80.06365431917696
 21
108.6223748580397
  0
LINE
  5
2FE
100
AcDbEntity
  8
0
  6
ByLayer
 62
    7
370
   -1
100
AcDbLine
 10
80.06365431917696
 20
108.6223748580397
 11
80.23668092102908
 21
108.5520317215359
  0
LINE
  5
2FF
100
AcDbEntity
  8
0
  6
ByLayer
 62
    7
370
   -1
100
AcDbLine
 10
80.23668092102908
 20
108.5520317215359
 11
80.41154729184582
 21
108.4825123217481
  0
LINE
  5
300
100
AcDbEntity
  8
0
  6
ByLayer
 62
    7
370
   -1
100
AcDbLine
 10
80.41154729184582
 20
108.4825123217481
 11
80.58814521005355
 21
108.4137682038743
  0
LINE
  5
301
100
AcDbEntity
  8
0
  6
ByLayer
 62
    7
370
   -1
100
AcDbLine
 10
80.58814521005355
 20
108.4137682038743
 11
80.76636645407861
 21
108.3457509131124
  0
LINE
  5
302
100
AcDbEntity
  8
0
  6
ByLayer
 62
    7
370
   -1
100
AcDbLine
 10
80.76636645407861
 20
108.3457509131124
 11
80.94610280234734
 21
108.2784119946602
  0
LINE
  5
303
100
AcDbEntity
  8
0
  6
ByLayer
 62
    7
370
   -1
100
AcDbLine
 10
80.94610280234734
 20
108.2784119946602
 11
81.1272460332861
 21
108.2117029937156
  0
LINE
  5
304
100
AcDbEntity
  8
0
  6
ByLayer
 62
    7
370
   -1
100
AcDbLine
 10
81.1272460332861
 20
108.2117029937156
 11
81.30968792532119
 21
108.1455754554765
  0
LINE
  5
305
100
AcDbEntity
  8
0
  6
ByLayer
 62
    7
370
   -1
100
AcDbLine
 10
81.30968792532119
 20
108.1455754554765
 11
81.49332025687896
 21
108.0799809251407
  0
LINE
  5
306
100
AcDbEntity
  8
0
  6
ByLayer
 62
    7
370
   -1
100
AcDbLine
 10
81.49332025687896
 20
108.0799809251407
 11
81.67803480638578
 21
108.0148709479062
  0
LINE
  5
307
100
AcDbEntity
  8
0
  6
ByLayer
 62
    7
370
   -1
100
AcDbLine
 10
81.67803480638578
 20
108.0148709479062
 11
81.86372335226795
 21
107.9501970689707
  0
LINE
  5
308
100
AcDbEntity
  8
0
  6
ByLayer
 62
    7
370
   -1
100
AcDbLine
 10
81.86372335226795
 20
107.9501970689707
 11
82.05027767295189
 21
107.8859108335323
  0
LINE
  5
309
100
AcDbEntity
  8
0
  6
ByLayer
 62
    7
370
   -1
100
AcDbLine
 10
82.05027767295189
 20
107.8859108335323
 11
82.23758954686386
 21
107.8219637867887
  0
LINE
  5
30A
100
AcDbEntity
  8
0
  6
ByLayer
 62
    7
370
   -1
100
AcDbLine
 10
82.23758954686386
 20
107.8219637867887
 11
82.42555075243021
 21
107.7583074739378
  0
LINE
  5
30B
100
AcDbEntity
  8
0
  6
ByLayer
 62
    7
370
   -1
100
AcDbLine
 10
82.42555075243021
 20
107.7583074739378
 11
82.61405306807734
 21
107.6948934401775
  0
LINE
  5
30C
100
AcDbEntity
  8
0
  6
ByLayer
 62
    7
370
   -1
100
AcDbLine
 10
82.61405306807734
 20
107.6948934401775
 11
82.80298827223152
 21
107.6316732307057
  0
LINE
  5
30D
100
AcDbEntity
  8
0
  6
ByLayer
 62
    7
370
   -1
100
AcDbLine
 10
82.80298827223152
 20
107.6316732307057
 11
82.99224814331916
 21
107.5685983907203
  0
LINE
  5
30E
100
AcDbEntity
  8
0
  6
ByLayer
 62
    7
370
   -1
100
AcDbLine
 10
82.99224814331916
 20
107.5685983907203
 11
83.18172445976653
 21
107.5056204654191
  0
LINE
  5
30F
100
AcDbEntity
  8
0
  6
ByLayer
 62
    7
370
   -1
100
AcDbLine
 10
83.18172445976653
 20
107.5056204654191
 11
83.371309
 21
107.442691
  0
LINE
  5
310
100
AcDbEntity
  8
0
  6
ByLayer
 62
    7
370
   -1
100
AcDbLine
 10
83.371309
 20
107.442691
 11
82.95789215766962
 21
107.1073239225574
  0
LINE
  5
311
100
AcDbEntity
  8
0
  6
ByLayer
 62
    7
370
   -1
100
AcDbLine
 10
82.95789215766962
 20
107.1073239225574
 11
82.54513377068274
 21
106.7718661836887
  0
LINE
  5
312
100
AcDbEntity
  8
0
  6
ByLayer
 62
    7
370
   -1
100
AcDbLine
 10
82.54513377068274
 20
106.7718661836887
 11
82.13369227578416
 21
106.4362270946293
  0
LINE
  5
313
100
AcDbEntity
  8
0
  6
ByLayer
 62
    7
370
   -1
100
AcDbLine
 10
82.13369227578416
 20
106.4362270946293
 11
81.72422610971867
 21
106.1003159666146
  0
LINE
  5
314
100
AcDbEntity
  8
0
  6
ByLayer
 62
    7
370
   -1
100
AcDbLine
 10
81.72422610971867
 20
106.1003159666146
 11
81.31739370923113
 21
105.76404211088
  0
LINE
  5
315
100
AcDbEntity
  8
0
  6
ByLayer
 62
    7
370
   -1
100
AcDbLine
 10
81.31739370923113
 20
105.76404211088
 11
80.91385351106625
 21
105.4273148386608
  0
LINE
  5
316
100
AcDbEntity
  8
0
  6
ByLayer
 62
    7
370
   -1
100
AcDbLine
 10
80.91385351106625
 20
105.4273148386608
 11
80.51426395196889
 21
105.0900434611924
  0
LINE
  5
317
100
AcDbEntity
  8
0
  6
ByLayer
 62
    7
370
   -1
100
AcDbLine
 10
80.51426395196889
 20
105.0900434611924
 11
80.11928346868385
 21
104.7521372897104
  0
LINE
  5
318
100
AcDbEntity
  8
0
  6
ByLayer
 62
    7
370
   -1
100
AcDbLine
 10
80.11928346868385
 20
104.7521372897104
 11
79.7295704979559
 21
104.41350563545
  0
LINE
  5
319
100
AcDbEntity
  8
0
  6
ByLayer
 62
    7
370
   -1
100
AcDbLine
 10
79.7295704979559
 20
104.41350563545
 11
79.3457834765299
 21
104.0740578096466
  0
LINE
  5
31A
100
AcDbEntity
  8
0
  6
ByLayer
 62
    7
370
   -1
100
AcDbLine
 10
79.3457834765299
 20
104.0740578096466
 11
78.9685808411506
 21
103.7337031235356
  0
LINE
  5
31B
100
AcDbEntity
  8
0
  6
ByLayer
 62
    7
370
   -1
100
AcDbLine
 10
78.9685808411506
 20
103.7337031235356
 11
78.59862102856282
 21
103.3923508883526
  0
LINE
  5
31C
100
AcDbEntity
  8
0
  6
ByLayer
 62
    7
370
   -1
100
AcDbLine
 10
78.59862102856282
 20
103.3923508883526
 11
78.23656247551136
 21
103.0499104153327
  0
LINE
  5
31D
100
AcDbEntity
  8
0
  6
ByLayer
 62
    7
370
   -1
100
AcDbLine
 10
78.23656247551136
 20
103.0499104153327
 11
77.88306337616841
 21
102.706291122443
  0
LINE
  5
31E
100
AcDbEntity
  8
0
  6
ByLayer
 62
    7
370
   -1
100
AcDbLine
 10
77.88306337616841
 20
102.706291122443
 11
77.53777248331802
 21
102.3618465801419
  0
LINE
  5
31F
100
AcDbEntity
  8
0
  6
ByLayer
 62
    7
370
   -1
100
AcDbLine
 10
77.53777248331802
 20
102.3618465801419
 11
77.1970258490433
 21
102.0183879415541
  0
LINE
  5
320
100
AcDbEntity
  8
0
  6
ByLayer
 62
    7
370
   -1
100
AcDbLine
 10
77.1970258490433
 20
102.0183879415541
 11
76.85648100713662
 21
101.6780249066967
  0
LINE
  5
321
100
AcDbEntity
  8
0
  6
ByLayer
 62
    7
370
   -1
100
AcDbLine
 10
76.85648100713662
 20
101.6780249066967
 11
76.51179549139046
 21
101.3428671755867
  0
LINE
  5
322
100
AcDbEntity
  8
0
  6
ByLayer
 62
    7
370
   -1
100
AcDbLine
 10
76.51179549139046
 20
101.3428671755867
 11
76.15862683559719
 21
101.0150244482411
  0
LINE
  5
323
100
AcDbEntity
  8
0
  6
ByLayer
 62
    7
370
   -1
100
AcDbLine
 10
76.15862683559719
 20
101.0150244482411
 11
75.79263257354926
 21
100.6966064246767
  0
LINE
  5
324
100
AcDbEntity
  8
0
  6
ByLayer
 62
    7
370
   -1
100
AcDbLine
 10
75.79263257354926
 20
100.6966064246767
 11
75.40947023903905
 21
100.3897228049108
  0
LINE
  5
325
100
AcDbEntity
  8
0
  6
ByLayer
 62
    7
370
   -1
100
AcDbLine
 10
75.40947023903905
 20
100.3897228049108
 11
75.00479736585901
 21
100.0964832889602
  0
LINE
  5
326
100
AcDbEntity
  8
0
  6
ByLayer
 62
    7
370
   -1
100
AcDbLine
 10
75.00479736585901
 20
100.0964832889602
 11
74.57427148780157
 21
99.81899757684198
  0
LINE
  5
327
100
AcDbEntity
  8
0
  6
ByLayer
 62
    7
370
   -1
100
AcDbLine
 10
74.57427148780157
 20
99.81899757684198
 11
74.11355013865909
 21
99.5593753685731
  0
LINE
  5
328
100
AcDbEntity
  8
0
  6
ByLayer
 62
    7
370
   -1
100
AcDbLine
 10
74.11355013865909
 20
99.5593753685731
 11
73.61829085222406
 21
99.31972636417061
  0
LINE
  5
329
100
AcDbEntity
  8
0
  6
ByLayer
 62
    7
370
   -1
100
AcDbLine
 10
73.61829085222406
 20
99.31972636417061
 11
73.08415116228886
 21
99.10216026365147
  0
LINE
  5
32A
100
AcDbEntity
  8
0
  6
ByLayer
 62
    7
370
   -1
100
AcDbLine
 10
73.08415116228886
 20
99.10216026365147
 11
72.50678860264591
 21
98.90878676703272
  0
LINE
  5
32B
100
AcDbEntity
  8
0
  6
ByLayer
 62
    7
370
   -1
100
AcDbLine
 10
72.50678860264591
 20
98.90878676703272
 11
71.88186070708764
 21
98.74171557433132
  0
LINE
  5
32C
100
AcDbEntity
  8
0
  6
ByLayer
 62
    7
370
   -1
100
AcDbLine
 10
71.88186070708764
 20
98.74171557433132
 11
71.20547096703397
 21
98.60289007365412
  0
LINE
  5
32D
100
AcDbEntity
  8
0
  6
ByLayer
 62
    7
370
   -1
100
AcDbLine
 10
71.20547096703397
 20
98.60289007365412
 11
70.48493640912082
 21
98.49007176598036
  0
LINE
  5
32E
100
AcDbEntity
  8
0
  6
ByLayer
 62
    7
370
   -1
100
AcDbLine
 10
70.48493640912082
 20
98.49007176598036
 11
69.73934622784164
 21
98.39663193312315
  0
LINE
  5
32F
100
AcDbEntity
  8
0
  6
ByLayer
 62
    7
370
   -1
100
AcDbLine
 10
69.73934622784164
 20
98.39663193312315
 11
68.98834738463414
 21
98.31573384770321
  0
LINE
  5
330
100
AcDbEntity
  8
0
  6
ByLayer
 62
    7
370
   -1
100
AcDbLine
 10
68.98834738463414
 20
98.31573384770321
 11
68.25158684093597
 21
98.2405407823412
  0
LINE
  5
331
100
AcDbEntity
  8
0
  6
ByLayer
 62
    7
370
   -1
100
AcDbLine
 10
68.25158684093597
 20
98.2405407823412
 11
67.54871155818489
 21
98.16421600965788
  0
LINE
  5
332
100
AcDbEntity
  8
0
  6
ByLayer
 62
    7
370
   -1
100
AcDbLine
 10
67.54871155818489
 20
98.16421600965788
 11
66.89936849781854
 21
98.07992280227384
  0
LINE
  5
333
100
AcDbEntity
  8
0
  6
ByLayer
 62
    7
370
   -1
100
AcDbLine
 10
66.89936849781854
 20
98.07992280227384
 11
66.32320462127463
 21
97.98082443280983
  0
LINE
  5
334
100
AcDbEntity
  8
0
  6
ByLayer
 62
    7
370
   -1
100
AcDbLine
 10
66.32320462127463
 20
97.98082443280983
 11
65.83986688999087
 21
97.86008417388652
  0
LINE
  5
335
100
AcDbEntity
  8
0
  6
ByLayer
 62
    7
370
   -1
100
AcDbLine
 10
65.83986688999087
 20
97.86008417388652
 11
65.46900226540495
 21
97.7108652981246
  0
LINE
  5
336
100
AcDbEntity
  8
0
  6
ByLayer
 62
    7
370
   -1
100
AcDbLine
 10
65.46900226540495
 20
97.7108652981246
 11
65.23025770895457
 21
97.52633107814479
  0
LINE
  5
337
100
AcDbEntity
  8
0
  6
ByLayer
 62
    7
370
   -1
100
AcDbLine
 10
65.23025770895457
 20
97.52633107814479
 11
65.1432801820774
 21
97.29964478656775
  0
LINE
  5
338
100
AcDbEntity
  8
0
  6
ByLayer
 62
    7
370
   -1
100
AcDbLine
 10
65.1432801820774
 20
97.29964478656775
 11
65.22771664621119
 21
97.02396969601416
  0
LINE
  5
339
100
AcDbEntity
  8
0
  6
ByLayer
 62
    7
370
   -1
100
AcDbLine
 10
65.22771664621119
 20
97.02396969601416
 11
65.49226623026659
 21
96.69687180568461
  0
LINE
  5
33A
100
AcDbEntity
  8
0
  6
ByLayer
 62
    7
370
   -1
100
AcDbLine
 10
65.49226623026659
 20
96.69687180568461
 11
65.88832131634405
 21
96.33896331472525
  0
LINE
  5
33B
100
AcDbEntity
  8
0
  6
ByLayer
 62
    7
370
   -1
100
AcDbLine
 10
65.88832131634405
 20
96.33896331472525
 11
66.34858645073149
 21
95.97837183058326
  0
LINE
  5
33C
100
AcDbEntity
  8
0
  6
ByLayer
 62
    7
370
   -1
100
AcDbLine
 10
66.34858645073149
 20
95.97837183058326
 11
66.81463022481526
 21
95.63931955214673
  0
LINE
  5
33D
100
AcDbEntity
  8
0
  6
ByLayer
 62
    7
370
   -1
100
AcDbLine
 10
66.81463022481526
 20
95.63931955214673
 11
67.27350682849367
 21
95.32599021365048
  0
LINE
  5
33E
100
AcDbEntity
  8
0
  6
ByLayer
 62
    7
370
   -1
100
AcDbLine
 10
67.27350682849367
 20
95.32599021365048
 11
67.72680408764694
 21
95.03616482494094
  0
LINE
  5
33F
100
AcDbEntity
  8
0
  6
ByLayer
 62
    7
370
   -1
100
AcDbLine
 10
67.72680408764694
 20
95.03616482494094
 11
68.17611623497332
 21
94.7676215733713
  0
LINE
  5
340
100
AcDbEntity
  8
0
  6
ByLayer
 62
    7
370
   -1
100
AcDbLine
 10
68.17611623497332
 20
94.7676215733713
 11
68.62303750317103
 21
94.51813864629474
  0
LINE
  5
341
100
AcDbEntity
  8
0
  6
ByLayer
 62
    7
370
   -1
100
AcDbLine
 10
68.62303750317103
 20
94.51813864629474
 11
69.06916212493836
 21
94.28549423106449
  0
LINE
  5
342
100
AcDbEntity
  8
0
  6
ByLayer
 62
    7
370
   -1
100
AcDbLine
 10
69.06916212493836
 20
94.28549423106449
 11
69.51608433297351
 21
94.06746651503366
  0
LINE
  5
343
100
AcDbEntity
  8
0
  6
ByLayer
 62
    7
370
   -1
100
AcDbLine
 10
69.51608433297351
 20
94.06746651503366
 11
69.9653983599747
 21
93.86183368555544
  0
LINE
  5
344
100
AcDbEntity
  8
0
  6
ByLayer
 62
    7
370
   -1
100
AcDbLine
 10
69.9653983599747
 20
93.86183368555544
 11
70.41869843864028
 21
93.66637392998308
  0
LINE
  5
345
100
AcDbEntity
  8
0
  6
ByLayer
 62
    7
370
   -1
100
AcDbLine
 10
70.41869843864028
 20
93.66637392998308
 11
70.87754491506745
 21
93.47889711259441
  0
LINE
  5
346
100
AcDbEntity
  8
0
  6
ByLayer
 62
    7
370
   -1
100
AcDbLine
 10
70.87754491506745
 20
93.47889711259441
 11
71.34259556136419
 21
93.29805681664595
  0
LINE
  5
347
100
AcDbEntity
  8
0
  6
ByLayer
 62
    7
370
   -1
100
AcDbLine
 10
71.34259556136419
 20
93.29805681664595
 11
71.81353132355781
 21
93.12341975463613
  0
LINE
  5
348
100
AcDbEntity
  8
0
  6
ByLayer
 62
    7
370
   -1
100
AcDbLine
 10
71.81353132355781
 20
93.12341975463613
 11
72.28998438155411
 21
92.95459822524568
  0
LINE
  5
349
100
AcDbEntity
  8
0
  6
ByLayer
 62
    7
370
   -1
100
AcDbLine
 10
72.28998438155411
 20
92.95459822524568
 11
72.77158691525881
 21
92.79120452715524
  0
LINE
  5
34A
100
AcDbEntity
  8
0
  6
ByLayer
 62
    7
370
   -1
100
AcDbLine
 10
72.77158691525881
 20
92.79120452715524
 11
73.25797110457766
 21
92.63285095904557
  0
LINE
  5
34B
100
AcDbEntity
  8
0
  6
ByLayer
 62
    7
370
   -1
100
AcDbLine
 10
73.25797110457766
 20
92.63285095904557
 11
73.74876912941642
 21
92.47914981959732
  0
LINE
  5
34C
100
AcDbEntity
  8
0
  6
ByLayer
 62
    7
370
   -1
100
AcDbLine
 10
73.74876912941642
 20
92.47914981959732
 11
74.24361316968083
 21
92.32971340749121
  0
LINE
  5
34D
100
AcDbEntity
  8
0
  6
ByLayer
 62
    7
370
   -1
100
AcDbLine
 10
74.24361316968083
 20
92.32971340749121
 11
74.74213540527663
 21
92.18415402140792
  0
LINE
  5
34E
100
AcDbEntity
  8
0
  6
ByLayer
 62
    7
370
   -1
100
AcDbLine
 10
74.74213540527663
 20
92.18415402140792
 11
75.24396801610956
 21
92.04208396002815
  0
LINE
  5
34F
100
AcDbEntity
  8
0
  6
ByLayer
 62
    7
370
   -1
100
AcDbLine
 10
75.24396801610956
 20
92.04208396002815
 11
75.74874318208541
 21
91.90311552203259
  0
LINE
  5
350
100
AcDbEntity
  8
0
  6
ByLayer
 62
    7
370
   -1
100
AcDbLine
 10
75.74874318208541
 20
91.90311552203259
 11
76.25609308310987
 21
91.76686100610196
  0
LINE
  5
351
100
AcDbEntity
  8
0
  6
ByLayer
 62
    7
370
   -1
100
AcDbLine
 10
76.25609308310987
 20
91.76686100610196
 11
76.76564989908874
 21
91.63293271091692
  0
LINE
  5
352
100
AcDbEntity
  8
0
  6
ByLayer
 62
    7
370
   -1
100
AcDbLine
 10
76.76564989908874
 20
91.63293271091692
 11
77.27704580992773
 21
91.50094293515816
  0
LINE
  5
353
100
AcDbEntity
  8
0
  6
ByLayer
 62
    7
370
   -1
100
AcDbLine
 10
77.27704580992773
 20
91.50094293515816
 11
77.78991299553259
 21
91.37050397750642
  0
LINE
  5
354
100
AcDbEntity
  8
0
  6
ByLayer
 62
    7
370
   -1
100
AcDbLine
 10
77.78991299553259
 20
91.37050397750642
 11
78.30388363580909
 21
91.24122813664235
  0
LINE
  5
355
100
AcDbEntity
  8
0
  6
ByLayer
 62
    7
370
   -1
100
AcDbLine
 10
78.30388363580909
 20
91.24122813664235
 11
78.81858991066296
 21
91.11272771124663
  0
LINE
  5
356
100
AcDbEntity
  8
0
  6
ByLayer
 62
    7
370
   -1
100
AcDbLine
 10
78.81858991066296
 20
91.11272771124663
 11
79.333664
 21
90.98461500000001
  0
LINE
  5
357
100
AcDbEntity
  8
0
  6
ByLayer
 62
    7
370
   -1
100
AcDbLine
 10
79.333664
 20
90.98461500000001
 11
78.9337470003628
 21
90.67045854862963
  0
LINE
  5
358
100
AcDbEntity
  8
0
  6
ByLayer
 62
    7
370
   -1
100
AcDbLine
 10
78.9337470003628
 20
90.67045854862963
 11
78.53461656454769
 21
90.35661822257319
  0
LINE
  5
359
100
AcDbEntity
  8
0
  6
ByLayer
 62
    7
370
   -1
100
AcDbLine
 10
78.53461656454769
 20
90.35661822257319
 11
78.13705926528114
 21
90.04341016130834
  0
LINE
  5
35A
100
AcDbEntity
  8
0
  6
ByLayer
 62
    7
370
   -1
100
AcDbLine
 10
78.13705926528114
 20
90.04341016130834
 11
77.74186167528967
 21
89.73115050431277
  0
LINE
  5
35B
100
AcDbEntity
  8
0
  6
ByLayer
 62
    7
370
   -1
100
AcDbLine
 10
77.74186167528967
 20
89.73115050431277
 11
77.34981036729974
 21
89.42015539106411
  0
LINE
  5
35C
100
AcDbEntity
  8
0
  6
ByLayer
 62
    7
370
   -1
100
AcDbLine
 10
77.34981036729974
 20
89.42015539106411
 11
76.96169191403784
 21
89.11074096104005
  0
LINE
  5
35D
100
AcDbEntity
  8
0
  6
ByLayer
 62
    7
370
   -1
100
AcDbLine
 10
76.96169191403784
 20
89.11074096104005
 11
76.57829288823048
 21
88.80322335371829
  0
LINE
  5
35E
100
AcDbEntity
  8
0
  6
ByLayer
 62
    7
370
   -1
100
AcDbLine
 10
76.57829288823048
 20
88.80322335371829
 11
76.20039986260409
 21
88.49791870857642
  0
LINE
  5
35F
100
AcDbEntity
  8
0
  6
ByLayer
 62
    7
370
   -1
100
AcDbLine
 10
76.20039986260409
 20
88.49791870857642
 11
75.82879940988521
 21
88.1951431650922
  0
LINE
  5
360
100
AcDbEntity
  8
0
  6
ByLayer
 62
    7
370
   -1
100
AcDbLine
 10
75.82879940988521
 20
88.1951431650922
 11
75.46427810280029
 21
87.89521286274321
  0
LINE
  5
361
100
AcDbEntity
  8
0
  6
ByLayer
 62
    7
370
   -1
100
AcDbLine
 10
75.46427810280029
 20
87.89521286274321
 11
75.10762251407586
 21
87.59844394100719
  0
LINE
  5
362
100
AcDbEntity
  8
0
  6
ByLayer
 62
    7
370
   -1
100
AcDbLine
 10
75.10762251407586
 20
87.59844394100719
 11
74.75961890314686
 21
87.30515252490123
  0
LINE
  5
363
100
AcDbEntity
  8
0
  6
ByLayer
 62
    7
370
   -1
100
AcDbLine
 10
74.75961890314686
 20
87.30515252490123
 11
74.4201602444987
 21
87.01561350835031
  0
LINE
  5
364
100
AcDbEntity
  8
0
  6
ByLayer
 62
    7
370
   -1
100
AcDbLine
 10
74.4201602444987
 20
87.01561350835031
 11
74.08628977899549
 21
86.72997025095776
  0
LINE
  5
365
100
AcDbEntity
  8
0
  6
ByLayer
 62
    7
370
   -1
100
AcDbLine
 10
74.08628977899549
 20
86.72997025095776
 11
73.75448370702871
 21
86.44833993960562
  0
LINE
  5
366
100
AcDbEntity
  8
0
  6
ByLayer
 62
    7
370
   -1
100
AcDbLine
 10
73.75448370702871
 20
86.44833993960562
 11
73.42121822898993
 21
86.17083976117593
  0
LINE
  5
367
100
AcDbEntity
  8
0
  6
ByLayer
 62
    7
370
   -1
100
AcDbLine
 10
73.42121822898993
 20
86.17083976117593
 11
73.08296954527056
 21
85.8975869025507
  0
LINE
  5
368
100
AcDbEntity
  8
0
  6
ByLayer
 62
    7
370
   -1
100
AcDbLine
 10
73.08296954527056
 20
85.8975869025507
 11
72.7362138562622
 21
85.628698550612
  0
LINE
  5
369
100
AcDbEntity
  8
0
  6
ByLayer
 62
    7
370
   -1
100
AcDbLine
 10
72.7362138562622
 20
85.628698550612
 11
72.37742736235624
 21
85.36429189224187
  0
LINE
  5
36A
100
AcDbEntity
  8
0
  6
ByLayer
 62
    7
370
   -1
100
AcDbLine
 10
72.37742736235624
 20
85.36429189224187
 11
72.00308626394427
 21
85.1044841143223
  0
LINE
  5
36B
100
AcDbEntity
  8
0
  6
ByLayer
 62
    7
370
   -1
100
AcDbLine
 10
72.00308626394427
 20
85.1044841143223
 11
71.60966676141774
 21
84.84939240373539
  0
LINE
  5
36C
100
AcDbEntity
  8
0
  6
ByLayer
 62
    7
370
   -1
100
AcDbLine
 10
71.60966676141774
 20
84.84939240373539
 11
71.19364505516818
 21
84.59913394736319
  0
LINE
  5
36D
100
AcDbEntity
  8
0
  6
ByLayer
 62
    7
370
   -1
100
AcDbLine
 10
71.19364505516818
 20
84.59913394736319
 11
70.75149734558705
 21
84.35382593208764
  0
LINE
  5
36E
100
AcDbEntity
  8
0
  6
ByLayer
 62
    7
370
   -1
100
AcDbLine
 10
70.75149734558705
 20
84.35382593208764
 11
70.27969983306593
 21
84.11358554479089
  0
LINE
  5
36F
100
AcDbEntity
  8
0
  6
ByLayer
 62
    7
370
   -1
100
AcDbLine
 10
70.27969983306593
 20
84.11358554479089
 11
69.77472871799624
 21
83.87852997235493
  0
LINE
  5
370
100
AcDbEntity
  8
0
  6
ByLayer
 62
    7
370
   -1
100
AcDbLine
 10
69.77472871799624
 20
83.87852997235493
 11
69.23306020076953
 21
83.64877640166179
  0
LINE
  5
371
100
AcDbEntity
  8
0
  6
ByLayer
 62
    7
370
   -1
100
AcDbLine
 10
69.23306020076953
 20
83.64877640166179
 11
68.65117048177727
 21
83.42444201959351
  0
LINE
  5
372
100
AcDbEntity
  8
0
  6
ByLayer
 62
    7
370
   -1
100
AcDbLine
 10
68.65117048177727
 20
83.42444201959351
 11
68.02559460684033
 21
83.20564268883703
  0
LINE
  5
373
100
AcDbEntity
  8
0
  6
ByLayer
 62
    7
370
   -1
100
AcDbLine
 10
68.02559460684033
 20
83.20564268883703
 11
67.35785330993812
 21
82.99238207944178
  0
LINE
  5
374
100
AcDbEntity
  8
0
  6
ByLayer
 62
    7
370
   -1
100
AcDbLine
 10
67.35785330993812
 20
82.99238207944178
 11
66.65817331967173
 21
82.78446795098952
  0
LINE
  5
375
100
AcDbEntity
  8
0
  6
ByLayer
 62
    7
370
   -1
100
AcDbLine
 10
66.65817331967173
 20
82.78446795098952
 11
65.93765754709916
 21
82.58168834638154
  0
LINE
  5
376
100
AcDbEntity
  8
0
  6
ByLayer
 62
    7
370
   -1
100
AcDbLine
 10
65.93765754709916
 20
82.58168834638154
 11
65.20740890327841
 21
82.38383130851908
  0
LINE
  5
377
100
AcDbEntity
  8
0
  6
ByLayer
 62
    7
370
   -1
100
AcDbLine
 10
65.20740890327841
 20
82.38383130851908
 11
64.4785302992675
 21
82.19068488030338
  0
LINE
  5
378
100
AcDbEntity
  8
0
  6
ByLayer
 62
    7
370
   -1
100
AcDbLine
 10
64.4785302992675
 20
82.19068488030338
 11
63.76212464612444
 21
82.00203710463569
  0
LINE
  5
379
100
AcDbEntity
  8
0
  6
ByLayer
 62
    7
370
   -1
100
AcDbLine
 10
63.76212464612444
 20
82.00203710463569
 11
63.06929485490721
 21
81.81767602441727
  0
LINE
  5
37A
100
AcDbEntity
  8
0
  6
ByLayer
 62
    7
370
   -1
100
AcDbLine
 10
63.06929485490721
 20
81.81767602441727
 11
62.41114383667384
 21
81.63738968254933
  0
LINE
  5
37B
100
AcDbEntity
  8
0
  6
ByLayer
 62
    7
370
   -1
100
AcDbLine
 10
62.41114383667384
 20
81.63738968254933
 11
61.79877450248232
 21
81.46096612193315
  0
LINE
  5
37C
100
AcDbEntity
  8
0
  6
ByLayer
 62
    7
370
   -1
100
AcDbLine
 10
61.79877450248232
 20
81.46096612193315
 11
61.24328976339066
 21
81.28819338546998
  0
LINE
  5
37D
100
AcDbEntity
  8
0
  6
ByLayer
 62
    7
370
   -1
100
AcDbLine
 10
61.24328976339066
 20
81.28819338546998
 11
60.75579253045685
 21
81.11885951606106
  0
LINE
  5
37E
100
AcDbEntity
  8
0
  6
ByLayer
 62
    7
370
   -1
100
AcDbLine
 10
60.75579253045685
 20
81.11885951606106
 11
60.34738571473891
 21
80.95275255660761
  0
LINE
  5
37F
100
AcDbEntity
  8
0
  6
ByLayer
 62
    7
370
   -1
100
AcDbLine
 10
60.34738571473891
 20
80.95275255660761
 11
60.02917222729485
 21
80.78966055001092
  0
LINE
  5
380
100
AcDbEntity
  8
0
  6
ByLayer
 62
    7
370
   -1
100
AcDbLine
 10
60.02917222729485
 20
80.78966055001092
 11
59.81225497918266
 21
80.62937153917221
  0
LINE
  5
381
100
AcDbEntity
  8
0
  6
ByLayer
 62
    7
370
   -1
100
AcDbLine
 10
59.81225497918266
 20
80.62937153917221
 11
59.70773688146036
 21
80.47167356699275
  0
LINE
  5
382
100
AcDbEntity
  8
0
  6
ByLayer
 62
    7
370
   -1
100
AcDbLine
 10
59.70773688146036
 20
80.47167356699275
 11
59.72672084518595
 21
80.31635467637375
  0
LINE
  5
383
100
AcDbEntity
  8
0
  6
ByLayer
 62
    7
370
   -1
100
AcDbLine
 10
59.72672084518595
 20
80.31635467637375
 11
59.88030978141742
 21
80.1632029102165
  0
LINE
  5
384
100
AcDbEntity
  8
0
  6
ByLayer
 62
    7
370
   -1
100
AcDbLine
 10
59.88030978141742
 20
80.1632029102165
 11
60.1790152309788
 21
80.01201111612343
  0
LINE
  5
385
100
AcDbEntity
  8
0
  6
ByLayer
 62
    7
370
   -1
100
AcDbLine
 10
60.1790152309788
 20
80.01201111612343
 11
60.60689688021868
 21
79.86278705487626
  0
LINE
  5
386
100
AcDbEntity
  8
0
  6
ByLayer
 62
    7
370
   -1
100
AcDbLine
 10
60.60689688021868
 20
79.86278705487626
 11
61.11150346447899
 21
79.71583512750044
  0
LINE
  5
387
100
AcDbEntity
  8
0
  6
ByLayer
 62
    7
370
   -1
100
AcDbLine
 10
61.11150346447899
 20
79.71583512750044
 11
61.63783536369081
 21
79.57148057390725
  0
LINE
  5
388
100
AcDbEntity
  8
0
  6
ByLayer
 62
    7
370
   -1
100
AcDbLine
 10
61.63783536369081
 20
79.57148057390725
 11
62.14848994166389
 21
79.42992526239553
  0
LINE
  5
389
100
AcDbEntity
  8
0
  6
ByLayer
 62
    7
370
   -1
100
AcDbLine
 10
62.14848994166389
 20
79.42992526239553
 11
62.64199140328952
 21
79.29111917989951
  0
LINE
  5
38A
100
AcDbEntity
  8
0
  6
ByLayer
 62
    7
370
   -1
100
AcDbLine
 10
62.64199140328952
 20
79.29111917989951
 11
63.12124705202235
 21
79.15498158365901
  0
LINE
  5
38B
100
AcDbEntity
  8
0
  6
ByLayer
 62
    7
370
   -1
100
AcDbLine
 10
63.12124705202235
 20
79.15498158365901
 11
63.58916419131712
 21
79.0214317309138
  0
LINE
  5
38C
100
AcDbEntity
  8
0
  6
ByLayer
 62
    7
370
   -1
100
AcDbLine
 10
63.58916419131712
 20
79.0214317309138
 11
64.04865012462852
 21
78.89038887890371
  0
LINE
  5
38D
100
AcDbEntity
  8
0
  6
ByLayer
 62
    7
370
   -1
100
AcDbLine
 10
64.04865012462852
 20
78.89038887890371
 11
64.50261215541127
 21
78.76177228486857
  0
LINE
  5
38E
100
AcDbEntity
  8
0
  6
ByLayer
 62
    7
370
   -1
100
AcDbLine
 10
64.50261215541127
 20
78.76177228486857
 11
64.95395758712012
 21
78.63550120604812
  0
LINE
  5
38F
100
AcDbEntity
  8
0
  6
ByLayer
 62
    7
370
   -1
100
AcDbLine
 10
64.95395758712012
 20
78.63550120604812
 11
65.40559372320972
 21
78.51149489968222
  0
LINE
  5
390
100
AcDbEntity
  8
0
  6
ByLayer
 62
    7
370
   -1
100
AcDbLine
 10
65.40559372320972
 20
78.51149489968222
 11
65.86037758424034
 21
78.38967141618807
  0
LINE
  5
391
100
AcDbEntity
  8
0
  6
ByLayer
 62
    7
370
   -1
100
AcDbLine
 10
65.86037758424034
 20
78.38967141618807
 11
66.3197017125335
 21
78.26991365754064
  0
LINE
  5
392
100
AcDbEntity
  8
0
  6
ByLayer
 62
    7
370
   -1
100
AcDbLine
 10
66.3197017125335
 20
78.26991365754064
 11
66.78329940474833
 21
78.15206470272625
  0
LINE
  5
393
100
AcDbEntity
  8
0
  6
ByLayer
 62
    7
370
   -1
100
AcDbLine
 10
66.78329940474833
 20
78.15206470272625
 11
67.25081453068221
 21
78.03596548442752
  0
LINE
  5
394
100
AcDbEntity
  8
0
  6
ByLayer
 62
    7
370
   -1
100
AcDbLine
 10
67.25081453068221
 20
78.03596548442752
 11
67.72189096013258
 21
77.92145693532724
  0
LINE
  5
395
100
AcDbEntity
  8
0
  6
ByLayer
 62
    7
370
   -1
100
AcDbLine
 10
67.72189096013258
 20
77.92145693532724
 11
68.19617256289683
 21
77.80837998810809
  0
LINE
  5
396
100
AcDbEntity
  8
0
  6
ByLayer
 62
    7
370
   -1
100
AcDbLine
 10
68.19617256289683
 20
77.80837998810809
 11
68.67330320877237
 21
77.69657557545275
  0
LINE
  5
397
100
AcDbEntity
  8
0
  6
ByLayer
 62
    7
370
   -1
100
AcDbLine
 10
68.67330320877237
 20
77.69657557545275
 11
69.15292676755662
 21
77.58588463004398
  0
LINE
  5
398
100
AcDbEntity
  8
0
  6
ByLayer
 62
    7
370
   -1
100
AcDbLine
 10
69.15292676755662
 20
77.58588463004398
 11
69.63468710904699
 21
77.47614808456443
  0
LINE
  5
399
100
AcDbEntity
  8
0
  6
ByLayer
 62
    7
370
   -1
100
AcDbLine
 10
69.63468710904699
 20
77.47614808456443
 11
70.11822810304089
 21
77.36720687169682
  0
LINE
  5
39A
100
AcDbEntity
  8
0
  6
ByLayer
 62
    7
370
   -1
100
AcDbLine
 10
70.11822810304089
 20
77.36720687169682
 11
70.60319361933574
 21
77.25890192412388
  0
LINE
  5
39B
100
AcDbEntity
  8
0
  6
ByLayer
 62
    7
370
   -1
100
AcDbLine
 10
70.60319361933574
 20
77.25890192412388
 11
71.08922752772894
 21
77.15107417452829
  0
LINE
  5
39C
100
AcDbEntity
  8
0
  6
ByLayer
 62
    7
370
   -1
100
AcDbLine
 10
71.08922752772894
 20
77.15107417452829
 11
71.57597369801789
 21
77.04356455559275
  0
LINE
  5
39D
100
AcDbEntity
  8
0
  6
ByLayer
 62
    7
370
   -1
100
AcDbLine
 10
71.57597369801789
 20
77.04356455559275
 11
72.063076
 21
76.93621400000001
  0
LINE
  5
39E
100
AcDbEntity
  8
0
  6
ByLayer
 62
    7
370
   -1
100
AcDbLine
 10
79.89838
 20
113.635562
 11
79.88425100000001
 21
113.647601
  0
LINE
  5
39F
100
AcDbEntity
  8
0
  6
ByLayer
 62
    7
370
   -1
100
AcDbLine
 10
72.063076
 20
76.93621400000001
 11
71.3224464250076
 21
76.37103933071545
  0
LINE
  5
3A0
100
AcDbEntity
  8
0
  6
ByLayer
 62
    7
370
   -1
100
AcDbLine
 10
71.3224464250076
 20
76.37103933071545
 11
70.58482213022965
 21
75.80603106243521
  0
LINE
  5
3A1
100
AcDbEntity
  8
0
  6
ByLayer
 62
    7
370
   -1
100
AcDbLine
 10
70.58482213022965
 20
75.80603106243521
 11
69.85320838519955
 21
75.24135560781296
  0
LINE
  5
3A2
100
AcDbEntity
  8
0
  6
ByLayer
 62
    7
370
   -1
100
AcDbLine
 10
69.85320838519955
 20
75.24135560781296
 11
69.13061045945075
 21
74.67717937950238
  0
LINE
  5
3A3
100
AcDbEntity
  8
0
  6
ByLayer
 62
    7
370
   -1
100
AcDbLine
 10
69.13061045945075
 20
74.67717937950238
 11
68.42003362251658
 21
74.11366879015711
  0
LINE
  5
3A4
100
AcDbEntity
  8
0
  6
ByLayer
 62
    7
370
   -1
100
AcDbLine
 10
68.42003362251658
 20
74.11366879015711
 11
67.7244831439305
 21
73.55099025243084
  0
LINE
  5
3A5
100
AcDbEntity
  8
0
  6
ByLayer
 62
    7
370
   -1
100
AcDbLine
 10
67.7244831439305
 20
73.55099025243084
 11
67.04696429322586
 21
72.98931017897723
  0
LINE
  5
3A6
100
AcDbEntity
  8
0
  6
ByLayer
 62
    7
370
   -1
100
AcDbLine
 10
67.04696429322586
 20
72.98931017897723
 11
66.39043206989797
 21
72.42880353473863
  0
LINE
  5
3A7
100
AcDbEntity
  8
0
  6
ByLayer
 62
    7
370
   -1
100
AcDbLine
 10
66.39043206989797
 20
72.42880353473863
 11
65.75270399885929
 21
71.87051930758003
  0
LINE
  5
3A8
100
AcDbEntity
  8
0
  6
ByLayer
 62
    7
370
   -1
100
AcDbLine
 10
65.75270399885929
 20
71.87051930758003
 11
65.12209169022405
 21
71.31712369773409
  0
LINE
  5
3A9
100
AcDbEntity
  8
0
  6
ByLayer
 62
    7
370
   -1
100
AcDbLine
 10
65.12209169022405
 20
71.31712369773409
 11
64.48587767505927
 21
70.7714579795214
  0
LINE
  5
3AA
100
AcDbEntity
  8
0
  6
ByLayer
 62
    7
370
   -1
100
AcDbLine
 10
64.48587767505927
 20
70.7714579795214
 11
63.83134448443192
 21
70.23636342726256
  0
LINE
  5
3AB
100
AcDbEntity
  8
0
  6
ByLayer
 62
    7
370
   -1
100
AcDbLine
 10
63.83134448443192
 20
70.23636342726256
 11
63.14577464940905
 21
69.71468131527814
  0
LINE
  5
3AC
100
AcDbEntity
  8
0
  6
ByLayer
 62
    7
370
   -1
100
AcDbLine
 10
63.14577464940905
 20
69.71468131527814
 11
62.41645070105766
 21
69.20925291788869
  0
LINE
  5
3AD
100
AcDbEntity
  8
0
  6
ByLayer
 62
    7
370
   -1
100
AcDbLine
 10
62.41645070105766
 20
69.20925291788869
 11
61.63065517044476
 21
68.72291950941482
  0
LINE
  5
3AE
100
AcDbEntity
  8
0
  6
ByLayer
 62
    7
370
   -1
100
AcDbLine
 10
61.63065517044476
 20
68.72291950941482
 11
60.77567058863736
 21
68.25852236417707
  0
LINE
  5
3AF
100
AcDbEntity
  8
0
  6
ByLayer
 62
    7
370
   -1
100
AcDbLine
 10
60.77567058863736
 20
68.25852236417707
 11
59.83877948670249
 21
67.81890275649603
  0
LINE
  5
3B0
100
AcDbEntity
  8
0
  6
ByLayer
 62
    7
370
   -1
100
AcDbLine
 10
59.83877948670249
 20
67.81890275649603
 11
58.80726465310475
 21
67.4069019331221
  0
LINE
  5
3B1
100
AcDbEntity
  8
0
  6
ByLayer
 62
    7
370
   -1
100
AcDbLine
 10
58.80726465310475
 20
67.4069019331221
 11
57.68126351344716
 21
67.02398426530793
  0
LINE
  5
3B2
100
AcDbEntity
  8
0
  6
ByLayer
 62
    7
370
   -1
100
AcDbLine
 10
57.68126351344716
 20
67.02398426530793
 11
56.50820530142661
 21
66.66654864240198
  0
LINE
  5
3B3
100
AcDbEntity
  8
0
  6
ByLayer
 62
    7
370
   -1
100
AcDbLine
 10
56.50820530142661
 20
66.66654864240198
 11
55.3463920974346
 21
66.32982935019028
  0
LINE
  5
3B4
100
AcDbEntity
  8
0
  6
ByLayer
 62
    7
370
   -1
100
AcDbLine
 10
55.3463920974346
 20
66.32982935019028
 11
54.25412598186274
 21
66.00906067445894
  0
LINE
  5
3B5
100
AcDbEntity
  8
0
  6
ByLayer
 62
    7
370
   -1
100
AcDbLine
 10
54.25412598186274
 20
66.00906067445894
 11
53.2897090351025
 21
65.69947690099393
  0
LINE
  5
3B6
100
AcDbEntity
  8
0
  6
ByLayer
 62
    7
370
   -1
100
AcDbLine
 10
53.2897090351025
 20
65.69947690099393
 11
52.5114433375455
 21
65.39631231558134
  0
LINE
  5
3B7
100
AcDbEntity
  8
0
  6
ByLayer
 62
    7
370
   -1
100
AcDbLine
 10
52.5114433375455
 20
65.39631231558134
 11
51.97763096958327
 21
65.09480120400724
  0
LINE
  5
3B8
100
AcDbEntity
  8
0
  6
ByLayer
 62
    7
370
   -1
100
AcDbLine
 10
51.97763096958327
 20
65.09480120400724
 11
51.74657401160734
 21
64.79017785205764
  0
LINE
  5
3B9
100
AcDbEntity
  8
0
  6
ByLayer
 62
    7
370
   -1
100
AcDbLine
 10
51.74657401160734
 20
64.79017785205764
 11
51.87078978204891
 21
64.47802132438041
  0
LINE
  5
3BA
100
AcDbEntity
  8
0
  6
ByLayer
 62
    7
370
   -1
100
AcDbLine
 10
51.87078978204891
 20
64.47802132438041
 11
52.33222203515847
 21
64.15811695604546
  0
LINE
  5
3BB
100
AcDbEntity
  8
0
  6
ByLayer
 62
    7
370
   -1
100
AcDbLine
 10
52.33222203515847
 20
64.15811695604546
 11
53.06565259408269
 21
63.83306099068525
  0
LINE
  5
3BC
100
AcDbEntity
  8
0
  6
ByLayer
 62
    7
370
   -1
100
AcDbLine
 10
53.06565259408269
 20
63.83306099068525
 11
54.00500063382445
 21
63.50550108681276
  0
LINE
  5
3BD
100
AcDbEntity
  8
0
  6
ByLayer
 62
    7
370
   -1
100
AcDbLine
 10
54.00500063382445
 20
63.50550108681276
 11
55.0841853293866
 21
63.17808490294107
  0
LINE
  5
3BE
100
AcDbEntity
  8
0
  6
ByLayer
 62
    7
370
   -1
100
AcDbLine
 10
55.0841853293866
 20
63.17808490294107
 11
56.23712585577195
 21
62.85346009758316
  0
LINE
  5
3BF
100
AcDbEntity
  8
0
  6
ByLayer
 62
    7
370
   -1
100
AcDbLine
 10
56.23712585577195
 20
62.85346009758316
 11
57.39774162505191
 21
62.5342743204457
  0
LINE
  5
3C0
100
AcDbEntity
  8
0
  6
ByLayer
 62
    7
370
   -1
100
AcDbLine
 10
57.39774162505191
 20
62.5342743204457
 11
58.51266805192413
 21
62.22270286119794
  0
LINE
  5
3C1
100
AcDbEntity
  8
0
  6
ByLayer
 62
    7
370
   -1
100
AcDbLine
 10
58.51266805192413
 20
62.22270286119794
 11
59.57541685557297
 21
61.91917970026344
  0
LINE
  5
3C2
100
AcDbEntity
  8
0
  6
ByLayer
 62
    7
370
   -1
100
AcDbLine
 10
59.57541685557297
 20
61.91917970026344
 11
60.59029893461481
 21
61.62373766206174
  0
LINE
  5
3C3
100
AcDbEntity
  8
0
  6
ByLayer
 62
    7
370
   -1
100
AcDbLine
 10
60.59029893461481
 20
61.62373766206174
 11
61.56162518766608
 21
61.33640957101244
  0
LINE
  5
3C4
100
AcDbEntity
  8
0
  6
ByLayer
 62
    7
370
   -1
100
AcDbLine
 10
61.56162518766608
 20
61.33640957101244
 11
62.49370651334308
 21
61.05722825153509
  0
LINE
  5
3C5
100
AcDbEntity
  8
0
  6
ByLayer
 62
    7
370
   -1
100
AcDbLine
 10
62.49370651334308
 20
61.05722825153509
 11
63.39085381026224
 21
60.78622652804923
  0
LINE
  5
3C6
100
AcDbEntity
  8
0
  6
ByLayer
 62
    7
370
   -1
100
AcDbLine
 10
63.39085381026224
 20
60.78622652804923
 11
64.25737797703989
 21
60.52343722497447
  0
LINE
  5
3C7
100
AcDbEntity
  8
0
  6
ByLayer
 62
    7
370
   -1
100
AcDbLine
 10
64.25737797703989
 20
60.52343722497447
 11
65.09758991229245
 21
60.26889316673032
  0
LINE
  5
3C8
100
AcDbEntity
  8
0
  6
ByLayer
 62
    7
370
   -1
100
AcDbLine
 10
65.09758991229245
 20
60.26889316673032
 11
65.91580051463626
 21
60.02262717773637
  0
LINE
  5
3C9
100
AcDbEntity
  8
0
  6
ByLayer
 62
    7
370
   -1
100
AcDbLine
 10
65.91580051463626
 20
60.02262717773637
 11
66.71632068268771
 21
59.78467208241219
  0
LINE
  5
3CA
100
AcDbEntity
  8
0
  6
ByLayer
 62
    7
370
   -1
100
AcDbLine
 10
66.71632068268771
 20
59.78467208241219
 11
67.50346131506315
 21
59.55506070517732
  0
LINE
  5
3CB
100
AcDbEntity
  8
0
  6
ByLayer
 62
    7
370
   -1
100
AcDbLine
 10
67.50346131506315
 20
59.55506070517732
 11
68.28153331037898
 21
59.33382587045134
  0
LINE
  5
3CC
100
AcDbEntity
  8
0
  6
ByLayer
 62
    7
370
   -1
100
AcDbLine
 10
68.28153331037898
 20
59.33382587045134
 11
69.05484756725157
 21
59.1210004026538
  0
LINE
  5
3CD
100
AcDbEntity
  8
0
  6
ByLayer
 62
    7
370
   -1
100
AcDbLine
 10
69.05484756725157
 20
59.1210004026538
 11
69.82771498429727
 21
58.91661712620426
  0
LINE
  5
3CE
100
AcDbEntity
  8
0
  6
ByLayer
 62
    7
370
   -1
100
AcDbLine
 10
69.82771498429727
 20
58.91661712620426
 11
70.60444646013249
 21
58.72070886552229
  0
LINE
  5
3CF
100
AcDbEntity
  8
0
  6
ByLayer
 62
    7
370
   -1
100
AcDbLine
 10
70.60444646013249
 20
58.72070886552229
 11
71.38935289337358
 21
58.53330844502747
  0
LINE
  5
3D0
100
AcDbEntity
  8
0
  6
ByLayer
 62
    7
370
   -1
100
AcDbLine
 10
71.38935289337358
 20
58.53330844502747
 11
72.18659943679363
 21
58.35443611046785
  0
LINE
  5
3D1
100
AcDbEntity
  8
0
  6
ByLayer
 62
    7
370
   -1
100
AcDbLine
 10
72.18659943679363
 20
58.35443611046785
 11
72.99778413853879
 21
58.18389055228025
  0
LINE
  5
3D2
100
AcDbEntity
  8
0
  6
ByLayer
 62
    7
370
   -1
100
AcDbLine
 10
72.99778413853879
 20
58.18389055228025
 11
73.82231055989887
 21
58.02128106456213
  0
LINE
  5
3D3
100
AcDbEntity
  8
0
  6
ByLayer
 62
    7
370
   -1
100
AcDbLine
 10
73.82231055989887
 20
58.02128106456213
 11
74.65951161493957
 21
57.86621084416529
  0
LINE
  5
3D4
100
AcDbEntity
  8
0
  6
ByLayer
 62
    7
370
   -1
100
AcDbLine
 10
74.65951161493957
 20
57.86621084416529
 11
75.50872021772669
 21
57.71828308794154
  0
LINE
  5
3D5
100
AcDbEntity
  8
0
  6
ByLayer
 62
    7
370
   -1
100
AcDbLine
 10
75.50872021772669
 20
57.71828308794154
 11
76.36926928232589
 21
57.57710099274264
  0
LINE
  5
3D6
100
AcDbEntity
  8
0
  6
ByLayer
 62
    7
370
   -1
100
AcDbLine
 10
76.36926928232589
 20
57.57710099274264
 11
77.24049172280296
 21
57.4422677554204
  0
LINE
  5
3D7
100
AcDbEntity
  8
0
  6
ByLayer
 62
    7
370
   -1
100
AcDbLine
 10
77.24049172280296
 20
57.4422677554204
 11
78.12172045322357
 21
57.31338657282657
  0
LINE
  5
3D8
100
AcDbEntity
  8
0
  6
ByLayer
 62
    7
370
   -1
100
AcDbLine
 10
78.12172045322357
 20
57.31338657282657
 11
79.01228838765353
 21
57.19006064181299
  0
LINE
  5
3D9
100
AcDbEntity
  8
0
  6
ByLayer
 62
    7
370
   -1
100
AcDbLine
 10
79.01228838765353
 20
57.19006064181299
 11
79.91152844015856
 21
57.07189315923142
  0
LINE
  5
3DA
100
AcDbEntity
  8
0
  6
ByLayer
 62
    7
370
   -1
100
AcDbLine
 10
79.91152844015856
 20
57.07189315923142
 11
80.81877352480434
 21
56.95848732193362
  0
LINE
  5
3DB
100
AcDbEntity
  8
0
  6
ByLayer
 62
    7
370
   -1
100
AcDbLine
 10
80.81877352480434
 20
56.95848732193362
 11
81.73335655565667
 21
56.84944632677144
  0
LINE
  5
3DC
100
AcDbEntity
  8
0
  6
ByLayer
 62
    7
370
   -1
100
AcDbLine
 10
81.73335655565667
 20
56.84944632677144
 11
82.65461044678123
 21
56.74437337059662
  0
LINE
  5
3DD
100
AcDbEntity
  8
0
  6
ByLayer
 62
    7
370
   -1
100
AcDbLine
 10
82.65461044678123
 20
56.74437337059662
 11
83.5818681122438
 21
56.64287165026096
  0
LINE
  5
3DE
100
AcDbEntity
  8
0
  6
ByLayer
 62
    7
370
   -1
100
AcDbLine
 10
83.5818681122438
 20
56.64287165026096
 11
84.51446246611007
 21
56.54454436261625
  0
LINE
  5
3DF
100
AcDbEntity
  8
0
  6
ByLayer
 62
    7
370
   -1
100
AcDbLine
 10
84.51446246611007
 20
56.54454436261625
 11
85.45172642244583
 21
56.44899470451428
  0
LINE
  5
3E0
100
AcDbEntity
  8
0
  6
ByLayer
 62
    7
370
   -1
100
AcDbLine
 10
85.45172642244583
 20
56.44899470451428
 11
86.39299289531675
 21
56.35582587280683
  0
LINE
  5
3E1
100
AcDbEntity
  8
0
  6
ByLayer
 62
    7
370
   -1
100
AcDbLine
 10
86.39299289531675
 20
56.35582587280683
 11
87.33759479878864
 21
56.26464106434568
  0
LINE
  5
3E2
100
AcDbEntity
  8
0
  6
ByLayer
 62
    7
370
   -1
100
AcDbLine
 10
87.33759479878864
 20
56.26464106434568
 11
88.28486504692715
 21
56.17504347598265
  0
LINE
  5
3E3
100
AcDbEntity
  8
0
  6
ByLayer
 62
    7
370
   -1
100
AcDbLine
 10
88.28486504692715
 20
56.17504347598265
 11
89.23413655379809
 21
56.08663630456949
  0
LINE
  5
3E4
100
AcDbEntity
  8
0
  6
ByLayer
 62
    7
370
   -1
100
AcDbLine
 10
89.23413655379809
 20
56.08663630456949
 11
90.18474223346715
 21
55.99902274695801
  0
LINE
  5
3E5
100
AcDbEntity
  8
0
  6
ByLayer
 62
    7
370
   -1
100
AcDbLine
 10
90.18474223346715
 20
55.99902274695801
 11
91.136015
 21
55.911806
  0
LINE
  5
3E6
100
AcDbEntity
  8
0
  6
ByLayer
 62
    7
370
   -1
100
AcDbLine
 10
91.136015
 20
55.911806
 11
90.218368
 21
45.803222
  0
LINE
  5
3E7
100
AcDbEntity
  8
0
  6
ByLayer
 62
    7
370
   -1
100
AcDbLine
 10
90.218368
 20
45.803222
 11
103.559547
 21
45.803222
  0
LINE
  5
3E8
100
AcDbEntity
  8
0
  6
ByLayer
 62
    7
370
   -1
100
AcDbLine
 10
103.559547
 20
45.803222
 11
102.387781
 21
56.417837
  0
LINE
  5
3E9
100
AcDbEntity
  8
0
  6
ByLayer
 62
    7
370
   -1
100
AcDbLine
 10
102.387781
 20
56.417837
 11
103.2390000877362
 21
56.51187382763508
  0
LINE
  5
3EA
100
AcDbEntity
  8
0
  6
ByLayer
 62
    7
370
   -1
100
AcDbLine
 10
103.2390000877362
 20
56.51187382763508
 11
104.0902362798114
 21
56.60598564901684
  0
LINE
  5
3EB
100
AcDbEntity
  8
0
  6
ByLayer
 62
    7
370
   -1
100
AcDbLine
 10
104.0902362798114
 20
56.60598564901684
 11
104.9415066636091
 21
56.70024745118457
  0
LINE
  5
3EC
100
AcDbEntity
  8
0
  6
ByLayer
 62
    7
370
   -1
100
AcDbLine
 10
104.9415066636091
 20
56.70024745118457
 11
105.7928283265129
 21
56.7947342211776
  0
LINE
  5
3ED
100
AcDbEntity
  8
0
  6
ByLayer
 62
    7
370
   -1
100
AcDbLine
 10
105.7928283265129
 20
56.7947342211776
 11
106.6442183559065
 21
56.88952094603523
  0
LINE
  5
3EE
100
AcDbEntity
  8
0
  6
ByLayer
 62
    7
370
   -1
100
AcDbLine
 10
106.6442183559065
 20
56.88952094603523
 11
107.4956938391734
 21
56.98468261279677
  0
LINE
  5
3EF
100
AcDbEntity
  8
0
  6
ByLayer
 62
    7
370
   -1
100
AcDbLine
 10
107.4956938391734
 20
56.98468261279677
 11
108.3472718636973
 21
57.08029420850159
  0
LINE
  5
3F0
100
AcDbEntity
  8
0
  6
ByLayer
 62
    7
370
   -1
100
AcDbLine
 10
108.3472718636973
 20
57.08029420850159
 11
109.1989695168617
 21
57.17643072018895
  0
LINE
  5
3F1
100
AcDbEntity
  8
0
  6
ByLayer
 62
    7
370
   -1
100
AcDbLine
 10
109.1989695168617
 20
57.17643072018895
 11
110.0508038860504
 21
57.2731671348982
  0
LINE
  5
3F2
100
AcDbEntity
  8
0
  6
ByLayer
 62
    7
370
   -1
100
AcDbLine
 10
110.0508038860504
 20
57.2731671348982
 11
110.9027920586468
 21
57.37057843966865
  0
LINE
  5
3F3
100
AcDbEntity
  8
0
  6
ByLayer
 62
    7
370
   -1
100
AcDbLine
 10
110.9027920586468
 20
57.37057843966865
 11
111.7549511220346
 21
57.4687396215396
  0
LINE
  5
3F4
100
AcDbEntity
  8
0
  6
ByLayer
 62
    7
370
   -1
100
AcDbLine
 10
111.7549511220346
 20
57.4687396215396
 11
112.6072981635974
 21
57.56772566755038
  0
LINE
  5
3F5
100
AcDbEntity
  8
0
  6
ByLayer
 62
    7
370
   -1
100
AcDbLine
 10
112.6072981635974
 20
57.56772566755038
 11
113.4598502707189
 21
57.66761156474031
  0
LINE
  5
3F6
100
AcDbEntity
  8
0
  6
ByLayer
 62
    7
370
   -1
100
AcDbLine
 10
113.4598502707189
 20
57.66761156474031
 11
114.3126242236416
 21
57.76847307779585
  0
LINE
  5
3F7
100
AcDbEntity
  8
0
  6
ByLayer
 62
    7
370
   -1
100
AcDbLine
 10
114.3126242236416
 20
57.76847307779585
 11
115.1655824330409
 21
57.87052362918725
  0
LINE
  5
3F8
100
AcDbEntity
  8
0
  6
ByLayer
 62
    7
370
   -1
100
AcDbLine
 10
115.1655824330409
 20
57.87052362918725
 11
116.0185708983437
 21
57.9742713819026
  0
LINE
  5
3F9
100
AcDbEntity
  8
0
  6
ByLayer
 62
    7
370
   -1
100
AcDbLine
 10
116.0185708983437
 20
57.9742713819026
 11
116.8714205994299
 21
58.08026252677609
  0
LINE
  5
3FA
100
AcDbEntity
  8
0
  6
ByLayer
 62
    7
370
   -1
100
AcDbLine
 10
116.8714205994299
 20
58.08026252677609
 11
117.7239625161797
 21
58.18904325464185
  0
LINE
  5
3FB
100
AcDbEntity
  8
0
  6
ByLayer
 62
    7
370
   -1
100
AcDbLine
 10
117.7239625161797
 20
58.18904325464185
 11
118.5760276284729
 21
58.30115975633399
  0
LINE
  5
3FC
100
AcDbEntity
  8
0
  6
ByLayer
 62
    7
370
   -1
100
AcDbLine
 10
118.5760276284729
 20
58.30115975633399
 11
119.4274469161898
 21
58.41715822268668
  0
LINE
  5
3FD
100
AcDbEntity
  8
0
  6
ByLayer
 62
    7
370
   -1
100
AcDbLine
 10
119.4274469161898
 20
58.41715822268668
 11
120.2780513592101
 21
58.5375848445341
  0
LINE
  5
3FE
100
AcDbEntity
  8
0
  6
ByLayer
 62
    7
370
   -1
100
AcDbLine
 10
120.2780513592101
 20
58.5375848445341
 11
121.1276719374141
 21
58.66298581271035
  0
LINE
  5
3FF
100
AcDbEntity
  8
0
  6
ByLayer
 62
    7
370
   -1
100
AcDbLine
 10
121.1276719374141
 20
58.66298581271035
 11
121.9761396306817
 21
58.79390731804959
  0
LINE
  5
400
100
AcDbEntity
  8
0
  6
ByLayer
 62
    7
370
   -1
100
AcDbLine
 10
121.9761396306817
 20
58.79390731804959
 11
122.8232854188929
 21
58.93089555138596
  0
LINE
  5
401
100
AcDbEntity
  8
0
  6
ByLayer
 62
    7
370
   -1
100
AcDbLine
 10
122.8232854188929
 20
58.93089555138596
 11
123.6689402819276
 21
59.07449670355359
  0
LINE
  5
402
100
AcDbEntity
  8
0
  6
ByLayer
 62
    7
370
   -1
100
AcDbLine
 10
123.6689402819276
 20
59.07449670355359
 11
124.5129351996662
 21
59.22525696538668
  0
LINE
  5
403
100
AcDbEntity
  8
0
  6
ByLayer
 62
    7
370
   -1
100
AcDbLine
 10
124.5129351996662
 20
59.22525696538668
 11
125.3551011519883
 21
59.38372252771931
  0
LINE
  5
404
100
AcDbEntity
  8
0
  6
ByLayer
 62
    7
370
   -1
100
AcDbLine
 10
125.3551011519883
 20
59.38372252771931
 11
126.1952691187741
 21
59.55043958138567
  0
LINE
  5
405
100
AcDbEntity
  8
0
  6
ByLayer
 62
    7
370
   -1
100
AcDbLine
 10
126.1952691187741
 20
59.55043958138567
 11
127.0332700799037
 21
59.72595431721989
  0
LINE
  5
406
100
AcDbEntity
  8
0
  6
ByLayer
 62
    7
370
   -1
100
AcDbLine
 10
127.0332700799037
 20
59.72595431721989
 11
127.868935015257
 21
59.9108129260561
  0
LINE
  5
407
100
AcDbEntity
  8
0
  6
ByLayer
 62
    7
370
   -1
100
AcDbLine
 10
127.868935015257
 20
59.9108129260561
 11
128.702094904714
 21
60.10556159872848
  0
LINE
  5
408
100
AcDbEntity
  8
0
  6
ByLayer
 62
    7
370
   -1
100
AcDbLine
 10
128.702094904714
 20
60.10556159872848
 11
129.5325807281548
 21
60.31074652607113
  0
LINE
  5
409
100
AcDbEntity
  8
0
  6
ByLayer
 62
    7
370
   -1
100
AcDbLine
 10
129.5325807281548
 20
60.31074652607113
 11
130.3602444859178
 21
60.52683895558571
  0
LINE
  5
40A
100
AcDbEntity
  8
0
  6
ByLayer
 62
    7
370
   -1
100
AcDbLine
 10
130.3602444859178
 20
60.52683895558571
 11
131.1851542898636
 21
60.75353964169908
  0
LINE
  5
40B
100
AcDbEntity
  8
0
  6
ByLayer
 62
    7
370
   -1
100
AcDbLine
 10
131.1851542898636
 20
60.75353964169908
 11
132.0075053396867
 21
60.9900962380737
  0
LINE
  5
40C
100
AcDbEntity
  8
0
  6
ByLayer
 62
    7
370
   -1
100
AcDbLine
 10
132.0075053396867
 20
60.9900962380737
 11
132.8274944619916
 21
61.23575059802018
  0
LINE
  5
40D
100
AcDbEntity
  8
0
  6
ByLayer
 62
    7
370
   -1
100
AcDbLine
 10
132.8274944619916
 20
61.23575059802018
 11
133.6453184833824
 21
61.48974457484904
  0
LINE
  5
40E
100
AcDbEntity
  8
0
  6
ByLayer
 62
    7
370
   -1
100
AcDbLine
 10
133.6453184833824
 20
61.48974457484904
 11
134.4611742304639
 21
61.75132002187092
  0
LINE
  5
40F
100
AcDbEntity
  8
0
  6
ByLayer
 62
    7
370
   -1
100
AcDbLine
 10
134.4611742304639
 20
61.75132002187092
 11
135.2752585298402
 21
62.01971879239642
  0
LINE
  5
410
100
AcDbEntity
  8
0
  6
ByLayer
 62
    7
370
   -1
100
AcDbLine
 10
135.2752585298402
 20
62.01971879239642
 11
136.087768208116
 21
62.29418273973607
  0
LINE
  5
411
100
AcDbEntity
  8
0
  6
ByLayer
 62
    7
370
   -1
100
AcDbLine
 10
136.087768208116
 20
62.29418273973607
 11
136.8989000918955
 21
62.57395371720049
  0
LINE
  5
412
100
AcDbEntity
  8
0
  6
ByLayer
 62
    7
370
   -1
100
AcDbLine
 10
136.8989000918955
 20
62.57395371720049
 11
137.7088510077833
 21
62.85827357810027
  0
LINE
  5
413
100
AcDbEntity
  8
0
  6
ByLayer
 62
    7
370
   -1
100
AcDbLine
 10
137.7088510077833
 20
62.85827357810027
 11
138.5178177823837
 21
63.14638417574598
  0
LINE
  5
414
100
AcDbEntity
  8
0
  6
ByLayer
 62
    7
370
   -1
100
AcDbLine
 10
138.5178177823837
 20
63.14638417574598
 11
139.3259972423011
 21
63.43752736344824
  0
LINE
  5
415
100
AcDbEntity
  8
0
  6
ByLayer
 62
    7
370
   -1
100
AcDbLine
 10
139.3259972423011
 20
63.43752736344824
 11
140.1335862141401
 21
63.7309449945176
  0
LINE
  5
416
100
AcDbEntity
  8
0
  6
ByLayer
 62
    7
370
   -1
100
AcDbLine
 10
140.1335862141401
 20
63.7309449945176
 11
140.9407815245049
 21
64.02587892226467
  0
LINE
  5
417
100
AcDbEntity
  8
0
  6
ByLayer
 62
    7
370
   -1
100
AcDbLine
 10
140.9407815245049
 20
64.02587892226467
 11
141.74778
 21
64.32157100000001
  0
LINE
  5
418
100
AcDbEntity
  8
0
  6
ByLayer
 62
    7
370
   -1
100
AcDbLine
 10
141.74778
 20
64.32157100000001
 11
141.74778
 21
64.32157100000001
  0
ENDSEC
  0
SECTION
  2
OBJECTS
  0
DICTIONARY
  5
C
330
0
100
AcDbDictionary
281
    1
  3
ACAD_GROUP
350
D
  0
DICTIONARY
  5
D
330
C
100
AcDbDictionary
281
    1
  0
ENDSEC
  0
EOF
